<svg version="1.1" xmlns="http://www.w3.org/2000/svg" xmlns:xlink="http://www.w3.org/1999/xlink" width="200.62402" height="70.56975" viewBox="0,0,200.62402,70.56975"><g transform="translate(-141.80731,-162.27806)"><g data-paper-data="{&quot;isPaintingLayer&quot;:true}" fill-rule="nonzero" stroke-linecap="butt" stroke-linejoin="miter" stroke-miterlimit="10" stroke-dasharray="" stroke-dashoffset="0" style="mix-blend-mode: normal"><g fill="#361515" stroke="none" stroke-width="0"><path d="M171.51781,199.69449c0.16148,10.25543 21.21127,15.91685 -4.02774,19.49025c-18.33538,2.59598 -16.78161,-9.03086 -16.9431,-19.2863c-0.16148,-10.25543 4.40209,-18.61475 10.19302,-18.67108c5.79095,-0.05632 10.61633,8.21169 10.77781,18.46711z"/><path d="M327.70515,182.02112c5.79095,-0.05632 10.61633,8.21169 10.77781,18.46711c0.16148,10.25543 2.08087,21.84849 -16.33063,19.60991c-25.34381,-3.08145 -4.47872,-9.15052 -4.64021,-19.40595c-0.16148,-10.25543 4.40209,-18.61475 10.19302,-18.67108z" data-paper-data="{&quot;index&quot;:null}"/><path d="M188.48826,211.83747c0.16148,10.25543 21.21127,15.91685 -4.02774,19.49025c-18.33538,2.59598 -16.78161,-9.03086 -16.9431,-19.2863c-0.16148,-10.25543 4.40209,-18.61475 10.19302,-18.67108c5.79095,-0.05632 10.61633,8.21169 10.77781,18.46711z"/><path d="M311.12226,194.49043c5.79095,-0.05632 10.61633,8.21169 10.77781,18.46711c0.16148,10.25543 2.08087,21.84849 -16.33063,19.60991c-25.34381,-3.08145 -4.47872,-9.15052 -4.64021,-19.40595c-0.16148,-10.25543 4.40209,-18.61475 10.19302,-18.67108z" data-paper-data="{&quot;index&quot;:null}"/><path d="M342.40197,190.70159c-1.27908,19.9734 -44.22707,26.77935 -96.81238,24.69932c-52.5853,-2.08003 -94.89493,-12.25838 -93.61585,-32.23178c1.27908,-19.9734 45.87081,-11.19051 98.45611,-9.11048c52.5853,2.08003 93.25119,-3.33047 91.97212,16.64295z" data-paper-data="{&quot;index&quot;:null}"/><path d="M329.5485,190.98759c-1.10625,17.27443 -38.25075,23.16071 -83.73031,21.36175c-45.47955,-1.79896 -82.07197,-10.60193 -80.96572,-27.87637c1.10625,-17.27443 39.67236,-9.67836 85.15193,-7.87939c45.47955,1.79896 80.65035,-2.88042 79.5441,14.39402z" data-paper-data="{&quot;index&quot;:null}"/></g><path d="M163.82365,192.52953c0,10.25622 20.95905,16.12191 -4.33431,19.4496c-18.37485,2.41746 -16.63814,-9.19338 -16.63814,-19.4496c0,-10.25622 4.69484,-18.57052 10.48622,-18.57052c5.79138,0 10.48622,8.3143 10.48622,18.57052z" fill="#8f1a1a" stroke="#000000" stroke-width="2"/><path d="M320.27731,176.81924c5.79138,0 10.48622,8.3143 10.48622,18.57052c0,10.25622 1.73671,21.86706 -16.63814,19.4496c-25.29335,-3.32769 -4.33431,-9.19338 -4.33431,-19.4496c0,-10.25622 4.69484,-18.57052 10.48622,-18.57052z" data-paper-data="{&quot;index&quot;:null}" fill="#8f1a1a" stroke="#000000" stroke-width="2"/><path d="M180.60161,205.27938c0,10.25622 20.95905,16.12191 -4.33431,19.4496c-18.37485,2.41746 -16.63814,-9.19338 -16.63814,-19.4496c0,-10.25622 4.69484,-18.57052 10.48622,-18.57052c5.79138,0 10.48622,8.3143 10.48622,18.57052z" fill="#8f1a1a" stroke="#000000" stroke-width="2"/><path d="M303.49935,189.12633c5.79138,0 10.48622,8.3143 10.48622,18.57052c0,10.25622 1.73671,21.86706 -16.63814,19.4496c-25.29335,-3.32769 -4.33431,-9.19338 -4.33431,-19.4496c0,-10.25622 4.69484,-18.57052 10.48622,-18.57052z" data-paper-data="{&quot;index&quot;:null}" fill="#8f1a1a" stroke="#000000" stroke-width="2"/><path d="M334.83634,185.19921c-1.59347,19.95943 -44.64533,26.34717 -97.19385,23.7559c-52.54853,-2.59128 -94.69465,-13.18032 -93.1012,-33.13976c1.59347,-19.95943 46.04349,-10.74354 98.59202,-8.15227c52.54853,2.59128 93.29649,-2.42331 91.70303,17.53613z" data-paper-data="{&quot;index&quot;:null}" fill="#542222" stroke="#000000" stroke-width="2"/><path d="M321.97934,185.36019c-1.37814,17.26235 -38.61249,22.78694 -84.06024,20.54581c-45.44775,-2.24113 -81.89875,-11.39929 -80.52061,-28.66165c1.37814,-17.26235 39.82172,-9.29179 85.26947,-7.05067c45.44775,2.24113 80.68952,-2.09585 79.31138,15.1665z" data-paper-data="{&quot;index&quot;:null}" fill="#d1b0b0" stroke="#000000" stroke-width="2"/></g></g></svg>