<svg version="1.1" xmlns="http://www.w3.org/2000/svg" xmlns:xlink="http://www.w3.org/1999/xlink" width="573.53523" height="408.28343" viewBox="0,0,573.53523,408.28343"><g transform="translate(29.86936,10)"><g data-paper-data="{&quot;isPaintingLayer&quot;:true}" fill-rule="nonzero" stroke="none" stroke-linecap="butt" stroke-linejoin="miter" stroke-miterlimit="10" stroke-dasharray="" stroke-dashoffset="0" style="mix-blend-mode: normal"><path d="M-19.5,381v-391h509v391z" fill="#ffdbdb" stroke-width="0"/><path d="M375.05136,313.85091c-2.42536,0.60634 -3.0317,-1.81902 -3.0317,-1.81902l-0.74253,-3.34414c-1.03535,-1.10568 -3.00899,-0.64941 -4.32128,-1.40595c-2.35225,-1.35607 -3.45983,-4.77517 -6.10352,-5.394c-3.06304,-0.717 -6.30113,0.22195 -9.43749,-0.02207c-8.30801,-0.64641 -16.31206,-2.83594 -24.67999,-2.82711c-10.9102,-0.65688 -21.83114,-1.54256 -32.75177,-1.98487c-9.21596,-0.37326 -18.47387,0.29711 -27.69037,-0.06808c-0.41841,-0.01658 -0.83676,-0.03413 -1.25505,-0.05258c-2.32638,2.62188 -4.66416,5.23347 -7.03311,7.81784c-3.14428,3.43019 -6.19392,7.68425 -10.12357,10.28073l-3.7857,3.24488c-0.43866,0.38059 -1.01121,0.61093 -1.63756,0.61093c-1.38071,0 -2.5,-1.11929 -2.5,-2.5v-2.97716h0.20438l-0.13721,-0.57564c2.1501,-4.44766 4.35168,-8.81889 6.75069,-13.13823c0.69719,-1.25256 1.33421,-2.52129 1.9349,-3.8008c-7.03183,-0.52147 -14.06428,-1.05908 -21.11941,-1.30236c-16.24065,-0.56002 -32.77694,-0.7747 -48.93941,-2.51749c-9.42044,-1.0158 -18.80127,-3.47239 -28.15224,-5.01627c-8.39348,-1.38579 -16.90959,-1.92362 -24.92183,-4.8534c-5.12455,-1.88799 -10.23583,-3.8363 -15.35584,-5.76129c-3.14643,4.465 -6.40179,8.8174 -9.76096,13.1788c-3.90478,5.06979 -7.65937,11.62543 -12.58685,15.75623l-3.31351,3.7277c-0.45813,0.52022 -1.12915,0.84844 -1.87683,0.84844c-1.38071,0 -2.5,-1.11929 -2.5,-2.5c0,-0.18553 0.02021,-0.36634 0.05855,-0.54035l0.66052,-3.30639c0.95857,-4.78838 1.81047,-10.67286 3.92005,-15.11086c0.71831,-1.51114 2.15899,-2.59699 2.89959,-4.09734c1.42156,-2.87985 1.78402,-6.17129 2.75862,-9.23145c0.54932,-1.72483 1.08113,-3.49772 1.62913,-5.27586c-15.50709,-5.28509 -31.22423,-10.23743 -46.29102,-16.74909c-6.17614,-2.66925 -12.17752,-5.89472 -18.23071,-8.83348c-4.18187,-2.68316 -9.28239,-5.18684 -13.05042,-8.41872c-2.3845,-2.04521 -4.07011,-4.787 -6.05226,-7.22417c-1.21522,-1.49418 -2.88941,-2.72883 -3.60097,-4.51853c-0.18937,-0.4763 -0.74067,-9.84274 -0.79726,-10.74775c-0.13365,-2.13739 -0.67022,-8.73424 -0.25024,-10.72267c0.31689,-1.50035 1.32433,-2.7663 2.00291,-4.14144c2.2619,-4.58377 4.89952,-8.83262 7.5888,-13.17447c2.40327,-3.8801 6.34546,-9.40833 10.82897,-11.24708c1.49527,-0.61323 3.22991,-0.13434 4.84591,-0.15527c4.91906,-0.0637 9.85234,0.07126 14.77151,0.11284c28.8712,4.36176 57.2613,11.41373 85.68937,18.12444c0.1696,-0.32945 0.33897,-0.65908 0.50807,-0.98891c6.50038,-12.67851 12.55939,-25.6611 18.59929,-38.56488c7.53173,-16.09052 15.18517,-32.18081 22.20741,-48.52561c-8.7687,-2.54735 -17.43988,-5.56514 -26.14322,-8.30485c-17.47743,-5.50167 -35.29868,-11.01937 -52.14453,-18.28871c-5.75925,-2.48524 -11.2944,-5.79677 -16.87454,-8.66318c-8.92842,-4.58637 -19.03877,-8.41292 -26.46698,-15.1946c-1.52214,-1.40157 -3.04428,-2.80313 -4.56641,-4.2047c-1.30414,-0.40218 -2.45216,-1.0122 -3.04969,-2.14189c-0.22409,-0.42367 -0.40027,-0.80814 -0.5339,-1.15783c-3.41368,-3.14328 -6.82736,-6.28656 -10.24105,-9.42984c-4.08013,-3.75694 -7.48429,-6.78064 -10.4392,-11.5176c-2.83503,-4.54478 -3.6953,-4.71818 -3.74271,-10.33637c-0.01411,-1.67262 -0.39108,-3.74984 0.76414,-4.95953c1.04986,-1.09936 3.00464,-0.51953 4.52366,-0.5776c3.3309,-0.12733 6.66057,0.28496 9.99086,0.42744c6.64502,0.28429 13.59546,0.0333 20.19047,0.87259c4.95085,0.63005 9.99277,2.12512 14.87573,3.16795c16.15011,3.44909 32.42701,7.93999 48.75011,10.41586c3.30101,0.50069 6.67665,0.39041 9.97508,0.90786c11.76736,1.84606 23.51691,5.01318 35.18115,7.89367c5.01712,-0.21749 10.11151,0.01465 15.07754,0.01464c4.23036,-0.00001 8.64519,-0.3544 12.86294,0c1.92118,0.16143 4.48677,-0.73512 5.73731,0.73223c1.25681,1.47471 0.86352,3.70301 0.75148,5.74269c2.6477,0.48282 5.29049,0.98557 7.92534,1.51899c21.30707,4.31359 41.88031,11.88978 63.10674,16.42914c9.58724,2.05441 19.34236,3.78834 28.95732,5.92417c3.34209,-3.437 6.88397,-6.7356 10.22686,-10.11011c1.99568,-2.01456 6.41668,-7.14423 9.71746,-5.70133c1.47947,0.64673 2.62725,9.8935 2.91336,11.77181c0.5664,3.71851 0.81352,7.33347 0.89192,10.95324c1.53178,0.5435 3.06134,1.08012 4.59018,1.58981c14.23114,4.74441 28.4579,9.50167 42.68259,14.26539c11.25553,3.76937 22.71565,7.57055 33.92286,11.93167c2.03148,-2.4275 4.06418,-4.90951 5.87581,-7.45736c0.39181,-0.55103 5.42989,-8.21016 5.70834,-8.51898c0.16017,-0.17764 7.61647,-6.33777 7.96667,-6.6276c1.99412,-1.61044 3.47519,-3.81663 4.78281,-6.0212l0.201,-0.14087l-0.0497,-0.04466l2.38185,-2.65077c0.45788,-0.5139 1.12474,-0.83754 1.86718,-0.83754c1.25484,0 2.29374,0.92451 2.47274,2.12954l0.81524,4.89143c1.39925,4.90416 0.93669,10.27048 1.01871,15.30088c0.10263,6.29411 0.17353,12.58412 0.17808,18.87911c0.00169,2.34137 0.00299,4.68273 0.00396,7.0241c4.76993,2.96582 9.4466,6.0851 14.49225,8.60486c0,0 2.23607,1.11803 1.11803,3.3541c-1.11803,2.23607 -3.3541,1.11803 -3.3541,1.11803c-4.25266,-2.12881 -8.24696,-4.67435 -12.25439,-7.19675c0.00316,15.69924 -0.00575,31.39851 -0.00575,47.09774c0,14.54558 -1.53439,29.06186 -2.62465,43.56357c-0.91932,12.22806 0.08972,24.71621 -2.38302,36.83887c-1.32496,6.49562 -3.69281,12.96199 -5.5177,19.33781c-2.71285,13.9346 -7.93831,28.16435 -4.37915,42.40099l0.01873,4.275c0,0 0,2.5 -2.5,2.5c-2.5,0 -2.5,-2.5 -2.5,-2.5l0.01873,-3.66408c-3.70431,-14.81722 1.64316,-29.67935 4.47972,-44.17866c1.7987,-6.30616 4.15477,-12.7018 5.47115,-19.12315c2.44311,-11.91767 1.40576,-24.23518 2.30554,-36.26073c1.07576,-14.3775 2.61065,-28.76911 2.61065,-43.18962c0,-16.7119 0.10163,-33.42867 0.0771,-50.14286c-1.44305,-0.86311 -2.90172,-1.70067 -4.38819,-2.49298c-7.21623,-3.84637 -14.73225,-7.21982 -22.39321,-10.29807c-4.54878,5.35673 -9.66156,10.17642 -13.4064,16.18937c-7.88265,12.65686 -12.82836,27.04347 -19.84886,40.17363c-3.0745,5.75012 -6.30058,11.44924 -9.64984,17.08816c3.1728,2.25155 6.49721,4.45192 9.2971,7.03391c3.64979,3.36576 6.75433,7.58052 10.23115,11.14916c2.65418,2.72427 8.79293,7.55411 7.36447,12.16629c-0.57199,1.84684 -2.38124,3.08635 -3.86866,4.32149c-4.73335,3.93054 -11.6186,6.98819 -17.38781,8.91957c-5.13964,1.72062 -9.58789,3.21739 -14.99643,3.78736c-4.98495,0.51095 -10.06229,1.32125 -15.06752,1.54012c-2.93243,0.12823 -5.88195,0.15579 -8.8388,0.12704c-5.08621,6.46697 -10.31333,12.83543 -15.36465,19.28266c-5.13767,6.55744 -9.99223,13.56134 -15.51509,19.79521c-7.42912,8.38555 -15.97182,15.74798 -23.40729,24.15913c-0.67112,0.75918 -1.3417,1.51879 -2.01221,2.27841c8.2617,0.15602 16.54979,-0.34702 24.8046,-0.01545c10.91821,0.43855 21.83866,1.31906 32.74569,1.98468c8.45583,0.00856 16.52615,2.18707 24.91654,2.83989c1.33905,0.10419 9.6246,-0.01989 10.56078,0.24083c2.8418,0.79143 4.22635,4.21878 6.79407,5.67102c0.9977,0.56428 2.39854,-0.10303 3.41117,0.43401c1.26133,0.66893 2.03962,1.9984 3.05943,2.9976l1.24224,4.59495c0,0 0.60634,2.42536 -1.81902,3.0317zM144.74976,195.73192c7.2714,1.6591 14.54911,3.40073 21.83785,5.1172c4.65216,-5.18281 9.31558,-10.36071 13.95599,-15.57612c9.99736,-11.23614 19.46476,-22.49546 30.39623,-32.8516c2.38118,-2.25585 4.91491,-4.36042 7.14705,-6.76385c3.09537,-3.33291 5.50669,-7.3201 8.65535,-10.60362c3.06366,-3.19488 6.33257,-6.1919 9.65482,-9.1375c-14.58017,-5.87603 -29.36988,-11.882 -44.2912,-16.5321c-5.33776,-1.66347 -10.92483,-2.57851 -16.36248,-3.9311c-7.11812,16.61272 -14.89021,32.96218 -22.54288,49.31107c-6.04777,12.91987 -12.11567,25.91703 -18.62075,38.61366c3.38875,0.79374 6.77847,1.5801 10.17004,2.35395zM203.1986,208.73296c14.37387,2.60983 29.10784,3.94474 43.58637,5.90793c4.97601,0.67471 10.01614,1.18744 14.9659,2.03142c5.98441,1.0204 11.88515,3.26311 17.90922,3.96522c0.47111,0.05491 0.94419,0.10418 1.41901,0.14831c1.62757,-4.79048 2.96961,-9.73509 4.51774,-14.51031c4.61035,-14.1944 11.10487,-27.80977 15.17568,-42.23422c1.26954,-4.49845 2.26983,-9.10908 3.22761,-13.72491c-4.36519,-1.92217 -8.7623,-3.90427 -13.23183,-5.34658c-3.15208,-1.01717 -6.48793,-1.37036 -9.66491,-2.30685c-12.80705,-3.77518 -25.3454,-8.99733 -37.73084,-13.94472c-0.59947,-0.23946 -1.19933,-0.47955 -1.79955,-0.72016c-3.84529,3.38114 -7.65181,6.79944 -11.18659,10.47929c-3.1425,3.27146 -5.54773,7.25766 -8.63585,10.58275c-0.072,0.07752 -7.22159,6.84855 -7.372,6.99104c-10.8274,10.25753 -20.19634,21.41516 -30.09951,32.54545c-4.03662,4.53681 -8.09076,9.04502 -12.1397,13.55277c10.32407,2.40142 20.67268,4.6977 31.05927,6.58357zM304.40481,220.98958c6.23155,0.09189 12.53824,0.41589 18.82265,0.535c3.26001,-4.18604 6.44655,-8.42138 9.47291,-12.75443c6.80003,-9.73607 13.38554,-19.73655 19.58088,-29.94557c-4.44634,-3.44217 -8.78788,-7.04005 -13.10861,-10.63472c-2.46968,-2.05476 -4.65099,-4.50899 -7.39215,-6.18452c-2.74116,-1.67553 -5.92006,-2.4977 -8.87493,-3.7587c-4.58921,-1.95846 -9.20201,-3.8522 -13.81769,-5.74727c-0.13481,-0.05535 -0.26964,-0.11098 -0.40448,-0.16688c-0.91963,4.39558 -1.88928,8.78089 -3.09884,13.06683c-4.08832,14.4865 -10.61764,28.15911 -15.23144,42.41817c-1.41508,4.36484 -2.66476,8.86555 -4.10703,13.26766c6.04407,0.17004 12.23806,-0.18289 18.15872,-0.09559zM334.25548,221.43401c4.90802,-0.21461 9.88817,-1.01782 14.77612,-1.51883c5.04511,-0.50088 9.1247,-1.96397 13.92512,-3.55684c4.52204,-1.5005 7.74442,-3.40488 11.86404,-5.79622c2.10775,-1.2235 5.05909,-1.78735 6.13789,-3.9727c0.21048,-0.42637 -0.37198,-0.88483 -0.65375,-1.26784c-2.64415,-3.59412 -5.95887,-6.5082 -8.98517,-9.7591c-2.22742,-2.39273 -4.10366,-5.12138 -6.50657,-7.33781c-2.55334,-2.3552 -5.57212,-4.37854 -8.48882,-6.42536c-6.1837,10.16896 -12.74869,20.13225 -19.52554,29.83495c-2.34613,3.35905 -4.7874,6.65994 -7.28421,9.92483c1.58434,-0.01684 3.16516,-0.05617 4.74089,-0.12507zM305.63627,65.87925c2.92881,0.77825 5.83436,1.73849 8.72663,2.74734c-0.05776,-1.20538 -0.16689,-2.40104 -0.34825,-3.58079c-0.50646,-3.29463 -1.46487,-6.55289 -1.50583,-9.88597c-0.0128,-1.04207 1.48282,-2.42458 0.65461,-3.05715c-0.74896,-0.57204 -1.06383,1.5607 -1.67817,2.27537c-1.81846,2.11544 -3.90363,3.98614 -5.8625,5.97227c-1.45515,1.47539 -2.87616,2.95237 -4.26878,4.43752c1.43239,0.35053 2.86016,0.71353 4.28229,1.09141zM426.55177,109.9459c0.67964,0.36226 1.35339,0.73415 2.02243,1.11373c-0.01458,-4.29522 -0.03923,-8.59022 -0.07781,-12.88486c-0.05856,-6.51809 0.27446,-13.30431 -0.31588,-19.7933c-0.14079,-1.54751 -0.34498,-3.14734 -0.30951,-4.7111c-1.36552,2.08902 -2.94312,4.06765 -4.84003,5.66765c-2.47475,2.0481 -5.29,3.73811 -7.44112,6.12386c-2.17531,2.41258 -3.50129,5.47596 -5.38566,8.12203c-1.56302,2.19483 -3.28183,4.3436 -5.02625,6.45147c7.30568,2.97888 14.47349,6.2325 21.37384,9.9105zM364.78163,90.89955c-14.22254,-4.763 -28.44716,-9.51954 -42.67615,-14.26324c-0.99847,-0.33287 -1.99732,-0.67774 -2.99696,-1.02872c-0.0306,2.22317 -0.09658,4.4677 -0.16395,6.75808c-0.235,7.99013 -0.22111,15.99016 -1.15165,23.93196c-1.38011,11.73091 -4.10518,23.06098 -6.69368,34.57921c-0.48164,2.1432 -0.93521,4.3028 -1.38347,6.46809c0.42388,0.17868 0.84758,0.35523 1.27113,0.52913c7.544,3.09734 16.44235,5.61152 23.40127,9.86515c0.2035,0.12439 7.63387,6.31709 7.98237,6.60704c4.12285,3.43036 8.26475,6.86427 12.50065,10.15935c3.21488,-5.42668 6.31385,-10.90943 9.27097,-16.44001c7.07473,-13.23158 12.06893,-27.70229 20.01396,-40.45931c3.57489,-5.74006 8.31386,-10.43643 12.71922,-15.48147c-10.62063,-4.07458 -21.45315,-7.66183 -32.0937,-11.22526zM304.31976,70.70282c-2.26212,-0.60005 -4.53862,-1.16226 -6.82524,-1.69659c-3.91842,4.39091 -7.64134,8.90392 -11.31062,13.70221c-4.94218,6.44079 -11.29756,11.20628 -16.92717,17.00816c-4.63809,4.78002 -8.57051,10.24686 -13.22104,15.01529c-3.25833,3.34093 -6.73352,6.47284 -10.24741,9.56733c12.05837,4.82299 24.26497,9.89375 36.72885,13.56777c1.12506,0.33164 8.80692,2.02827 9.78671,2.34445c4.29752,1.38681 8.52866,3.25506 12.7289,5.10288c0.38477,-1.85233 0.77591,-3.69924 1.18819,-5.53379c2.55035,-11.34847 5.24663,-22.51034 6.60625,-34.0671c0.92071,-7.79306 0.88893,-15.65329 1.11956,-23.49475c0.08005,-2.72156 0.29844,-5.51298 0.40677,-8.30056c-3.32386,-1.17821 -6.66348,-2.32129 -10.03375,-3.21529zM265.34209,62.35438c-21.22185,-4.55621 -41.79342,-12.12461 -63.10054,-16.42782c-2.3022,-0.46495 -4.61037,-0.90666 -6.92251,-1.33231c-0.2009,5.18455 -1.08531,10.49208 -2.55399,15.31749c-4.27818,13.90408 -9.42734,27.48574 -15.04576,40.88144c5.27801,1.28179 10.67826,2.20002 15.85171,3.81064c15.85589,4.93632 31.56362,11.39298 47.03081,17.61597c4.05774,-3.55723 8.09998,-7.12937 11.85436,-10.97892c4.64713,-4.76494 8.57678,-10.22893 13.21214,-15.00614c5.48216,-5.64992 11.75567,-10.27884 16.54379,-16.56355c3.03896,-3.97402 5.91832,-8.24753 9.19899,-12.02321c-8.67506,-1.8579 -17.44063,-3.44465 -26.069,-5.29359zM168.52676,39.9777c-2.69388,-0.61183 -5.39333,-1.26122 -8.09748,-1.92768c-1.36989,0.07502 -2.73209,0.18923 -4.08161,0.35815c-3.28547,0.41123 -6.49106,1.32574 -9.76466,1.82274c-9.96103,1.51227 -19.94115,1.96969 -29.99022,2.37165c-13.09488,0.5238 -26.49096,1.41664 -39.46606,3.34704c-6.06643,0.90255 -11.94356,3.24118 -18.02775,4.01826c-0.12529,0.016 -3.37212,0.13076 -6.2422,0.22409c6.95959,6.35518 16.78035,9.92602 25.14498,14.22278c5.49075,2.8205 10.93836,6.0931 16.60626,8.5353c16.68226,7.1881 34.32531,12.64769 51.62951,18.09483c8.85836,2.7885 17.68311,5.86916 26.61267,8.4393c5.65618,-13.44671 10.83996,-27.08081 15.13598,-41.04285c1.55163,-4.98229 1.5747,-9.77847 2.00917,-14.80092c-7.15264,-1.25098 -14.32848,-2.40141 -21.46857,-3.66269zM124.96513,30.07245c-3.28774,-0.51543 -6.65252,-0.40379 -9.94278,-0.90285c-16.42308,-2.49104 -32.79603,-6.99948 -49.04456,-10.46959c-4.74602,-1.01358 -9.65014,-2.48524 -14.46267,-3.09769c-6.455,-0.82147 -13.26849,-0.55887 -19.77297,-0.83715c-3.33029,-0.14248 -6.70725,0.14616 -9.99086,-0.42744c-0.38517,-0.06728 -0.68658,-1.16238 -0.85079,-0.80753c-0.17561,0.37946 0.66204,0.58931 0.76414,0.99478c0.35026,1.39102 0.06031,2.9223 0.5607,4.26663c0.52101,1.39971 1.63014,2.50314 2.42891,3.76513c3.51853,5.55894 8.43956,9.43753 13.26995,13.8853c1.99386,1.83592 3.98772,3.67184 5.98158,5.50777c0.75914,-0.31476 1.4374,-0.70206 1.73465,-1.4099c0.26192,-0.6237 -0.12687,-1.34697 -0.1903,-2.02045c0,0 0,-2.5 2.5,-2.5c2.5,0 2.5,2.5 2.5,2.5c-0.06343,1.31129 0.2864,2.71065 -0.1903,3.93387c-0.42627,1.09379 -1.44404,1.88019 -2.36112,2.61304c-0.09139,0.07303 -0.23857,0.13314 -0.40873,0.18373c0.19256,0.17731 0.38513,0.35462 0.57769,0.53193c1.85757,-0.00676 3.76117,-0.55211 5.63153,-0.62047c7.80534,-0.28527 14.95589,-2.99976 22.63266,-4.14837c13.1681,-1.97024 26.77059,-2.87501 40.06111,-3.40664c9.86516,-0.39461 19.66063,-0.83437 29.43957,-2.319c0.16919,-0.02569 0.96182,-0.17283 2.03109,-0.37371c-7.61324,-1.87861 -15.25257,-3.64272 -22.89848,-4.8414zM304.3311,225.98904c-6.46963,-0.0954 -13.24666,0.30841 -19.82139,0.03046c-0.12428,0.32563 -0.25044,0.65019 -0.37865,0.97356c-4.15025,10.46825 -10.75453,20.10407 -14.51612,30.71086c-1.667,4.70054 -2.06202,9.90366 -3.88547,14.54764c-1.82611,4.65076 -4.96031,8.88642 -7.09565,13.40552c-0.90371,1.91255 -1.72481,3.83688 -2.53568,5.75789c2.25394,0.15195 4.50856,0.29139 6.7646,0.40811c3.46914,-3.99054 6.88916,-8.05406 10.52243,-11.8817c5.70363,-6.00874 12.13522,-11.42334 17.62769,-17.62291c5.45553,-6.15788 10.24651,-13.08547 15.32176,-19.56324c4.28071,-5.46366 8.68994,-10.86988 13.03105,-16.32844c-5.02624,-0.14617 -10.05368,-0.36431 -15.03456,-0.43776zM279.08126,225.60391c-6.12986,-0.71444 -12.11969,-2.97333 -18.20605,-4.00888c-4.88245,-0.83071 -9.85405,-1.33399 -14.76206,-1.99949c-14.54638,-1.97239 -29.34528,-3.31988 -43.7872,-5.93933c-11.37169,-2.06258 -22.69787,-4.61596 -33.99608,-7.26247c-8.00877,8.93332 -15.9692,17.89945 -23.70484,27.117c-4.28296,5.10345 -8.33708,10.67924 -12.97919,15.45525c-2.29144,2.35754 -5.16824,4.11059 -7.38085,6.54226c-3.93829,4.3282 -6.88709,10.36754 -10.13701,15.24243c-0.3245,0.48676 -0.65026,0.97166 -0.97727,1.45487c4.71866,1.77721 9.43143,3.56844 14.1554,5.30885c9.13497,3.39344 19.37611,3.78592 28.96179,5.49515c7.59245,1.35382 15.30441,3.27984 22.97048,4.10078c16.0273,1.71631 32.42101,1.93061 48.525,2.48592c7.71145,0.26591 15.39602,0.88302 23.08217,1.44667c1.056,-2.50543 2.08802,-5.02572 3.26752,-7.52195c2.08387,-4.41018 5.18109,-8.56045 6.96229,-13.09683c1.80511,-4.59727 2.18732,-9.78123 3.84441,-14.4394c3.73198,-10.49081 10.19556,-20.02804 14.37193,-30.35668c-0.07019,-0.00793 -0.14034,-0.01598 -0.21045,-0.02415zM143.6375,200.60663c-3.81049,-0.86943 -7.61857,-1.75415 -11.42549,-2.64704c-8.09033,15.54035 -16.52574,30.76481 -23.0563,47.06187c-3.03613,5.8201 -6.66378,11.6227 -9.23215,17.66067c-0.56733,1.33374 -1.0622,2.70691 -1.51191,4.10457c3.31285,1.17057 6.6142,2.38074 9.90986,3.60849c1.483,-2.17863 2.94962,-4.37312 4.41972,-6.57827c2.47368,-3.71052 4.75642,-8.27841 7.75183,-11.59083c1.16038,-1.28319 6.2561,-5.39596 7.56734,-6.74502c4.55668,-4.68812 8.53028,-10.17476 12.73465,-15.18457c7.18415,-8.56041 14.56153,-16.905 21.99166,-25.20745c-6.39005,-1.50919 -12.77206,-3.02737 -19.14922,-4.48244zM43.47971,179.05827c-4.79488,-0.02809 -9.6004,0.02048 -14.39395,-0.0972c-1.03205,-0.02534 -2.1457,-0.5652 -3.09318,-0.15527c-3.3549,1.45152 -6.53375,6.27892 -8.30541,9.17814c-2.59242,4.24236 -5.11368,8.37012 -7.37818,12.7965c-0.5235,1.02328 -1.37207,1.92593 -1.6064,3.0512c-0.21935,1.05333 0.32658,8.48588 0.37504,9.25776c0.19264,3.06871 -0.68269,6.3559 0.45329,9.21312c0.52034,1.30877 1.88174,2.09644 2.79731,3.16666c1.87749,2.1946 3.32391,4.80309 5.52134,6.67727c3.52085,3.00291 8.28894,5.29431 12.18494,7.80401c5.90518,2.85371 11.74874,6.00303 17.76812,8.60453c14.92032,6.44836 30.48563,11.34765 45.84281,16.57969c0.51787,-1.5032 1.06981,-2.98208 1.67706,-4.40967c2.58822,-6.08466 6.22343,-11.93134 9.2904,-17.79233c6.38197,-15.98519 14.62566,-30.93548 22.57589,-46.15551c-27.77313,-6.55779 -55.51386,-13.38441 -83.7091,-17.71889zM191.07065,37.31007c-0.40291,-0.66022 -1.43595,0.62395 -2.20178,0.73223c-0.54129,0.07653 -1.08852,0.06875 -1.63677,0.04631c1.25845,0.21491 2.51649,0.43183 3.7738,0.65191c0.21252,-0.50717 0.33001,-0.99579 0.06475,-1.43045zM92.21336,286.59892c-0.72503,1.49347 -2.15874,2.56751 -2.88232,4.06168c-1.17268,2.42155 -1.8966,5.39744 -2.47619,8.33157c0.19015,-0.19564 0.37402,-0.39594 0.54662,-0.60444c4.22235,-5.10058 8.1083,-10.52999 12.14905,-15.77632c2.01836,-2.62055 3.95239,-5.28126 5.84071,-7.97199c-2.78446,-1.03288 -5.57352,-2.05113 -8.37072,-3.04136c-1.36873,5.13139 -2.55415,10.36001 -4.80714,15.00086zM251.14636,302.12466c-1.08034,1.94408 -2.11725,3.90575 -3.14249,5.87348c0.95571,-0.93153 1.95753,-1.87136 2.93628,-2.94006c2.57918,-2.81624 5.15822,-5.62817 7.70809,-8.46879c-1.54472,-0.09603 -3.08897,-0.19988 -4.63298,-0.30827c-0.87487,1.97071 -1.80443,3.92417 -2.86889,5.84363z" fill="#ffd6d6" stroke-width="0.5"/><path d="M543.66583,366.99916c0,2.5 -2.5,2.5 -2.5,2.5l-0.59802,-0.41987c-1.21315,0.76579 -2.25097,1.93641 -3.63945,2.29738c-4.54126,1.18059 -10.7951,-0.04857 -15.49838,0.10477c-13.79254,0.44967 -27.72721,2.50788 -41.44755,3.94819c-7.62027,1.3242 -15.31737,3.12191 -23.00136,3.98355c-6.59822,0.73989 -13.35501,0.20546 -19.94126,1.03009c-6.52032,0.81637 -13.00719,2.70595 -19.4715,3.90073c-12.55794,2.32105 -25.17616,4.13459 -37.85396,5.6261c-21.02441,2.47346 -42.16086,5.82188 -63.27249,7.3601c-13.30017,0.96907 -26.83727,0.94816 -40.16689,0.94816c-34.14238,0 -68.28482,0.01816 -102.42719,-0.01427c-10.05645,-0.01692 -20.13113,-1.66865 -30.12209,-2.78651c-13.39947,-1.49923 -26.66027,-3.10656 -39.81048,-6.20398c-9.97714,-2.35003 -19.54542,-6.73991 -29.67158,-8.41099c-4.93631,-0.82272 -10.17061,-1.29249 -15.02137,-2.51434c-4.48058,-1.12861 -8.95807,-3.25543 -13.29681,-4.83764c-6.27406,-2.28796 -12.97237,-4.26749 -18.95429,-7.25919c-0.30845,-0.15426 -7.78475,-4.87489 -7.96618,-4.97589c-4.12291,-2.29515 -7.95049,-3.02573 -11.56068,-6.43771c-1.92231,-1.81677 -2.84909,-4.47158 -4.5218,-6.52048c-1.20843,-1.4802 -3.13734,-2.43746 -3.92423,-4.17875c-0.67672,-1.4975 -0.1589,-3.28324 -0.1903,-4.92625c-0.05641,-2.95183 0.05281,-5.9069 0.22463,-8.85427c1.84446,-3.11672 3.1531,-6.55764 5.23884,-9.51834c1.6392,-2.32685 4.39098,-3.66121 6.25684,-5.81056c1.11173,-1.28064 1.7509,-2.93573 2.91181,-4.17196c2.71445,-2.89056 7.14568,-5.74875 10.25919,-8.23069c9.72894,-7.75546 21.30649,-13.54303 33.32237,-18.09851c-0.16421,-3.51883 -0.31059,-7.04145 -0.64311,-10.56654c-1.84776,-19.58849 -6.62655,-38.97637 -7.94579,-58.63179c-0.08513,-1.26831 -0.13768,-2.54381 -0.16705,-3.82387c-2.82047,-0.2252 -5.63933,-0.49274 -8.45639,-0.81056c-4.91872,-0.55493 -10.37833,-0.6065 -15.19386,-1.73141c-0.18771,-0.04385 -9.33755,-3.35462 -9.68586,-3.48044c-4.58643,-1.65668 -10.19263,-2.91466 -14.46063,-5.25522c-0.23346,-0.12803 -7.74763,-5.93464 -8.17591,-6.26491c-4.99676,-3.32902 -9.78651,-6.65482 -14.44449,-10.44179c-1.45945,-1.18654 -3.14634,-2.14757 -4.35337,-3.59011c-0.75756,-0.90536 -0.94183,-2.16539 -1.37979,-3.26164c-2.19008,-5.4819 -2.23868,-9.91827 -1.69667,-15.79391c1.2609,-13.66885 5.15338,-26.6789 10.65127,-39.17411c2.48743,-5.65326 4.36895,-11.98262 8.48832,-16.62679c5.58823,-6.18192 11.17647,-12.36383 16.7647,-18.54575c0.30789,-0.3406 6.78637,-7.51993 6.97277,-7.67295c3.66114,-3.00548 8.84479,-5.11224 12.98975,-7.37647c4.56158,-2.49182 9.10567,-5.66104 14.31375,-6.64824c4.39395,-0.83288 9.63914,0.03977 14.10469,-0.07317c0.58292,-0.01474 1.16573,-0.03258 1.74843,-0.05297c0.01217,-0.05682 0.02438,-0.11362 0.03662,-0.17042c4.15561,-19.28955 10.68046,-37.99183 14.81863,-57.3033c0,0 0.52382,-2.44451 2.96833,-1.92068c2.44451,0.52382 1.92068,2.96833 1.92068,2.96833c-4.05874,18.94078 -10.41294,37.29578 -14.57653,56.19232c5.49916,-0.29015 10.99468,-0.66445 16.50377,-0.66504c20.04237,0.00198 40.00131,0.60522 60.02938,0.99252c6.676,0.1291 13.43666,-0.39395 20.10086,0.00399c8.29515,0.49533 16.66067,1.99451 24.91323,2.98551c3.4905,0.2905 6.98223,0.59305 10.47536,0.88991c1.72497,-1.82245 3.4806,-3.66593 3.68489,-3.88106c3.442,-3.62452 6.75648,-7.66852 10.4687,-11.01281c4.92781,-4.43939 10.69055,-8.22823 15.95181,-12.27115c2.40471,-2.07008 4.81403,-4.13484 7.22871,-6.19328l1.45112,-2.14159c0.44682,-0.67986 1.21634,-1.12872 2.0907,-1.12872c1.38071,0 2.5,1.11929 2.5,2.5c0,0.05669 -0.00189,0.11294 -0.0056,0.16869l-0.29232,4.96949c0.89676,10.14074 -1.98907,20.99376 -2.90477,31.20696c17.49304,0.23631 35.03422,-0.17754 52.51771,-0.19775c27.50825,-0.69067 55.00556,-0.96445 82.44542,-2.61353c0.35634,-1.48896 0.77092,-2.93784 1.27192,-4.31942c1.66829,-4.60054 5.02544,-9.28488 7.48421,-13.51033c0.25242,-0.43378 4.79149,-8.31317 5.16466,-8.63391c1.45875,-1.25377 3.47401,-1.65283 5.22274,-2.45395c2.99965,-1.37418 6.06763,-2.59791 9.14704,-3.78258c2.92124,-1.12383 5.67643,-2.96376 8.78719,-3.30981c1.84452,-0.20519 3.70498,0.24172 5.55035,0.43909c2.02041,0.21609 4.29878,-0.24154 6.04296,0.80084c1.71832,1.02692 2.2992,3.27793 3.483,4.89219c3.82195,5.21171 6.99844,10.16157 10.07335,15.87212c1.3395,2.51609 2.21823,4.9188 2.92014,7.39613c8.1778,-1.50816 16.30715,-3.35444 24.52422,-4.59038c5.91415,-0.88955 11.92773,-1.13618 17.85636,-1.98384c0,0 2.47487,-0.35355 2.82843,2.12132c0.35355,2.47487 -2.12132,2.82843 -2.12132,2.82843c-5.93247,0.8468 -11.95272,1.09257 -17.86953,1.9857c-8.04824,1.21487 -16.01303,3.00936 -24.02181,4.49839c0.16366,0.73228 0.3276,1.47941 0.49781,2.24535c1.07862,4.8538 2.71804,9.95918 3.29649,14.89409c0.7709,6.57682 0.21328,13.62678 0.31066,20.25214c0.2608,17.74373 0.96389,35.94906 -3.11184,53.27094c-1.18945,5.00352 -0.95132,9.50609 -1.53254,14.56998c-0.56256,4.90131 -1.45846,10.24154 -2.63343,15.26878c3.00136,0.37514 7.51791,0.94383 7.68211,0.99052c4.63181,1.31704 9.26145,4.20646 13.80879,5.91327c6.05771,2.27371 12.88526,2.90296 18.50077,6.35083c5.29709,3.25237 10.35116,7.41899 15.12246,11.39291c3.32382,2.77491 6.31331,5.90169 9.35158,8.98486c1.31483,1.33427 2.96306,2.41707 3.9183,4.02846c2.40746,4.06114 3.17992,10.7946 3.95946,15.3841c0.85525,5.03519 2.21842,10.14586 1.64543,15.30135c-0.68772,6.18777 -2.71105,12.64616 -5.46101,18.16942c-1.29472,2.60044 -2.15782,5.47559 -3.92621,7.78024c-4.66376,6.07802 -11.29405,10.84612 -17.34792,15.38493c-7.34382,6.12192 -15.50343,10.20716 -23.92288,14.71034c-0.28534,0.15261 -8.39886,4.52102 -8.77643,4.60906c-4.54692,1.0602 -10.91839,0.075 -15.60777,0.075c-0.08788,0 -0.17579,-0.00004 -0.26371,-0.00013c0.20205,0.4527 0.40573,0.9044 0.62922,1.34403l0.86674,-0.12565c0,0 2.23607,1.11803 1.11803,3.3541c-1.11803,2.23607 -3.3541,1.11803 -3.3541,1.11803l-3.10281,-2.11042c-0.59227,-1.2086 -0.99877,-2.52755 -1.77681,-3.6258c-0.00564,-0.00796 -0.01131,-0.01591 -0.01701,-0.02383c-13.81108,-0.33333 -27.92886,-1.92116 -40.9941,-6.00404c-19.92371,-6.23014 -40.5569,-8.81582 -60.7468,-13.84172c-0.01599,-0.00398 -0.03198,-0.00796 -0.04798,-0.01195c-1.66315,3.51211 -3.40964,6.99043 -5.21308,10.50125c-0.17604,0.3427 -4.61209,8.99132 -4.72498,9.15751c-2.77375,4.0834 -6.81002,7.81129 -10.06414,11.53016c-5.71348,6.52946 -10.67639,13.17108 -19.95186,14.48449c-5.60081,0.79308 -10.48024,-1.56847 -15.64695,-3.24184c-0.59588,-0.19299 -9.69215,-3.12214 -9.98523,-3.28992c-1.59493,-0.91305 -2.77061,-2.41529 -4.15591,-3.62293c-1.35348,-1.22321 -2.91914,-2.24639 -4.06043,-3.66962c-2.653,-3.30842 -4.2701,-8.43601 -6.219,-12.21566c-4.54222,-8.80909 -9.22851,-18.65933 -11.27622,-28.44694c-0.6612,-3.16039 -0.82944,-6.61399 -0.9622,-10.00017c-4.79833,-0.4264 -9.59887,-0.76718 -14.39155,-0.95638c-9.54887,-0.37697 -19.19764,0.00199 -28.75557,0.00199c-16.17168,0 -32.4269,-0.47933 -48.59104,-0.00109c-2.1382,0.06326 -4.27738,0.14484 -6.41703,0.2435c-9.18381,14.35514 -18.90408,28.44668 -29.41883,41.79963c-7.90296,10.0329 -16.71794,20.1669 -27.81246,26.80525c-4.33429,2.5934 -9.78398,4.88001 -12.98964,-0.78914c-0.59067,-1.04458 -0.24259,-2.39739 -0.54609,-3.55839c-0.4337,-1.65903 -1.37758,-3.17826 -1.65726,-4.87008c-0.01841,-0.11137 -0.06552,-10.03486 -0.06742,-10.40163c-0.04826,-9.3359 -0.73344,-18.32686 -2.1525,-27.55074c-0.39262,-2.56246 -0.63766,-5.12784 -0.81467,-7.69561c-7.72947,3.15607 -15.26696,6.78408 -22.58524,10.95567c-4.34598,2.47731 -7.93191,5.38377 -11.83683,8.50129c-1.93499,1.54481 -4.13238,2.80434 -5.8183,4.61771c-1.11495,1.19924 -1.71675,2.80715 -2.7935,4.0408c-1.79382,2.05522 -4.48503,3.28429 -6.03119,5.53175c-1.72251,2.50379 -2.81821,5.39354 -4.44879,7.95815c-0.01192,2.4701 0.04753,4.94095 -0.0116,7.41037c-0.02409,1.00599 -0.64081,2.11303 -0.1903,3.01283c0.63783,1.27395 2.22323,1.80755 3.14684,2.89232c1.63866,1.92459 2.45492,4.5129 4.2853,6.25617c3.0557,2.91027 6.73549,3.51407 10.27181,5.47092c2.72168,1.50607 5.12912,3.55821 7.91199,4.94797c5.80304,2.89802 12.32,4.80167 18.40486,7.02064c4.19151,1.52852 8.5271,3.61457 12.85672,4.69979c4.70449,1.17918 9.7848,1.62002 14.57045,2.41763c10.26236,1.72565 19.93692,6.11432 30.05133,8.48953c12.9405,3.03887 25.98082,4.6133 39.1647,6.08842c9.80166,1.09668 19.70512,2.75378 29.57087,2.75551c34.14078,0.03243 68.28164,0.01426 102.42244,0.01426c13.20875,0 26.62424,0.02532 39.80355,-0.93494c21.03734,-1.53281 42.10102,-4.8743 63.05162,-7.33907c12.57174,-1.47903 25.08385,-3.27644 37.53676,-5.57842c6.5587,-1.21241 13.13552,-3.11554 19.75173,-3.94392c6.60996,-0.8276 13.38556,-0.29538 20.00525,-1.03768c7.63969,-0.85667 15.2916,-2.65678 22.8695,-3.96698c13.87562,-1.46443 27.9633,-3.52674 41.91286,-3.99089c5.31997,-0.17701 12.18123,1.61592 16.58806,-1.5674l3.37152,-0.41987c0,0 2.5,0 2.5,2.5zM83.88629,276.13003c15.24467,-2.0871 30.67034,-3.73653 46.07933,-4.5406c1.70449,-2.68482 3.39062,-5.37804 5.06012,-8.07649c6.98108,-11.28362 14.28106,-22.24292 19.75749,-34.33754c3.09124,-6.82695 5.90129,-13.752 8.63805,-20.7133c-23.69922,3.36923 -47.77508,4.2401 -71.65393,4.2401c-12.84994,0 -25.68681,-0.0323 -38.49295,-0.83941c0.03015,1.04929 0.07745,2.09506 0.14736,3.13577c1.31652,19.59979 6.08512,38.93573 7.93238,58.46973c0.29239,3.09192 0.43582,6.18385 0.57483,9.27318c7.33286,-2.56461 14.75636,-4.71395 21.95731,-6.61145zM139.06144,271.21599c16.21356,-0.4797 32.51784,-0.00109 48.73891,-0.00109c9.62467,0 19.33944,-0.37779 28.95509,0.00199c4.64861,0.1836 9.30449,0.50743 13.95866,0.91326c-0.00143,-0.02154 -0.00286,-0.04307 -0.00431,-0.06458c-0.89014,-13.24798 -0.75772,-26.50496 -1.51564,-39.76854c-0.7402,-12.95352 -1.22724,-25.9541 -1.54635,-38.96908c-0.4546,0.1453 -0.90851,0.28569 -1.36168,0.41923c-10.64487,3.1367 -21.4407,6.20208 -32.27148,8.6094c-6.52085,1.44833 -13.05332,3.191 -19.62964,4.35751c-1.74976,0.31038 -3.50209,0.60559 -5.25675,0.88632c-3.10297,7.94544 -6.266,15.85429 -9.79018,23.6374c-5.56704,12.29473 -12.96478,23.43718 -20.06031,34.9058c-1.06834,1.72677 -2.14345,3.45139 -3.22578,5.17306c1.00336,-0.03742 2.00654,-0.07102 3.00948,-0.10069zM254.75956,274.66579c11.06172,1.23359 23.2296,2.32755 33.80161,5.82738c10.53849,3.51283 21.11302,6.8032 31.85564,9.61583c1.23233,-2.7316 2.40821,-5.49877 3.51501,-8.33422c3.44045,-8.81389 7.62927,-17.64527 10.4206,-26.68206c6.84732,-22.16779 9.97504,-45.44023 14.14222,-68.21518c-18.45742,-0.60921 -36.92233,-0.96975 -55.3872,-0.96975c-8.22027,-0.0017 -16.4268,0.65748 -24.63261,1.1267c-9.79018,0.55981 -19.80851,0.82947 -29.45202,2.78501c-2.14696,0.43537 -4.28654,1.10999 -6.41451,1.83026c0.31695,13.48033 0.8111,26.94652 1.5777,40.36203c0.75697,13.24689 0.62378,26.48793 1.51253,39.71863c0.0193,0.28734 0.0368,0.5769 0.05286,0.86837c6.35291,0.62471 12.69659,1.36316 19.00816,2.06701zM385.49362,305.06422c11.50575,3.59555 23.86177,5.1712 36.06686,5.66441c0.06995,-0.90212 0.28643,-1.83831 0.0707,-2.69824c-0.3317,-1.32225 -1.3485,-2.37665 -1.87948,-3.63221c-0.99593,-2.355 -1.32095,-4.94445 -2.14847,-7.36378c-0.57726,-1.68768 -1.61297,-3.2319 -1.94814,-4.9838c-0.05884,-0.30753 -0.04511,-9.81405 -0.04511,-10.39663c0,-8.25719 0,-16.51438 0,-24.77157c0.00519,-18.95493 1.49151,-38.98583 6.79492,-57.29441c0.84143,-2.90481 2.2952,-5.60705 3.23763,-8.47795c-10.1254,-1.11277 -20.35054,-1.52894 -30.5077,-2.22962c-13.85609,-0.71301 -27.71999,-1.33884 -41.58851,-1.83002c-4.27478,23.21459 -7.43271,46.95753 -14.43005,69.56077c-2.82932,9.13943 -7.04681,18.06672 -10.52672,26.98171c-1.02944,2.63726 -2.11737,5.21786 -3.25407,7.76622c20.00627,4.91528 40.42277,7.54164 60.15813,13.7051zM430.8968,310.91033c3.33333,0 6.66677,-0.02662 10,0c1.46424,0.01169 2.9645,0.40018 4.39223,0.075c2.8268,-0.64384 5.07732,-2.80069 7.63382,-4.16804c8.1635,-4.36629 16.06299,-8.29469 23.17956,-14.22321c5.68782,-4.26732 11.97378,-8.70365 16.39319,-14.38664c1.61939,-2.0824 2.32632,-4.73541 3.51028,-7.09275c2.52243,-5.02231 4.30237,-10.87264 4.96544,-16.50074c0.54324,-4.61101 -0.8468,-9.39706 -1.60748,-13.89875c-0.53819,-3.18504 -1.29165,-6.33624 -2.17456,-9.44343c-0.3992,-1.40488 -0.41145,-2.96985 -1.15621,-4.22619c-0.74476,-1.25634 -2.11151,-2.0185 -3.15277,-3.04261c-2.98257,-2.93344 -5.79841,-6.00246 -9.01697,-8.67929c-4.54902,-3.79298 -9.35722,-7.7579 -14.39224,-10.8871c-5.31543,-3.30349 -12.02189,-3.85654 -17.78569,-6.0161c-4.41933,-1.65582 -8.92276,-4.50659 -13.42069,-5.78556c-2.44569,-0.69542 -5.01626,-0.7698 -7.56225,-0.96923c-0.91719,3.18601 -2.57242,6.12858 -3.49498,9.31347c-5.17033,17.84913 -6.60272,37.42637 -6.59749,55.90325c0,8.25719 0,16.51438 0,24.77157c0,3.1504 -0.65031,6.35937 -0.04511,9.45109c0.29772,1.52091 1.25775,2.83682 1.76577,4.30097c0.81552,2.35036 1.11943,4.87244 2.07671,7.16872c0.61402,1.47288 1.70431,2.75846 2.09007,4.30687c0.28923,1.16096 -0.59093,2.48589 -0.12342,3.58722c0.06237,0.14692 0.14239,0.2808 0.23598,0.40473c1.43351,0.02501 2.863,0.03675 4.2868,0.03675zM226.42942,70.75365c0.79448,0.02001 1.5891,0.03836 2.38383,0.05517c0.32603,-3.88124 0.71246,-7.76303 1.17047,-11.64644c0.38756,-3.28613 0.8727,-6.56218 1.16376,-9.85826c0.26157,-2.96211 0.00286,-5.55501 0.51231,-8.01452c-1.58359,1.36955 -3.16893,2.73708 -4.75617,4.10239c-5.19169,3.99261 -10.89679,7.72568 -15.76068,12.10749c-3.61591,3.25752 -6.8373,7.21088 -10.1897,10.74105c-0.31294,0.32953 -0.63651,0.65064 -0.96626,0.96685c8.80376,0.71411 17.61703,1.32403 26.44244,1.54626zM391.00685,66.41058c11.55918,-1.0642 23.17604,-1.92726 34.67239,-3.56919c1.1101,-0.15855 2.21849,-0.32904 3.3255,-0.50916c-0.57814,-1.96347 -1.31142,-3.88726 -2.40061,-5.88372c-2.9876,-5.5484 -6.28277,-10.17409 -9.75938,-15.36423c-0.74343,-1.10985 -0.83379,-2.79194 -1.97429,-3.48743c-1.11485,-0.67985 -2.61324,-0.01519 -3.91597,-0.10452c-1.47426,-0.10108 -2.93861,-0.61738 -4.40858,-0.46627c-2.73734,0.28139 -5.11296,2.03664 -7.68138,3.02425c-3.0002,1.15364 -5.9566,2.41913 -8.91124,3.68491c-1.29684,0.55557 -2.83733,0.69735 -3.91537,1.60744c-2.17071,1.83251 -2.7523,4.97092 -4.18118,7.42619c-2.30762,3.96522 -5.53839,8.37916 -7.10526,12.70003c-0.2688,0.74125 -0.51101,1.50375 -0.73152,2.28268c5.66501,-0.37822 11.32745,-0.81996 16.98691,-1.341zM426.41892,67.78637c-11.58953,1.65815 -23.30044,2.53029 -34.95368,3.60315c-6.1946,0.57031 -12.39275,1.04618 -18.59391,1.44808c-0.72935,3.99526 -1.19223,8.13721 -1.94097,11.88093c-2.52909,12.64176 -6.38171,25.00012 -8.91414,37.62316c-1.19958,5.97936 -1.18943,12.20153 -2.31628,18.19659c-0.91151,4.8494 -2.90048,9.57755 -3.62183,14.45556c-1.3251,8.96078 -0.49706,18.0926 -1.68667,27.08308c13.68697,0.48896 27.36936,1.10816 41.04398,1.81255c10.49662,0.72371 21.06265,1.15312 31.52137,2.33678c1.19335,-4.99148 2.09799,-10.33889 2.65939,-15.23012c0.60134,-5.23923 0.42177,-9.9492 1.63284,-15.14504c4.35206,-18.49624 3.18424,-38.12038 2.90599,-57.05172c-0.07057,-4.80107 0.35499,-9.97758 -0.20372,-14.74408c-0.55871,-4.76649 -2.16981,-9.70427 -3.21142,-14.39153c-0.1875,-0.84375 -0.36301,-1.66243 -0.53762,-2.46225c-1.25922,0.20805 -2.52016,0.40414 -3.78331,0.58486zM286.39928,75.69688c-17.62203,0.02162 -35.30237,0.43863 -52.93357,0.19376c-1.15657,18.43047 -1.40901,36.69146 -1.40901,55.1872c-0.00034,18.40736 0.06399,36.89093 0.43765,55.35683c1.81179,-0.59013 3.63163,-1.12616 5.45918,-1.4995c9.90068,-2.02255 20.18209,-2.31765 30.23589,-2.89253c8.3016,-0.47469 16.60178,-1.13318 24.91805,-1.13485c18.75891,0 37.51818,0.37058 56.26961,0.99591c1.34126,-9.15838 0.40248,-18.49519 1.75467,-27.64034c0.73194,-4.95027 2.72983,-9.73067 3.65424,-14.64872c1.12691,-5.99541 1.12127,-12.21409 2.31628,-18.19659c2.52565,-12.64402 6.39384,-25.0196 8.92519,-37.68011c0.67079,-3.35393 1.1335,-6.99657 1.74191,-10.586c-27.0832,1.58436 -54.22118,1.86522 -81.37007,2.54493zM226.30356,75.75206c-10.35379,-0.26072 -20.69116,-1.04784 -31.01602,-1.91625c-0.32989,0.4059 -0.63918,0.82798 -0.92096,1.27171c-0.50175,0.79015 -2.91386,8.22329 -3.126,8.85987c-0.94997,2.85061 -2.33408,5.58685 -2.88115,8.54136c-0.76501,4.13151 0.03496,9.29733 0.03228,13.49458c-0.00532,8.32714 -0.05623,16.64416 -0.23814,24.9694c-1.9046,16.26761 -3.31159,33.46477 -8.19719,49.17419c-1.95602,6.28948 -4.97705,12.41912 -7.36909,18.56147c-0.45148,1.15933 -0.90186,2.31859 -1.35206,3.4775c0.7593,-0.1288 1.51813,-0.26042 2.27647,-0.39494c6.50555,-1.15396 12.96804,-2.88266 19.4188,-4.31542c10.7256,-2.38048 21.41722,-5.42234 31.95768,-8.52895c0.87813,-0.25881 1.75831,-0.54145 2.64051,-0.83507c-0.40298,-19.02379 -0.47166,-38.069 -0.472,-57.03366c0,-18.49868 0.06044,-36.88637 1.36958,-55.27616c-0.70767,-0.01529 -1.41524,-0.0318 -2.12271,-0.04962zM182.66178,72.763c-8.18312,-0.9813 -16.48116,-2.4777 -24.70606,-2.9688c-6.59562,-0.39382 -13.29136,0.13177 -19.89914,0.00399c-19.99619,-0.38668 -39.92272,-0.98961 -59.93321,-0.99159c-5.85675,-0.00183 -11.69894,0.4268 -17.54627,0.72238c-1.51921,7.93051 -2.57501,16.00223 -4.0171,23.93375c-2.37489,13.06188 -2.25499,26.19406 -2.65555,39.4533c-0.62864,20.80916 -0.4772,41.62071 -0.4772,62.43846c0,3.79596 -0.15054,7.65329 -0.18872,11.4969c12.81762,0.82361 25.66708,0.85082 38.52882,0.85082c24.58374,0 49.38056,-0.92203 73.74778,-4.60003c0.80429,-2.06816 1.60682,-4.13811 2.41301,-6.20824c2.34945,-6.03289 5.33283,-12.05502 7.25381,-18.23186c4.77029,-15.33864 6.10577,-32.15406 7.98359,-48.03506c0.16998,-8.21095 0.22092,-16.41424 0.22617,-24.62695c0.00286,-4.48076 -0.76833,-9.8769 0.03228,-14.29223c0.05156,-0.28433 2.81025,-8.53304 3.07317,-9.32159c0.49014,-1.47006 2.14986,-6.66354 3.18277,-9.02755c-2.33998,-0.20026 -4.67935,-0.40056 -7.01816,-0.59571zM54.83035,69.75677c-4.23444,0.10709 -9.25564,-0.75851 -13.42282,0.009c-4.54673,0.83742 -8.7529,3.93217 -12.72504,6.10199c-3.84664,2.10127 -8.8111,4.0502 -12.21136,6.85073c-2.47834,2.04122 -4.28593,4.78184 -6.439,7.16365c-5.58823,6.18192 -11.17647,12.36383 -16.7647,18.54575c-3.75075,4.04799 -5.40924,10.26106 -7.62089,15.28754c-4.71645,10.71921 -7.71015,21.25973 -9.50407,32.83056c-0.65273,4.21015 -1.82204,9.8651 -1.07796,14.1246c0.25783,1.47594 1.15636,2.76479 1.7006,4.16073c0.27337,0.70119 0.25471,1.56375 0.75158,2.12901c0.95922,1.09123 2.31271,1.75943 3.45531,2.65684c4.65532,3.65631 9.30352,6.99336 14.23554,10.28343c2.56158,1.97293 4.83062,4.38887 7.66559,5.94357c4.04191,2.21657 9.41422,3.36867 13.75508,4.93664c3.04348,1.09934 5.9735,2.57803 9.12461,3.31414c4.62591,1.08062 9.89332,1.09892 14.61702,1.63185c2.62456,0.2961 5.25073,0.54785 7.87834,0.76188c0.04367,-3.72367 0.17907,-7.45647 0.17907,-11.13418c0,-20.86812 -0.15069,-41.72991 0.47948,-62.58944c0.40822,-13.51279 0.31307,-26.88202 2.73392,-40.19674c1.37525,-7.56389 2.4036,-15.25279 3.80967,-22.82838c-0.20664,0.00599 -0.4133,0.01162 -0.61997,0.01684zM286.98004,285.23659c-10.19965,-3.42587 -22.08754,-4.41132 -32.77428,-5.60156c-6.06109,-0.67505 -12.15209,-1.38447 -18.25231,-1.99248c0.11303,2.89574 0.28795,5.81525 0.85027,8.50301c0.66165,3.16254 2.10783,6.1086 3.15279,9.16597c1.61422,4.72291 3.08915,9.13017 5.38197,13.56941c3.3845,6.55288 5.86412,14.01839 11.44866,18.88369c1.10606,1.0069 2.0201,2.2776 3.31818,3.02071c2.74446,1.57111 6.03324,1.89807 9.04173,2.87245c4.24166,1.37377 8.779,3.76048 13.37915,3.05175c7.93356,-1.2223 12.00584,-7.21815 16.9162,-12.83018c3.11921,-3.56493 7.03129,-7.13164 9.691,-11.04714c1.81595,-2.67336 2.93679,-5.75791 4.41347,-8.63262c1.6298,-3.1728 3.21219,-6.31637 4.72683,-9.48338c-10.54748,-2.78709 -20.93887,-6.02803 -31.29365,-9.47962zM84.86422,281.03346c-7.70489,2.046 -15.26586,4.44092 -22.65978,7.24559c0.17758,2.95553 0.4304,5.90725 0.88551,8.85289c1.7135,11.13777 2.23851,22.02516 2.23644,33.28982c-0.00028,1.53122 -0.28629,3.08436 -0.02763,4.59358c0.27342,1.59532 1.20755,3.01423 1.6006,4.58436c0.09164,0.36609 -0.34493,2.89421 0.86278,3.25727c2.7243,0.81898 7.27518,-3.60899 9.03035,-4.90731c8.77137,-6.48824 15.90252,-14.21099 22.65268,-22.78605c9.6747,-12.28615 18.66879,-25.20444 27.18981,-38.37634c-13.97231,0.85084 -27.94366,2.38 -41.77076,4.24618z" fill="#ffd1d1" stroke-width="0.5"/><text transform="translate(167.82002,185.76875) scale(0.5,0.5)" font-size="40" xml:space="preserve" fill="#ffd1d1" fill-rule="nonzero" stroke="none" stroke-width="1" stroke-linecap="butt" stroke-linejoin="miter" stroke-miterlimit="10" stroke-dasharray="" stroke-dashoffset="0" font-family="Sans Serif" font-weight="normal" text-anchor="start" style="mix-blend-mode: normal"><tspan x="0" dy="0">@Carlosrg0914</tspan></text></g></g></svg>