<svg version="1.1" xmlns="http://www.w3.org/2000/svg" xmlns:xlink="http://www.w3.org/1999/xlink" width="89.06189" height="119.25164" viewBox="0,0,89.06189,119.25164"><g transform="translate(-190.42095,-113.8339)"><g data-paper-data="{&quot;isPaintingLayer&quot;:true}" stroke-miterlimit="10" stroke-dasharray="" stroke-dashoffset="0" style="mix-blend-mode: normal"><g fill="#e49917" stroke="none" stroke-width="0"><path d="M232.57252,189.76288c-2.47966,0.79448 -6.64176,-1.64558 -7.844,-1.56938c-0.33357,0.06942 -2.91147,5.4087 -4.47711,8.58836c-2.1566,4.52074 -9.27079,2.27742 -9.12243,-2.69544c0.21779,-4.63928 5.43148,-13.03291 7.01065,-14.47525c3.54205,-3.38216 13.74107,0.85861 20.57126,3.5549" data-paper-data="{&quot;index&quot;:null}" fill-rule="evenodd" stroke-linecap="round" stroke-linejoin="round"/><g fill-rule="evenodd"><path d="M223.04534,193.54942c0.88546,0.12633 2.78289,0.44219 1.58198,4.42689c-1.20091,3.9847 -7.52493,6.83194 -8.28382,7.08507c-2.90909,1.07573 -6.51386,2.27807 -10.94105,2.27891c-12.83883,0.06568 -17.07864,-12.32965 -14.04346,-15.55574c2.94031,-3.19446 7.11587,3.95149 13.8837,6.85951c2.97279,1.32759 5.97692,1.16891 8.41183,0.88384c3.41517,-0.50661 8.37887,-6.16803 9.39084,-5.97849z" stroke-linecap="round" stroke-linejoin="round"/><path d="M196.95658,193.71248c2.3721,2.05503 6.51518,4.67893 6.51518,4.67893c0,0 -3.79467,0.31695 -5.24889,2.59406c-1.20133,1.7711 -0.12578,3.73151 0.28543,4.33227c-1.64454,-0.82188 -3.73187,-2.02315 -5.78792,-5.02693c-2.05605,-3.00378 -2.43634,-7.3044 -0.72893,-8.50639c1.77068,-1.01226 2.71961,0.25247 4.96514,1.92805z" stroke-linecap="butt" stroke-linejoin="miter"/></g><g fill-rule="evenodd"><path d="M239.29375,200.86682c-2.21048,2.02937 -8.37919,3.01515 -8.37919,3.01515c-11.8527,-0.80825 -8.86863,-7.94653 -9.92506,-13.35153c-0.75485,-4.74238 -0.83078,-8.25381 4.51531,-11.23025c2.91275,-1.8237 6.06204,0.51533 7.67217,-0.98717c2.44761,-2.21567 5.10285,1.82779 6.0385,4.31468c0,0 1.33299,3.72466 1.5751,6.01406c0.27303,2.78845 0.73319,6.10786 0.40308,7.57109c0,0 0.31057,2.62461 -1.89993,4.65396z" stroke-linecap="round" stroke-linejoin="round"/><path d="M240.37866,197.38098c0,0 -1.94625,1.10834 -4.13692,1.00368c-4.6332,0.12005 -5.49498,-3.02864 -5.98215,-6.68551c-0.18561,-2.99425 -0.96603,-6.53275 4.34024,-7.2424c5.02432,-0.73225 5.19862,2.40298 5.19862,2.40298c1.24259,4.85242 0.58022,10.52125 0.58022,10.52125z" stroke-linecap="butt" stroke-linejoin="miter"/></g><g fill-rule="nonzero" stroke-linecap="round" stroke-linejoin="round"><path d="M240.7469,199.00381l-1.17939,22.11155c0,0 6.84864,2.86921 3.11297,10.24042c-2.1624,3.59405 -4.975,1.06265 -11.17713,-2.80878c-2.6899,-2.03797 -2.68989,-2.03797 -2.02946,-4.29795c2.33283,-8.52643 -0.83343,-24.41737 -0.83343,-24.41737"/><path d="M238.88958,222.082"/></g><g fill-rule="nonzero" stroke-linecap="round" stroke-linejoin="round"><path d="M234.37039,201.06641l-9.00072,20.23112c0,0 5.3717,5.1265 -0.75075,10.67676c-3.30364,2.58439 -5.02633,-0.78474 -9.43616,-6.61636c-1.78435,-2.86443 -1.78434,-2.86443 -0.36013,-4.73934c5.22489,-7.13041 7.94447,-23.10386 7.94447,-23.10386"/><path d="M224.39115,221.95821"/></g><g fill-rule="evenodd"><path d="M227.63462,118.6812c0.19161,-0.30543 0.68865,-0.41925 0.94387,-0.09542l6.75888,8.69296c0,0 7.76444,1.66239 10.85051,3.89311c5.17387,3.70419 7.11028,7.76748 7.11028,7.76748c0,0 7.33676,-0.996 10.76851,3.7107c3.43174,4.70671 3.84719,16.36121 -11.78244,27.44475c-15.62963,11.08353 -31.49304,12.62374 -42.64324,5.13755c-11.15021,-7.48619 -6.51174,-24.48279 -6.73093,-23.50711l-9.2552,-15.46484c-0.25522,-0.32383 0.07779,-0.80246 0.52462,-0.78407l14.27535,2.24372c0,0 3.40721,-3.39572 7.6119,-5.50537c2.47176,-1.33054 4.74274,-2.13225 7.0045,-2.71054z" stroke-linecap="butt" stroke-linejoin="miter"/><path d="M253.18857,139.42717c0,0 7.03133,-1.18762 10.46308,3.51909c3.43174,4.70671 3.27733,16.0692 -12.21087,26.97952c-20.02171,14.48349 -36.41513,6.06531 -34.65082,-6.34988c1.72331,-12.5064 15.94349,-8.92217 23.3588,-12.91382c6.36184,-3.40838 4.50819,-9.48242 13.03981,-11.2349z" stroke-linecap="butt" stroke-linejoin="miter"/><path d="M270.42161,132.88556c-2.72852,5.39307 -9.25438,8.43662 -9.25438,8.43662" stroke-linecap="round" stroke-linejoin="round"/><path d="M273.82845,143.63374c-5.54099,3.03934 -9.87712,2.9056 -9.87712,2.9056" stroke-linecap="round" stroke-linejoin="round"/><path d="M238.71781,148.45473c1.91533,-0.8611 4.00388,-1.5808 4.38213,-0.98336c0.66527,1.23589 0.44531,4.40474 -0.97299,5.15202c-1.5597,0.9205 -6.41549,0.36254 -7.07158,-1.09676c-0.58326,-1.05347 1.8383,-2.25181 3.66243,-3.0719z" stroke-linecap="round" stroke-linejoin="round"/><path d="M197.05985,165.53879c0,0 8.99189,-0.97264 13.45526,0.4196" stroke-linecap="round" stroke-linejoin="round"/><path d="M212.22391,169.02761c-3.22479,3.31372 -10.42511,5.3448 -10.42511,5.3448" stroke-linecap="round" stroke-linejoin="round"/><g><path d="M244.68261,132.94502c4.4902,2.91514 7.62071,8.63175 5.80503,11.42158c-1.81569,2.78986 -7.82036,1.65465 -12.40176,-1.21948c-4.4902,-2.91514 -6.67265,-7.52568 -4.85696,-10.31551c1.77469,-2.88106 6.96349,-2.80174 11.4537,0.11341z" stroke-linecap="round" stroke-linejoin="round"/><path d="M248.01385,140.08366c0.45105,1.00327 0.09044,2.15217 -0.82162,2.56222c-0.91206,0.41005 -2.01076,-0.08277 -2.46181,-1.08604c-0.45105,-1.00327 -0.09044,-2.15217 0.82162,-2.56222c0.91206,-0.41005 2.01076,0.08277 2.46181,1.08604" stroke-linecap="butt" stroke-linejoin="miter"/></g><g><path d="M223.21155,145.66799c4.54041,2.78294 8.26418,8.93749 6.5807,11.77755c-2.23071,3.08609 -8.5098,2.46601 -13.05019,-0.31694c-4.63161,-2.74194 -7.1513,-7.85869 -5.226,-11.13638c1.88429,-3.36889 7.1551,-3.10717 11.6955,-0.32424z" stroke-linecap="round" stroke-linejoin="round"/><path d="M226.10879,152.7814c0.45105,1.00327 0.09044,2.15217 -0.82162,2.56222c-0.91206,0.41005 -2.01076,-0.08277 -2.46181,-1.08604c-0.45105,-1.00327 -0.09044,-2.15217 0.82162,-2.56222c0.95306,-0.31884 2.01076,0.08277 2.46181,1.08604" stroke-linecap="butt" stroke-linejoin="miter"/></g></g><path d="M250.77918,162.05917c1.4905,2.93658 -2.97893,5.15942 -7.87322,7.64358c-4.8943,2.48417 -9.97623,4.2987 -11.46673,1.36212c-1.4905,-2.93658 -0.20812,-11.03928 4.68618,-13.52345c4.8943,-2.48417 13.16326,1.58117 14.65376,4.51774z" fill-rule="nonzero" stroke-linecap="butt" stroke-linejoin="miter"/><path d="M222.09978,187.95528c-2.37044,1.07747 -6.78807,-0.86198 -7.97329,-0.64648c-0.32324,0.10775 -2.26269,5.7106 -3.44791,9.05077c-1.61621,4.74088 -8.94302,3.34016 -9.37401,-1.61621c-0.32324,-4.63313 3.8789,-13.57615 5.27961,-15.19236c3.12467,-3.77115 13.74768,-0.74529 20.8451,1.13835" fill-rule="evenodd" stroke-linecap="round" stroke-linejoin="round"/></g><path d="M237.62692,185.3824c-2.47966,0.79448 -6.64176,-1.64558 -7.844,-1.56938c-0.33357,0.06942 -2.91147,5.4087 -4.47711,8.58836c-2.1566,4.52074 -9.27079,2.27742 -9.12243,-2.69544c0.21779,-4.63928 5.43148,-13.03291 7.01065,-14.47525c3.54205,-3.38216 13.74107,0.85861 20.57126,3.5549" data-paper-data="{&quot;index&quot;:null}" fill="#ffab19" fill-rule="evenodd" stroke="#000000" stroke-width="1.2" stroke-linecap="round" stroke-linejoin="round"/><g fill-rule="evenodd"><path d="M228.09974,189.16894c0.88546,0.12633 2.78289,0.44219 1.58198,4.42689c-1.20091,3.9847 -7.52493,6.83194 -8.28382,7.08507c-2.90909,1.07573 -6.51386,2.27807 -10.94105,2.27891c-12.83883,0.06568 -17.07864,-12.32965 -14.04346,-15.55574c2.94031,-3.19446 7.11587,3.95149 13.8837,6.85951c2.97279,1.32759 5.97692,1.16891 8.41183,0.88384c3.41517,-0.50661 8.37887,-6.16803 9.39084,-5.97849z" fill="#ffab19" stroke="#000000" stroke-width="1.2" stroke-linecap="round" stroke-linejoin="round"/><path d="M202.01098,189.332c2.3721,2.05503 6.51518,4.67893 6.51518,4.67893c0,0 -3.79467,0.31695 -5.24889,2.59406c-1.20133,1.7711 -0.12578,3.73151 0.28543,4.33227c-1.64454,-0.82188 -3.73187,-2.02315 -5.78792,-5.02693c-2.05605,-3.00378 -2.43634,-7.3044 -0.72893,-8.50639c1.77068,-1.01226 2.71961,0.25247 4.96514,1.92805z" fill="#ffffff" stroke="none" stroke-width="1" stroke-linecap="butt" stroke-linejoin="miter"/></g><g fill-rule="evenodd"><path d="M244.34815,196.48634c-2.21048,2.02937 -8.37919,3.01515 -8.37919,3.01515c-11.8527,-0.80825 -8.86863,-7.94653 -9.92506,-13.35153c-0.75485,-4.74238 -0.83078,-8.25381 4.51531,-11.23025c2.91275,-1.8237 6.06204,0.51533 7.67217,-0.98717c2.44761,-2.21567 5.10285,1.82779 6.0385,4.31468c0,0 1.33299,3.72466 1.5751,6.01406c0.27303,2.78845 0.73319,6.10786 0.40308,7.57109c0,0 0.31057,2.62461 -1.89993,4.65396z" fill="#ffab19" stroke="#000000" stroke-width="1.2" stroke-linecap="round" stroke-linejoin="round"/><path d="M245.43306,193.0005c0,0 -1.94625,1.10834 -4.13692,1.00368c-4.6332,0.12005 -5.49498,-3.02864 -5.98215,-6.68551c-0.18561,-2.99425 -0.96603,-6.53275 4.34024,-7.2424c5.02432,-0.73225 5.19862,2.40298 5.19862,2.40298c1.24259,4.85242 0.58022,10.52125 0.58022,10.52125z" fill="#ffffff" stroke="none" stroke-width="1" stroke-linecap="butt" stroke-linejoin="miter"/></g><g fill="#ffab19" fill-rule="nonzero" stroke="#000000" stroke-width="1.2" stroke-linecap="round" stroke-linejoin="round"><path d="M245.8013,194.62333l-1.17939,22.11155c0,0 6.84864,2.86921 3.11297,10.24042c-2.1624,3.59405 -4.975,1.06265 -11.17713,-2.80878c-2.6899,-2.03797 -2.68989,-2.03797 -2.02946,-4.29795c2.33283,-8.52643 -0.83343,-24.41737 -0.83343,-24.41737"/><path d="M243.94398,217.70152"/></g><g fill="#ffab19" fill-rule="nonzero" stroke="#000000" stroke-width="1.2" stroke-linecap="round" stroke-linejoin="round"><path d="M239.42479,196.68593l-9.00072,20.23112c0,0 5.3717,5.1265 -0.75075,10.67676c-3.30364,2.58439 -5.02633,-0.78474 -9.43616,-6.61636c-1.78435,-2.86443 -1.78434,-2.86443 -0.36013,-4.73934c5.22489,-7.13041 7.94447,-23.10386 7.94447,-23.10386"/><path d="M229.44555,217.57773"/></g><g fill-rule="evenodd"><path d="M232.68902,114.30072c0.19161,-0.30543 0.68865,-0.41925 0.94387,-0.09542l6.75888,8.69296c0,0 7.76444,1.66239 10.85051,3.89311c5.17387,3.70419 7.11028,7.76748 7.11028,7.76748c0,0 7.33676,-0.996 10.76851,3.7107c3.43174,4.70671 3.84719,16.36121 -11.78244,27.44475c-15.62963,11.08353 -31.49304,12.62374 -42.64324,5.13755c-11.15021,-7.48619 -6.51174,-24.48279 -6.73093,-23.50711l-9.2552,-15.46484c-0.25522,-0.32383 0.07779,-0.80246 0.52462,-0.78407l14.27535,2.24372c0,0 3.40721,-3.39572 7.6119,-5.50537c2.47176,-1.33054 4.74274,-2.13225 7.0045,-2.71054z" fill="#ffab19" stroke="#000000" stroke-width="1.2" stroke-linecap="butt" stroke-linejoin="miter"/><path d="M258.24297,135.04669c0,0 7.03133,-1.18762 10.46308,3.51909c3.43174,4.70671 3.27733,16.0692 -12.21087,26.97952c-20.02171,14.48349 -36.41513,6.06531 -34.65082,-6.34988c1.72331,-12.5064 15.94349,-8.92217 23.3588,-12.91382c6.36184,-3.40838 4.50819,-9.48242 13.03981,-11.2349z" fill="#ffffff" stroke="none" stroke-width="1" stroke-linecap="butt" stroke-linejoin="miter"/><path d="M275.47601,128.50508c-2.72852,5.39307 -9.25438,8.43662 -9.25438,8.43662" fill="none" stroke="#000000" stroke-width="1.2" stroke-linecap="round" stroke-linejoin="round"/><path d="M278.88285,139.25326c-5.54099,3.03934 -9.87712,2.9056 -9.87712,2.9056" fill="none" stroke="#000000" stroke-width="1.2" stroke-linecap="round" stroke-linejoin="round"/><path d="M243.77221,144.07425c1.91533,-0.8611 4.00388,-1.5808 4.38213,-0.98336c0.66527,1.23589 0.44531,4.40474 -0.97299,5.15202c-1.5597,0.9205 -6.41549,0.36254 -7.07158,-1.09676c-0.58326,-1.05347 1.8383,-2.25181 3.66243,-3.0719z" fill="#000000" stroke="#000000" stroke-width="1.2" stroke-linecap="round" stroke-linejoin="round"/><path d="M202.11425,161.15831c0,0 8.99189,-0.97264 13.45526,0.4196" fill="none" stroke="#000000" stroke-width="1.2" stroke-linecap="round" stroke-linejoin="round"/><path d="M217.27831,164.64713c-3.22479,3.31372 -10.42511,5.3448 -10.42511,5.3448" fill="none" stroke="#000000" stroke-width="1.2" stroke-linecap="round" stroke-linejoin="round"/><g><path d="M249.73701,128.56454c4.4902,2.91514 7.62071,8.63175 5.80503,11.42158c-1.81569,2.78986 -7.82036,1.65465 -12.40176,-1.21948c-4.4902,-2.91514 -6.67265,-7.52568 -4.85696,-10.31551c1.77469,-2.88106 6.96349,-2.80174 11.4537,0.11341z" fill="#ffffff" stroke="#000000" stroke-width="1.2" stroke-linecap="round" stroke-linejoin="round"/><path d="M253.06825,135.70318c0.45105,1.00327 0.09044,2.15217 -0.82162,2.56222c-0.91206,0.41005 -2.01076,-0.08277 -2.46181,-1.08604c-0.45105,-1.00327 -0.09044,-2.15217 0.82162,-2.56222c0.91206,-0.41005 2.01076,0.08277 2.46181,1.08604" fill="#000000" stroke="none" stroke-width="1" stroke-linecap="butt" stroke-linejoin="miter"/></g><g><path d="M228.26595,141.28751c4.54041,2.78294 8.26418,8.93749 6.5807,11.77755c-2.23071,3.08609 -8.5098,2.46601 -13.05019,-0.31694c-4.63161,-2.74194 -7.1513,-7.85869 -5.226,-11.13638c1.88429,-3.36889 7.1551,-3.10717 11.6955,-0.32424z" fill="#ffffff" stroke="#000000" stroke-width="1.2" stroke-linecap="round" stroke-linejoin="round"/><path d="M231.16319,148.40092c0.45105,1.00327 0.09044,2.15217 -0.82162,2.56222c-0.91206,0.41005 -2.01076,-0.08277 -2.46181,-1.08604c-0.45105,-1.00327 -0.09044,-2.15217 0.82162,-2.56222c0.95306,-0.31884 2.01076,0.08277 2.46181,1.08604" fill="#000000" stroke="none" stroke-width="1" stroke-linecap="butt" stroke-linejoin="miter"/></g></g><path d="M255.83358,157.67869c1.4905,2.93658 -2.97893,5.15942 -7.87322,7.64358c-4.8943,2.48417 -9.97623,4.2987 -11.46673,1.36212c-1.4905,-2.93658 -0.20812,-11.03928 4.68618,-13.52345c4.8943,-2.48417 13.16326,1.58117 14.65376,4.51774z" fill="#ffffff" fill-rule="nonzero" stroke="#000000" stroke-width="1.2" stroke-linecap="butt" stroke-linejoin="miter"/><path d="M227.15418,183.5748c-2.37044,1.07747 -6.78807,-0.86198 -7.97329,-0.64648c-0.32324,0.10775 -2.26269,5.7106 -3.44791,9.05077c-1.61621,4.74088 -8.94302,3.34016 -9.37401,-1.61621c-0.32324,-4.63313 3.8789,-13.57615 5.27961,-15.19236c3.12467,-3.77115 13.74768,-0.74529 20.8451,1.13835" fill="#ffab19" fill-rule="evenodd" stroke="#000000" stroke-width="1.2" stroke-linecap="round" stroke-linejoin="round"/></g></g></svg>