<svg version="1.1" xmlns="http://www.w3.org/2000/svg" xmlns:xlink="http://www.w3.org/1999/xlink" width="67.33297" height="87.66844" viewBox="0,0,67.33297,87.66844"><g transform="translate(-208.99992,-138)"><g data-paper-data="{&quot;isPaintingLayer&quot;:true}" fill-rule="nonzero" stroke="none" stroke-width="1" stroke-linecap="butt" stroke-linejoin="miter" stroke-miterlimit="10" stroke-dasharray="" stroke-dashoffset="0" style="mix-blend-mode: normal"><path d="M276.33288,157.64844c0,1 -0.1,2.01 -0.3,3c-0.06,0.3 -0.13,0.59 -0.21,0.88c-1.14,4.03 -3.73,10.7 -8.13,21c-0.53,1.55 -2.43,7.1 -5.69,16.62c-0.7,2.41 -1.71,5.81 -3.02,10.2c-0.03,0.11 -0.07,0.22 -0.11,0.33c-0.01,0.05 -0.08,0.28 -0.12,0.79c-0.13,2.02 -0.41,3.76 -0.84,5.31c-0.78,2.88 -2.54,5.43 -4.99,7.18c-1.24,0.9 -2.65,1.52 -4.13,1.83c-0.26,0.07 -0.67,0.18 -1.25,0.34c-1.22,0.36 -2.49,0.54 -3.78,0.54c-1.52,0 -3.06,-0.25 -4.58,-0.75c-1.92,-0.64 -3.62,-1.79 -4.92,-3.31c-1.24,-1.06 -2.23,-2.39 -2.9,-3.89c-1.24,-2.77 -1.47,-5.85 -0.68,-9.15c0.42,-1.89 1.1,-4.51 2.09,-8c0.05,-0.18 0.11,-0.37 0.17,-0.55c0.85,-2.49 2.1,-6.3 3.72,-11.35c0.17,-0.5 0.36,-0.98 0.59,-1.44c0.35,-1.35 0.72,-2.67 1.12,-3.97c-2.54,1.87 -5.66,2.89 -9.11,2.89c-1.85,0 -3.7,-0.29 -5.5,-0.88c-4.92,-1.58 -8.31,-5.45 -9.06,-10.38c-0.01,-0.04 -0.02,-0.08 -0.02,-0.12c-0.29,-2.02 -0.28,-4.7 0.04,-8.84c-0.06,-0.79 -0.16,-2.21 -0.3,-4.26c0,-0.05 -0.01,-0.1 -0.01,-0.15c-0.06,-1.09 -0.22,-2.02 -0.47,-2.75c-0.02,-0.04 -0.03,-0.07 -0.04,-0.1c-0.59,-1.78 -2.39,-7.16 1.13,-12.07c2.98,-4.22 7.65,-6.64 12.83,-6.64c4.31,0 8.22,1.76 10.97,4.81c0.56,0.02 1.12,0.07 1.67,0.16c3.87,0.6 7.59,1.89 11.1,3.85c2.51,-2.92 6.27,-4.68 10.65,-4.68c8.16,0 14.08,5.7 14.08,13.55z" fill="#da9494"/><path d="M272.416,155.69c0,1 -0.1,2.01 -0.3,3c-0.06,0.3 -0.13,0.59 -0.21,0.88c-1.14,4.03 -3.73,10.7 -8.13,21c-0.53,1.55 -2.43,7.1 -5.69,16.62c-0.7,2.41 -1.71,5.81 -3.02,10.2c-0.03,0.11 -0.07,0.22 -0.11,0.33c-0.01,0.05 -0.08,0.28 -0.12,0.79c-0.13,2.02 -0.41,3.76 -0.84,5.31c-0.78,2.88 -2.54,5.43 -4.99,7.18c-1.24,0.9 -2.65,1.52 -4.13,1.83c-0.26,0.07 -0.67,0.18 -1.25,0.34c-1.22,0.36 -2.49,0.54 -3.78,0.54c-1.52,0 -3.06,-0.25 -4.58,-0.75c-1.92,-0.64 -3.62,-1.79 -4.92,-3.31c-1.24,-1.06 -2.23,-2.39 -2.9,-3.89c-1.24,-2.77 -1.47,-5.85 -0.68,-9.15c0.42,-1.89 1.1,-4.51 2.09,-8c0.05,-0.18 0.11,-0.37 0.17,-0.55c0.85,-2.49 2.1,-6.3 3.72,-11.35c0.17,-0.5 0.36,-0.98 0.59,-1.44c0.35,-1.35 0.72,-2.67 1.12,-3.97c-2.54,1.87 -5.66,2.89 -9.11,2.89c-1.85,0 -3.7,-0.29 -5.5,-0.88c-4.92,-1.58 -8.31,-5.45 -9.06,-10.38c-0.01,-0.04 -0.02,-0.08 -0.02,-0.12c-0.29,-2.02 -0.28,-4.7 0.04,-8.84c-0.06,-0.79 -0.16,-2.21 -0.3,-4.26c0,-0.05 -0.01,-0.1 -0.01,-0.15c-0.06,-1.09 -0.22,-2.02 -0.47,-2.75c-0.02,-0.04 -0.03,-0.07 -0.04,-0.1c-0.59,-1.78 -2.39,-7.16 1.13,-12.07c2.98,-4.22 7.65,-6.64 12.83,-6.64c4.31,0 8.22,1.76 10.97,4.81c0.56,0.02 1.12,0.07 1.67,0.16c3.87,0.6 7.59,1.89 11.1,3.85c2.51,-2.92 6.27,-4.68 10.65,-4.68c8.16,0 14.08,5.7 14.08,13.55z" fill="#ffaeae"/></g></g></svg>