<svg version="1.1" xmlns="http://www.w3.org/2000/svg" xmlns:xlink="http://www.w3.org/1999/xlink" width="52.29358" height="84.08272" viewBox="0,0,52.29358,84.08272"><g transform="translate(-216.00011,-141)"><g data-paper-data="{&quot;isPaintingLayer&quot;:true}" fill-rule="nonzero" stroke="none" stroke-width="1" stroke-linecap="butt" stroke-linejoin="miter" stroke-miterlimit="10" stroke-dasharray="" stroke-dashoffset="0" style="mix-blend-mode: normal"><path d="M268.13804,212.49272c-0.22,2.13 -1.06,4.14 -2.41,5.8c-1.98,2.44 -4.29,4.18 -6.86,5.17c-2.36,0.91 -4.99,1.22 -8.23,0.97c-0.38,-0.03 -0.67,-0.04 -0.88,-0.05c-0.04,0.01 -0.08,0.02 -0.13,0.03c-1.74,0.46 -3.19,0.67 -4.57,0.67c-1.24,0 -2.34,-0.21 -3.29,-0.49c-1.38,0.09 -2.49,0.13 -3.39,0.13h-4.21c-1.91,-0.08 -7.61,-0.3 -11.11,-5.14c-0.47,-0.62 -1.34,-1.84 -2.01,-3.52c-0.29,-0.59 -0.55,-1.2 -0.76,-1.85c-0.6,-1.8 -0.73,-3.72 -0.36,-5.58c1.38,-7.08 6.74,-10.48 12.02,-11.54c-0.06,-5.2 -0.23,-11.55 -0.52,-19.01c-0.01,-0.27 -0.01,-0.55 0,-0.83c-1.92,-0.89 -3.6,-2.22 -4.91,-3.93c-1.78,-2.27 -2.75,-5.08 -2.75,-7.97c0,-5.05 2.77,-9.38 8.24,-12.88c0.05,-0.03 0.09,-0.06 0.14,-0.08c0.36,-0.23 0.62,-0.41 0.81,-0.54c0.65,-1.06 1.48,-2.01 2.46,-2.8c3.19,-2.58 6.92,-3.94 10.78,-3.94c6.98,0 12.58,4.61 13.96,11.48c0.37,1.87 0.25,3.8 -0.34,5.6c-0.11,1.3 -0.26,3.72 -0.42,8.15c-0.01,0.51 -0.04,1.18 -0.1,2.33c-0.04,0.59 -0.06,1 -0.07,1.23v8.97c0.01,0.3 0.05,0.86 0.1,1.67c0.15,2.17 0.16,2.44 0.16,2.88v9.9c2.8,1.22 5.23,3.36 7.03,6.25c2.19,3.48 1.82,7.01 1.62,8.92z" fill="#da9494"></path><path d="M264.41701,208.38c-0.22,2.13 -1.06,4.14 -2.41,5.8c-1.98,2.44 -4.29,4.18 -6.86,5.17c-2.36,0.91 -4.99,1.22 -8.23,0.97c-0.38,-0.03 -0.67,-0.04 -0.88,-0.05c-0.04,0.01 -0.08,0.02 -0.13,0.03c-1.74,0.46 -3.19,0.67 -4.57,0.67c-1.24,0 -2.34,-0.21 -3.29,-0.49c-1.38,0.09 -2.49,0.13 -3.39,0.13h-4.21c-1.91,-0.08 -7.61,-0.3 -11.11,-5.14c-0.47,-0.62 -1.34,-1.84 -2.01,-3.52c-0.29,-0.59 -0.55,-1.2 -0.76,-1.85c-0.6,-1.8 -0.73,-3.72 -0.36,-5.58c1.38,-7.08 6.74,-10.48 12.02,-11.54c-0.06,-5.2 -0.23,-11.55 -0.52,-19.01c-0.01,-0.27 -0.01,-0.55 0,-0.83c-1.92,-0.89 -3.6,-2.22 -4.91,-3.93c-1.78,-2.27 -2.75,-5.08 -2.75,-7.97c0,-5.05 2.77,-9.38 8.24,-12.88c0.05,-0.03 0.09,-0.06 0.14,-0.08c0.36,-0.23 0.62,-0.41 0.81,-0.54c0.65,-1.06 1.48,-2.01 2.46,-2.8c3.19,-2.58 6.92,-3.94 10.78,-3.94c6.98,0 12.58,4.61 13.96,11.48c0.37,1.87 0.25,3.8 -0.34,5.6c-0.11,1.3 -0.26,3.72 -0.42,8.15c-0.01,0.51 -0.04,1.18 -0.1,2.33c-0.04,0.59 -0.06,1 -0.07,1.23v8.97c0.01,0.3 0.05,0.86 0.1,1.67c0.15,2.17 0.16,2.44 0.16,2.88v9.9c2.8,1.22 5.23,3.36 7.03,6.25c2.19,3.48 1.82,7.01 1.62,8.92z" fill="#ffaeae"></path></g></g></svg>