<svg version="1.1" xmlns="http://www.w3.org/2000/svg" xmlns:xlink="http://www.w3.org/1999/xlink" width="47.62764" height="73.19929" viewBox="0,0,47.62764,73.19929"><g transform="translate(-217.28213,-144.25276)"><g data-paper-data="{&quot;isPaintingLayer&quot;:true}" fill-rule="nonzero" stroke="none" stroke-width="0" stroke-linecap="butt" stroke-linejoin="miter" stroke-miterlimit="10" stroke-dasharray="" stroke-dashoffset="0" style="mix-blend-mode: normal"><path d="M264.90977,181.70479c0,5.93934 -2.04632,11.54038 -3.67512,16.46912c-2.10623,6.37344 -4.62609,11.76344 -8.33285,15.1664c-2.9552,2.71299 -6.81863,4.11174 -10.70992,4.11174c-2.72493,0 -4.7749,-1.17708 -7.19587,-2.56123c-4.55916,-2.60663 -8.59137,-6.90744 -11.40274,-13.02794c-2.56958,-5.59411 -4.11928,-12.77787 -4.11928,-20.15809c0,-8.17489 3.39823,-19.21516 4.87411,-21.73107c1.3864,-2.36338 10.4923,-14.01619 17.84378,-14.01619c8.66692,0 15.77813,8.34045 19.60845,19.57092c1.71467,5.0274 3.10944,10.07134 3.10944,16.17634z" fill="#da9494"/><path d="M262.71791,180.00002c0,5.93934 -2.04632,11.54038 -3.67512,16.46912c-2.10623,6.37344 -4.62609,11.76344 -8.33285,15.1664c-2.9552,2.71299 -6.81863,4.11174 -10.70992,4.11174c-2.72493,0 -4.7749,-1.17708 -7.19587,-2.56123c-4.55916,-2.60663 -8.59137,-6.90744 -11.40274,-13.02794c-2.56958,-5.59411 -4.11928,-12.77787 -4.11928,-20.15809c0,-8.17489 3.39823,-19.21516 4.87411,-21.73107c1.3864,-2.36338 10.4923,-14.01619 17.84378,-14.01619c8.66692,0 15.77813,8.34045 19.60845,19.57092c1.71467,5.0274 3.10944,10.07134 3.10944,16.17634z" fill="#ffaeae"/><path d="M254.68108,180c0,3.83821 -1.3224,7.45779 -2.37499,10.64291c-1.36112,4.11874 -2.98954,7.60194 -5.38497,9.80105c-1.90975,1.75323 -4.40643,2.65715 -6.92112,2.65715c-1.76094,0 -3.0857,-0.76067 -4.65022,-1.65515c-2.94629,-1.68449 -5.55204,-4.46383 -7.36884,-8.4191c-1.66055,-3.61511 -2.66202,-8.2575 -2.66202,-13.02685c0,-5.2829 2.19605,-12.4175 3.14982,-14.04337c0.89594,-1.5273 6.78049,-9.05774 11.53126,-9.05774c5.60086,0 10.19637,5.38989 12.67166,12.6474c1.10808,3.24888 2.00943,6.50845 2.00943,10.45371z" fill="#da9494"/></g></g></svg>