<svg version="1.1" xmlns="http://www.w3.org/2000/svg" xmlns:xlink="http://www.w3.org/1999/xlink" width="101.08456" height="78.33334" viewBox="0,0,101.08456,78.33334"><g transform="translate(-189.45772,-140.83333)"><g data-paper-data="{&quot;isPaintingLayer&quot;:true}" fill-rule="nonzero" stroke-linejoin="miter" stroke-miterlimit="10" stroke-dasharray="" stroke-dashoffset="0" style="mix-blend-mode: normal"><path d="M255.0697,180c0,8.49438 -6.74694,15.38042 -15.06971,15.38042c-8.32278,0 -15.06969,-6.88604 -15.06969,-15.38042c0,-8.49438 6.74694,-15.38042 15.06969,-15.38042c8.32278,0 15.06971,6.88605 15.06971,15.38042z" fill-opacity="0.79928" fill="#ff7171" stroke="none" stroke-width="0" stroke-linecap="butt"/><path d="M259.30229,180c0,10.88017 -8.64193,19.70027 -19.3023,19.70027c-10.66037,0 -19.30228,-8.8201 -19.30228,-19.70027c0,-10.88017 8.64193,-19.70027 19.30228,-19.70027c10.66037,0 19.3023,8.82012 19.3023,19.70027z" fill="none" stroke-opacity="0.49194" stroke="#ff7070" stroke-width="3" stroke-linecap="butt"/><path d="M189.45772,219.16667v-78.33334h101.08456v78.33334z" fill="none" stroke="none" stroke-width="NaN" stroke-linecap="butt"/><g fill="none" stroke-opacity="0.75806" stroke="#b71a1a" stroke-width="1.5" stroke-linecap="round"><path d="M228.59922,183.95599c0,0 4.31704,-6.38979 12.42502,-6.35437c3.65785,0.01598 6.58756,4.33247 9.30971,6.72544c2.72155,2.39244 -0.62287,-9.15926 -0.62287,-9.15926"/><path d="M228.59922,183.95599c0,0 4.31704,-6.38979 12.42502,-6.35437c4.00939,0.01752 7.11342,3.38152 9.10004,6.41825c1.63786,2.50361 -8.39328,-1.57909 -8.39328,-1.57909"/></g></g></g></svg>