<svg version="1.1" xmlns="http://www.w3.org/2000/svg" xmlns:xlink="http://www.w3.org/1999/xlink" width="66.07737" height="79.73615" viewBox="0,0,66.07737,79.73615"><g transform="translate(-208.99982,-141.99965)"><g data-paper-data="{&quot;isPaintingLayer&quot;:true}" fill-rule="nonzero" stroke="none" stroke-width="1" stroke-linecap="butt" stroke-linejoin="miter" stroke-miterlimit="10" stroke-dasharray="" stroke-dashoffset="0" style="mix-blend-mode: normal"><path d="M275.07719,207.88581c0,5.14 -2.75,9.66 -7.35,12.09c-2.23,1.18 -4.83,1.76 -7.95,1.76c-1.31,0 -2.73,-0.1 -4.34,-0.3c-0.12,-0.01 -0.24,-0.03 -0.36,-0.05c-2.49,-0.39 -3.64,-0.43 -4.02,-0.43h-0.12c-0.16,0.02 -0.32,0.03 -0.48,0.03c-0.25,0.02 -0.61,0.06 -1.1,0.11c-1.3,0.17 -2.44,0.25 -3.49,0.25c-0.57,0 -1.76,0.03 -4.14,0.16h-0.12c-0.65,0.03 -1.22,0.04 -1.73,0.04c-1.35,0 -2.48,-0.09 -3.51,-0.28c-3.38,-0.58 -6.38,-2.33 -8.48,-4.98c-2.52,-3.16 -3.05,-6.32 -3.05,-8.42c0,-2.73 0.85,-5.33 2.39,-7.52c-1,-0.08 -1.98,-0.2 -2.94,-0.38c-5.91,-1.06 -8.98,-6.08 -10.14,-7.98c-1.49,-2.43 -1.98,-5.35 -1.36,-8.13c0.2,-0.92 0.52,-1.93 1.02,-3.24c0.59,-2.37 1.94,-4.44 3.78,-5.93c2.51,-3.43 6.46,-9.03 11.76,-16.69c1.28,-1.84 1.99,-2.98 2.37,-3.63c0.98,-1.77 2.36,-3.4 4.32,-5.13c2,-1.77 3.77,-2.92 5.58,-3.64c0.34,-0.14 0.69,-0.26 1.05,-0.36c2.54,-0.73 5.28,-0.65 7.91,0.23c0.24,0.07 0.47,0.16 0.7,0.25c0.42,0.07 0.85,0.16 1.26,0.27c2.76,0.75 5.16,2.24 6.94,4.31c2.6,3.04 3.15,6.67 3.35,10.14c0.02,0.33 0.03,0.67 0.02,1c-0.04,1.09 -0.05,3.24 0.08,7.32c0.02,0.37 0.04,0.78 0.06,1.22c7.03,1.48 10.68,7.32 10.68,13.1c0,1.27 -0.16,2.54 -0.5,3.9c-0.4,1.57 -1.13,3.04 -2.16,4.3c-1.14,1.39 -2.47,2.55 -3.95,3.47c4.36,1.91 8.02,6.25 8.02,13.14z" fill="#da9494"></path><path d="M271.552,205.144c0,5.14 -2.75,9.66 -7.35,12.09c-2.23,1.18 -4.83,1.76 -7.95,1.76c-1.31,0 -2.73,-0.1 -4.34,-0.3c-0.12,-0.01 -0.24,-0.03 -0.36,-0.05c-2.49,-0.39 -3.64,-0.43 -4.02,-0.43h-0.12c-0.16,0.02 -0.32,0.03 -0.48,0.03c-0.25,0.02 -0.61,0.06 -1.1,0.11c-1.3,0.17 -2.44,0.25 -3.49,0.25c-0.57,0 -1.76,0.03 -4.14,0.16h-0.12c-0.65,0.03 -1.22,0.04 -1.73,0.04c-1.35,0 -2.48,-0.09 -3.51,-0.28c-3.38,-0.58 -6.38,-2.33 -8.48,-4.98c-2.52,-3.16 -3.05,-6.32 -3.05,-8.42c0,-2.73 0.85,-5.33 2.39,-7.52c-1,-0.08 -1.98,-0.2 -2.94,-0.38c-5.91,-1.06 -8.98,-6.08 -10.14,-7.98c-1.49,-2.43 -1.98,-5.35 -1.36,-8.13c0.2,-0.92 0.52,-1.93 1.02,-3.24c0.59,-2.37 1.94,-4.44 3.78,-5.93c2.51,-3.43 6.46,-9.03 11.76,-16.69c1.28,-1.84 1.99,-2.98 2.37,-3.63c0.98,-1.77 2.36,-3.4 4.32,-5.13c2,-1.77 3.77,-2.92 5.58,-3.64c0.34,-0.14 0.69,-0.26 1.05,-0.36c2.54,-0.73 5.28,-0.65 7.91,0.23c0.24,0.07 0.47,0.16 0.7,0.25c0.42,0.07 0.85,0.16 1.26,0.27c2.76,0.75 5.16,2.24 6.94,4.31c2.6,3.04 3.15,6.67 3.35,10.14c0.02,0.33 0.03,0.67 0.02,1c-0.04,1.09 -0.05,3.24 0.08,7.32c0.02,0.37 0.04,0.78 0.06,1.22c7.03,1.48 10.68,7.32 10.68,13.1c0,1.27 -0.16,2.54 -0.5,3.9c-0.4,1.57 -1.13,3.04 -2.16,4.3c-1.14,1.39 -2.47,2.55 -3.95,3.47c4.36,1.91 8.02,6.25 8.02,13.14z" fill="#ffaeae"></path></g></g></svg>