<svg version="1.1" xmlns="http://www.w3.org/2000/svg" xmlns:xlink="http://www.w3.org/1999/xlink" width="175.36493" height="127.51111" viewBox="0,0,175.36493,127.51111"><g transform="translate(-152.3176,-116.24462)"><g data-paper-data="{&quot;isPaintingLayer&quot;:true}" fill-rule="nonzero" stroke-linejoin="miter" stroke-miterlimit="10" stroke-dasharray="" stroke-dashoffset="0" style="mix-blend-mode: normal"><path d="M284.16364,180.00005c0,24.42958 -19.77273,44.23368 -44.16364,44.23368c-24.39089,0 -44.16364,-19.80409 -44.16364,-44.23368c0,-24.42958 19.77273,-44.23368 44.16365,-44.23368c24.39089,0 44.16364,19.80409 44.16364,44.23368z" fill-opacity="0.52509" fill="#7d0000" stroke="none" stroke-width="0" stroke-linecap="butt"/><path d="M288.68757,180.00004c0,26.92545 -21.79818,48.75285 -48.68757,48.75285c-26.88939,0 -48.68756,-21.82739 -48.68756,-48.75285c0,-26.92545 21.79817,-48.75286 48.68756,-48.75286c26.88939,0 48.68757,21.8274 48.68757,48.75286z" fill="none" stroke-opacity="0.81989" stroke="#7d0000" stroke-width="2" stroke-linecap="butt"/><path d="M152.3176,243.75574v-127.51111h175.36493v127.51111z" fill="none" stroke="none" stroke-width="0" stroke-linecap="butt"/><path d="M255.0697,180.00002c0,8.49438 -6.74694,15.38042 -15.06971,15.38042c-8.32278,0 -15.06969,-6.88604 -15.06969,-15.38042c0,-8.49438 6.74694,-15.38042 15.06969,-15.38042c8.32278,0 15.06971,6.88605 15.06971,15.38042z" fill-opacity="0.79928" fill="#ff7171" stroke="none" stroke-width="0" stroke-linecap="butt"/><path d="M259.30229,180.00002c0,10.88017 -8.64193,19.70027 -19.3023,19.70027c-10.66037,0 -19.30228,-8.8201 -19.30228,-19.70027c0,-10.88017 8.64193,-19.70027 19.30228,-19.70027c10.66037,0 19.3023,8.82012 19.3023,19.70027z" fill="none" stroke-opacity="0.49194" stroke="#ff7070" stroke-width="3" stroke-linecap="butt"/><g fill="none" stroke-opacity="0.75806" stroke="#b71a1a" stroke-width="1.5" stroke-linecap="round"><path d="M228.59923,183.956c0,0 4.31704,-6.38979 12.42502,-6.35437c3.65786,0.01598 6.58756,4.33246 9.30971,6.72543c2.72154,2.39245 -0.62286,-9.15926 -0.62286,-9.15926"/><path d="M228.59923,183.956c0,0 4.31704,-6.38979 12.42502,-6.35437c4.00939,0.01752 7.11342,3.38152 9.10004,6.41825c1.63786,2.50361 -8.39328,-1.57909 -8.39328,-1.57909"/></g></g></g></svg>