<svg version="1.1" xmlns="http://www.w3.org/2000/svg" xmlns:xlink="http://www.w3.org/1999/xlink" width="179.4699" height="80.13947" viewBox="0,0,179.4699,80.13947"><g transform="translate(-152.38437,-152.70834)"><g data-paper-data="{&quot;isPaintingLayer&quot;:true}" fill-rule="nonzero" stroke-linecap="butt" stroke-linejoin="miter" stroke-miterlimit="10" stroke-dasharray="" stroke-dashoffset="0" style="mix-blend-mode: normal"><g fill="#151535" stroke="none" stroke-width="0"><path d="M179.05242,195.13405c0.14437,11.66612 18.96352,18.1063 -3.60092,22.17125c-16.39238,2.95307 -15.00327,-10.27311 -15.14764,-21.93924c-0.14437,-11.66612 3.9356,-21.17532 9.11287,-21.23939c5.17728,-0.06407 9.49132,9.34125 9.63569,21.00737z"/><path d="M318.68862,175.02961c5.17728,-0.06407 9.49132,9.34125 9.63569,21.00737c0.14437,11.66612 1.86036,24.85388 -14.60008,22.30737c-22.65813,-3.50532 -4.00411,-10.40923 -4.14849,-22.07535c-0.14437,-11.66612 3.9356,-21.17532 9.11287,-21.23939z" data-paper-data="{&quot;index&quot;:null}"/><path d="M194.22451,208.94737c0.14437,11.66612 18.96352,18.1063 -3.60092,22.17125c-16.39238,2.95307 -15.00327,-10.27311 -15.14764,-21.93924c-0.14437,-11.66612 3.9356,-21.17532 9.11287,-21.23939c5.17728,-0.06407 9.49132,9.34125 9.63569,21.00737z"/><path d="M303.86301,189.21415c5.17728,-0.06407 9.49132,9.34125 9.63569,21.00737c0.14437,11.66612 1.86036,24.85388 -14.60008,22.30737c-22.65813,-3.50532 -4.00411,-10.40923 -4.14849,-22.07535c-0.14437,-11.66612 3.9356,-21.17532 9.11287,-21.23939z" data-paper-data="{&quot;index&quot;:null}"/><path d="M331.82802,184.90413c-1.14354,22.72086 -39.54034,30.463 -86.55319,28.09685c-47.01285,-2.36615 -84.83893,-13.94459 -83.6954,-36.66545c1.14354,-22.72086 41.00989,-12.72983 88.02274,-10.36368c47.01285,2.36615 83.36938,-3.78859 82.22585,18.93228z" data-paper-data="{&quot;index&quot;:null}"/><path d="M320.33663,185.22947c-0.98902,19.65063 -34.19733,26.3466 -74.85743,24.30018c-40.66009,-2.04642 -73.37482,-12.06029 -72.3858,-31.71092c0.98902,-19.65063 35.46829,-11.00967 76.1284,-8.96325c40.66009,2.04642 72.10385,-3.27664 71.11483,16.374z" data-paper-data="{&quot;index&quot;:null}"/></g><path d="M172.17361,186.98351c0,11.66702 18.73802,18.33957 -3.875,22.125c-16.42767,2.75 -14.875,-10.45798 -14.875,-22.125c0,-11.66702 4.19733,-21.125 9.375,-21.125c5.17767,0 9.375,9.45798 9.375,21.125z" fill="#3d4698" stroke="#000000" stroke-width="2"/><path d="M312.0479,168.60851c5.17767,0 9.375,9.45798 9.375,21.125c0,11.66702 1.55267,24.875 -14.875,22.125c-22.61302,-3.78543 -3.875,-10.45798 -3.875,-22.125c0,-11.66702 4.19733,-21.125 9.375,-21.125z" data-paper-data="{&quot;index&quot;:null}" fill="#3d4698" stroke="#000000" stroke-width="2"/><path d="M187.17361,200.98351c0,11.66702 18.73802,18.33957 -3.875,22.125c-16.42767,2.75 -14.875,-10.45798 -14.875,-22.125c0,-11.66702 4.19733,-21.125 9.375,-21.125c5.17767,0 9.375,9.45798 9.375,21.125z" fill="#3d4698" stroke="#000000" stroke-width="2"/><path d="M297.0479,182.60851c5.17767,0 9.375,9.45798 9.375,21.125c0,11.66702 1.55267,24.875 -14.875,22.125c-22.61302,-3.78543 -3.875,-10.45798 -3.875,-22.125c0,-11.66702 4.19733,-21.125 9.375,-21.125z" data-paper-data="{&quot;index&quot;:null}" fill="#3d4698" stroke="#000000" stroke-width="2"/><path d="M325.06412,178.64487c-1.42461,22.70497 -39.91427,29.97138 -86.89424,27.02366c-46.97997,-2.94773 -84.65988,-14.99335 -83.23528,-37.69832c1.42461,-22.70497 41.16427,-12.22138 88.14424,-9.27366c46.97997,2.94773 83.40988,-2.75665 81.98528,19.94832z" data-paper-data="{&quot;index&quot;:null}" fill="#222254" stroke="#000000" stroke-width="2"/><path d="M313.56957,178.82799c-1.2321,19.63689 -34.52073,25.92141 -75.15239,23.37201c-40.63166,-2.54941 -73.21996,-12.96733 -71.98786,-32.60422c1.2321,-19.63689 35.60182,-10.56993 76.23348,-8.02053c40.63166,2.54941 72.13887,-2.38415 70.90677,17.25274z" data-paper-data="{&quot;index&quot;:null}" fill="#afafd0" stroke="#000000" stroke-width="2"/></g></g></svg>