<svg version="1.1" xmlns="http://www.w3.org/2000/svg" xmlns:xlink="http://www.w3.org/1999/xlink" width="781.34049" height="408.28343" viewBox="0,0,781.34049,408.28343"><g transform="translate(129.86932,5)"><g data-paper-data="{&quot;isPaintingLayer&quot;:true}" fill-rule="nonzero" stroke="none" stroke-linecap="butt" stroke-linejoin="miter" stroke-miterlimit="10" stroke-dasharray="" stroke-dashoffset="0" style="mix-blend-mode: normal"><path d="M-115.74294,386v-391h693.42259v391z" fill="#ffdbdb" stroke-width="0"/><path d="M421.7636,318.85091c-3.30412,0.60634 -4.13016,-1.81902 -4.13016,-1.81902l-1.01157,-3.34414c-1.41048,-1.10568 -4.09921,-0.64941 -5.88698,-1.40595c-3.20452,-1.35607 -4.71341,-4.77517 -8.31497,-5.394c-4.17286,-0.717 -8.58418,0.22195 -12.85691,-0.02207c-11.3182,-0.64641 -22.22231,-2.83594 -33.62213,-2.82711c-14.86322,-0.65688 -29.74107,-1.54256 -44.6185,-1.98487c-12.55512,-0.37326 -25.16738,0.29711 -37.72323,-0.06808c-0.57001,-0.01658 -1.13994,-0.03413 -1.70979,-0.05258c-3.16928,2.62188 -6.35409,5.23347 -9.58137,7.81784c-4.28352,3.43019 -8.43812,7.68425 -13.79158,10.28073l-5.15735,3.24488c-0.5976,0.38059 -1.3776,0.61093 -2.23089,0.61093c-1.88098,0 -3.4058,-1.11929 -3.4058,-2.5v-2.97716h0.27843l-0.18693,-0.57564c2.92913,-4.44766 5.9284,-8.81889 9.19662,-13.13823c0.9498,-1.25256 1.81762,-2.52129 2.63595,-3.8008c-9.57962,-0.52147 -19.16009,-1.05908 -28.77146,-1.30236c-22.12502,-0.56002 -44.65279,-0.7747 -66.6713,-2.51749c-12.83369,-1.0158 -25.61341,-3.47239 -38.35245,-5.01627c-11.43463,-1.38579 -23.03633,-1.92362 -33.95159,-4.8534c-6.9813,-1.88799 -13.94452,-3.8363 -20.91962,-5.76129c-4.28646,4.465 -8.7213,8.8174 -13.29758,13.1788c-5.31957,5.06979 -10.43454,11.62543 -17.14737,15.75623l-4.51407,3.7277c-0.62412,0.52022 -1.53827,0.84844 -2.55685,0.84844c-1.88097,0 -3.40581,-1.11929 -3.40581,-2.5c0,-0.18553 0.02753,-0.36634 0.07976,-0.54035l0.89984,-3.30639c1.30588,-4.78838 2.46645,-10.67286 5.34038,-15.11086c0.97857,-1.51114 2.94124,-2.59699 3.95018,-4.09734c1.93663,-2.87985 2.43041,-6.17129 3.75813,-9.23145c0.74835,-1.72483 1.47286,-3.49772 2.21941,-5.27586c-21.12567,-5.28509 -42.5375,-10.23743 -63.06334,-16.74909c-8.4139,-2.66925 -16.58971,-5.89472 -24.83612,-8.83348c-5.69706,-2.68316 -12.64561,-5.18684 -17.77889,-8.41872c-3.24846,-2.04521 -5.54481,-4.787 -8.24514,-7.22417c-1.65552,-1.49418 -3.93631,-2.72883 -4.90569,-4.51853c-0.25798,-0.4763 -1.00903,-9.84274 -1.08612,-10.74775c-0.18207,-2.13739 -0.91306,-8.73424 -0.34091,-10.72267c0.43171,-1.50035 1.80417,-2.7663 2.72861,-4.14144c3.08144,-4.58377 6.67473,-8.83262 10.3384,-13.17447c3.27403,-3.8801 8.64457,-9.40833 14.75256,-11.24708c2.03704,-0.61323 4.40019,-0.13434 6.6017,-0.15527c6.70136,-0.0637 13.42208,0.07126 20.12358,0.11284c39.33191,4.36176 78.0084,11.41373 116.73663,18.12444c0.23105,-0.32945 0.46179,-0.65908 0.69215,-0.98891c8.85562,-12.67851 17.10994,-25.6611 25.33825,-38.56488c10.26065,-16.09052 20.68712,-32.18081 30.25368,-48.52561c-11.94581,-2.54735 -23.75876,-5.56514 -35.61553,-8.30485c-23.80991,-5.50167 -48.08822,-11.01937 -71.03771,-18.28871c-7.84596,-2.48524 -15.38662,-5.79677 -22.98857,-8.66318c-12.16339,-4.58637 -25.93696,-8.41292 -36.05659,-15.1946c-2.07364,-1.40157 -4.14729,-2.80313 -6.22093,-4.2047c-1.77666,-0.40218 -3.34063,-1.0122 -4.15466,-2.14189c-0.30528,-0.42367 -0.5453,-0.80814 -0.72735,-1.15783c-4.65053,-3.14328 -9.30106,-6.28656 -13.95161,-9.42984c-5.55846,-3.75694 -10.19603,-6.78064 -14.22157,-11.5176c-3.86223,-4.54478 -5.03419,-4.71818 -5.09878,-10.33637c-0.01923,-1.67262 -0.53278,-3.74984 1.041,-4.95953c1.43024,-1.09936 4.09329,-0.51953 6.16268,-0.5776c4.53777,-0.12733 9.07385,0.28496 13.61078,0.42744c9.05266,0.28429 18.52142,0.0333 27.50595,0.87259c6.74466,0.63005 13.61339,2.12512 20.26556,3.16795c22.00167,3.44909 44.17607,7.93999 66.41341,10.41586c4.49704,0.50069 9.09575,0.39041 13.58929,0.90786c16.03095,1.84606 32.03764,5.01318 47.9281,7.89367c6.83494,-0.21749 13.77515,0.01465 20.54048,0.01464c5.76311,-0.00001 11.77755,-0.3544 17.52348,0c2.61727,0.16143 6.11243,-0.73512 7.81607,0.73223c1.71218,1.47471 1.1764,3.70301 1.02376,5.74269c3.60702,0.48282 7.20736,0.98557 10.79688,1.51899c29.02712,4.31359 57.05452,11.88978 85.97179,16.42914c13.06092,2.05441 26.35054,3.78834 39.44923,5.92417c4.55301,-3.437 9.3782,-6.7356 13.9323,-10.11011c2.71876,-2.01456 8.74159,-7.14423 13.23832,-5.70133c2.01551,0.64673 3.57916,9.8935 3.96893,11.77181c0.77162,3.71851 1.10828,7.33347 1.21508,10.95324c2.08678,0.5435 4.17053,1.08012 6.25331,1.58981c19.38741,4.74441 38.76886,9.50167 58.14749,14.26539c15.33368,3.76937 30.94607,7.57055 46.21391,11.93167c2.76753,-2.4275 5.53672,-4.90951 8.00475,-7.45736c0.53377,-0.55103 7.39727,-8.21016 7.77661,-8.51898c0.21821,-0.17764 10.37609,-6.33777 10.85318,-6.6276c2.71663,-1.61044 4.73433,-3.81663 6.51574,-6.0212l0.27382,-0.14087l-0.0677,-0.04466l3.24485,-2.65077c0.62378,-0.5139 1.53226,-0.83754 2.5437,-0.83754c1.7095,0 3.12481,0.92451 3.36867,2.12954l1.11062,4.89143c1.90623,4.90416 1.27607,10.27048 1.38781,15.30088c0.13981,6.29411 0.2364,12.58412 0.2426,18.87911c0.0023,2.34137 0.00408,4.68273 0.0054,7.0241c6.49818,2.96582 12.86933,6.0851 19.74314,8.60486c0,0 3.04624,1.11803 1.52311,3.3541c-1.52311,2.23607 -4.56937,1.11803 -4.56937,1.11803c-5.7935,-2.12881 -11.23503,-4.67435 -16.69444,-7.19675c0.0043,15.69924 -0.00784,31.39851 -0.00784,47.09774c0,14.54558 -2.09033,29.06186 -3.57562,43.56357c-1.25241,12.22806 0.12223,24.71621 -3.24644,36.83887c-1.80502,6.49562 -5.0308,12.96199 -7.51689,19.33781c-3.69578,13.9346 -10.81454,28.16435 -5.96581,42.40099l0.02551,4.275c0,0 0,2.5 -3.4058,2.5c-3.4058,0 -3.40582,-2.5 -3.40582,-2.5l0.02551,-3.66408c-5.04647,-14.81722 2.23852,-29.67935 6.10283,-44.17866c2.45041,-6.30616 5.66013,-12.7018 7.45347,-19.12315c3.32831,-11.91767 1.9151,-24.23518 3.14089,-36.26073c1.46553,-14.3775 3.55655,-28.76911 3.55655,-43.18962c0,-16.7119 0.13845,-33.42867 0.10503,-50.14286c-1.9659,-0.86311 -3.95308,-1.70067 -5.97813,-2.49298c-9.83083,-3.84637 -20.07009,-7.21982 -30.50679,-10.29807c-6.19691,5.35673 -13.16217,10.17642 -18.26385,16.18937c-10.73872,12.65686 -17.47637,27.04347 -27.04056,40.17363c-4.18847,5.75012 -8.58343,11.44924 -13.1462,17.08816c4.32238,2.25155 8.8513,4.45192 12.66565,7.03391c4.97219,3.36576 9.20159,7.58052 13.93814,11.14916c3.61585,2.72427 11.97881,7.55411 10.03278,12.16629c-0.77924,1.84684 -3.24402,3.08635 -5.27036,4.32149c-6.44835,3.93054 -15.8283,6.98819 -23.68782,8.91957c-7.00185,1.72062 -13.0618,3.21739 -20.42998,3.78736c-6.79111,0.51095 -13.7081,1.32125 -20.52684,1.54012c-3.99492,0.12823 -8.01312,0.15579 -12.0413,0.12704c-6.92906,6.46697 -14.05009,12.83543 -20.93162,19.28266c-6.99917,6.55744 -13.61264,13.56134 -21.13657,19.79521c-10.12086,8.38555 -21.75878,15.74798 -31.8883,24.15913c-0.91428,0.75918 -1.82782,1.51879 -2.74128,2.27841c11.25511,0.15602 22.54617,-0.34702 33.79189,-0.01545c14.87413,0.43855 29.75131,1.31906 44.61021,1.98468c11.51957,0.00856 22.51396,2.18707 33.94439,2.83989c1.82422,0.10419 13.11182,-0.01989 14.3872,0.24083c3.87145,0.79143 5.75766,4.21878 9.25572,5.67102c1.35919,0.56428 3.26758,-0.10303 4.64711,0.43401c1.71834,0.66893 2.77863,1.9984 4.16794,2.9976l1.69233,4.59495c0,0 0.82603,2.42536 -2.47809,3.0317zM108.01835,200.73192c9.906,1.6591 19.82059,3.40073 29.75021,5.1172c6.33775,-5.18281 12.69083,-10.36071 19.01257,-15.57612c13.61963,-11.23614 26.5173,-22.49546 41.4095,-32.8516c3.24394,-2.25585 6.6957,-4.36042 9.73659,-6.76385c4.21689,-3.33291 7.50189,-7.3201 11.79138,-10.60362c4.1737,-3.19488 8.62701,-6.1919 13.15299,-9.1375c-19.86291,-5.87603 -40.01128,-11.882 -60.33894,-16.5321c-7.27176,-1.66347 -14.88315,-2.57851 -22.29098,-3.9311c-9.69718,16.61272 -20.28529,32.96218 -30.7107,49.31107c-8.23901,12.91987 -16.50546,25.91703 -25.36748,38.61366c4.61657,0.79374 9.23447,1.5801 13.85489,2.35395zM187.64457,213.73296c19.58186,2.60983 39.65429,3.94474 59.37873,5.90793c6.77893,0.67471 13.64522,1.18744 20.3884,2.03142c8.1527,1.0204 16.19142,3.26311 24.39815,3.96522c0.6418,0.05491 1.28629,0.10418 1.93315,0.14831c2.21727,-4.79048 4.04556,-9.73509 6.15462,-14.51031c6.28078,-14.1944 15.12843,-27.80977 20.67419,-42.23422c1.72953,-4.49845 3.09224,-9.10908 4.39704,-13.72491c-5.9468,-1.92217 -11.93708,-3.90427 -18.02603,-5.34658c-4.29415,-1.01717 -8.83866,-1.37036 -13.16674,-2.30685c-17.44734,-3.77518 -34.52863,-8.99733 -51.4016,-13.94472c-0.81668,-0.23946 -1.63388,-0.47955 -2.45157,-0.72016c-5.23853,3.38114 -10.42424,6.79944 -15.23975,10.47929c-4.2811,3.27146 -7.55781,7.25766 -11.76483,10.58275c-0.09808,0.07752 -9.83813,6.84855 -10.04305,6.99104c-14.75042,10.25753 -27.51394,21.41516 -41.00526,32.54545c-5.49918,4.53681 -11.02223,9.04502 -16.5382,13.55277c14.06472,2.40142 28.16287,4.6977 42.31276,6.58357zM325.52015,225.98958c8.48939,0.09189 17.08114,0.41589 25.64254,0.535c4.44119,-4.18604 8.78229,-8.42138 12.90517,-12.75443c9.26383,-9.73607 18.23544,-19.73655 26.67549,-29.94557c-6.05735,-3.44217 -11.97194,-7.04005 -17.85817,-10.63472c-3.36451,-2.05476 -6.33615,-4.50899 -10.07049,-6.18452c-3.73435,-1.67553 -8.06504,-2.4977 -12.09053,-3.7587c-6.25198,-1.95846 -12.53611,-3.8522 -18.82416,-5.74727c-0.18365,-0.05535 -0.36734,-0.11098 -0.55104,-0.16688c-1.25284,4.39558 -2.57381,8.78089 -4.22162,13.06683c-5.56961,14.4865 -14.46466,28.15911 -20.75015,42.41817c-1.9278,4.36484 -3.63027,8.86555 -5.5951,13.26766c8.23398,0.17004 16.67219,-0.18289 24.73805,-0.09559zM366.18642,226.43401c6.68631,-0.21461 13.47088,-1.01782 20.12985,-1.51883c6.87307,-0.50088 12.43079,-1.96397 18.97052,-3.55684c6.16048,-1.5005 10.55041,-3.40488 16.16267,-5.79622c2.87144,-1.2235 6.89211,-1.78735 8.36178,-3.9727c0.28674,-0.42637 -0.50675,-0.88483 -0.89062,-1.26784c-3.60219,-3.59412 -8.11791,-6.5082 -12.24071,-9.7591c-3.03447,-2.39273 -5.59051,-5.12138 -8.86405,-7.33781c-3.47848,-2.3552 -7.59104,-4.37854 -11.56452,-6.42536c-8.42419,10.16896 -17.36784,20.13225 -26.6001,29.83495c-3.19619,3.35905 -6.52198,6.65994 -9.92344,9.92483c2.15838,-0.01684 4.31197,-0.05617 6.45862,-0.12507zM327.1978,70.87925c3.98998,0.77825 7.94829,1.73849 11.8885,2.74734c-0.07869,-1.20538 -0.22736,-2.40104 -0.47443,-3.58079c-0.68996,-3.29463 -1.99563,-6.55289 -2.05142,-9.88597c-0.01744,-1.04207 2.02008,-2.42458 0.89179,-3.05715c-1.02033,-0.57204 -1.44927,1.5607 -2.2862,2.27537c-2.47733,2.11544 -5.31801,3.98614 -7.98663,5.97227c-1.98239,1.47539 -3.91825,2.95237 -5.81545,4.43752c1.95137,0.35053 3.89646,0.71353 5.83386,1.09141zM491.92381,114.9459c0.92589,0.36226 1.84375,0.73415 2.7552,1.11373c-0.01986,-4.29522 -0.05343,-8.59022 -0.106,-12.88486c-0.07977,-6.51809 0.3739,-13.30431 -0.43034,-19.7933c-0.1918,-1.54751 -0.46997,-3.14734 -0.42165,-4.7111c-1.86028,2.08902 -4.00948,4.06765 -6.59369,5.66765c-3.37141,2.0481 -7.20669,3.73811 -10.13721,6.12386c-2.96348,2.41258 -4.76989,5.47596 -7.33701,8.12203c-2.12934,2.19483 -4.47091,4.3436 -6.84738,6.45147c9.9527,2.97888 19.71757,6.2325 29.11808,9.9105zM407.7729,95.89955c-19.3757,-4.763 -38.75423,-9.51954 -58.13871,-14.26324c-1.36023,-0.33287 -2.721,-0.67774 -4.08283,-1.02872c-0.04169,2.22317 -0.13157,4.4677 -0.22335,6.75808c-0.32015,7.99013 -0.30122,15.99016 -1.56892,23.93196c-1.88016,11.73091 -5.59259,23.06098 -9.11896,34.57921c-0.65614,2.1432 -1.27406,4.3028 -1.88473,6.46809c0.57747,0.17868 1.15467,0.35523 1.73168,0.52913c10.27736,3.09734 22.3998,5.61152 31.8801,9.86515c0.27724,0.12439 10.39979,6.31709 10.87456,6.60704c5.61665,3.43036 11.25926,6.86427 17.02993,10.15935c4.37971,-5.42668 8.60151,-10.90943 12.63006,-16.44001c9.63807,-13.23158 16.44179,-27.70229 27.26549,-40.45931c4.87016,-5.74006 11.32617,-10.43643 17.32769,-15.48147c-14.46873,-4.07458 -29.22613,-7.66183 -43.722,-11.22526zM325.40428,75.70282c-3.08174,-0.60005 -6.18306,-1.16226 -9.29818,-1.69659c-5.33815,4.39091 -10.40998,8.90392 -15.40873,13.70221c-6.73284,6.44079 -15.39093,11.20628 -23.06028,17.00816c-6.31858,4.78002 -11.6758,10.24686 -18.01133,15.01529c-4.4389,3.34093 -9.17324,6.47284 -13.96029,9.56733c16.4274,4.82299 33.05674,9.89375 50.03657,13.56777c1.53269,0.33164 11.99787,2.02827 13.33266,2.34445c5.85461,1.38681 11.61879,3.25506 17.34087,5.10288c0.52418,-1.85233 1.05704,-3.69924 1.6187,-5.53379c3.4744,-11.34847 7.14761,-22.51034 8.99985,-34.0671c1.2543,-7.79306 1.21101,-15.65329 1.5252,-23.49475c0.10906,-2.72156 0.40657,-5.51298 0.55415,-8.30056c-4.52817,-1.17821 -9.07782,-2.32129 -13.66921,-3.21529zM272.30409,67.35438c-28.91102,-4.55621 -56.93615,-12.12461 -85.96334,-16.42782c-3.13635,-0.46495 -6.28081,-0.90666 -9.43069,-1.33231c-0.27369,5.18455 -1.47854,10.49208 -3.47936,15.31749c-5.82826,13.90408 -12.84309,27.48574 -20.4972,40.88144c7.19036,1.28179 14.54724,2.20002 21.59516,3.81064c21.60085,4.93632 42.99986,11.39298 64.07118,17.61597c5.52795,-3.55723 11.03479,-7.12937 16.14947,-10.97892c6.33089,-4.76494 11.68435,-10.22893 17.99921,-15.00614c7.46848,-5.64992 16.01502,-10.27884 22.53799,-16.56355c4.14004,-3.97402 8.06268,-8.24753 12.53201,-12.02321c-11.81824,-1.8579 -23.75979,-3.44465 -35.51442,-5.29359zM140.41031,44.9777c-3.66994,-0.61183 -7.34746,-1.26122 -11.03139,-1.92768c-1.86624,0.07502 -3.72198,0.18923 -5.56047,0.35815c-4.47588,0.41123 -8.84292,1.32574 -13.30262,1.82274c-13.57014,1.51227 -27.1663,1.96969 -40.85637,2.37165c-17.83946,0.5238 -36.08926,1.41664 -53.76554,3.34704c-8.26444,0.90255 -16.27099,3.24118 -24.55962,4.01826c-0.17069,0.016 -4.59392,0.13076 -8.5039,0.22409c9.48122,6.35518 22.86027,9.92602 34.2556,14.22278c7.48017,2.8205 14.90159,6.0931 22.6231,8.5353c22.72663,7.1881 46.76217,12.64769 70.33609,18.09483c12.06795,2.7885 24.09012,5.86916 36.25506,8.4393c7.70555,-13.44671 14.76753,-27.08081 20.6201,-41.04285c2.11382,-4.98229 2.14525,-9.77847 2.73714,-14.80092c-9.74421,-1.25098 -19.52002,-2.40141 -29.24713,-3.66269zM81.06528,35.07245c-4.47897,-0.51543 -9.06288,-0.40379 -13.54528,-0.90285c-22.37355,-2.49104 -44.6788,-6.99948 -66.81455,-10.46959c-6.46561,-1.01358 -13.14661,-2.48524 -19.70283,-3.09769c-8.79379,-0.82147 -18.07597,-0.55887 -26.93718,-0.83715c-4.53693,-0.14248 -9.13744,0.14616 -13.61078,-0.42744c-0.52472,-0.06728 -0.93534,-1.16238 -1.15905,-0.80753c-0.23924,0.37946 0.90191,0.58931 1.041,0.99478c0.47717,1.39102 0.08216,2.9223 0.76385,4.26663c0.70978,1.39971 2.22078,2.50314 3.30897,3.76513c4.79338,5.55894 11.49741,9.43753 18.07797,13.8853c2.71628,1.83592 5.43256,3.67184 8.14885,5.50777c1.03419,-0.31476 1.9582,-0.70206 2.36315,-1.4099c0.35682,-0.6237 -0.17284,-1.34697 -0.25925,-2.02045c0,0 0,-2.5 3.40581,-2.5c3.40581,0 3.40581,2.5 3.40581,2.5c-0.08641,1.31129 0.39017,2.71065 -0.25924,3.93387c-0.58072,1.09379 -1.96725,1.88019 -3.21661,2.61304c-0.1245,0.07303 -0.32502,0.13314 -0.55682,0.18373c0.26233,0.17731 0.52467,0.35462 0.787,0.53193c2.53061,-0.00676 5.12393,-0.55211 7.67197,-0.62047c10.6334,-0.28527 20.37476,-2.99976 30.83301,-4.14837c17.93921,-1.97024 36.4702,-2.87501 54.57619,-3.40664c13.43954,-0.39461 26.78413,-0.83437 40.10621,-2.319c0.23049,-0.02569 1.31032,-0.17283 2.767,-0.37371c-10.3717,-1.87861 -20.77894,-3.64272 -31.19514,-4.8414zM325.41974,230.98904c-8.81373,-0.0954 -18.04624,0.30841 -27.00315,0.03046c-0.16931,0.32563 -0.34118,0.65019 -0.51585,0.97356c-5.65398,10.46825 -14.65115,20.10407 -19.77565,30.71086c-2.271,4.70054 -2.80914,9.90366 -5.29326,14.54764c-2.48775,4.65076 -6.75755,8.88642 -9.66657,13.40552c-1.23115,1.91255 -2.34974,3.83688 -3.45441,5.75789c3.0706,0.15195 6.14212,0.29139 9.21558,0.40811c4.72609,-3.99054 9.38526,-8.05406 14.33495,-11.8817c7.77019,-6.00874 16.53209,-11.42334 24.01461,-17.62291c7.43219,-6.15788 13.95906,-13.08547 20.8732,-19.56324c5.83171,-5.46366 11.8385,-10.86988 17.7525,-16.32844c-6.84736,-0.14617 -13.69637,-0.36431 -20.48194,-0.43776zM291.02128,230.60391c-8.35085,-0.71444 -16.51094,-2.97333 -24.80253,-4.00888c-6.65148,-0.83071 -13.4244,-1.33399 -20.1107,-1.99949c-19.81688,-1.97239 -39.97776,-3.31988 -59.65232,-5.93933c-15.49192,-2.06258 -30.92184,-4.61596 -46.31366,-7.26247c-10.91054,8.93332 -21.75521,17.89945 -32.29366,27.117c-5.83477,5.10345 -11.3578,10.67924 -17.68185,15.45525c-3.12168,2.35754 -7.04081,4.11059 -10.0551,6.54226c-5.36522,4.3282 -9.38244,10.36754 -13.80988,15.24243c-0.44208,0.48676 -0.88587,0.97166 -1.33136,1.45487c6.42834,1.77721 12.84866,3.56844 19.28423,5.30885c12.44478,3.39344 26.39653,3.78592 39.45533,5.49515c10.34338,1.35382 20.84955,3.27984 31.29322,4.10078c21.83436,1.71631 44.1679,1.93061 66.10674,2.48592c10.50548,0.26591 20.97435,0.88302 31.44538,1.44667c1.43861,-2.50543 2.84456,-5.02572 4.45142,-7.52195c2.83891,-4.41018 7.05832,-8.56045 9.48489,-13.09683c2.45914,-4.59727 2.97985,-9.78123 5.23734,-14.4394c5.08416,-10.49081 13.88964,-20.02804 19.57921,-30.35668c-0.09562,-0.00793 -0.19119,-0.01598 -0.2867,-0.02415zM106.50309,205.60663c-5.19112,-0.86943 -10.37895,-1.75415 -15.56521,-2.64704c-11.02164,15.54035 -22.5134,30.76481 -31.41013,47.06187c-4.1362,5.8201 -9.07823,11.6227 -12.57718,17.66067c-0.77289,1.33374 -1.44706,2.70691 -2.05971,4.10457c4.51317,1.17057 9.01067,2.38074 13.50043,3.60849c2.02032,-2.17863 4.01834,-4.37312 6.02109,-6.57827c3.36996,-3.71052 6.47978,-8.27841 10.5605,-11.59083c1.58081,-1.28319 8.52283,-5.39596 10.30916,-6.74502c6.20767,-4.68812 11.621,-10.17476 17.34871,-15.18457c9.78714,-8.56041 19.83751,-16.905 29.95975,-25.20745c-8.70531,-1.50919 -17.39968,-3.02737 -26.08743,-4.48244zM-29.94421,184.05827c-6.53218,-0.02809 -13.07884,0.02048 -19.60921,-0.0972c-1.40599,-0.02534 -2.92314,-0.5652 -4.21391,-0.15527c-4.57046,1.45152 -8.90109,6.27892 -11.31466,9.17814c-3.53172,4.24236 -6.96648,8.37012 -10.05146,12.7965c-0.71318,1.02328 -1.8692,1.92593 -2.18843,3.0512c-0.29882,1.05333 0.44491,8.48588 0.51093,9.25776c0.26243,3.06871 -0.93004,6.3559 0.61753,9.21312c0.70887,1.30877 2.56354,2.09644 3.81084,3.16666c2.55774,2.1946 4.52824,4.80309 7.52185,6.67727c4.79653,3.00291 11.29221,5.29431 16.59982,7.80401c8.04476,2.85371 16.00558,6.00303 24.20592,8.60453c20.3263,6.44836 41.53128,11.34765 62.45273,16.57969c0.70551,-1.5032 1.45743,-2.98208 2.2847,-4.40967c3.52599,-6.08466 8.47833,-11.93134 12.65653,-17.79233c8.69431,-15.98519 19.92488,-30.93548 30.75566,-46.15551c-37.83598,-6.55779 -75.62783,-13.38441 -114.03886,-17.71889zM171.12238,42.31007c-0.54889,-0.66022 -1.95623,0.62395 -2.99954,0.73223c-0.73741,0.07653 -1.48292,0.06875 -2.22981,0.04631c1.71442,0.21491 3.42827,0.43183 5.14113,0.65191c0.28952,-0.50717 0.44958,-0.99579 0.08821,-1.43045zM36.44678,291.59892c-0.98772,1.49347 -2.9409,2.56751 -3.92665,4.06168c-1.59757,2.42155 -2.58379,5.39744 -3.37338,8.33157c0.25905,-0.19564 0.50954,-0.39594 0.74468,-0.60444c5.75221,-5.10058 11.04613,-10.52999 16.55094,-15.77632c2.74966,-2.62055 5.38443,-5.28126 7.95693,-7.97199c-3.79333,-1.03288 -7.59293,-2.05113 -11.40362,-3.04136c-1.86465,5.13139 -3.47958,10.36001 -6.54888,15.00086zM252.96492,307.12466c-1.47177,1.94408 -2.88438,3.90575 -4.28109,5.87348c1.30199,-0.93153 2.66679,-1.87136 4.00017,-2.94006c3.51368,-2.81624 7.02716,-5.62817 10.50091,-8.46879c-2.10441,-0.09603 -4.20818,-0.19988 -6.31162,-0.30827c-1.19186,1.97071 -2.45822,3.92417 -3.90836,5.84363z" fill="#ffd6d6" stroke-width="0.5"/><path d="M651.47103,371.99916c0,2.5 -3.40581,2.5 -3.40581,2.5l-0.81469,-0.41987c-1.6527,0.76579 -3.06655,1.93641 -4.95811,2.29738c-6.18666,1.18059 -14.70642,-0.04857 -21.11381,0.10477c-18.7899,0.44967 -37.77342,2.50788 -56.46496,3.94819c-10.38127,1.3242 -20.86721,3.12191 -31.33529,3.98355c-8.98891,0.73989 -18.19385,0.20546 -27.16644,1.03009c-8.88278,0.81637 -17.71999,2.70595 -26.52648,3.90073c-17.10798,2.32105 -34.29808,4.13459 -51.56934,5.6261c-28.64204,2.47346 -57.43673,5.82188 -86.19759,7.3601c-18.11913,0.96907 -36.56103,0.94816 -54.72029,0.94816c-46.51296,0 -93.02601,0.01816 -139.53896,-0.01427c-13.70014,-0.01692 -27.4251,-1.66865 -41.03602,-2.78651c-18.25441,-1.49923 -36.31991,-3.10656 -54.23474,-6.20398c-13.59209,-2.35003 -26.62718,-6.73991 -40.42228,-8.41099c-6.72485,-0.82272 -13.85566,-1.29249 -20.46397,-2.51434c-6.104,-1.12861 -12.20378,-3.25543 -18.11455,-4.83764c-8.5473,-2.28796 -17.67257,-4.26749 -25.82188,-7.25919c-0.42021,-0.15426 -10.60534,-4.87489 -10.85251,-4.97589c-5.61674,-2.29515 -10.83114,-3.02573 -15.74938,-6.43771c-2.6188,-1.81677 -3.88138,-4.47158 -6.16016,-6.52048c-1.64627,-1.4802 -4.27407,-2.43746 -5.34607,-4.17875c-0.92191,-1.4975 -0.21647,-3.28324 -0.25924,-4.92625c-0.07685,-2.95183 0.07194,-5.9069 0.30601,-8.85427c2.51275,-3.11672 4.29555,-6.55764 7.137,-9.51834c2.23312,-2.32685 5.98194,-3.66121 8.52384,-5.81056c1.51453,-1.28064 2.38529,-2.93573 3.96683,-4.17196c3.69795,-2.89056 9.73473,-5.74875 13.97634,-8.23069c13.25396,-7.75546 29.02634,-13.54303 45.39585,-18.09851c-0.22371,-3.51883 -0.42313,-7.04145 -0.87612,-10.56654c-2.51724,-19.58849 -9.02751,-38.97637 -10.82473,-58.63179c-0.11597,-1.26831 -0.18757,-2.54381 -0.22758,-3.82387c-3.84239,-0.2252 -7.68259,-0.49274 -11.52034,-0.81056c-6.70088,-0.55493 -14.13864,-0.6065 -20.69895,-1.73141c-0.25572,-0.04385 -12.72076,-3.35462 -13.19527,-3.48044c-6.2482,-1.65668 -13.88566,-2.91466 -19.70006,-5.25522c-0.31804,-0.12803 -10.55477,-5.93464 -11.13823,-6.26491c-6.8072,-3.32902 -13.33239,-6.65482 -19.67806,-10.44179c-1.98824,-1.18654 -4.28634,-2.14757 -5.9307,-3.59011c-1.03204,-0.90536 -1.28308,-2.16539 -1.87972,-3.26164c-2.98359,-5.4819 -3.0498,-9.91827 -2.31141,-15.79391c1.71775,-13.66885 7.02057,-26.6789 14.51047,-39.17411c3.38868,-5.65326 5.95192,-11.98262 11.56383,-16.62679c7.61298,-6.18192 15.22597,-12.36383 22.83894,-18.54575c0.41944,-0.3406 9.24524,-7.51993 9.49917,-7.67295c4.98766,-3.00548 12.04946,-5.11224 17.69624,-7.37647c6.21435,-2.49182 12.40487,-5.66104 19.49996,-6.64824c5.98598,-0.83288 13.13162,0.03977 19.21515,-0.07317c0.79413,-0.01474 1.58809,-0.03258 2.38192,-0.05297c0.01658,-0.05682 0.03322,-0.11362 0.04989,-0.17042c5.66129,-19.28955 14.55024,-37.99183 20.18777,-57.3033c0,0 0.71361,-2.44451 4.04383,-1.92068c3.33021,0.52382 2.61659,2.96833 2.61659,2.96833c-5.52931,18.94078 -14.18579,37.29578 -19.85794,56.19232c7.49164,-0.29015 14.97831,-0.66445 22.48347,-0.66504c27.30419,0.00198 54.49472,0.60522 81.77943,0.99252c9.09487,0.1291 18.30508,-0.39395 27.38387,0.00399c11.30067,0.49533 22.69722,1.99451 33.93988,2.98551c4.75519,0.2905 9.51206,0.59305 14.27083,0.88991c2.34997,-1.82245 4.7417,-3.66593 5.02001,-3.88106c4.68912,-3.62452 9.20451,-7.66852 14.26176,-11.01281c6.71327,-4.43939 14.56398,-8.22823 21.73152,-12.27115c3.27599,-2.07008 6.55827,-4.13484 9.84784,-6.19328l1.97689,-2.14159c0.60871,-0.67986 1.65705,-1.12872 2.84821,-1.12872c1.88098,0 3.4058,1.11929 3.4058,2.5c0,0.05669 -0.00257,0.11294 -0.00762,0.16869l-0.39823,4.96949c1.22168,10.14074 -2.70976,20.99376 -3.95724,31.20696c23.83118,0.23631 47.72793,-0.17754 71.5461,-0.19775c37.47513,-0.69067 74.93536,-0.96445 112.31732,-2.61353c0.48545,-1.48896 1.05024,-2.93784 1.73277,-4.31942c2.27275,-4.60054 6.84627,-9.28488 10.19592,-13.51033c0.34388,-0.43378 6.52756,-8.31317 7.03594,-8.63391c1.98729,-1.25377 4.73272,-1.65283 7.11506,-2.45395c4.08649,-1.37418 8.26607,-2.59791 12.46122,-3.78258c3.97967,-1.12383 7.73314,-2.96376 11.971,-3.30981c2.51283,-0.20519 5.04738,0.24172 7.56137,0.43909c2.75245,0.21609 5.85632,-0.24154 8.23246,0.80084c2.34091,1.02692 3.13225,3.27793 4.74497,4.89219c5.20673,5.21171 9.53414,10.16157 13.72316,15.87212c1.82483,2.51609 3.02194,4.9188 3.97817,7.39613c11.1408,-1.50816 22.21561,-3.35444 33.40992,-4.59038c8.05699,-0.88955 16.24942,-1.13618 24.32614,-1.98384c0,0 3.37158,-0.35355 3.85324,2.12132c0.48165,2.47487 -2.88993,2.82843 -2.88993,2.82843c-8.08195,0.8468 -16.28347,1.09257 -24.34408,1.9857c-10.9643,1.21487 -21.81492,3.00936 -32.72547,4.49839c0.22296,0.73228 0.4463,1.47941 0.67818,2.24535c1.46943,4.8538 3.70285,9.95918 4.49088,14.89409c1.05021,6.57682 0.29056,13.62678 0.42322,20.25214c0.3553,17.74373 1.31313,35.94906 -4.23933,53.27094c-1.62041,5.00352 -1.29601,9.50609 -2.08782,14.56998c-0.76639,4.90131 -1.9869,10.24154 -3.58758,15.26878c4.08882,0.37514 10.24183,0.94383 10.46552,0.99052c6.31002,1.31704 12.61709,4.20646 18.81204,5.91327c8.25256,2.27371 17.55389,2.90296 25.20403,6.35083c7.21635,3.25237 14.10163,7.41899 20.60168,11.39291c4.52812,2.77491 8.60077,5.90169 12.73987,8.98486c1.79122,1.33427 4.03665,2.41707 5.33799,4.02846c3.27974,4.06114 4.33208,10.7946 5.39406,15.3841c1.16512,5.03519 3.02221,10.14586 2.24161,15.30135c-0.9369,6.18777 -3.69333,12.64616 -7.43966,18.16942c-1.76382,2.60044 -2.93964,5.47559 -5.34876,7.78024c-6.35355,6.07802 -15.38615,10.84612 -23.63348,15.38493c-10.00466,6.12192 -21.12068,10.20716 -32.5907,14.71034c-0.38873,0.15261 -11.44196,4.52102 -11.95633,4.60906c-6.19438,1.0602 -14.87438,0.075 -21.26283,0.075c-0.11972,0 -0.23948,-0.00004 -0.35926,-0.00013c0.27526,0.4527 0.55274,0.9044 0.85721,1.34403l1.18078,-0.12565c0,0 3.04624,1.11803 1.52312,3.3541c-1.52312,2.23607 -4.56937,1.11803 -4.56937,1.11803l-4.22703,-2.11042c-0.80687,-1.2086 -1.36065,-2.52755 -2.42059,-3.6258c-0.00768,-0.00796 -0.01541,-0.01591 -0.02317,-0.02383c-18.81516,-0.33333 -38.04814,-1.92116 -55.84722,-6.00404c-27.14254,-6.23014 -55.25161,-8.81582 -82.75679,-13.84172c-0.02178,-0.00398 -0.04356,-0.00796 -0.06536,-0.01195c-2.26575,3.51211 -4.64503,6.99043 -7.1019,10.50125c-0.23982,0.3427 -6.28315,8.99132 -6.43695,9.15751c-3.77875,4.0834 -9.27745,7.81129 -13.71062,11.53016c-7.78361,6.52946 -14.54469,13.17108 -27.18088,14.48449c-7.63011,0.79308 -14.27747,-1.56847 -21.3162,-3.24184c-0.81178,-0.19299 -13.20384,-3.12214 -13.60311,-3.28992c-2.17281,-0.91305 -3.77447,-2.41529 -5.6617,-3.62293c-1.84388,-1.22321 -3.97681,-2.24639 -5.53162,-3.66962c-3.61425,-3.30842 -5.81726,-8.43601 -8.4723,-12.21566c-6.18797,-8.80909 -12.57221,-18.65933 -15.36185,-28.44694c-0.90077,-3.16039 -1.12996,-6.61399 -1.31082,-10.00017c-6.53688,-0.4264 -13.07677,-0.76718 -19.60595,-0.95638c-13.00865,-0.37697 -26.15339,0.00199 -39.17438,0.00199c-22.03106,0 -44.17592,-0.47933 -66.19671,-0.00109c-2.91292,0.06326 -5.82717,0.14484 -8.74207,0.2435c-12.51132,14.35514 -25.75347,28.44668 -40.07796,41.79963c-10.76638,10.0329 -22.77524,20.1669 -37.88957,26.80525c-5.9047,2.5934 -13.32894,4.88001 -17.69608,-0.78914c-0.80469,-1.04458 -0.33049,-2.39739 -0.74395,-3.55839c-0.59084,-1.65903 -1.87671,-3.17826 -2.25772,-4.87008c-0.02508,-0.11137 -0.08926,-10.03486 -0.09185,-10.40163c-0.06574,-9.3359 -0.99917,-18.32686 -2.93239,-27.55074c-0.53487,-2.56246 -0.86871,-5.12784 -1.10985,-7.69561c-10.53004,3.15607 -20.79853,6.78408 -30.76839,10.95567c-5.92063,2.47731 -10.80582,5.38377 -16.12559,8.50129c-2.63609,1.54481 -5.62964,2.80434 -7.92641,4.61771c-1.51892,1.19924 -2.33877,2.80715 -3.80565,4.0408c-2.44376,2.05522 -6.11006,3.28429 -8.21643,5.53175c-2.34661,2.50379 -3.83931,5.39354 -6.06069,7.95815c-0.01624,2.4701 0.06475,4.94095 -0.01581,7.41037c-0.03281,1.00599 -0.87299,2.11303 -0.25925,3.01283c0.86893,1.27395 3.02875,1.80755 4.28701,2.89232c2.23238,1.92459 3.3444,4.5129 5.83797,6.25617c4.16285,2.91027 9.17592,3.51407 13.99353,5.47092c3.70781,1.50607 6.98751,3.55821 10.77868,4.94797c7.90562,2.89802 16.78383,4.80167 25.07337,7.02064c5.71019,1.52852 11.61668,3.61457 17.51502,4.69979c6.40904,1.17918 13.33006,1.62002 19.84967,2.41763c13.98065,1.72565 27.16053,6.11432 40.93963,8.48953c17.62915,3.03887 35.39428,4.6133 53.35498,6.08842c13.35303,1.09668 26.84475,2.75378 40.28509,2.75551c46.51078,0.03243 93.02167,0.01426 139.53248,0.01426c17.99459,0 36.27083,0.02532 54.22531,-0.93494c28.65966,-1.53281 57.3552,-4.8743 85.89669,-7.33907c17.12678,-1.47903 34.17231,-3.27644 51.1372,-5.57842c8.93507,-1.21241 17.89484,-3.11554 26.90825,-3.94392c9.00491,-0.8276 18.23546,-0.29538 27.25361,-1.03768c10.40773,-0.85667 20.83211,-2.65678 31.15566,-3.96698c18.90308,-1.46443 38.09506,-3.52674 57.09887,-3.99089c7.24752,-0.17701 16.59478,1.61592 22.5983,-1.5674l4.5931,-0.41987c0,0 3.40581,0 3.40581,2.5zM25.10262,281.13003c20.76817,-2.0871 41.78293,-3.73653 62.77495,-4.5406c2.32206,-2.68482 4.61912,-5.37804 6.89351,-8.07649c9.51049,-11.28362 19.45542,-22.24292 26.91609,-34.33754c4.21126,-6.82695 8.03947,-13.752 11.76782,-20.7133c-32.286,3.36923 -65.08511,4.2401 -97.61582,4.2401c-17.50577,0 -34.99373,-0.0323 -52.43984,-0.83941c0.04107,1.04929 0.10551,2.09506 0.20075,3.13577c1.79353,19.59979 8.2899,38.93573 10.80647,58.46973c0.39832,3.09192 0.59373,6.18385 0.78311,9.27318c9.98973,-2.56461 20.10294,-4.71395 29.91296,-6.61145zM100.26902,276.21599c22.08812,-0.4797 44.29981,-0.00109 66.39816,-0.00109c13.11191,0 26.34658,-0.37779 39.44619,0.00199c6.33291,0.1836 12.67573,0.50743 19.01621,0.91326c-0.00195,-0.02154 -0.00389,-0.04307 -0.00587,-0.06458c-1.21266,-13.24798 -1.03226,-26.50496 -2.06479,-39.76854c-1.0084,-12.95352 -1.6719,-25.9541 -2.10663,-38.96908c-0.61932,0.1453 -1.23769,0.28569 -1.85505,0.41923c-14.50176,3.1367 -29.20916,6.20208 -43.96418,8.6094c-8.8835,1.44833 -17.78285,3.191 -26.74192,4.35751c-2.38374,0.31038 -4.77098,0.60559 -7.16139,0.88632c-4.22725,7.94544 -8.53631,15.85429 -13.33738,23.6374c-7.58411,12.29473 -17.66223,23.43718 -27.32863,34.9058c-1.45543,1.72677 -2.92007,3.45139 -4.39456,5.17306c1.36691,-0.03742 2.73355,-0.07102 4.09989,-0.10069zM257.88727,279.66579c15.06964,1.23359 31.64623,2.32755 46.04872,5.82738c14.35683,3.51283 28.76276,6.8032 43.39768,9.61583c1.67883,-2.7316 3.28077,-5.49877 4.78858,-8.33422c4.68701,-8.81389 10.39353,-17.64527 14.19622,-26.68206c9.32826,-22.16779 13.58923,-45.44023 19.26628,-68.21518c-25.14497,-0.60921 -50.30015,-0.96975 -75.45527,-0.96975c-11.19867,-0.0017 -22.37861,0.65748 -33.55758,1.1267c-13.33739,0.55981 -26.9856,0.82947 -40.12318,2.78501c-2.92486,0.43537 -5.83964,1.10999 -8.73863,1.83026c0.43179,13.48033 1.10498,26.94652 2.14933,40.36203c1.03124,13.24689 0.84979,26.48793 2.06056,39.71863c0.02629,0.28734 0.05013,0.5769 0.07201,0.86837c8.65472,0.62471 17.29686,1.36316 25.89526,2.06701zM435.98933,310.06422c15.67455,3.59555 32.50745,5.1712 49.13473,5.66441c0.0953,-0.90212 0.39021,-1.83831 0.09632,-2.69824c-0.45189,-1.32225 -1.83709,-2.37665 -2.56046,-3.63221c-1.35678,-2.355 -1.79956,-4.94445 -2.92691,-7.36378c-0.78641,-1.68768 -2.19739,-3.2319 -2.654,-4.9838c-0.08016,-0.30753 -0.06145,-9.81405 -0.06145,-10.39663c0,-8.25719 0,-16.51438 0,-24.77157c0.00707,-18.95493 2.03191,-38.98583 9.25687,-57.29441c1.1463,-2.90481 3.12681,-5.60705 4.4107,-8.47795c-13.79406,-1.11277 -27.72402,-1.52894 -41.56135,-2.22962c-18.87648,-0.71301 -37.76359,-1.33884 -56.657,-1.83002c-5.82364,23.21459 -10.12575,46.95753 -19.65839,69.56077c-3.85445,9.13943 -9.60003,18.06672 -14.3408,26.98171c-1.40243,2.63726 -2.88454,5.21786 -4.43309,7.76622c27.25501,4.91528 55.06888,7.54164 81.95482,13.7051zM497.84314,315.91033c4.54107,0 9.0823,-0.02662 13.62324,0c1.99477,0.01169 4.03861,0.40018 5.98364,0.075c3.85101,-0.64384 6.91695,-2.80069 10.39973,-4.16804c11.12132,-4.36629 21.88298,-8.29469 31.57805,-14.22321c7.74865,-4.26732 16.31216,-8.70365 22.33283,-14.38664c2.20613,-2.0824 3.16921,-4.73541 4.78215,-7.09275c3.43637,-5.02231 5.86121,-10.87264 6.76453,-16.50074c0.74007,-4.61101 -1.15362,-9.39706 -2.18991,-13.89875c-0.73319,-3.18504 -1.75964,-6.33624 -2.96245,-9.44343c-0.54384,-1.40488 -0.56053,-2.96985 -1.57513,-4.22619c-1.0146,-1.25634 -2.87656,-2.0185 -4.29509,-3.04261c-4.06322,-2.93344 -7.89931,-6.00246 -12.28403,-8.67929c-6.19723,-3.79298 -12.74755,-7.7579 -19.60688,-10.8871c-7.24134,-3.30349 -16.3777,-3.85654 -24.22987,-6.0161c-6.02055,-1.65582 -12.15569,-4.50659 -18.28332,-5.78556c-3.33182,-0.69542 -6.83376,-0.7698 -10.30223,-0.96923c-1.24951,3.18601 -3.50447,6.12858 -4.76129,9.31347c-7.04366,17.84913 -8.99504,37.42637 -8.98792,55.90325c0,8.25719 0,16.51438 0,24.77157c0,3.1504 -0.88593,6.35937 -0.06145,9.45109c0.4056,1.52091 1.71346,2.83682 2.40555,4.30097c1.111,2.35036 1.52503,4.87244 2.82915,7.16872c0.8365,1.47288 2.32182,2.75846 2.84735,4.30687c0.39402,1.16096 -0.80504,2.48589 -0.16814,3.58722c0.08497,0.14692 0.19398,0.2808 0.32148,0.40473c1.9529,0.02501 3.90033,0.03675 5.84,0.03675zM219.29246,75.75365c1.08234,0.02001 2.16487,0.03836 3.24755,0.05517c0.44416,-3.88124 0.9706,-7.76303 1.59455,-11.64644c0.52798,-3.28613 1.1889,-6.56218 1.58542,-9.85826c0.35635,-2.96211 0.0039,-5.55501 0.69794,-8.01452c-2.15736,1.36955 -4.31711,2.73708 -6.47944,4.10239c-7.07276,3.99261 -14.84495,7.72568 -21.47115,12.10749c-4.92604,3.25752 -9.31462,7.21088 -13.88166,10.74105c-0.42632,0.32953 -0.86713,0.65064 -1.31636,0.96685c11.99357,0.71411 24.0001,1.32403 36.02316,1.54626zM443.50013,71.41058c15.74734,-1.0642 31.57326,-1.92726 47.23501,-3.56919c1.51232,-0.15855 3.02229,-0.32904 4.5304,-0.50916c-0.78762,-1.96347 -1.78657,-3.88726 -3.2704,-5.88372c-4.07008,-5.5484 -8.55917,-10.17409 -13.29543,-15.36423c-1.01279,-1.10985 -1.1359,-2.79194 -2.68962,-3.48743c-1.51878,-0.67985 -3.56007,-0.01519 -5.33481,-0.10452c-2.00842,-0.10108 -4.00334,-0.61738 -6.00591,-0.46627c-3.72914,0.28139 -6.96551,2.03664 -10.46452,3.02425c-4.08724,1.15364 -8.11482,2.41913 -12.13999,3.68491c-1.76671,0.55557 -3.86536,0.69735 -5.334,1.60744c-2.9572,1.83251 -3.74952,4.97092 -5.69612,7.42619c-3.14373,3.96522 -7.54508,8.37916 -9.67966,12.70003c-0.3662,0.74125 -0.69616,1.50375 -0.99657,2.28268c7.71758,-0.37822 15.43165,-0.81996 23.14167,-1.341zM491.74282,72.78637c-15.78869,1.65815 -31.74274,2.53029 -47.61822,3.60315c-8.43905,0.57031 -16.88293,1.04618 -25.33092,1.44808c-0.99361,3.99526 -1.6242,8.13721 -2.64423,11.88093c-3.44544,12.64176 -8.69395,25.00012 -12.14394,37.62316c-1.63421,5.97936 -1.62039,12.20153 -3.15552,18.19659c-1.24177,4.8494 -3.9514,9.57755 -4.93411,14.45556c-1.80521,8.96078 -0.67715,18.0926 -2.29779,27.08308c18.64608,0.48896 37.28591,1.10816 55.91517,1.81255c14.29979,0.72371 28.69414,1.15312 42.9423,2.33678c1.62573,-4.99148 2.85814,-10.33889 3.62295,-15.23012c0.81922,-5.23923 0.57459,-9.9492 2.22446,-15.14504c5.92891,-18.49624 4.33796,-38.12038 3.9589,-57.05172c-0.09614,-4.80107 0.48361,-9.97758 -0.27754,-14.74408c-0.76114,-4.76649 -2.95598,-9.70427 -4.37499,-14.39153c-0.25543,-0.84375 -0.49454,-1.66243 -0.73241,-2.46225c-1.71546,0.20805 -3.43327,0.40414 -5.15409,0.58486zM300.9908,80.69688c-24.00691,0.02162 -48.09324,0.43863 -72.11263,0.19376c-1.57562,18.43047 -1.91953,36.69146 -1.91953,55.1872c-0.00046,18.40736 0.08718,36.89093 0.59622,55.35683c2.46824,-0.59013 4.94746,-1.12616 7.43717,-1.4995c13.48793,-2.02255 27.49452,-2.31765 41.19105,-2.89253c11.30946,-0.47469 22.617,-1.13318 33.94645,-1.13485c25.5557,0 51.11188,0.37058 76.6574,0.99591c1.82723,-9.15838 0.54831,-18.49519 2.39043,-27.64034c0.99714,-4.95027 3.71891,-9.73067 4.97825,-14.64872c1.53522,-5.99541 1.52754,-12.21409 3.15553,-18.19659c3.44075,-12.64402 8.71048,-25.0196 12.159,-37.68011c0.91384,-3.35393 1.5442,-6.99657 2.37304,-10.586c-36.89607,1.58436 -73.86678,1.86522 -110.85235,2.54493zM219.12099,80.75206c-14.10521,-0.26072 -28.18805,-1.04784 -42.25385,-1.91625c-0.44941,0.4059 -0.87077,0.82798 -1.25464,1.27171c-0.68355,0.79015 -3.96962,8.22329 -4.25863,8.85987c-1.29416,2.85061 -3.17977,5.58685 -3.92505,8.54136c-1.04219,4.13151 0.04762,9.29733 0.04397,13.49458c-0.00725,8.32714 -0.07661,16.64416 -0.32442,24.9694c-2.59468,16.26761 -4.51146,33.46477 -11.16723,49.17419c-2.66473,6.28948 -6.78035,12.41912 -10.03908,18.56147c-0.61506,1.15933 -1.22862,2.31859 -1.84194,3.4775c1.03441,-0.1288 2.06818,-0.26042 3.10129,-0.39494c8.86266,-1.15396 17.66666,-2.88266 26.45468,-4.31542c14.61174,-2.38048 29.17718,-5.42234 43.53669,-8.52895c1.1963,-0.25881 2.39539,-0.54145 3.59723,-0.83507c-0.54899,-19.02379 -0.64255,-38.069 -0.64302,-57.03366c0,-18.49868 0.08234,-36.88637 1.86581,-55.27616c-0.96408,-0.01529 -1.92802,-0.0318 -2.89182,-0.04962zM159.66678,77.763c-11.14805,-0.9813 -22.45267,-2.4777 -33.65764,-2.9688c-8.98537,-0.39382 -18.10712,0.13177 -27.10906,0.00399c-27.24127,-0.38668 -54.38766,-0.98961 -81.64841,-0.99159c-7.97878,-0.00183 -15.93774,0.4268 -23.90369,0.72238c-2.06965,7.93051 -3.508,16.00223 -5.47259,23.93375c-3.23537,13.06188 -3.07202,26.19406 -3.61772,39.4533c-0.85641,20.80916 -0.6501,41.62071 -0.6501,62.43846c0,3.79596 -0.20508,7.65329 -0.25709,11.4969c17.46175,0.82361 34.96686,0.85082 52.48871,0.85082c33.491,0 67.27229,-0.92203 100.46833,-4.60003c1.09571,-2.06816 2.18901,-4.13811 3.2873,-6.20824c3.20071,-6.03289 7.26504,-12.05502 9.88204,-18.23186c6.49867,-15.33864 8.31803,-32.15406 10.87623,-48.03506c0.23157,-8.21095 0.30096,-16.41424 0.30812,-24.62695c0.00389,-4.48076 -1.04672,-9.8769 0.04397,-14.29223c0.07024,-0.28433 3.82847,-8.53304 4.18665,-9.32159c0.66773,-1.47006 2.92881,-6.66354 4.33596,-9.02755c-3.18781,-0.20026 -6.37478,-0.40056 -9.561,-0.59571zM-14.48096,74.75677c-5.76867,0.10709 -12.60917,-0.75851 -18.28622,0.009c-6.19412,0.83742 -11.92428,3.93217 -17.33562,6.10199c-5.24037,2.10127 -12.00357,4.0502 -16.63581,6.85073c-3.3763,2.04122 -5.83882,4.78184 -8.772,7.16365c-7.61298,6.18192 -15.22597,12.36383 -22.83894,18.54575c-5.10974,4.04799 -7.36913,10.26106 -10.38211,15.28754c-6.42533,10.71921 -10.50373,21.25973 -12.94762,32.83056c-0.88923,4.21015 -2.4822,9.8651 -1.46852,14.1246c0.35125,1.47594 1.57534,2.76479 2.31677,4.16073c0.37242,0.70119 0.347,1.56375 1.02389,2.12901c1.30676,1.09123 3.15066,1.75943 4.70725,2.65684c6.34205,3.65631 12.67441,6.99336 19.39341,10.28343c3.4897,1.97293 6.58087,4.38887 10.44301,5.94357c5.50639,2.21657 12.82521,3.36867 18.73887,4.93664c4.14621,1.09934 8.13784,2.57803 12.43067,3.31414c6.30199,1.08062 13.4779,1.09892 19.9131,1.63185c3.5755,0.2961 7.1532,0.54785 10.73285,0.76188c0.05949,-3.72367 0.24395,-7.45647 0.24395,-11.13418c0,-20.86812 -0.20529,-41.72991 0.65321,-62.58944c0.55613,-13.51279 0.4265,-26.88202 3.72448,-40.19674c1.87354,-7.56389 3.27449,-15.25279 5.19001,-22.82838c-0.28151,0.00599 -0.56305,0.01162 -0.8446,0.01684zM301.78198,290.23659c-13.89522,-3.42587 -30.09037,-4.41132 -44.64916,-5.60156c-8.25716,-0.67505 -16.55508,-1.38447 -24.86555,-1.99248c0.15398,2.89574 0.39228,5.81525 1.15834,8.50301c0.90138,3.16254 2.87154,6.1086 4.29512,9.16597c2.19909,4.72291 4.20842,9.13017 7.33198,13.56941c4.61078,6.55288 7.98883,14.01839 15.59678,18.88369c1.50681,1.0069 2.75203,2.2776 4.52043,3.02071c3.73884,1.57111 8.21922,1.89807 12.31776,2.87245c5.77852,1.37377 11.95983,3.76048 18.22673,3.05175c10.80807,-1.2223 16.35584,-7.21815 23.04534,-12.83018c4.24937,-3.56493 9.57889,-7.13164 13.20227,-11.04714c2.47391,-2.67336 4.00086,-5.75791 6.01257,-8.63262c2.22032,-3.1728 4.37605,-6.31637 6.43948,-9.48338c-14.36908,-2.78709 -28.52551,-6.02803 -42.63207,-9.47962zM26.43488,286.03346c-10.49655,2.046 -20.79703,4.44092 -30.86994,7.24559c0.24192,2.95553 0.58634,5.90725 1.20635,8.85289c2.33434,11.13777 3.04958,22.02516 3.04676,33.28982c-0.00038,1.53122 -0.39002,3.08436 -0.03765,4.59358c0.37249,1.59532 1.64508,3.01423 2.18054,4.58436c0.12484,0.36609 -0.4699,2.89421 1.17539,3.25727c3.71138,0.81898 9.91115,-3.60899 12.30226,-4.90731c11.94944,-6.48824 21.66438,-14.21099 30.86028,-22.78605c13.18007,-12.28615 25.43293,-25.20444 37.04131,-38.37634c-19.0348,0.85084 -38.0683,2.38 -56.90528,4.24618z" fill="#ffd1d1" stroke-width="0.5"/><text transform="translate(193.79001,186) scale(0.5,0.5)" font-size="40" xml:space="preserve" fill="#ffc9c9" fill-rule="nonzero" stroke="none" stroke-width="1" stroke-linecap="butt" stroke-linejoin="miter" stroke-miterlimit="10" stroke-dasharray="" stroke-dashoffset="0" font-family="Sans Serif" font-weight="normal" text-anchor="start" style="mix-blend-mode: normal"><tspan x="0" dy="0">@MrSctat</tspan></text></g></g></svg>