<svg version="1.1" xmlns="http://www.w3.org/2000/svg" xmlns:xlink="http://www.w3.org/1999/xlink" width="614.76682" height="357.68521" viewBox="0,0,614.76682,357.68521"><g transform="translate(73.7626,-1.08521)"><g data-paper-data="{&quot;isPaintingLayer&quot;:true}" stroke-miterlimit="10" stroke-dasharray="" stroke-dashoffset="0" style="mix-blend-mode: normal"><g data-paper-data="{&quot;index&quot;:null}" fill="#ffab19"><path d="M233.1665,327.83251c2.1814,-2.03071 4.59709,-3.7821 7.25402,-0.21074c0.9031,1.2553 0.80965,14.58649 0.75137,15.38967c-0.28518,3.92924 -0.04406,5.48715 -0.04406,5.48715l-8.80071,-0.66535c0,0 -1.34201,-17.97002 0.83938,-20.00074z" data-paper-data="{&quot;index&quot;:null}" fill-rule="evenodd" stroke="#000000" stroke-width="1.2" stroke-linecap="round" stroke-linejoin="round"></path><path d="M236.16346,345.03404c0,0 4.62591,-0.613 6.00027,0.69199c0.71925,0.54071 2.15108,2.97288 0.77959,6.16038c-0.91109,2.06115 -10.07671,1.65642 -12.43665,0.46374c-1.34179,-0.6893 -1.97924,-2.55499 -1.64598,-4.25231c0.39911,-2.03269 2.28524,-3.82389 7.30278,-3.0638z" data-paper-data="{&quot;index&quot;:null}" fill-rule="evenodd" stroke="#000000" stroke-width="1.2" stroke-linecap="round" stroke-linejoin="round"></path><path d="M234.07792,346.59754c0,0 -1.54068,-0.45227 -1.54691,-0.63155c-0.00792,-0.22754 0.34941,-0.50381 0.67003,-1.04619c0.39228,-0.6636 -0.49198,-1.14457 -0.49198,-1.14457l7.3625,-0.14703c0,0 -0.25408,0.65497 -0.23543,1.19187c0.01914,0.55092 0.84466,1.66086 0.84466,1.66086z" fill-rule="nonzero" stroke="#001026" stroke-width="0" stroke-linecap="butt" stroke-linejoin="miter"></path></g><path d="M251.79276,324.30915c0.53064,4.89565 0.15854,5.96274 -0.56734,6.86259c-0.74157,0.9193 -1.85726,1.61913 -3.22187,1.7578c-2.70036,0.2744 -4.96684,-0.21732 -6.0396,-10.11447c-0.27979,-2.58129 -0.70007,-5.82072 -0.67235,-8.06522c0.07856,-6.36131 1.67326,-7.66139 3.66933,-7.86422c1.99607,-0.20283 3.83478,0.74837 5.27562,6.95528c0.50837,2.19002 1.27642,7.88695 1.55621,10.46825z" fill="#ffab19" fill-rule="nonzero" stroke="#000000" stroke-width="1.2" stroke-linecap="butt" stroke-linejoin="miter"></path><path d="M222.11271,324.87262c-0.63961,4.88302 -1.2539,5.83929 -2.17311,6.55438c-0.93908,0.73055 -2.19055,1.16457 -3.55184,0.99719c-2.69377,-0.33121 -4.7842,-1.31202 -3.49115,-11.18365c0.33724,-2.57464 0.69314,-5.82104 1.25022,-7.9997c1.57886,-6.17473 3.43845,-7.0869 5.42965,-6.84208c1.9912,0.24483 3.55666,1.57812 3.49349,7.93921c-0.02229,2.24441 -0.62002,7.96001 -0.95727,10.53465z" fill="#ffab19" fill-rule="nonzero" stroke="#000000" stroke-width="1.2" stroke-linecap="butt" stroke-linejoin="miter"></path><g fill="#ffab19"><path d="M229.35808,328.89071c2.18139,2.03072 0.83938,20.00074 0.83938,20.00074l-8.80071,0.66535c0,0 0.24112,-1.55791 -0.04406,-5.48715c-0.05315,-0.73245 -0.33589,-13.8784 0.75137,-15.38967c2.65693,-3.57136 5.07262,-1.81997 7.25402,0.21074z" data-paper-data="{&quot;index&quot;:null}" fill-rule="evenodd" stroke="#000000" stroke-width="1.2" stroke-linecap="round" stroke-linejoin="round"></path><path d="M226.3611,346.09225c5.01754,-0.76009 6.90367,1.03111 7.30278,3.0638c0.33326,1.69732 -0.30419,3.56301 -1.64598,4.25231c-2.35994,1.19268 -11.52556,1.59741 -12.43665,-0.46374c-1.37149,-3.1875 0.06034,-5.61967 0.77959,-6.16038c1.37436,-1.30499 6.00027,-0.69199 6.00027,-0.69199z" data-paper-data="{&quot;index&quot;:null}" fill-rule="evenodd" stroke="#000000" stroke-width="1.2" stroke-linecap="round" stroke-linejoin="round"></path><path d="M221.84379,347.53914c0,0 0.82552,-1.10994 0.84466,-1.66086c0.01865,-0.5369 -0.23543,-1.19187 -0.23543,-1.19187l7.3625,0.14703c0,0 -0.88426,0.48097 -0.49198,1.14457c0.32062,0.54238 0.67795,0.81865 0.67003,1.04619c-0.00623,0.17928 -1.54691,0.63155 -1.54691,0.63155z" fill-rule="nonzero" stroke="#001026" stroke-width="0" stroke-linecap="butt" stroke-linejoin="miter"></path></g><g fill-rule="evenodd"><path d="M37.95617,328.02449c0.8,0.4 2.5,1.3 0.1,4.7c-2.4,3.4 -9.3,4.1 -10.1,4.1c-3.1,0.1 -6.9,0.1 -11.1,-1.3c-12.2,-4 -12.3,-17.1 -8.4,-19.2c3.8,-2.1 5.5,6 11,10.9c2.4,2.2 5.3,3 7.7,3.5c3.4,0.6 9.9,-3.2 10.8,-2.7z" fill="#ffab19" stroke="#000000" stroke-width="1.2" stroke-linecap="round" stroke-linejoin="round"></path><path d="M13.15617,319.92447c1.6,2.7 4.7,6.5 4.7,6.5c0,0 -3.7,-0.9 -5.8,0.8c-1.7,1.3 -1.3,3.5 -1.1,4.2c-1.3,-1.3 -2.9,-3.1 -3.9,-6.6c-1,-3.5 0,-7.7 2,-8.3c2,-0.4 2.5,1.1 4.1,3.4z" fill="#ffffff" stroke="none" stroke-width="1" stroke-linecap="butt" stroke-linejoin="miter"></path></g><path d="M42.95617,338.42449c-1.8,1.2 -8,5.6 -15.9,8.1l-0.4,0.1c-0.4,0.1 -0.6,0.6 -0.4,1c1.7,2.4 4.8,7.2 -0.7,8.9c-5.3,1.7 -15.2,-12.4 -11,-16.1c1.9,-1.4 3.6,-0.7 4.5,-0.3c0.5,0.2 1,0.2 1.5,0.1c1.2,-0.4 3.4,-1.2 5.1,-2.1c4.3,-2.2 5.3,-3.1 7.3,-4.6c2,-1.5 6.6,-5.2 10.3,-2c3.2,2.7 1.4,5.7 -0.3,6.9z" fill="#ffab19" fill-rule="evenodd" stroke="#000000" stroke-width="1.2" stroke-linecap="round" stroke-linejoin="round"></path><path d="M58.85617,317.62449c0.5,0.4 6.6,7.6 8.6,5.8c2.4,-2.1 5.7,-6.2 9.3,-2.9c3.6,3.3 -3.2,8.9 -6.1,10.4c-6.9,3.1 -12.5,-2.8 -13.7,-4.4c-1.2,-1.6 -3.3,-4.3 -3.3,-6.9c0.1,-2.8 3.5,-3.5 5.2,-2z" fill="#ffab19" fill-rule="evenodd" stroke="#000000" stroke-width="1.2" stroke-linecap="round" stroke-linejoin="round"></path><g fill-rule="evenodd"><path d="M58.95617,340.92449c2.1,1.9 6.7,5.8 6.7,5.8c0,0 14.3,-2.5 14.3,4.7c0,4.3 -7.2,5.3 -16.9,4.4c-0.6,-0.1 -1.2,-0.3 -1.7,-0.7c-2.2,-1.9 -8.5,-7.5 -12.5,-11.4c-5.9,-5.8 -10.8,-9.6 -10.8,-9.6c-8.5,-8.3 -1.6,-11.8 1.1,-16.6c2.5,-4.1 3.6,-3.3 9.6,-2.1c3.4,0.5 5.4,0.8 7.6,0.7c3.3,-0.1 2.7,4.7 1.8,7.2c0,0 -1.4,3.7 -2.7,5.6c-1.6,2.3 -2.8,3.8 -4,4.7z" fill="#ffab19" stroke="#000000" stroke-width="1.2" stroke-linecap="round" stroke-linejoin="round"></path><path d="M50.55617,333.52449c0,0 -1.5,-1.2 -3.1,-2.7c-2,-1.8 -4,-3.3 -2,-6.4c1.8,-2.4 3.5,-5.6 8,-2.7c4.3,2.7 2.4,5.2 2.4,5.2c-2.2,4.5 -5.3,6.6 -5.3,6.6z" fill="#ffffff" stroke="none" stroke-width="1" stroke-linecap="butt" stroke-linejoin="miter"></path></g><path d="M35.45617,325.32449c2.2,2.8 5.6,6.3 1.3,9.2c-5.9,3.3 -10.8,-6.7 -11.8,-10.2c-0.9,-3.1 1.7,-5.1 3.9,-6.8c4.3,-3.1 7.9,-5.9 11.9,-4.4c5,1.8 1.4,5.8 -1.1,7.6c-1.5,1.1 -3,2.3 -4.1,3c-0.3,0.5 -0.4,1.1 -0.1,1.6z" fill="#ffab19" fill-rule="evenodd" stroke="#000000" stroke-width="1.2" stroke-linecap="round" stroke-linejoin="round"></path><g fill-rule="evenodd"><path d="M66.95617,257.92447c0.3,-0.2 0.8,-0.1 0.9,0.3l2.6,10.7c0,0 6.4,4.7 8.3,8c3.2,5.5 3.3,10 3.3,10c0,0 7.1,2.1 8.3,7.8c1.2,5.7 -3.2,16.5 -22,20.2c-18.8,3.7 -33.9,-1.4 -41,-12.8c-7.1,-11.4 4.1,-25 3.5,-24.2l-2.1,-17.9c-0.1,-0.4 0.4,-0.7 0.8,-0.5l12.1,7.9c0,0 4.5,-1.7 9.2,-1.9c2.8,-0.2 5.2,0 7.5,0.4z" fill="#ffab19" stroke="#000000" stroke-width="1.2" stroke-linecap="butt" stroke-linejoin="miter"></path><path d="M81.75617,287.32449c0,0 6.9,1.8 8.1,7.5c1.2,5.7 -3.6,16 -22.2,19.6c-24.2,5 -35.7,-9.4 -29,-20c6.7,-10.7 18.2,-1.6 26.6,-2.2c7.2,-0.5 8,-6.8 16.5,-4.9z" fill="#ffffff" stroke="none" stroke-width="1" stroke-linecap="butt" stroke-linejoin="miter"></path><path d="M50.25617,298.02449c0,-0.4 0.4,-0.7 0.8,-0.6c1.9,0.7 7.3,2.3 13.3,2.7c5.4,0.3 8.6,0 10.1,-0.3c0.5,-0.1 0.9,0.4 0.7,0.9c-0.9,2.7 -4.7,10.2 -15.2,9.6c-9.1,-1 -10,-7.4 -9.7,-12.3z" fill="#ffffff" stroke="#000000" stroke-width="1.2" stroke-linecap="round" stroke-linejoin="round"></path><path d="M100.15617,288.42447c-4.7,3.8 -11.9,3.9 -11.9,3.9" fill="none" stroke="#000000" stroke-width="1.2" stroke-linecap="round" stroke-linejoin="round"></path><path d="M98.85617,299.62449c-6.3,0.5 -10.2,-1.4 -10.2,-1.4" fill="none" stroke="#000000" stroke-width="1.2" stroke-linecap="round" stroke-linejoin="round"></path><path d="M64.85617,289.62449c2.1,0 4.3,0.2 4.4,0.9c0.1,1.4 -1.4,4.2 -3,4.3c-1.8,0.2 -6,-2.3 -6,-3.9c-0.1,-1.2 2.6,-1.3 4.6,-1.3z" fill="#000000" stroke="#000000" stroke-width="1.2" stroke-linecap="round" stroke-linejoin="round"></path><path d="M19.85617,288.12449c0,0 8.6,2.8 12.1,5.9" fill="none" stroke="#000000" stroke-width="1.2" stroke-linecap="round" stroke-linejoin="round"></path><path d="M32.25617,297.52449c-4.3,1.7 -11.7,0.6 -11.7,0.6" fill="none" stroke="#000000" stroke-width="1.2" stroke-linecap="round" stroke-linejoin="round"></path><g><path d="M76.65617,277.92447c2.9,4.5 3,9.6 0.2,11.4c-2.8,1.8 -7.4,-0.3 -10.4,-4.8c-2.9,-4.5 -3,-9.6 -0.2,-11.4c2.8,-1.9 7.5,0.3 10.4,4.8z" fill="#ffffff" stroke="#000000" stroke-width="1.2" stroke-linecap="round" stroke-linejoin="round"></path><path d="M76.25617,283.62449c0,1.1 -0.8,2 -1.8,2c-1,0 -1.8,-0.9 -1.8,-2c0,-1.1 0.8,-2 1.8,-2c1,0 1.8,0.9 1.8,2" fill="#000000" stroke="none" stroke-width="1" stroke-linecap="butt" stroke-linejoin="miter"></path></g><g><path d="M51.85617,280.72449c3,4.4 2.8,9.8 0.1,11.7c-3.3,1.9 -7.7,0.5 -10.7,-3.9c-3.1,-4.4 -3.3,-10.1 -0.2,-12.3c3.1,-2.3 7.8,0.1 10.8,4.5z" fill="#ffffff" stroke="#000000" stroke-width="1.2" stroke-linecap="round" stroke-linejoin="round"></path><path d="M51.25617,286.52449c0,1.1 -0.8,2 -1.8,2c-1,0 -1.8,-0.9 -1.8,-2c0,-1.1 0.8,-2 1.8,-2c1,0.1 1.8,0.9 1.8,2" fill="#000000" stroke="none" stroke-width="1" stroke-linecap="butt" stroke-linejoin="miter"></path></g></g><g fill-rule="evenodd"><path d="M387.27674,49.66998c0.3,-0.2 0.8,-0.1 0.9,0.3l2.6,10.7c0,0 6.4,4.7 8.3,8c3.2,5.5 3.3,10 3.3,10c0,0 7.1,2.1 8.3,7.8c1.2,5.7 -3.2,16.5 -22,20.2c-18.8,3.7 -33.9,-1.4 -41,-12.8c-7.1,-11.4 4.1,-25 3.5,-24.2l-2.1,-17.9c-0.1,-0.4 0.4,-0.7 0.8,-0.5l12.1,7.9c0,0 4.5,-1.7 9.2,-1.9c2.8,-0.2 5.2,0 7.5,0.4z" fill="#ffab19" stroke="#000000" stroke-width="1.2" stroke-linecap="butt" stroke-linejoin="miter"></path><path d="M402.07673,79.06999c0,0 6.9,1.8 8.1,7.5c1.2,5.7 -3.6,16 -22.2,19.6c-24.2,5 -35.7,-9.4 -29,-20c6.7,-10.7 18.2,-1.6 26.6,-2.2c7.2,-0.5 8,-6.8 16.5,-4.9z" fill="#ffffff" stroke="none" stroke-width="1" stroke-linecap="butt" stroke-linejoin="miter"></path><path d="M370.57673,89.76999c0,-0.4 0.4,-0.7 0.8,-0.6c1.9,0.7 7.3,2.3 13.3,2.7c5.4,0.3 8.6,0 10.1,-0.3c0.5,-0.1 0.9,0.4 0.7,0.9c-0.9,2.7 -4.7,10.2 -15.2,9.6c-9.1,-1 -10,-7.4 -9.7,-12.3z" fill="#ffffff" stroke="#000000" stroke-width="1.2" stroke-linecap="round" stroke-linejoin="round"></path><path d="M420.47674,80.16997c-4.7,3.8 -11.9,3.9 -11.9,3.9" fill="none" stroke="#000000" stroke-width="1.2" stroke-linecap="round" stroke-linejoin="round"></path><path d="M419.17674,91.36999c-6.3,0.5 -10.2,-1.4 -10.2,-1.4" fill="none" stroke="#000000" stroke-width="1.2" stroke-linecap="round" stroke-linejoin="round"></path><path d="M385.17674,81.36999c2.1,0 4.3,0.2 4.4,0.9c0.1,1.4 -1.4,4.2 -3,4.3c-1.8,0.2 -6,-2.3 -6,-3.9c-0.1,-1.2 2.6,-1.3 4.6,-1.3z" fill="#000000" stroke="#000000" stroke-width="1.2" stroke-linecap="round" stroke-linejoin="round"></path><path d="M340.17674,79.86999c0,0 8.6,2.8 12.1,5.9" fill="none" stroke="#000000" stroke-width="1.2" stroke-linecap="round" stroke-linejoin="round"></path><path d="M352.57673,89.26999c-4.3,1.7 -11.7,0.6 -11.7,0.6" fill="none" stroke="#000000" stroke-width="1.2" stroke-linecap="round" stroke-linejoin="round"></path><g><path d="M396.97674,69.66997c2.9,4.5 3,9.6 0.2,11.4c-2.8,1.8 -7.4,-0.3 -10.4,-4.8c-2.9,-4.5 -3,-9.6 -0.2,-11.4c2.8,-1.9 7.5,0.3 10.4,4.8z" fill="#ffffff" stroke="#000000" stroke-width="1.2" stroke-linecap="round" stroke-linejoin="round"></path><path d="M396.57673,75.36999c0,1.1 -0.8,2 -1.8,2c-1,0 -1.8,-0.9 -1.8,-2c0,-1.1 0.8,-2 1.8,-2c1,0 1.8,0.9 1.8,2" fill="#000000" stroke="none" stroke-width="1" stroke-linecap="butt" stroke-linejoin="miter"></path></g><g><path d="M372.17674,72.46998c3,4.4 2.8,9.8 0.1,11.7c-3.3,1.9 -7.7,0.5 -10.7,-3.9c-3.1,-4.4 -3.3,-10.1 -0.2,-12.3c3.1,-2.3 7.8,0.1 10.8,4.5z" fill="#ffffff" stroke="#000000" stroke-width="1.2" stroke-linecap="round" stroke-linejoin="round"></path><path d="M371.57673,78.26999c0,1.1 -0.8,2 -1.8,2c-1,0 -1.8,-0.9 -1.8,-2c0,-1.1 0.8,-2 1.8,-2c1,0.1 1.8,0.9 1.8,2" fill="#000000" stroke="none" stroke-width="1" stroke-linecap="butt" stroke-linejoin="miter"></path></g></g><path d="M138.17428,321.30431c0.28216,-2.13874 -0.12605,-5.87994 1.07131,-7.92962c0,0 2.00464,-0.6912 2.72243,-0.73046c0.97862,-0.05354 3.66354,-0.23527 3.66354,-0.23527l0.77416,0.86184c0.76276,0.51345 1.64293,11.31858 2.24554,11.8514c5.10637,4.51489 4.77491,9.05325 3.34498,10.09765c-3.84107,2.85705 -8.32633,1.5148 -12.98898,-8.02814z" fill="#ffab19" fill-rule="nonzero" stroke="#000000" stroke-width="1.2" stroke-linecap="round" stroke-linejoin="round"></path><path d="M142.54106,330.38642l-0.09893,16.85838c0,0 7.19209,-1.84151 6.65557,6.73779c-0.13413,2.82251 -10.84743,2.59671 -13.79961,2.14511c-2.81671,-0.4516 -3.88706,-1.6935 -3.62015,-4.06554c0.40373,-4.74182 -0.15029,-17.1633 -0.15029,-17.1633" data-paper-data="{&quot;index&quot;:null}" fill="#ffab19" fill-rule="nonzero" stroke="#000000" stroke-width="1.2" stroke-linecap="round" stroke-linejoin="round"></path><g fill-rule="evenodd"><path d="M128.76868,327.74674c0.8,0.4 2.5,1.3 0.1,4.7c-2.4,3.4 -9.3,4.1 -10.1,4.1c-3.1,0.1 -6.9,0.1 -11.1,-1.3c-12.2,-4 -12.3,-17.1 -8.4,-19.2c3.8,-2.1 5.5,6 11,10.9c2.4,2.2 5.3,3 7.7,3.5c3.4,0.6 9.9,-3.2 10.8,-2.7z" fill="#ffab19" stroke="#000000" stroke-width="1.2" stroke-linecap="round" stroke-linejoin="round"></path><path d="M103.96868,319.64673c1.6,2.7 4.7,6.5 4.7,6.5c0,0 -3.7,-0.9 -5.8,0.8c-1.7,1.3 -1.3,3.5 -1.1,4.2c-1.3,-1.3 -2.9,-3.1 -3.9,-6.6c-1,-3.5 0,-7.7 2,-8.3c2,-0.4 2.5,1.1 4.1,3.4z" fill="#ffffff" stroke="none" stroke-width="1" stroke-linecap="butt" stroke-linejoin="miter"></path></g><g fill-rule="evenodd"><path d="M142.29799,335.02481c-2.40092,1.80003 -8.637,2.1689 -8.637,2.1689c-11.71403,-1.98027 -8.03643,-8.78726 -8.55136,-14.2704c-0.28059,-4.79388 -0.00775,-8.29551 5.60728,-10.72684c3.07932,-1.5257 5.981,1.11426 7.73226,-0.22107c2.65537,-1.96189 4.89632,2.32507 5.58061,4.89252c0,0 0.95686,3.83854 0.97062,6.14067c-0.00498,2.80178 0.12355,6.15047 -0.3501,7.57373c0,0 0.04862,2.64247 -2.35231,4.44249z" fill="#ffab19" stroke="#000000" stroke-width="1.2" stroke-linecap="round" stroke-linejoin="round"></path><path d="M143.72341,331.66382c0,0 -2.04661,0.90977 -4.21609,0.58827c-4.62225,-0.34024 -5.16737,-3.5589 -5.28931,-7.24606c0.11239,-2.99789 -0.31309,-6.59636 5.0374,-6.77603c5.07218,-0.23013 4.93455,2.90692 4.93455,2.90692c0.75501,4.95176 -0.46655,10.5269 -0.46655,10.5269z" fill="#ffffff" stroke="none" stroke-width="1" stroke-linecap="butt" stroke-linejoin="miter"></path></g><path d="M135.58793,336.71452l0.16148,12.3011c0,0 7.19209,-1.84151 6.65557,6.73779c-0.13413,2.82251 -10.84743,2.59671 -13.79961,2.14511c-2.81671,-0.4516 -3.88706,-1.6935 -3.62014,-4.06554c0.40373,-4.74182 0.11013,-22.50184 0.11013,-22.50184" data-paper-data="{&quot;index&quot;:null}" fill="#ffab19" fill-rule="nonzero" stroke="#000000" stroke-width="1.2" stroke-linecap="round" stroke-linejoin="round"></path><g data-paper-data="{&quot;index&quot;:null}" fill="#ffab19" fill-rule="nonzero" stroke="#000000" stroke-width="1.2" stroke-linecap="round" stroke-linejoin="round"><path d="M129.64541,329.28497c-0.53167,-0.18307 -8.72197,1.08406 -9.15802,0.81076c-2.52872,-3.28553 -2.77627,-5.87369 -1.24002,-9.9411c0.81621,-2.16103 2.13596,-5.96649 3.88465,-7.81128c0,0 1.42659,-0.42618 2.18456,-0.29192c1.03339,0.18305 3.87711,0.64891 3.87711,0.64891"></path><path d="M129.0154,320.84834c0.66995,0.72151 -0.27464,5.14153 0.22361,5.84415c4.222,5.9537 2.76868,10.60458 1.02288,11.34447c-4.70214,2.04128 -9.05094,-0.45295 -11.58305,-11.5407"></path></g><g fill-rule="evenodd"><path d="M150.85843,257.12781c0.3,-0.2 0.8,-0.1 0.9,0.3l2.6,10.7c0,0 6.4,4.7 8.3,8c3.2,5.5 3.3,10 3.3,10c0,0 7.1,2.1 8.3,7.8c1.2,5.7 -3.2,16.5 -22,20.2c-18.8,3.7 -33.9,-1.4 -41,-12.8c-7.1,-11.4 4.1,-25 3.5,-24.2l-2.1,-17.9c-0.1,-0.4 0.4,-0.7 0.8,-0.5l12.1,7.9c0,0 4.5,-1.7 9.2,-1.9c2.8,-0.2 5.2,0 7.5,0.4z" fill="#ffab19" stroke="#000000" stroke-width="1.2" stroke-linecap="butt" stroke-linejoin="miter"></path><path d="M165.65843,286.52781c0,0 6.9,1.8 8.1,7.5c1.2,5.7 -3.6,16 -22.2,19.6c-24.2,5 -35.7,-9.4 -29,-20c6.7,-10.7 18.2,-1.6 26.6,-2.2c7.2,-0.5 8,-6.8 16.5,-4.9z" fill="#ffffff" stroke="none" stroke-width="1" stroke-linecap="butt" stroke-linejoin="miter"></path><path d="M134.15843,297.22781c0,-0.4 0.4,-0.7 0.8,-0.6c1.9,0.7 7.3,2.3 13.3,2.7c5.4,0.3 8.6,0 10.1,-0.3c0.5,-0.1 0.9,0.4 0.7,0.9c-0.9,2.7 -4.7,10.2 -15.2,9.6c-9.1,-1 -10,-7.4 -9.7,-12.3z" fill="#ffffff" stroke="#000000" stroke-width="1.2" stroke-linecap="round" stroke-linejoin="round"></path><path d="M184.05843,287.62781c-4.7,3.8 -11.9,3.9 -11.9,3.9" fill="none" stroke="#000000" stroke-width="1.2" stroke-linecap="round" stroke-linejoin="round"></path><path d="M182.75843,298.82779c-6.3,0.5 -10.2,-1.4 -10.2,-1.4" fill="none" stroke="#000000" stroke-width="1.2" stroke-linecap="round" stroke-linejoin="round"></path><path d="M148.75842,288.82779c2.1,0 4.3,0.2 4.4,0.9c0.1,1.4 -1.4,4.2 -3,4.3c-1.8,0.2 -6,-2.3 -6,-3.9c-0.1,-1.2 2.6,-1.3 4.6,-1.3z" fill="#000000" stroke="#000000" stroke-width="1.2" stroke-linecap="round" stroke-linejoin="round"></path><path d="M103.75843,287.32779c0,0 8.6,2.8 12.1,5.9" fill="none" stroke="#000000" stroke-width="1.2" stroke-linecap="round" stroke-linejoin="round"></path><path d="M116.15843,296.72781c-4.3,1.7 -11.7,0.6 -11.7,0.6" fill="none" stroke="#000000" stroke-width="1.2" stroke-linecap="round" stroke-linejoin="round"></path><g><path d="M160.55843,277.12781c2.9,4.5 3,9.6 0.2,11.4c-2.8,1.8 -7.4,-0.3 -10.4,-4.8c-2.9,-4.5 -3,-9.6 -0.2,-11.4c2.8,-1.9 7.5,0.3 10.4,4.8z" fill="#ffffff" stroke="#000000" stroke-width="1.2" stroke-linecap="round" stroke-linejoin="round"></path><path d="M160.15843,282.82779c0,1.1 -0.8,2 -1.8,2c-1,0 -1.8,-0.9 -1.8,-2c0,-1.1 0.8,-2 1.8,-2c1,0 1.8,0.9 1.8,2" fill="#000000" stroke="none" stroke-width="1" stroke-linecap="butt" stroke-linejoin="miter"></path></g><g><path d="M135.75842,279.9278c3,4.4 2.8,9.8 0.1,11.7c-3.3,1.9 -7.7,0.5 -10.7,-3.9c-3.1,-4.4 -3.3,-10.1 -0.2,-12.3c3.1,-2.3 7.8,0.1 10.8,4.5z" fill="#ffffff" stroke="#000000" stroke-width="1.2" stroke-linecap="round" stroke-linejoin="round"></path><path d="M135.15843,285.72781c0,1.1 -0.8,2 -1.8,2c-1,0 -1.8,-0.9 -1.8,-2c0,-1.1 0.8,-2 1.8,-2c1,0.1 1.8,0.9 1.8,2" fill="#000000" stroke="none" stroke-width="1" stroke-linecap="butt" stroke-linejoin="miter"></path></g></g><g fill-rule="evenodd"><path d="M347.68776,178.84439c-2.40092,1.80003 -8.637,2.1689 -8.637,2.1689c-11.71403,-1.98027 -8.03643,-8.78726 -8.55136,-14.2704c-0.28059,-4.79388 -0.00775,-8.29551 5.60728,-10.72684c3.07932,-1.5257 5.981,1.11426 7.73226,-0.22107c2.65537,-1.96189 4.89632,2.32507 5.58061,4.89252c0,0 0.95686,3.83854 0.97062,6.14067c-0.00498,2.80178 0.12355,6.15047 -0.3501,7.57373c0,0 0.04862,2.64247 -2.35231,4.44249z" fill="#ffab19" stroke="#000000" stroke-width="1.2" stroke-linecap="round" stroke-linejoin="round"></path><path d="M349.11317,175.4834c0,0 -2.04661,0.90977 -4.21609,0.58827c-4.62225,-0.34024 -5.16737,-3.5589 -5.28931,-7.24606c0.11239,-2.99789 -0.31309,-6.59636 5.0374,-6.77603c5.07218,-0.23013 4.93455,2.90692 4.93455,2.90692c0.75501,4.95176 -0.46655,10.5269 -0.46655,10.5269z" fill="#ffffff" stroke="none" stroke-width="1" stroke-linecap="butt" stroke-linejoin="miter"></path></g><g fill-rule="evenodd"><path d="M324.56435,180.04569c-2.40092,1.80003 -9.47511,1.88953 -9.47511,1.88953c-3.95125,-0.66796 -5.59254,-1.57394 -6.79295,-3.06207c-2.35838,-2.92364 -1.41717,-7.29533 -1.75841,-10.92896c-0.28059,-4.79388 -0.14743,-8.85425 5.4676,-11.28558c3.07932,-1.5257 6.95879,1.673 8.71005,0.33767c2.65537,-1.96189 4.89632,2.32507 5.58061,4.89252c0,0 0.95686,3.83854 0.97062,6.14067c-0.00498,2.80178 0.12355,6.15047 -0.3501,7.57373c0,0 0.04862,2.64247 -2.35231,4.44249z" fill="#ffab19" stroke="#000000" stroke-width="1.2" stroke-linecap="round" stroke-linejoin="round"></path><path d="M324.03416,176.6847c-0.72453,0.7383 -3.58314,0.90977 -5.75262,0.58827c-4.62225,-0.34024 -4.74832,-3.5589 -4.87026,-7.24606c0.11239,-2.99789 0.52502,-7.1551 5.87551,-7.33477c5.07218,-0.23013 5.49329,3.46566 5.49329,3.46566c0.75501,6.76766 1.07912,8.66718 -0.74592,10.5269z" fill="#ffffff" stroke="none" stroke-width="1" stroke-linecap="butt" stroke-linejoin="miter"></path></g><g fill-rule="evenodd"><path d="M299.11305,180.43609c-2.40092,1.80003 -9.89416,1.74985 -9.89416,1.74985c-3.95125,-0.66797 -5.17348,-1.43426 -6.3739,-2.92239c-2.35838,-2.92364 -1.41717,-7.29533 -1.75841,-10.92895c-0.28059,-4.79388 -0.4268,-9.69236 4.62949,-11.28558c3.07932,-1.5257 5.56195,1.53332 7.31321,0.19799c4.1919,-3.07937 7.27096,1.48696 7.95525,4.05441c0,0 0.81718,4.81633 0.83094,7.11846c-0.00498,2.80178 0.12355,6.15047 -0.3501,7.57373c0,0 0.04862,2.64247 -2.35231,4.44249z" fill="#ffab19" stroke="#000000" stroke-width="1.2" stroke-linecap="round" stroke-linejoin="round"></path><path d="M296.34791,177.0751c-0.72453,0.7383 -3.58315,1.18914 -5.75263,0.86764c-4.62225,-0.34024 -4.74831,-3.83827 -4.87025,-7.52543c0.11239,-2.99789 0.52502,-7.1551 5.87551,-7.33477c5.07218,-0.23013 5.91234,3.46566 5.91234,3.46566c0.75501,6.76767 0.66006,8.66718 -1.16497,10.5269z" fill="#ffffff" stroke="none" stroke-width="1" stroke-linecap="butt" stroke-linejoin="miter"></path></g><g fill-rule="evenodd"><path d="M371.00868,178.53637c-2.40092,1.80003 -7.79889,1.61016 -7.79889,1.61016c-11.71403,-1.98027 -8.87454,-8.50789 -9.38947,-13.99103c-0.28059,-4.79388 -0.00775,-8.29551 5.60728,-10.72684c3.07932,-1.5257 5.981,1.11426 7.73226,-0.22107c2.65537,-1.96189 4.89632,2.32507 5.58061,4.89252c0,0 0.95686,3.83854 0.97062,6.14067c-0.00498,2.80178 0.12355,6.15047 -0.3501,7.57373c0,0 0.04862,2.92184 -2.35231,4.72186z" fill="#ffab19" stroke="#000000" stroke-width="1.2" stroke-linecap="round" stroke-linejoin="round"></path><path d="M372.01504,174.89601c0,0 -1.62756,0.90977 -3.79704,0.58827c-4.62225,-0.34024 -3.35147,-3.5589 -3.47341,-7.24606c0.11239,-2.99789 0.52502,-7.43447 4.05961,-7.61414c5.07218,-0.23013 3.81707,4.16408 3.81707,4.16408c0.75501,4.95176 -0.60623,10.10785 -0.60623,10.10785z" fill="#ffffff" stroke="none" stroke-width="1" stroke-linecap="butt" stroke-linejoin="miter"></path></g><g data-paper-data="{&quot;index&quot;:null}" fill-rule="evenodd"><path d="M233.14669,174.09388c-0.47365,-1.42326 -0.34512,-4.77195 -0.3501,-7.57373c0.01376,-2.30213 0.97062,-6.14067 0.97062,-6.14067c0.68429,-2.56745 2.92524,-6.85441 5.58061,-4.89252c1.75126,1.33533 4.65294,-1.30463 7.73226,0.22107c5.61503,2.43133 5.88787,5.93296 5.60728,10.72684c-0.51493,5.48314 3.16267,12.29013 -8.55136,14.2704c0,0 -6.23608,-0.36887 -8.637,-2.1689c-2.40093,-1.80002 -2.35231,-4.44249 -2.35231,-4.44249z" fill="#ffab19" stroke="#000000" stroke-width="1.2" stroke-linecap="round" stroke-linejoin="round"></path><path d="M233.60704,164.64846c0,0 -0.13763,-3.13705 4.93455,-2.90692c5.35049,0.17967 4.92501,3.77814 5.0374,6.77603c-0.12194,3.68716 -0.66706,6.90582 -5.28931,7.24606c-2.16948,0.3215 -4.21609,-0.58827 -4.21609,-0.58827c0,0 -1.22156,-5.57514 -0.46655,-10.5269z" fill="#ffffff" stroke="none" stroke-width="1" stroke-linecap="butt" stroke-linejoin="miter"></path></g><g data-paper-data="{&quot;index&quot;:null}" fill-rule="evenodd"><path d="M257.2701,175.29517c-0.47365,-1.42326 -0.34512,-4.77195 -0.3501,-7.57373c0.01376,-2.30213 0.97062,-6.14067 0.97062,-6.14067c0.68429,-2.56745 2.92524,-6.85441 5.58061,-4.89252c1.75126,1.33533 5.63073,-1.86337 8.71006,-0.33767c5.61503,2.43133 5.74818,6.4917 5.46759,11.28558c-0.34124,3.63362 0.59997,8.00532 -1.75841,10.92896c-1.20042,1.48813 -2.8417,2.39411 -6.79295,3.06208c0,0 -7.07419,-0.0895 -9.47511,-1.88953c-2.40093,-1.80002 -2.35231,-4.44249 -2.35231,-4.44249z" fill="#ffab19" stroke="#000000" stroke-width="1.2" stroke-linecap="round" stroke-linejoin="round"></path><path d="M259.40666,165.84975c0,0 0.42111,-3.69579 5.49329,-3.46566c5.35049,0.17967 5.76312,4.33688 5.87551,7.33477c-0.12194,3.68716 -0.248,6.90582 -4.87025,7.24606c-2.16948,0.3215 -5.0281,0.15003 -5.75263,-0.58827c-1.82503,-1.85972 -1.50093,-3.75923 -0.74592,-10.5269z" fill="#ffffff" stroke="none" stroke-width="1" stroke-linecap="butt" stroke-linejoin="miter"></path></g><g data-paper-data="{&quot;index&quot;:null}" fill-rule="evenodd"><path d="M210.82577,173.50648c-0.47365,-1.42326 -0.34512,-4.77195 -0.3501,-7.57373c0.01376,-2.30213 0.97062,-6.14067 0.97062,-6.14067c0.68429,-2.56745 2.92524,-6.85441 5.58061,-4.89252c1.75126,1.33533 4.65294,-1.30463 7.73226,0.22107c5.61503,2.43133 5.88787,5.93296 5.60728,10.72684c-0.51493,5.48314 2.32456,12.01076 -9.38947,13.99103c0,0 -5.39797,0.18987 -7.79889,-1.61016c-2.40093,-1.80002 -2.35231,-4.72186 -2.35231,-4.72186z" fill="#ffab19" stroke="#000000" stroke-width="1.2" stroke-linecap="round" stroke-linejoin="round"></path><path d="M211.56549,164.48012c0,0 -1.25511,-4.39422 3.81707,-4.16408c3.53458,0.17967 3.94722,4.61625 4.05961,7.61414c-0.12194,3.68716 1.14884,6.90582 -3.47341,7.24606c-2.16948,0.3215 -3.79703,-0.58827 -3.79703,-0.58827c0,0 -1.36125,-5.15609 -0.60624,-10.10785z" fill="#ffffff" stroke="none" stroke-width="1" stroke-linecap="butt" stroke-linejoin="miter"></path></g><path d="M206.11319,201.94628c-1.8,1.2 -8,5.6 -15.9,8.1l-0.4,0.1c-0.4,0.1 -0.6,0.6 -0.4,1c1.7,2.4 4.8,7.2 -0.7,8.9c-5.3,1.7 -15.2,-12.4 -11,-16.1c1.9,-1.4 3.6,-0.7 4.5,-0.3c0.5,0.2 1,0.2 1.5,0.1c1.2,-0.4 3.4,-1.2 5.1,-2.1c4.3,-2.2 5.3,-3.1 7.3,-4.6c2,-1.5 6.6,-5.2 10.3,-2c3.2,2.7 1.4,5.7 -0.3,6.9z" fill="#ffab19" fill-rule="evenodd" stroke="#000000" stroke-width="1.2" stroke-linecap="round" stroke-linejoin="round"></path><path d="M271.78595,220.79187l0.16148,12.3011c0,0 7.19209,-1.84151 6.65557,6.73779c-0.13413,2.82251 -10.84743,2.59671 -13.79961,2.14511c-2.81671,-0.4516 -3.88706,-1.6935 -3.62014,-4.06554c0.40373,-4.74182 0.11013,-22.50184 0.11013,-22.50184" data-paper-data="{&quot;index&quot;:null}" fill="#ffab19" fill-rule="nonzero" stroke="#000000" stroke-width="1.2" stroke-linecap="round" stroke-linejoin="round"></path><g fill="#ffab19"><path d="M294.85808,217.89071c2.18139,2.03072 0.83938,20.00074 0.83938,20.00074l-8.80071,0.66535c0,0 0.24112,-1.55791 -0.04406,-5.48715c-0.05315,-0.73245 -0.33589,-13.8784 0.75137,-15.38967c2.65693,-3.57136 5.07262,-1.81997 7.25402,0.21074z" data-paper-data="{&quot;index&quot;:null}" fill-rule="evenodd" stroke="#000000" stroke-width="1.2" stroke-linecap="round" stroke-linejoin="round"></path><path d="M291.86109,235.09225c5.01754,-0.76009 6.90367,1.03111 7.30278,3.0638c0.33326,1.69732 -0.30419,3.56301 -1.64598,4.25231c-2.35994,1.19268 -11.52556,1.59741 -12.43665,-0.46374c-1.37149,-3.1875 0.06034,-5.61967 0.77959,-6.16038c1.37436,-1.30499 6.00027,-0.69199 6.00027,-0.69199z" data-paper-data="{&quot;index&quot;:null}" fill-rule="evenodd" stroke="#000000" stroke-width="1.2" stroke-linecap="round" stroke-linejoin="round"></path><path d="M287.34379,236.53914c0,0 0.82552,-1.10994 0.84466,-1.66086c0.01865,-0.5369 -0.23543,-1.19187 -0.23543,-1.19187l7.3625,0.14703c0,0 -0.88426,0.48097 -0.49198,1.14457c0.32062,0.54238 0.67795,0.81865 0.67003,1.04619c-0.00623,0.17928 -1.54691,0.63155 -1.54691,0.63155z" fill-rule="nonzero" stroke="#001026" stroke-width="0" stroke-linecap="butt" stroke-linejoin="miter"></path></g><g fill="#faa51f" fill-rule="nonzero" stroke="#000000" stroke-width="1.2" stroke-linecap="round" stroke-linejoin="round"><path d="M198.39753,188.98598c0,0 -7.72151,7.83631 -11.31693,7.30495c-2.29985,-1.20607 -5.28449,-2.86622 -6.97709,-4.25231c-2.04366,-1.67361 -2.73399,-2.38337 -2.73399,-2.38337c-0.2379,1.07675 -0.16724,5.23834 -5.98993,5.54533c-2.71968,0.12622 -4.29575,-12.78368 -3.65531,-15.61243c0.54902,-2.55502 1.35256,-3.32117 3.96264,-3.30143c3.39492,0.03842 11.12987,7.216 14.28742,7.41857c2.61112,-1.80551 5.67854,-3.61075 5.67854,-3.61075"></path><path d="M176.76855,187.26383c0.65603,1.86211 0.39996,2.8111 0.39996,2.8111"></path></g><g fill="#ffab19" fill-rule="nonzero" stroke="#000000" stroke-width="1.2" stroke-linecap="round" stroke-linejoin="round"><path d="M254.10676,212.16871c0,0 2.32801,6.20312 1.17559,9.93247c-1.19093,3.85399 -3.85204,9.35613 -3.85204,9.35613c1.16618,-0.10063 8.23635,1.33104 6.49313,7.29997c0.99071,2.71489 -9.71566,3.14763 -16.7227,1.96417c-3.95494,-0.65528 -2.98805,-0.95985 -3.79614,-3.61002c-1.03815,-3.45111 5.28161,-9.04684 7.55938,-12.86458c-0.6082,-3.50431 -1.69189,-9.41003 -1.69189,-9.41003"></path><path d="M249.07492,232.88373c1.67811,-1.25531 2.72063,-1.29699 2.72063,-1.29699"></path></g><g fill="#ffab19" fill-rule="nonzero" stroke="#000000" stroke-width="1.2" stroke-linecap="round" stroke-linejoin="round"><path d="M223.06779,210.55403l-18.30245,12.46323c0,0 1.86862,7.18641 -6.25858,8.68257c-4.16931,0.45829 -3.86048,-3.31309 -4.5401,-10.59269c-0.00927,-3.37472 -0.00927,-3.37472 2.1886,-4.21913c8.19586,-3.31214 18.91659,-15.46175 18.91659,-15.46175"></path><path d="M203.5856,223.0639"></path></g><g fill="#ffab19" fill-rule="nonzero" stroke="#000000" stroke-width="1.2" stroke-linecap="round" stroke-linejoin="round"><path d="M237.32566,215.44564c0,0 -0.2707,6.62005 -2.78412,9.60649c-2.59742,3.08625 -7.19069,7.11824 -7.19069,7.11824c1.11335,0.36133 5.51752,0.71174 5.24714,6.89509c-0.14443,2.88639 -12.7479,3.17911 -15.67122,2.21352c-2.64345,-0.84104 -3.37085,-1.76827 -3.08341,-4.52396c0.38736,-3.583 6.77416,-11.11399 10.35856,-13.74372c0.8041,-3.46461 2.10516,-9.32628 2.10516,-9.32628"></path><path d="M224.62596,232.56723c2.03443,-0.50294 3.01093,-0.13545 3.01093,-0.13545"></path></g><path d="M395.11138,194.48808c3.7,-3.2 8.3,0.5 10.3,2c2,1.5 3,2.4 7.3,4.6c1.7,0.9 3.9,1.7 5.1,2.1c0.5,0.1 1,0.1 1.5,-0.1c0.9,-0.4 2.6,-1.1 4.5,0.3c4.2,3.7 -5.7,17.8 -11,16.1c-5.5,-1.7 -2.4,-6.5 -0.7,-8.9c0.2,-0.4 0,-0.9 -0.4,-1l-0.4,-0.1c-7.9,-2.5 -14.1,-6.9 -15.9,-8.1c-1.7,-1.2 -3.5,-4.2 -0.3,-6.9z" data-paper-data="{&quot;index&quot;:null}" fill="#ffab19" fill-rule="evenodd" stroke="#000000" stroke-width="1.2" stroke-linecap="round" stroke-linejoin="round"></path><path d="M340.23119,214.85028c0,0 -0.2936,17.76002 0.11013,22.50184c0.26692,2.37204 -0.80343,3.61394 -3.62014,4.06554c-2.95218,0.4516 -13.66548,0.6774 -13.79961,-2.14511c-0.53652,-8.5793 6.65557,-6.73779 6.65557,-6.73779l0.16148,-12.3011" data-paper-data="{&quot;index&quot;:null}" fill="#ffab19" fill-rule="nonzero" stroke="#000000" stroke-width="1.2" stroke-linecap="round" stroke-linejoin="round"></path><g data-paper-data="{&quot;index&quot;:null}" fill="#ffab19"><path d="M306.6665,217.33251c2.1814,-2.03071 4.59709,-3.7821 7.25402,-0.21074c0.90311,1.2553 0.80965,14.58649 0.75137,15.38967c-0.28518,3.92924 -0.04406,5.48715 -0.04406,5.48715l-8.80071,-0.66535c0,0 -1.34201,-17.97002 0.83938,-20.00074z" data-paper-data="{&quot;index&quot;:null}" fill-rule="evenodd" stroke="#000000" stroke-width="1.2" stroke-linecap="round" stroke-linejoin="round"></path><path d="M309.66346,234.53404c0,0 4.62591,-0.613 6.00027,0.69199c0.71925,0.54071 2.15108,2.97288 0.77959,6.16038c-0.91109,2.06115 -10.07671,1.65642 -12.43665,0.46374c-1.34179,-0.6893 -1.97924,-2.55499 -1.64598,-4.25231c0.39911,-2.03269 2.28524,-3.82389 7.30278,-3.0638z" data-paper-data="{&quot;index&quot;:null}" fill-rule="evenodd" stroke="#000000" stroke-width="1.2" stroke-linecap="round" stroke-linejoin="round"></path><path d="M307.57792,236.09754c0,0 -1.54068,-0.45227 -1.54691,-0.63155c-0.00792,-0.22754 0.34941,-0.50381 0.67003,-1.04619c0.39228,-0.6636 -0.49198,-1.14457 -0.49198,-1.14457l7.3625,-0.14703c0,0 -0.25408,0.65497 -0.23543,1.19187c0.01914,0.55092 0.84466,1.66086 0.84466,1.66086z" fill-rule="nonzero" stroke="#001026" stroke-width="0" stroke-linecap="butt" stroke-linejoin="miter"></path></g><g data-paper-data="{&quot;index&quot;:null}" fill="#faa51f" fill-rule="nonzero" stroke="#000000" stroke-width="1.2" stroke-linecap="round" stroke-linejoin="round"><path d="M409.8717,179.53632c0,0 3.06741,1.80525 5.67854,3.61076c3.15755,-0.20256 10.89249,-7.38015 14.28742,-7.41857c2.61008,-0.01973 3.41363,0.74641 3.96265,3.30143c0.64044,2.82876 -0.93564,15.73866 -3.65532,15.61244c-5.82269,-0.30699 -5.75203,-4.46858 -5.98993,-5.54533c0,0 -0.69033,0.70976 -2.73399,2.38337c-1.6926,1.3861 -4.67723,3.04624 -6.97709,4.25231c-3.59542,0.53135 -11.31693,-7.30495 -11.31693,-7.30495"></path><path d="M424.35607,189.51673c0,0 -0.25607,-0.94899 0.39996,-2.8111"></path></g><g data-paper-data="{&quot;index&quot;:null}" fill="#ffab19" fill-rule="nonzero" stroke="#000000" stroke-width="1.2" stroke-linecap="round" stroke-linejoin="round"><path d="M358.25249,214.27861c0,0 -1.08369,5.90572 -1.69189,9.41003c2.27777,3.81774 8.59753,9.41347 7.55938,12.86458c-0.80809,2.65017 0.1588,2.95474 -3.79614,3.61002c-7.00704,1.18346 -17.71341,0.75072 -16.7227,-1.96417c-1.74322,-5.96893 5.32695,-7.4006 6.49313,-7.29997c0,0 -2.66111,-5.50214 -3.85204,-9.35613c-1.15242,-3.72935 1.17559,-9.93247 1.17559,-9.93247"></path><path d="M349.72903,231.02853c0,0 1.04252,0.04168 2.72063,1.29699"></path></g><g data-paper-data="{&quot;index&quot;:null}" fill="#ffab19" fill-rule="nonzero" stroke="#000000" stroke-width="1.2" stroke-linecap="round" stroke-linejoin="round"><path d="M386.45272,200.86807c0,0 10.72074,12.14961 18.91659,15.46175c2.19787,0.84441 2.19787,0.84441 2.1886,4.21913c-0.67962,7.2796 -0.37079,11.05098 -4.5401,10.59269c-8.12721,-1.49615 -6.25858,-8.68257 -6.25858,-8.68257l-18.30246,-12.46323"></path><path d="M397.93898,222.50569"></path></g><g data-paper-data="{&quot;index&quot;:null}" fill="#ffab19" fill-rule="nonzero" stroke="#000000" stroke-width="1.2" stroke-linecap="round" stroke-linejoin="round"><path d="M375.2175,213.12682c0,0 1.30106,5.86167 2.10516,9.32628c3.5844,2.62973 9.9712,10.16072 10.35856,13.74372c0.28744,2.75569 -0.43996,3.68292 -3.08341,4.52396c-2.92332,0.96559 -15.52679,0.67287 -15.67122,-2.21352c-0.27038,-6.18335 4.13379,-6.53376 5.24714,-6.89509c0,0 -4.59327,-4.03199 -7.19069,-7.11824c-2.51342,-2.98644 -2.78412,-9.60649 -2.78412,-9.60649"></path><path d="M373.88769,231.87358c0,0 0.9765,-0.36749 3.01093,0.13545"></path></g><text transform="translate(256.3386,202.15817) scale(0.32033,0.32033)" font-size="40" xml:space="preserve" fill="#000000" fill-rule="nonzero" stroke="none" stroke-width="1" stroke-linecap="butt" stroke-linejoin="miter" stroke-miterlimit="10" stroke-dasharray="" stroke-dashoffset="0" font-family="Sans Serif" font-weight="normal" text-anchor="start" style="mix-blend-mode: normal"><tspan x="0" dy="0">legs</tspan></text><text transform="translate(334.92868,148.26415) scale(0.31114,0.31114)" font-size="40" xml:space="preserve" fill="#000000" fill-rule="nonzero" stroke="none" stroke-width="1" stroke-linecap="butt" stroke-linejoin="miter" stroke-miterlimit="10" stroke-dasharray="" stroke-dashoffset="0" font-family="Sans Serif" font-weight="normal" text-anchor="start" style="mix-blend-mode: normal"><tspan x="0" dy="0">bodies</tspan></text><g data-paper-data="{&quot;index&quot;:null}" fill="#ffab19" fill-rule="nonzero" stroke="#000000" stroke-width="1.2" stroke-linecap="round" stroke-linejoin="round"><path d="M58.64541,196.78497c-0.53167,-0.18307 -8.72197,1.08406 -9.15802,0.81076c-2.52872,-3.28553 -2.77627,-5.87369 -1.24002,-9.9411c0.81621,-2.16103 2.13596,-5.96649 3.88465,-7.81128c0,0 1.42659,-0.42618 2.18456,-0.29192c1.03339,0.18305 3.87711,0.64891 3.87711,0.64891"></path><path d="M58.0154,188.34834c0.66995,0.72151 -0.27464,5.14153 0.22361,5.84415c4.222,5.9537 2.76868,10.60458 1.02288,11.34447c-4.70214,2.04128 -9.05094,-0.45295 -11.58305,-11.5407"></path></g><path d="M40.36553,189.32194c2.46111,3.13233 6.26465,7.04773 1.45429,10.29193c-6.60026,3.69167 -12.08183,-7.49521 -13.20051,-11.41061c-1.00682,-3.46793 1.90177,-5.70531 4.36288,-7.60708c4.81036,-3.46793 8.83763,-6.60026 13.31238,-4.92223c5.59344,2.01364 1.56616,6.48839 -1.23056,8.50203c-1.67803,1.23056 -3.35606,2.57298 -4.58662,3.35606c-0.33561,0.55934 -0.44748,1.23056 -0.11187,1.7899z" fill="#ffab19" fill-rule="evenodd" stroke="#000000" stroke-width="1.2" stroke-linecap="round" stroke-linejoin="round"></path><path d="M21.11994,201.87712c0.62152,0.49721 8.20402,9.44705 10.69008,7.20959c2.98328,-2.61037 7.08529,-7.7068 11.5602,-3.60479c4.47492,4.10201 -3.9777,11.06299 -7.5825,12.92754c-8.57693,3.8534 -15.53791,-3.48049 -17.02955,-5.46934c-1.49164,-1.98885 -4.10201,-5.34504 -4.10201,-8.57693c0.1243,-3.48049 4.35061,-4.35061 6.46377,-2.48607z" fill="#ffab19" fill-rule="evenodd" stroke="#000000" stroke-width="1.2" stroke-linecap="round" stroke-linejoin="round"></path><path d="M63.16681,221.79355c-2.37044,1.07747 -6.78807,-0.86198 -7.97329,-0.64648c-0.32324,0.10775 -2.26269,5.7106 -3.44791,9.05077c-1.61621,4.74088 -8.94302,3.34016 -9.37401,-1.61621c-0.32324,-4.63313 3.8789,-13.57615 5.27961,-15.19236c3.12467,-3.77115 13.74768,-0.74529 20.8451,1.13835" fill="#ffab19" fill-rule="evenodd" stroke="#000000" stroke-width="1.2" stroke-linecap="round" stroke-linejoin="round"></path><path d="M73.58128,185.29278c0.35394,2.59557 0.58991,12.50595 3.42144,14.0397c2.71355,1.41576 10.9722,-0.94385 11.44411,4.8372c0.47192,5.66307 -7.19682,5.78105 -13.56777,4.01134c-8.25865,-2.24163 -12.03402,-14.86556 -7.3148,-22.65228c1.76971,-2.71356 5.66307,-2.94952 6.01701,-0.23596z" fill="#ffab19" fill-rule="evenodd" stroke="#000000" stroke-width="1.2" stroke-linecap="round" stroke-linejoin="round"></path><path d="M77.18255,225.66773c-1.88853,-1.04272 -5.52093,-2.02703 -6.99278,-3.88943c0,0 0.08749,-2.11865 0.31271,-2.80132c0.30704,-0.93075 1.11701,-3.49702 1.11701,-3.49702l1.08482,-0.40653c0.75627,-0.52297 11.1382,2.59806 11.8541,2.23128c6.06621,-3.10811 10.17111,-1.14436 10.6221,0.56798c1.25945,4.61848 -1.62611,8.30531 -12.21225,9.16655z" fill="#ffab19" fill-rule="nonzero" stroke="#000000" stroke-width="1.2" stroke-linecap="round" stroke-linejoin="round"></path><path d="M108.17719,202.59919c0,5.95655 -0.55503,7.19524 -1.492,8.18939c-0.95722,1.01565 -2.31309,1.72142 -3.883,1.72142c-3.1066,0 -5.625,-0.86892 -5.625,-12.91081c0,-3.14067 -0.0787,-7.09055 0.22968,-9.7883c0.87399,-7.6459 2.84896,-9.01547 5.14532,-9.01547c2.29636,0 4.27133,1.36957 5.14532,9.01547c0.30837,2.69774 0.47968,9.64763 0.47968,12.7883z" fill="#ffab19" fill-rule="nonzero" stroke="#000000" stroke-width="1.2" stroke-linecap="butt" stroke-linejoin="miter"></path><g stroke="#000000" stroke-width="1.2" stroke-linecap="round"><path d="M110.89513,230.10681c2.53989,-0.17144 4.15692,1.21153 5.08601,2.24589c0.74151,0.82552 1.04482,0.90756 1.02936,3.61171c-0.76893,8.65579 -10.34137,6.04181 -14.78253,4.5687c-3.94396,-1.28958 -4.18469,-5.4993 -4.39655,-9.06693c-0.17757,-6.81178 -0.54357,-12.6629 3.9466,-15.82429c5.53306,-4.00606 7.17341,2.71423 7.27418,6.67289c0.0817,2.38968 0.2696,4.85179 0.21623,6.52696c0.31369,0.68074 0.87843,1.22152 1.62671,1.26508z" fill="#ffab19" fill-rule="evenodd" stroke-linejoin="round"></path><path d="M105.42399,231.22691c1.58547,-1.21814 4.30901,-1.43634 4.30901,-1.43634" fill="none" fill-rule="nonzero" stroke-linejoin="miter"></path></g><text transform="translate(53.3386,169.15817) scale(0.32033,0.32033)" font-size="40" xml:space="preserve" fill="#000000" fill-rule="nonzero" stroke="none" stroke-width="1" stroke-linecap="butt" stroke-linejoin="miter" stroke-miterlimit="10" stroke-dasharray="" stroke-dashoffset="0" font-family="Sans Serif" font-weight="normal" text-anchor="start" style="mix-blend-mode: normal"><tspan x="0" dy="0">arms</tspan></text><g fill-rule="evenodd"><path d="M316.76785,50.42241c0.30279,-0.20186 0.80742,-0.10093 0.90836,0.30279l2.1195,11.55628c0,0 5.43156,3.73667 7.3492,7.0673c3.2297,5.55105 3.83063,10.84282 3.83063,10.84282c0,0 5.65198,2.11949 6.86312,7.8724c1.21114,5.75291 -1.9681,16.65315 -20.94261,20.3875c-18.9745,3.73435 -33.96234,-1.413 -41.12825,-12.91881c-3.85605,-6.19142 -3.2794,-13.43703 -0.63273,-20.0586c2.27176,-5.68363 4.96349,-10.2993 4.68379,-9.92636l0.90836,-13.01046c-0.10093,-0.40371 0.40371,-0.7065 0.80742,-0.50464l10.19375,8.97333c0,0 1.26161,-0.7065 6.00523,-0.90835c2.82599,-0.20186 10.05164,-0.50001 12.37299,-0.09629z" fill="#ffab19" stroke="#000000" stroke-width="1.2" stroke-linecap="butt" stroke-linejoin="miter"></path><path d="M328.90648,81.35228c0,0 5.97235,3.38509 7.41823,9.08354c1.71578,6.76219 -3.63341,13.87763 -22.40606,17.51104c-24.42463,5.04641 -36.78834,-9.73957 -30.02615,-20.43796c6.76219,-10.79932 19.37822,-1.36253 27.85619,-1.9681c7.26683,-0.50464 8.57889,-6.10616 17.15779,-4.18852z" fill="#ffffff" stroke="none" stroke-width="1" stroke-linecap="butt" stroke-linejoin="miter"></path><path d="M295.09554,91.39464c0,-0.40372 0.40371,-0.7065 0.80742,-0.60557c1.91763,0.7065 7.36776,2.32134 13.42345,2.72506c5.45012,0.30279 8.67982,0 10.19375,-0.30279c0.50464,-0.10093 0.90836,0.40372 0.7065,0.90836c-0.90836,2.72506 -4.74362,10.29468 -15.34109,9.68911c-9.18447,-1.00928 -10.09282,-7.46868 -9.79004,-12.41417z" fill="#ffffff" stroke="#000000" stroke-width="1.2" stroke-linecap="round" stroke-linejoin="round"></path><path d="M348.23425,81.70552c-4.74363,3.83527 -12.01046,3.9362 -12.01046,3.9362" fill="none" stroke="#000000" stroke-width="1.2" stroke-linecap="round" stroke-linejoin="round"></path><path d="M346.66986,93.00949c-6.35848,0.50464 -10.29468,-1.41299 -10.29468,-1.41299" fill="none" stroke="#000000" stroke-width="1.2" stroke-linecap="round" stroke-linejoin="round"></path><path d="M310.3357,82.66433c2.1195,0 4.33991,0.20185 4.44084,0.90835c0.10093,1.41299 -2.16996,4.23898 -3.78481,4.33992c-1.81671,0.20185 -5.29873,-2.32135 -5.29873,-3.9362c-0.10093,-1.21114 2.62413,-1.31207 4.6427,-1.31207z" fill="#000000" stroke="#000000" stroke-width="1.2" stroke-linecap="round" stroke-linejoin="round"></path><path d="M266.68424,81.40274c0,0 8.67982,2.82599 12.21231,5.95476" fill="none" stroke="#000000" stroke-width="1.2" stroke-linecap="round" stroke-linejoin="round"></path><path d="M279.19935,90.89c-4.33991,1.71578 -11.8086,0.60556 -11.8086,0.60556" fill="none" stroke="#000000" stroke-width="1.2" stroke-linecap="round" stroke-linejoin="round"></path><g><path d="M325.06804,73.15587c2.44351,4.81911 1.50905,9.94946 -1.48904,11.4654c-2.99809,1.51595 -6.89313,-1.0705 -9.43703,-5.9c-2.44351,-4.8191 -2.01137,-10.44946 0.98672,-11.96541c3.00849,-1.61634 7.49584,1.5809 9.93936,6.40001z" fill="#ffffff" stroke="#000000" stroke-width="1.2" stroke-linecap="round" stroke-linejoin="round"></path><path d="M323.32095,78.75862c-0.11436,1.1043 -1.01105,1.92466 -2.01497,1.82069c-1.00392,-0.10397 -1.71348,-1.09066 -1.59912,-2.19496c0.11436,-1.1043 1.01105,-1.92466 2.01497,-1.82069c1.00392,0.10397 1.71348,1.09065 1.59912,2.19496" fill="#000000" stroke="none" stroke-width="1" stroke-linecap="butt" stroke-linejoin="miter"></path></g><g><path d="M300.69903,74.2625c2.35043,4.83367 0.85414,10.19662 -2.12064,11.69794c-3.57393,1.41333 -8.01465,-0.62995 -10.36507,-5.46363c-2.45029,-4.84834 -1.05711,-10.56952 2.3611,-12.31175c3.43287,-1.84208 7.77419,1.24376 10.12462,6.07743z" fill="#ffffff" stroke="#000000" stroke-width="1.2" stroke-linecap="round" stroke-linejoin="round"></path><path d="M297.99305,79.89289c-0.16132,1.09843 -1.09216,1.87982 -2.09073,1.73316c-0.99857,-0.14665 -1.66544,-1.16269 -1.50412,-2.26112c0.16132,-1.09843 1.09217,-1.87982 2.09074,-1.73316c0.9839,0.24651 1.66544,1.16269 1.50412,2.26112" fill="#000000" stroke="none" stroke-width="1" stroke-linecap="butt" stroke-linejoin="miter"></path></g></g><g fill-rule="evenodd"><path d="M481.46473,81.92297c-3.61386,3.8 -9.15,3.9 -9.15,3.9" fill="none" stroke="#000000" stroke-width="1.2" stroke-linecap="round" stroke-linejoin="round"></path><path d="M480.46515,93.12299c-4.84412,0.5 -7.84285,-1.4 -7.84285,-1.4" fill="none" stroke="#000000" stroke-width="1.2" stroke-linecap="round" stroke-linejoin="round"></path><path d="M452.76473,50.92298c0.3,-0.2 0.8,-0.1 0.9,0.3l2.6,10.7c0,0 7.65,5.2 9.55,8.5c3.2,5.5 3.3,10 3.3,10c0,0 7.1,2.1 8.3,7.8c1.2,5.7 -3.2,16.5 -22,20.2c-18.8,3.7 -33.9,-1.4 -41,-12.8c-7.1,-11.4 4.1,-28.25 3.5,-27.45l-0.6,-14.65c-0.1,-0.4 0.4,-0.7 0.8,-0.5l12.6,7.65c0,0 2.5,-1.45 7.2,-1.65c2.8,-0.2 4.45,0 6.75,0.4z" fill="#ffab19" stroke="#000000" stroke-width="1.2" stroke-linecap="butt" stroke-linejoin="miter"></path><path d="M468.81473,80.82299c0,0 6.9,1.8 8.1,7.5c1.2,5.7 -3.6,16 -22.2,19.6c-15.45551,3.19329 -22.39544,-1.22046 -24.73149,-7.58842c-1.32171,-3.60289 -2.1895,-7.83135 0.23149,-11.66158c6.7,-10.7 21.7,-2.1 30.1,-2.7c7.2,-0.5 0,-7.05 8.5,-5.15z" fill="#ffffff" stroke="none" stroke-width="1" stroke-linecap="butt" stroke-linejoin="miter"></path><path d="M444.06473,90.77299c0,-0.4 0.4,-0.7 0.8,-0.6c1.9,0.7 7.3,2.3 13.3,2.7c5.4,0.3 8.6,0 10.1,-0.3c0.5,-0.1 0.9,0.4 0.7,0.9c-0.9,2.7 -4.7,10.2 -15.2,9.6c-9.1,-1 -10,-7.4 -9.7,-12.3z" fill="#ffffff" stroke="#000000" stroke-width="1.2" stroke-linecap="round" stroke-linejoin="round"></path><path d="M461.4815,83.12122c2.04172,0 2.23616,-0.29167 2.33338,0.3889c0.09722,1.36114 -1.11808,4.32649 -2.67367,4.42371c-1.75004,0.19445 -6.07653,-1.9931 -6.07653,-3.54869c-0.09722,-1.1667 4.47233,-1.26392 6.41682,-1.26392z" fill="#000000" stroke="#000000" stroke-width="1.2" stroke-linecap="round" stroke-linejoin="round"></path><path d="M411.91473,83.37299c0,0 8.6,2.8 12.1,5.9" fill="none" stroke="#000000" stroke-width="1.2" stroke-linecap="round" stroke-linejoin="round"></path><path d="M424.31473,92.77299c-4.3,1.7 -11.7,0.6 -11.7,0.6" fill="none" stroke="#000000" stroke-width="1.2" stroke-linecap="round" stroke-linejoin="round"></path><g><path d="M467.57489,71.44848c2.1097,4.39705 1.93245,9.38038 -0.1045,11.1392c-2.03695,1.75882 -5.13337,-0.29314 -7.31582,-4.69019c-2.1097,-4.39705 -1.68245,-9.38038 0.3545,-11.1392c2.03695,-1.85653 4.95612,0.29314 7.06582,4.69019z" fill="#ffffff" stroke="#000000" stroke-width="1.2" stroke-linecap="round" stroke-linejoin="round"></path><path d="M467.2839,77.0181c0,1.07483 -0.58198,1.95425 -1.30947,1.95425c-0.72749,0 -1.30947,-0.87941 -1.30947,-1.95425c0,-1.07483 0.58199,-1.95425 1.30947,-1.95425c0.72749,0 1.30947,0.87941 1.30947,1.95425" fill="#000000" stroke="none" stroke-width="1" stroke-linecap="butt" stroke-linejoin="miter"></path></g><g><path d="M449.99382,74.78153c2.54605,4.67736 1.80829,10.03046 -1.0678,11.6516c-3.4731,1.56128 -7.71147,-0.27071 -10.25752,-4.94807c-2.64555,-4.68733 -2.27587,-10.37884 1.02816,-12.25858c3.314,-1.97924 7.7511,0.87769 10.29715,5.55505z" fill="#ffffff" stroke="#000000" stroke-width="1.2" stroke-linecap="round" stroke-linejoin="round"></path><path d="M448.81815,80.49272c-0.10974,1.09451 -0.99555,1.91021 -1.99056,1.81044c-0.99501,-0.09977 -1.70122,-1.0751 -1.59148,-2.16961c0.10974,-1.09451 0.99554,-1.91021 1.99055,-1.81043c0.98503,0.19927 1.70123,1.0751 1.59148,2.16961" fill="#000000" stroke="none" stroke-width="1" stroke-linecap="butt" stroke-linejoin="miter"></path></g></g><g fill-rule="evenodd"><path d="M512.50422,49.92448c0.3,-0.2 0.8,-0.1 0.9,0.3l2.6,9.45c0,0 8.4,3.45 12.8,9.25c3.2,5.5 3.3,11.5 3.3,11.5c0,0 7.1,2.1 8.3,7.8c1.2,5.7 -2.2,16.5 -21,20.2c-18.8,3.7 -33.9,-1.4 -41,-12.8c-4.12075,-6.61642 -1.90346,-16.83449 0.98523,-23.87855c2.08848,-5.09277 4.76654,-8.40714 4.51477,-8.07145l0.9,-12.9c-0.1,-0.4 0.4,-0.7 0.8,-0.5l11.1,10.4c0,0 6.15,-2.65 8.45,-2.25z" fill="#ffab19" stroke="#000000" stroke-width="1.2" stroke-linecap="butt" stroke-linejoin="miter"></path><path d="M531.80422,80.82449c0,0 6.9,1.8 8.1,7.5c1.2,5.7 -2.6,16 -21.2,19.6c-8.20551,0.94329 -16.39544,-1.22046 -18.73149,-7.58842c-1.32171,-3.60289 -2.1895,-8.83135 0.23149,-12.66158c6.7,-10.7 16.95,-3.6 25.35,-4.2c7.2,-0.5 -2.25,-4.55 6.25,-2.65z" fill="#ffffff" stroke="none" stroke-width="1" stroke-linecap="butt" stroke-linejoin="miter"></path><path d="M519.0434,88.02449c0,-0.4 0.308,-0.7 0.616,-0.6c1.46299,0.7 4.62098,2.3 9.24096,2.7c4.15798,0.3 6.62197,0 7.77697,-0.3c0.385,-0.1 0.693,0.4 0.539,0.9c-0.693,2.7 -2.61898,10.2 -10.70395,9.6c-7.00697,-1 -7.69997,-7.4 -7.46897,-12.3z" fill="#ffffff" stroke="#000000" stroke-width="1.2" stroke-linecap="round" stroke-linejoin="round"></path><path d="M530.73806,80.12272c1.80857,0 1.98081,-0.29167 2.06693,0.3889c0.08612,1.36114 -0.9904,4.32649 -2.36836,4.42371c-1.5502,0.19445 -4.38264,-1.9931 -4.38264,-3.54869c-0.08612,-1.1667 2.96162,-1.26392 4.68407,-1.26392z" fill="#000000" stroke="#000000" stroke-width="1.2" stroke-linecap="round" stroke-linejoin="round"></path><path d="M483.40422,83.37449c0,0 8.6,2.8 12.1,5.9" fill="none" stroke="#000000" stroke-width="1.2" stroke-linecap="round" stroke-linejoin="round"></path><path d="M494.30422,93.52449c-4.3,1.7 -11.7,0.6 -11.7,0.6" fill="none" stroke="#000000" stroke-width="1.2" stroke-linecap="round" stroke-linejoin="round"></path><g><path d="M522.29594,73.03302c2.4266,4.67736 1.99946,10.53046 -0.7417,12.1516c-3.31015,1.56128 -7.07367,-0.27071 -9.50027,-4.94807c-1.4225,-2.64442 -1.65433,-5.60845 -1.26134,-8.02733c0.3036,-1.86867 0.86881,-3.41199 2.24126,-4.23125c3.15852,-1.97924 6.83544,0.37769 9.26205,5.05505z" fill="#ffffff" stroke="#000000" stroke-width="1.2" stroke-linecap="round" stroke-linejoin="round"></path><path d="M521.72745,79.24424c-0.1046,1.09451 -0.94884,1.91021 -1.89717,1.81044c-0.94833,-0.09977 -1.62141,-1.0751 -1.51682,-2.16961c0.1046,-1.09451 0.94884,-1.91021 1.89717,-1.81043c0.93882,0.19927 1.62141,1.0751 1.51682,2.16961" fill="#000000" stroke="none" stroke-width="1" stroke-linecap="butt" stroke-linejoin="miter"></path></g></g><g data-paper-data="{&quot;index&quot;:null}" fill-rule="evenodd"><path d="M92.28295,58.16547c2.3,-0.4 4.7,-0.6 7.5,-0.4c4.7,0.2 9.2,1.9 9.2,1.9l12.1,-7.9c0.4,-0.2 0.9,0.1 0.8,0.5l-2.1,17.9c-0.6,-0.8 10.6,12.8 3.5,24.2c-7.1,11.4 -22.2,16.5 -41,12.8c-18.8,-3.7 -23.2,-14.5 -22,-20.2c1.2,-5.7 8.3,-7.8 8.3,-7.8c0,0 0.1,-4.5 3.3,-10c1.9,-3.3 8.3,-8 8.3,-8l2.6,-10.7c0.1,-0.4 0.6,-0.5 0.9,-0.3z" fill="#ffab19" stroke="#000000" stroke-width="1.2" stroke-linecap="butt" stroke-linejoin="miter"></path><path d="M85.38296,84.46548c8.4,0.6 19.9,-8.5 26.6,2.2c6.7,10.6 -4.8,25 -29,20c-18.6,-3.6 -23.4,-13.9 -22.2,-19.6c1.2,-5.7 8.1,-7.5 8.1,-7.5c8.5,-1.9 9.3,4.4 16.5,4.9z" fill="#ffffff" stroke="none" stroke-width="1" stroke-linecap="butt" stroke-linejoin="miter"></path><path d="M90.68296,102.56548c-10.5,0.6 -14.3,-6.9 -15.2,-9.6c-0.2,-0.5 0.2,-1 0.7,-0.9c1.5,0.3 4.7,0.6 10.1,0.3c6,-0.4 11.4,-2 13.3,-2.7c0.4,-0.1 0.8,0.2 0.8,0.6c0.3,4.9 -0.6,11.3 -9.7,12.3z" fill="#ffffff" stroke="#000000" stroke-width="1.2" stroke-linecap="round" stroke-linejoin="round"></path><path d="M62.38295,84.56548c0,0 -7.2,-0.1 -11.9,-3.9" fill="none" stroke="#000000" stroke-width="1.2" stroke-linecap="round" stroke-linejoin="round"></path><path d="M61.98295,90.46548c0,0 -3.9,1.9 -10.2,1.4" fill="none" stroke="#000000" stroke-width="1.2" stroke-linecap="round" stroke-linejoin="round"></path><path d="M90.38295,83.16548c0,1.6 -4.2,4.1 -6,3.9c-1.6,-0.1 -3.1,-2.9 -3,-4.3c0.1,-0.7 2.3,-0.9 4.4,-0.9c2,0 4.7,0.1 4.6,1.3z" fill="#000000" stroke="#000000" stroke-width="1.2" stroke-linecap="round" stroke-linejoin="round"></path><path d="M118.68295,86.26548c3.5,-3.1 12.1,-5.9 12.1,-5.9" fill="none" stroke="#000000" stroke-width="1.2" stroke-linecap="round" stroke-linejoin="round"></path><path d="M130.08296,90.36548c0,0 -7.4,1.1 -11.7,-0.6" fill="none" stroke="#000000" stroke-width="1.2" stroke-linecap="round" stroke-linejoin="round"></path><g><path d="M84.38295,65.36547c2.8,1.8 2.7,6.9 -0.2,11.4c-3,4.5 -7.6,6.6 -10.4,4.8c-2.8,-1.8 -2.7,-6.9 0.2,-11.4c2.9,-4.5 7.6,-6.7 10.4,-4.8z" fill="#ffffff" stroke="#000000" stroke-width="1.2" stroke-linecap="round" stroke-linejoin="round"></path><path d="M74.38296,75.86548c0,-1.1 0.8,-2 1.8,-2c1,0 1.8,0.9 1.8,2c0,1.1 -0.8,2 -1.8,2c-1,0 -1.8,-0.9 -1.8,-2" fill="#000000" stroke="none" stroke-width="1" stroke-linecap="butt" stroke-linejoin="miter"></path></g><g><path d="M109.58295,68.46546c3.1,2.2 2.9,7.9 -0.2,12.3c-3,4.4 -7.4,5.8 -10.7,3.9c-2.7,-1.9 -2.9,-7.3 0.1,-11.7c3,-4.4 7.7,-6.8 10.8,-4.5z" fill="#ffffff" stroke="#000000" stroke-width="1.2" stroke-linecap="round" stroke-linejoin="round"></path><path d="M99.38296,78.76547c0,-1.1 0.8,-1.9 1.8,-2c1,0 1.8,0.9 1.8,2c0,1.1 -0.8,2 -1.8,2c-1,0 -1.8,-0.9 -1.8,-2" fill="#000000" stroke="none" stroke-width="1" stroke-linecap="butt" stroke-linejoin="miter"></path></g></g><g data-paper-data="{&quot;index&quot;:null}" fill-rule="evenodd"><path d="M159.85008,58.99531c2.32135,-0.40372 9.547,-0.10557 12.37299,0.09629c4.74362,0.20185 6.00523,0.90835 6.00523,0.90835l10.19375,-8.97333c0.40371,-0.20186 0.90835,0.10093 0.80742,0.50464l0.90836,13.01046c-0.2797,-0.37294 2.41203,4.24273 4.68379,9.92636c2.64667,6.62157 3.22332,13.86718 -0.63273,20.0586c-7.16591,11.50581 -22.15375,16.65316 -41.12825,12.91881c-18.97451,-3.73435 -22.15375,-14.63459 -20.94261,-20.3875c1.21114,-5.75291 6.86312,-7.8724 6.86312,-7.8724c0,0 0.60093,-5.29177 3.83063,-10.84282c1.91764,-3.33063 7.3492,-7.0673 7.3492,-7.0673l2.1195,-11.55628c0.10094,-0.40372 0.60557,-0.50465 0.90836,-0.30279z" fill="#ffab19" stroke="#000000" stroke-width="1.2" stroke-linecap="butt" stroke-linejoin="miter"></path><path d="M158.20799,84.53479c8.47797,0.60557 21.094,-8.83122 27.85619,1.9681c6.76219,10.69839 -5.60152,25.48437 -30.02615,20.43796c-18.77265,-3.63341 -24.12184,-10.74885 -22.40606,-17.51104c1.44588,-5.69845 7.41823,-9.08354 7.41823,-9.08354c8.5789,-1.91764 9.89096,3.68388 17.15779,4.18852z" fill="#ffffff" stroke="none" stroke-width="1" stroke-linecap="butt" stroke-linejoin="miter"></path><path d="M174.86116,90.38863c0.30278,4.94549 -0.60557,11.40489 -9.79004,12.41417c-10.59747,0.60557 -14.43273,-6.96405 -15.34109,-9.68911c-0.20186,-0.50464 0.20186,-1.00929 0.7065,-0.90836c1.51393,0.30279 4.74363,0.60558 10.19375,0.30279c6.05569,-0.40372 11.50582,-2.01856 13.42345,-2.72506c0.40371,-0.10093 0.80742,0.20185 0.80742,0.60557z" fill="#ffffff" stroke="#000000" stroke-width="1.2" stroke-linecap="round" stroke-linejoin="round"></path><path d="M133.7329,84.63572c0,0 -7.26683,-0.10093 -12.01046,-3.9362" fill="none" stroke="#000000" stroke-width="1.2" stroke-linecap="round" stroke-linejoin="round"></path><path d="M133.58151,90.59049c0,0 -3.9362,1.91763 -10.29468,1.41299" fill="none" stroke="#000000" stroke-width="1.2" stroke-linecap="round" stroke-linejoin="round"></path><path d="M164.26369,82.97041c0,1.61485 -3.48202,4.13805 -5.29873,3.9362c-1.61485,-0.10094 -3.88574,-2.92693 -3.78481,-4.33992c0.10093,-0.7065 2.32134,-0.90835 4.44084,-0.90835c2.01857,0 4.74363,0.10093 4.6427,1.31207z" fill="#000000" stroke="#000000" stroke-width="1.2" stroke-linecap="round" stroke-linejoin="round"></path><path d="M191.06013,86.35149c3.53249,-3.12877 12.21231,-5.95476 12.21231,-5.95476" fill="none" stroke="#000000" stroke-width="1.2" stroke-linecap="round" stroke-linejoin="round"></path><path d="M202.56594,90.48955c0,0 -7.46869,1.11022 -11.8086,-0.60556" fill="none" stroke="#000000" stroke-width="1.2" stroke-linecap="round" stroke-linejoin="round"></path><g><path d="M144.88864,72.14986c2.44352,-4.81911 6.93087,-8.01635 9.93936,-6.40001c2.99809,1.51595 3.43023,7.14631 0.98672,11.96541c-2.5439,4.8295 -6.43894,7.41595 -9.43703,5.9c-2.99809,-1.51594 -3.93255,-6.64629 -1.48904,-11.4654z" fill="#ffffff" stroke="#000000" stroke-width="1.2" stroke-linecap="round" stroke-linejoin="round"></path><path d="M146.63574,77.75262c-0.11436,-1.10431 0.5952,-2.09099 1.59912,-2.19496c1.00392,-0.10397 1.90061,0.71639 2.01497,1.82069c0.11436,1.1043 -0.5952,2.09099 -1.59912,2.19496c-1.00392,0.10397 -1.90061,-0.71639 -2.01497,-1.82069" fill="#000000" stroke="none" stroke-width="1" stroke-linecap="butt" stroke-linejoin="miter"></path></g><g><path d="M169.25764,73.25647c2.35043,-4.83367 6.69175,-7.91951 10.12462,-6.07743c3.41821,1.74223 4.81139,7.46341 2.3611,12.31175c-2.35042,4.83368 -6.79114,6.87696 -10.36507,5.46363c-2.97478,-1.50132 -4.47107,-6.86427 -2.12064,-11.69794z" fill="#ffffff" stroke="#000000" stroke-width="1.2" stroke-linecap="round" stroke-linejoin="round"></path><path d="M171.96363,78.88688c-0.16132,-1.09843 0.52022,-2.01461 1.50412,-2.26112c0.99857,-0.14666 1.92942,0.63473 2.09074,1.73316c0.16132,1.09843 -0.50555,2.11447 -1.50412,2.26112c-0.99857,0.14666 -1.92941,-0.63473 -2.09073,-1.73316" fill="#000000" stroke="none" stroke-width="1" stroke-linecap="butt" stroke-linejoin="miter"></path></g></g><g data-paper-data="{&quot;index&quot;:null}" fill-rule="evenodd"><path d="M-4.35804,84.81698c0,0 -5.53614,-0.1 -9.15,-3.9" fill="none" stroke="#000000" stroke-width="1.2" stroke-linecap="round" stroke-linejoin="round"></path><path d="M-4.66561,90.71698c0,0 -2.99873,1.9 -7.84285,1.4" fill="none" stroke="#000000" stroke-width="1.2" stroke-linecap="round" stroke-linejoin="round"></path><path d="M23.29196,58.41697c2.3,-0.4 3.95,-0.6 6.75,-0.4c4.7,0.2 7.2,1.65 7.2,1.65l12.6,-7.65c0.4,-0.2 0.9,0.1 0.8,0.5l-0.6,14.65c-0.6,-0.8 10.6,16.05 3.5,27.45c-7.1,11.4 -22.2,16.5 -41,12.8c-18.8,-3.7 -23.2,-14.5 -22,-20.2c1.2,-5.7 8.3,-7.8 8.3,-7.8c0,0 0.1,-4.5 3.3,-10c1.9,-3.3 9.55,-8.5 9.55,-8.5l2.6,-10.7c0.1,-0.4 0.6,-0.5 0.9,-0.3z" fill="#ffab19" stroke="#000000" stroke-width="1.2" stroke-linecap="butt" stroke-linejoin="miter"></path><path d="M7.64196,84.96698c8.4,0.6 23.4,-8 30.1,2.7c2.42099,3.83023 1.5532,8.05869 0.23149,11.66158c-2.33605,6.36796 -9.27598,10.78171 -24.73149,7.58842c-18.6,-3.6 -23.4,-13.9 -22.2,-19.6c1.2,-5.7 8.1,-7.5 8.1,-7.5c8.5,-1.9 1.3,4.65 8.5,5.15z" fill="#ffffff" stroke="none" stroke-width="1" stroke-linecap="butt" stroke-linejoin="miter"></path><path d="M14.19196,102.06698c-10.5,0.6 -14.3,-6.9 -15.2,-9.6c-0.2,-0.5 0.2,-1 0.7,-0.9c1.5,0.3 4.7,0.6 10.1,0.3c6,-0.4 11.4,-2 13.3,-2.7c0.4,-0.1 0.8,0.2 0.8,0.6c0.3,4.9 -0.6,11.3 -9.7,12.3z" fill="#ffffff" stroke="#000000" stroke-width="1.2" stroke-linecap="round" stroke-linejoin="round"></path><path d="M12.89201,83.37913c0,1.55559 -4.32649,3.74314 -6.07653,3.54869c-1.55559,-0.09722 -2.77089,-3.06257 -2.67367,-4.42371c0.09722,-0.68057 0.29166,-0.3889 2.33338,-0.3889c1.94449,0 6.51404,0.09722 6.41682,1.26392z" fill="#000000" stroke="#000000" stroke-width="1.2" stroke-linecap="round" stroke-linejoin="round"></path><path d="M43.94196,88.26698c3.5,-3.1 12.1,-5.9 12.1,-5.9" fill="none" stroke="#000000" stroke-width="1.2" stroke-linecap="round" stroke-linejoin="round"></path><path d="M55.34196,92.36698c0,0 -7.4,1.1 -11.7,-0.6" fill="none" stroke="#000000" stroke-width="1.2" stroke-linecap="round" stroke-linejoin="round"></path><g><path d="M7.44762,65.75226c2.03695,1.75882 2.4642,6.74215 0.3545,11.1392c-2.18245,4.39705 -5.27887,6.44901 -7.31582,4.69019c-2.03695,-1.75882 -2.2142,-6.74215 -0.1045,-11.1392c2.1097,-4.39705 5.02887,-6.54672 7.06582,-4.69019z" fill="#ffffff" stroke="#000000" stroke-width="1.2" stroke-linecap="round" stroke-linejoin="round"></path><path d="M0.67279,76.01209c0,-1.07484 0.58198,-1.95425 1.30947,-1.95425c0.72748,0 1.30947,0.87942 1.30947,1.95425c0,1.07484 -0.58198,1.95425 -1.30947,1.95425c-0.72749,0 -1.30947,-0.87942 -1.30947,-1.95425" fill="#000000" stroke="none" stroke-width="1" stroke-linecap="butt" stroke-linejoin="miter"></path></g><g><path d="M17.96288,73.77552c2.54605,-4.67736 6.98315,-7.53429 10.29715,-5.55505c3.30403,1.87974 3.67371,7.57125 1.02816,12.25858c-2.54605,4.67736 -6.78442,6.50935 -10.25752,4.94807c-2.87609,-1.62114 -3.61385,-6.97424 -1.0678,-11.6516z" fill="#ffffff" stroke="#000000" stroke-width="1.2" stroke-linecap="round" stroke-linejoin="round"></path><path d="M19.13855,79.48674c-0.10975,-1.09451 0.60645,-1.97034 1.59148,-2.16961c0.99501,-0.09978 1.88081,0.71592 1.99055,1.81043c0.10974,1.09451 -0.59647,2.06984 -1.59148,2.16961c-0.99501,0.09977 -1.88082,-0.71593 -1.99056,-1.81044" fill="#000000" stroke="none" stroke-width="1" stroke-linecap="butt" stroke-linejoin="miter"></path></g></g><g data-paper-data="{&quot;index&quot;:null}" fill-rule="evenodd"><path d="M-37.69753,60.42148c2.3,-0.4 8.45,2.25 8.45,2.25l11.1,-10.4c0.4,-0.2 0.9,0.1 0.8,0.5l0.9,12.9c-0.25177,-0.33569 2.42629,2.97868 4.51477,8.07145c2.88869,7.04406 5.10598,17.26213 0.98523,23.87855c-7.1,11.4 -22.2,16.5 -41,12.8c-18.8,-3.7 -22.2,-14.5 -21,-20.2c1.2,-5.7 8.3,-7.8 8.3,-7.8c0,0 0.1,-6 3.3,-11.5c4.4,-5.8 12.8,-9.25 12.8,-9.25l2.6,-9.45c0.1,-0.4 0.6,-0.5 0.9,-0.3z" fill="#ffab19" stroke="#000000" stroke-width="1.2" stroke-linecap="butt" stroke-linejoin="miter"></path><path d="M-58.09753,85.47149c8.4,0.6 18.65,-6.5 25.35,4.2c2.42099,3.83023 1.5532,9.05869 0.23149,12.66158c-2.33605,6.36796 -10.52598,8.53171 -18.73149,7.58842c-18.6,-3.6 -22.4,-13.9 -21.2,-19.6c1.2,-5.7 8.1,-7.5 8.1,-7.5c8.5,-1.9 -0.95,2.15 6.25,2.65z" fill="#ffffff" stroke="none" stroke-width="1" stroke-linecap="butt" stroke-linejoin="miter"></path><path d="M-51.58672,90.02149c0.231,4.9 -0.462,11.3 -7.46897,12.3c-8.08497,0.6 -10.01095,-6.9 -10.70395,-9.6c-0.154,-0.5 0.154,-1 0.539,-0.9c1.155,0.3 3.61899,0.6 7.77697,0.3c4.61998,-0.4 7.77797,-2 9.24096,-2.7c0.308,-0.1 0.616,0.2 0.616,0.6z" fill="#ffffff" stroke="#000000" stroke-width="1.2" stroke-linecap="round" stroke-linejoin="round"></path><path d="M-58.5973,83.38362c0,1.55559 -2.83244,3.74314 -4.38264,3.54869c-1.37796,-0.09722 -2.45448,-3.06257 -2.36836,-4.42371c0.08612,-0.68057 0.25836,-0.3889 2.06693,-0.3889c1.72245,0 4.77019,0.09722 4.68407,1.26392z" fill="#000000" stroke="#000000" stroke-width="1.2" stroke-linecap="round" stroke-linejoin="round"></path><path d="M-28.04753,91.27149c3.5,-3.1 12.1,-5.9 12.1,-5.9" fill="none" stroke="#000000" stroke-width="1.2" stroke-linecap="round" stroke-linejoin="round"></path><path d="M-15.14753,96.12149c0,0 -7.4,1.1 -11.7,-0.6" fill="none" stroke="#000000" stroke-width="1.2" stroke-linecap="round" stroke-linejoin="round"></path><g><path d="M-45.5772,69.97498c1.37245,0.81926 1.93766,2.36258 2.24126,4.23125c0.39299,2.41888 0.16116,5.38291 -1.26134,8.02733c-2.4266,4.67736 -6.19012,6.50935 -9.50027,4.94807c-2.74116,-1.62114 -3.1683,-7.47424 -0.7417,-12.1516c2.42661,-4.67736 6.10353,-7.03429 9.26205,-5.05505z" fill="#ffffff" stroke="#000000" stroke-width="1.2" stroke-linecap="round" stroke-linejoin="round"></path><path d="M-54.27076,81.24125c-0.10459,-1.09451 0.578,-1.97034 1.51682,-2.16961c0.94833,-0.09978 1.79257,0.71592 1.89717,1.81043c0.10459,1.09451 -0.56849,2.06984 -1.51682,2.16961c-0.94833,0.09977 -1.79257,-0.71593 -1.89717,-1.81044" fill="#000000" stroke="none" stroke-width="1" stroke-linecap="butt" stroke-linejoin="miter"></path></g></g><g fill-rule="evenodd"><path d="M244.17103,57.78637c1.0632,0.01359 2.35331,0.01323 3.59881,0.22469c2.47057,0.41947 3.29028,0.69962 3.29028,0.69962c0,0 8.1035,-7.35381 10.03841,-8.68407c0.91277,-0.62753 1.03151,0.08992 1.03151,0.08992l-0.39478,14.85134c0,0 3.636,3.79672 5.21431,8.28697c0.65022,1.84985 1.39446,5.66288 1.65504,7.4269c0.45818,3.10171 1.53211,5.76134 1.76993,6.89098c1.18021,5.60601 -3.14723,16.22792 -21.63722,19.8669c-18.48999,3.63899 -33.34099,-1.37691 -40.32391,-12.58893c-2.7891,-4.47828 -2.21468,-9.66109 -0.66086,-14.22107c1.21144,-3.55519 2.08561,-7.45555 2.51946,-8.77222c0.9059,-2.7493 4.44825,-7.09555 4.44825,-7.09555l-0.61558,-15.64254c0,0 0.2734,-0.34077 0.74839,0.00126c1.69369,1.21959 11.76324,9.00808 11.76324,9.00808c0,0 2.30557,0.32952 7.18699,-0.44707c3.34176,-0.53165 7.11313,0.0632 10.36773,0.10479z" fill="#ffab19" stroke="#000000" stroke-width="1.2" stroke-linecap="butt" stroke-linejoin="miter"></path><path d="M257.91032,82.50293c0,0 6.61502,2.32988 7.3238,8.01475c0.51586,4.13753 -0.28655,10.21906 -8.84039,13.99551c-3.19896,1.41231 -8.96246,2.50223 -14.00466,3.04752c-24.12804,2.91634 -34.73824,-11.79321 -27.3026,-21.63281c7.44384,-9.93761 16.98525,-0.07598 25.26717,0.02467c7.09762,0.10027 9.38172,-6.00869 17.55668,-3.44963z" fill="#ffffff" stroke="none" stroke-width="1" stroke-linecap="butt" stroke-linejoin="miter"></path><path d="M279.91292,80.91997c-4.7,3.8 -11.9,3.9 -11.9,3.9" fill="none" stroke="#000000" stroke-width="1.2" stroke-linecap="round" stroke-linejoin="round"></path><path d="M278.61295,92.11999c-6.3,0.5 -10.2,-1.4 -10.2,-1.4" fill="none" stroke="#000000" stroke-width="1.2" stroke-linecap="round" stroke-linejoin="round"></path><path d="M239.55739,82.84221c2.1,0 4.3,0.2 4.4,0.9c0.1,1.4 -2.51111,4.2 -4.11111,4.3c-1.8,0.2 -4.88889,-2.3 -4.88889,-3.9c-0.1,-1.2 2.6,-1.3 4.6,-1.3z" fill="#000000" stroke="#000000" stroke-width="1.2" stroke-linecap="round" stroke-linejoin="round"></path><path d="M196.94628,80.61999c0,0 8.6,2.8 12.1,5.9" fill="none" stroke="#000000" stroke-width="1.2" stroke-linecap="round" stroke-linejoin="round"></path><path d="M208.51295,90.85332c-4.3,1.7 -11.7,0.6 -11.7,0.6" fill="none" stroke="#000000" stroke-width="1.2" stroke-linecap="round" stroke-linejoin="round"></path><path d="M257.13558,74.93476c0.41427,5.33956 -2.11613,9.86254 -5.67833,10.0989c-3.56221,0.23636 -6.81191,-3.81274 -7.32032,-9.20027c-0.41427,-5.33956 2.11612,-9.86254 5.67833,-10.09889c3.61367,-0.32411 6.90606,3.8607 7.32033,9.20026z" fill="#ffffff" stroke="#000000" stroke-width="1.2" stroke-linecap="round" stroke-linejoin="round"></path><path d="M252.60233,77.80115c0,1.1 -0.8,2 -1.8,2c-1,0 -1.8,-0.9 -1.8,-2c0,-1.1 0.8,-2 1.8,-2c1,0 1.8,0.9 1.8,2" fill="#000000" stroke="none" stroke-width="1" stroke-linecap="butt" stroke-linejoin="miter"></path><path d="M231.70884,74.68649c0.94363,5.24114 -1.44227,10.08959 -4.68254,10.72259c-3.78805,0.38818 -7.2339,-2.68527 -8.17754,-7.92641c-1.03492,-5.28195 0.6082,-10.06749 4.33606,-10.81117c3.76866,-0.83498 7.58038,2.77385 8.52401,8.01499z" fill="#ffffff" stroke="#000000" stroke-width="1.2" stroke-linecap="round" stroke-linejoin="round"></path><path d="M227.83146,78.94675c0,1.1 -0.8,2 -1.8,2c-1,0 -1.8,-0.9 -1.8,-2c0,-1.1 0.8,-2 1.8,-2c1,0.1 1.8,0.9 1.8,2" fill="#000000" stroke="none" stroke-width="1" stroke-linecap="butt" stroke-linejoin="miter"></path><path d="M224.09625,91.26999c0,-0.4 0.4,-0.7 0.8,-0.6c1.9,0.7 7.3,2.3 13.3,2.7c5.4,0.3 8.6,0 10.1,-0.3c0.5,-0.1 0.9,0.4 0.7,0.9c-0.9,2.7 -4.7,10.2 -15.2,9.6c-9.1,-1 -10,-7.4 -9.7,-12.3z" fill="#ffffff" stroke="#000000" stroke-width="1.2" stroke-linecap="round" stroke-linejoin="round"></path></g><g fill-rule="evenodd"><path d="M240.61305,329.43609c-2.40092,1.80003 -9.89416,1.74985 -9.89416,1.74985c-3.95125,-0.66797 -5.17348,-1.43426 -6.3739,-2.92239c-2.35838,-2.92364 -1.41717,-7.29533 -1.75841,-10.92895c-0.28059,-4.79388 -0.4268,-9.69236 4.62949,-11.28558c3.07932,-1.5257 5.56195,1.53332 7.31321,0.19799c4.1919,-3.07937 7.27096,1.48696 7.95525,4.05441c0,0 0.81718,4.81633 0.83094,7.11846c-0.00498,2.80178 0.12355,6.15047 -0.3501,7.57373c0,0 0.04862,2.64247 -2.35231,4.44249z" fill="#ffab19" stroke="#000000" stroke-width="1.2" stroke-linecap="round" stroke-linejoin="round"></path><path d="M237.84791,326.07509c-0.72453,0.7383 -3.58315,1.18914 -5.75263,0.86764c-4.62225,-0.34024 -4.74831,-3.83827 -4.87025,-7.52543c0.11239,-2.99789 0.52502,-7.1551 5.87551,-7.33477c5.07218,-0.23013 5.91234,3.46566 5.91234,3.46566c0.75501,6.76767 0.66006,8.66718 -1.16497,10.5269z" fill="#ffffff" stroke="none" stroke-width="1" stroke-linecap="butt" stroke-linejoin="miter"></path></g><g fill-rule="evenodd"><path d="M239.67104,258.28637c1.0632,0.01359 2.35331,0.01323 3.59881,0.22469c2.47057,0.41947 3.29028,0.69962 3.29028,0.69962c0,0 8.1035,-7.35381 10.03841,-8.68407c0.91277,-0.62753 1.03151,0.08992 1.03151,0.08992l-0.39478,14.85134c0,0 3.636,3.79672 5.21431,8.28697c0.65022,1.84985 1.39446,5.66288 1.65504,7.4269c0.45818,3.10171 1.53211,5.76134 1.76993,6.89098c1.18021,5.60601 -3.14723,16.22792 -21.63722,19.8669c-18.48999,3.63899 -33.34099,-1.37691 -40.32391,-12.58893c-2.7891,-4.47828 -2.21468,-9.66109 -0.66086,-14.22107c1.21144,-3.55519 2.08561,-7.45555 2.51946,-8.77222c0.9059,-2.7493 4.44825,-7.09555 4.44825,-7.09555l-0.61558,-15.64254c0,0 0.2734,-0.34077 0.74839,0.00126c1.69369,1.21959 11.76324,9.00808 11.76324,9.00808c0,0 2.30557,0.32952 7.18699,-0.44707c3.34176,-0.53165 7.11313,0.0632 10.36773,0.10479z" fill="#ffab19" stroke="#000000" stroke-width="1.2" stroke-linecap="butt" stroke-linejoin="miter"></path><path d="M253.41032,283.00293c0,0 6.61502,2.32988 7.3238,8.01475c0.51586,4.13753 -0.28655,10.21906 -8.84039,13.99551c-3.19896,1.41231 -8.96246,2.50223 -14.00466,3.04752c-24.12804,2.91634 -34.73824,-11.79321 -27.3026,-21.63281c7.44384,-9.93761 16.98525,-0.07598 25.26717,0.02467c7.09762,0.10027 9.38172,-6.00869 17.55668,-3.44963z" fill="#ffffff" stroke="none" stroke-width="1" stroke-linecap="butt" stroke-linejoin="miter"></path><path d="M275.41292,281.41999c-4.7,3.8 -11.9,3.9 -11.9,3.9" fill="none" stroke="#000000" stroke-width="1.2" stroke-linecap="round" stroke-linejoin="round"></path><path d="M274.11295,292.61999c-6.3,0.5 -10.2,-1.4 -10.2,-1.4" fill="none" stroke="#000000" stroke-width="1.2" stroke-linecap="round" stroke-linejoin="round"></path><path d="M235.05739,283.3422c2.1,0 4.3,0.2 4.4,0.9c0.1,1.4 -2.51111,4.2 -4.11111,4.3c-1.8,0.2 -4.88889,-2.3 -4.88889,-3.9c-0.1,-1.2 2.6,-1.3 4.6,-1.3z" fill="#000000" stroke="#000000" stroke-width="1.2" stroke-linecap="round" stroke-linejoin="round"></path><path d="M192.44628,281.11999c0,0 8.6,2.8 12.1,5.9" fill="none" stroke="#000000" stroke-width="1.2" stroke-linecap="round" stroke-linejoin="round"></path><path d="M204.01295,291.3533c-4.3,1.7 -11.7,0.6 -11.7,0.6" fill="none" stroke="#000000" stroke-width="1.2" stroke-linecap="round" stroke-linejoin="round"></path><path d="M252.63558,275.43476c0.41427,5.33956 -2.11613,9.86254 -5.67833,10.0989c-3.56221,0.23636 -6.81191,-3.81274 -7.32032,-9.20027c-0.41427,-5.33956 2.11612,-9.86254 5.67833,-10.09889c3.61367,-0.32411 6.90606,3.8607 7.32033,9.20026z" fill="#ffffff" stroke="#000000" stroke-width="1.2" stroke-linecap="round" stroke-linejoin="round"></path><path d="M248.10233,278.30116c0,1.1 -0.8,2 -1.8,2c-1,0 -1.8,-0.9 -1.8,-2c0,-1.1 0.8,-2 1.8,-2c1,0 1.8,0.9 1.8,2" fill="#000000" stroke="none" stroke-width="1" stroke-linecap="butt" stroke-linejoin="miter"></path><path d="M227.20884,275.18649c0.94363,5.24114 -1.44227,10.08959 -4.68254,10.72259c-3.78805,0.38818 -7.2339,-2.68527 -8.17754,-7.92641c-1.03492,-5.28195 0.6082,-10.06749 4.33606,-10.81117c3.76866,-0.83498 7.58038,2.77385 8.52401,8.01499z" fill="#ffffff" stroke="#000000" stroke-width="1.2" stroke-linecap="round" stroke-linejoin="round"></path><path d="M223.33146,279.44675c0,1.1 -0.8,2 -1.8,2c-1,0 -1.8,-0.9 -1.8,-2c0,-1.1 0.8,-2 1.8,-2c1,0.1 1.8,0.9 1.8,2" fill="#000000" stroke="none" stroke-width="1" stroke-linecap="butt" stroke-linejoin="miter"></path><path d="M219.59625,291.76999c0,-0.4 0.4,-0.7 0.8,-0.6c1.9,0.7 7.3,2.3 13.3,2.7c5.4,0.3 8.6,0 10.1,-0.3c0.5,-0.1 0.9,0.4 0.7,0.9c-0.9,2.7 -4.7,10.2 -15.2,9.6c-9.1,-1 -10,-7.4 -9.7,-12.3z" fill="#ffffff" stroke="#000000" stroke-width="1.2" stroke-linecap="round" stroke-linejoin="round"></path></g><text transform="translate(18.97835,22.83521) scale(0.5,0.5)" font-size="40" xml:space="preserve" fill="#000000" fill-rule="nonzero" stroke="none" stroke-width="1" stroke-linecap="butt" stroke-linejoin="miter" stroke-miterlimit="10" stroke-dasharray="" stroke-dashoffset="0" font-family="Sans Serif" font-weight="normal" text-anchor="start" style="mix-blend-mode: normal"><tspan x="0" dy="0">scratch cat spritesheet by billiman_mcjonnson</tspan></text><path d="M143.72309,199.92042c0,4.28021 -1.35786,9.75 -5.5,9.75c-4.14214,0 -5,-3.46979 -5,-7.75c0,-4.28021 0.85786,-7.75 5,-7.75c4.14214,0 5.5,1.46979 5.5,5.75z" fill="#ffab19" fill-rule="nonzero" stroke="#000000" stroke-width="1.2" stroke-linecap="butt" stroke-linejoin="miter"></path><path d="M130.22309,201.67042c0,2.20914 -0.34315,4.5 -2,4.5c-1.65685,0 -3,-1.79086 -3,-4c0,-2.20914 0.84315,-4 2.5,-4c1.65685,0 2.5,1.29086 2.5,3.5z" fill="#ffab19" fill-rule="nonzero" stroke="#000000" stroke-width="1.2" stroke-linecap="butt" stroke-linejoin="miter"></path><text transform="translate(118.72309,190.91636) scale(0.17532,0.17532)" font-size="40" xml:space="preserve" fill="#000000" fill-rule="nonzero" stroke="none" stroke-width="1" stroke-linecap="butt" stroke-linejoin="miter" stroke-miterlimit="10" stroke-dasharray="" stroke-dashoffset="0" font-family="Sans Serif" font-weight="normal" text-anchor="start" style="mix-blend-mode: normal"><tspan x="0" dy="0">hand</tspan></text></g></g></svg>