<svg version="1.1" xmlns="http://www.w3.org/2000/svg" xmlns:xlink="http://www.w3.org/1999/xlink" width="187.52861" height="75.60645" viewBox="0,0,187.52861,75.60645"><g transform="translate(-148.35502,-157.24137)"><g data-paper-data="{&quot;isPaintingLayer&quot;:true}" fill-rule="nonzero" stroke-linecap="butt" stroke-linejoin="miter" stroke-miterlimit="10" stroke-dasharray="" stroke-dashoffset="0" style="mix-blend-mode: normal"><g fill="#361515" stroke="none" stroke-width="0"><path d="M176.1821,197.29426c0.15089,10.9979 19.81981,17.06919 -3.76352,20.9013c-17.13257,2.78392 -15.68073,-9.68468 -15.83162,-20.68258c-0.15089,-10.9979 4.11331,-19.96242 9.52436,-20.02282c5.41106,-0.0604 9.9199,8.80619 10.07078,19.80409z"/><path d="M322.12349,178.34138c5.41106,-0.0604 9.9199,8.80619 10.07078,19.80409c0.15089,10.9979 1.94436,23.43028 -15.25934,21.02963c-23.68125,-3.30454 -4.18491,-9.813 -4.33581,-20.8109c-0.15089,-10.9979 4.11331,-19.96242 9.52436,-20.02282z" data-paper-data="{&quot;index&quot;:null}"/><path d="M192.03927,210.31637c0.15089,10.9979 19.81981,17.06919 -3.76352,20.9013c-17.13257,2.78392 -15.68073,-9.68468 -15.83162,-20.68258c-0.15089,-10.9979 4.11331,-19.96242 9.52436,-20.02282c5.41106,-0.0604 9.9199,8.80619 10.07078,19.80409z"/><path d="M306.62844,191.71344c5.41106,-0.0604 9.9199,8.80619 10.07078,19.80409c0.15089,10.9979 1.94436,23.43028 -15.25934,21.02963c-23.68125,-3.30454 -4.18491,-9.813 -4.33581,-20.8109c-0.15089,-10.9979 4.11331,-19.96242 9.52436,-20.02282z" data-paper-data="{&quot;index&quot;:null}"/><path d="M335.8562,187.6503c-1.19518,21.41943 -41.32576,28.71811 -90.46145,26.48749c-49.13569,-2.23062 -88.66979,-13.14586 -87.47462,-34.56529c1.19518,-21.41943 42.86167,-12.00068 91.99736,-9.77006c49.13569,2.23062 87.13388,-3.57158 85.93871,17.84786z" data-paper-data="{&quot;index&quot;:null}"/><path d="M323.84592,187.957c-1.03368,18.52506 -35.74149,24.83749 -78.23758,22.90829c-42.49607,-1.9292 -76.68802,-11.36949 -75.65434,-29.89455c1.03368,-18.52506 37.06984,-10.37905 79.56594,-8.44984c42.49607,1.9292 75.35966,-3.08896 74.32598,15.43611z" data-paper-data="{&quot;index&quot;:null}"/></g><path d="M168.99268,189.61057c0,10.99875 19.58413,17.2891 -4.04997,20.8577c-17.16945,2.59248 -15.54667,-9.85896 -15.54667,-20.8577c0,-10.99875 4.38686,-19.91498 9.79832,-19.91498c5.41146,0 9.79832,8.91624 9.79832,19.91498z" fill="#8f1a1a" stroke="#000000" stroke-width="2"/><path d="M315.18291,172.76289c5.41146,0 9.79832,8.91624 9.79832,19.91498c0,10.99875 1.62278,23.45019 -15.54667,20.8577c-23.6341,-3.5686 -4.04997,-9.85896 -4.04997,-20.8577c0,-10.99875 4.38686,-19.91498 9.79832,-19.91498z" data-paper-data="{&quot;index&quot;:null}" fill="#8f1a1a" stroke="#000000" stroke-width="2"/><path d="M184.66999,203.28349c0,10.99875 19.58413,17.2891 -4.04997,20.8577c-17.16945,2.59248 -15.54667,-9.85896 -15.54667,-20.8577c0,-10.99875 4.38686,-19.91498 9.79832,-19.91498c5.41146,0 9.79832,8.91624 9.79832,19.91498z" fill="#8f1a1a" stroke="#000000" stroke-width="2"/><path d="M299.5056,185.96099c5.41146,0 9.79832,8.91624 9.79832,19.91498c0,10.99875 1.62278,23.45019 -15.54667,20.8577c-23.6341,-3.5686 -4.04997,-9.85896 -4.04997,-20.8577c0,-10.99875 4.38686,-19.91498 9.79832,-19.91498z" data-paper-data="{&quot;index&quot;:null}" fill="#8f1a1a" stroke="#000000" stroke-width="2"/><path d="M328.78688,181.74956c-1.48894,21.40445 -41.71658,28.25465 -90.8179,25.47577c-49.10133,-2.77889 -88.48265,-14.13455 -86.99372,-35.539c1.48894,-21.40445 43.02302,-11.52135 92.12435,-8.74247c49.10133,2.77889 87.17621,-2.59875 85.68728,18.8057z" data-paper-data="{&quot;index&quot;:null}" fill="#542222" stroke="#000000" stroke-width="2"/><path d="M316.7733,181.92219c-1.28773,18.51211 -36.07949,24.43666 -78.54586,22.03329c-42.46636,-2.40338 -76.52617,-12.22458 -75.23843,-30.73668c1.28773,-18.51211 37.2094,-9.9645 79.67576,-7.56112c42.46636,2.40338 75.39626,-2.24759 74.10853,16.26452z" data-paper-data="{&quot;index&quot;:null}" fill="#d1b0b0" stroke="#000000" stroke-width="2"/></g></g></svg>