<svg version="1.1" xmlns="http://www.w3.org/2000/svg" xmlns:xlink="http://www.w3.org/1999/xlink" width="186.01458" height="72.65983" viewBox="0,0,186.01458,72.65983"><g transform="translate(-149.11202,-160.18798)"><g data-paper-data="{&quot;isPaintingLayer&quot;:true}" fill-rule="nonzero" stroke-linecap="butt" stroke-linejoin="miter" stroke-miterlimit="10" stroke-dasharray="" stroke-dashoffset="0" style="mix-blend-mode: normal"><g fill="#151535" stroke="none" stroke-width="0"><path d="M176.72135,198.69846c0.14966,10.56353 19.65893,16.39503 -3.73297,20.0758c-16.99351,2.67397 -15.55346,-9.30218 -15.70312,-19.86571c-0.14966,-10.56353 4.07992,-19.17399 9.44705,-19.23201c5.36714,-0.05801 9.83938,8.45839 9.98904,19.02192z"></path><path d="M321.47816,180.49414c5.36714,-0.05801 9.83938,8.45839 9.98904,19.02192c0.14966,10.56353 1.92858,22.50489 -15.13548,20.19905c-23.48903,-3.17402 -4.15095,-9.42543 -4.30062,-19.98896c-0.14966,-10.56353 4.07992,-19.17399 9.44705,-19.23201z" data-paper-data="{&quot;index&quot;:null}"></path><path d="M192.44981,211.20626c0.14966,10.56353 19.65893,16.39503 -3.73297,20.0758c-16.99351,2.67397 -15.55346,-9.30218 -15.70312,-19.86571c-0.14966,-10.56353 4.07992,-19.17399 9.44705,-19.23201c5.36714,-0.05801 9.83938,8.45839 9.98904,19.02192z"></path><path d="M306.10888,193.33807c5.36714,-0.05801 9.83938,8.45839 9.98904,19.02192c0.14966,10.56353 1.92858,22.50489 -15.13548,20.19905c-23.48903,-3.17402 -4.15095,-9.42543 -4.30062,-19.98896c-0.14966,-10.56353 4.07992,-19.17399 9.44705,-19.23201z" data-paper-data="{&quot;index&quot;:null}"></path><path d="M335.0994,189.4354c-1.18547,20.57346 -40.99033,27.58388 -89.72719,25.44136c-48.73686,-2.14252 -87.95007,-12.62666 -86.7646,-33.20012c1.18547,-20.57346 42.51377,-11.52671 91.25063,-9.38419c48.73686,2.14252 86.42663,-3.43052 85.24116,17.14295z" data-paper-data="{&quot;index&quot;:null}"></path><path d="M323.1866,189.72999c-1.02529,17.79341 -35.45138,23.85653 -77.60253,22.00352c-42.15114,-1.85301 -76.06556,-10.92045 -75.04027,-28.71385c1.02529,-17.79341 36.76895,-9.96912 78.92011,-8.11611c42.15114,1.85301 74.74798,-2.96696 73.72269,14.82646z" data-paper-data="{&quot;index&quot;:null}"></path></g><path d="M169.59029,191.31825c0,10.56434 19.42516,16.60626 -4.0171,20.03392c-17.03009,2.49009 -15.42048,-9.46957 -15.42048,-20.03392c0,-10.56434 4.35125,-19.12843 9.71879,-19.12843c5.36754,0 9.71879,8.56409 9.71879,19.12843z" fill="#3d4698" stroke="#000000" stroke-width="2"></path><path d="M314.59392,174.67991c5.36754,0 9.71879,8.56409 9.71879,19.12843c0,10.56434 1.60961,22.52401 -15.42048,20.03392c-23.44226,-3.42766 -4.0171,-9.46957 -4.0171,-20.03392c0,-10.56434 4.35125,-19.12843 9.71879,-19.12843z" data-paper-data="{&quot;index&quot;:null}" fill="#3d4698" stroke="#000000" stroke-width="2"></path><path d="M185.14035,203.99508c0,10.56434 19.42516,16.60626 -4.0171,20.03392c-17.03009,2.49009 -15.42048,-9.46957 -15.42048,-20.03392c0,-10.56434 4.35125,-19.12843 9.71879,-19.12843c5.36754,0 9.71879,8.56409 9.71879,19.12843z" fill="#3d4698" stroke="#000000" stroke-width="2"></path><path d="M299.04386,187.35674c5.36754,0 9.71879,8.56409 9.71879,19.12843c0,10.56434 1.60961,22.52401 -15.42048,20.03392c-23.44226,-3.42766 -4.0171,-9.46957 -4.0171,-20.03392c0,-10.56434 4.35125,-19.12843 9.71879,-19.12843z" data-paper-data="{&quot;index&quot;:null}" fill="#3d4698" stroke="#000000" stroke-width="2"></path><path d="M328.08745,183.76771c-1.47685,20.55907 -41.37797,27.13872 -90.08075,24.4696c-48.70278,-2.66913 -87.76445,-13.5763 -86.28761,-34.13537c1.47685,-20.55907 42.67381,-11.06631 91.37659,-8.39719c48.70278,2.66913 86.46861,-2.49611 84.99177,18.06296z" data-paper-data="{&quot;index&quot;:null}" fill="#222254" stroke="#000000" stroke-width="2"></path><path d="M316.17139,183.93353c-1.27728,17.78096 -35.78664,23.47152 -77.90831,21.16307c-42.12167,-2.30846 -75.90502,-11.74176 -74.62773,-29.52272c1.27728,-17.78096 36.90738,-9.57094 79.02905,-7.26249c42.12167,2.30846 74.78428,-2.15882 73.507,15.62215z" data-paper-data="{&quot;index&quot;:null}" fill="#afafd0" stroke="#000000" stroke-width="2"></path></g></g></svg>