<svg version="1.1" xmlns="http://www.w3.org/2000/svg" xmlns:xlink="http://www.w3.org/1999/xlink" width="63.75032" height="80.22597" viewBox="0,0,63.75032,80.22597"><g transform="translate(-209.99966,-141.41247)"><g data-paper-data="{&quot;isPaintingLayer&quot;:true}" fill-rule="nonzero" stroke="none" stroke-width="1" stroke-linecap="butt" stroke-linejoin="miter" stroke-miterlimit="10" stroke-dasharray="" stroke-dashoffset="0" style="mix-blend-mode: normal"><path d="M273.74997,187.41844v5.45c0,2.29 -0.56,4.97 -2,9.55c-0.13,0.4 -0.28,0.79 -0.45,1.17c-0.69,1.56 -1.77,3.14 -4.27,6.27c-0.07,0.08 -0.14,0.17 -0.21,0.25c-6.42,7.54 -14.67,11.53 -23.86,11.53c-4.41,0 -8.61,-0.98 -12.49,-2.92c-1.06,-0.53 -2.02,-1.23 -2.86,-2.07c-0.27,-0.27 -1.13,-1.06 -3.22,-2.61c-1.72,-1.26 -3.01,-2.98 -3.76,-4.93c-0.53,-0.72 -1.08,-1.44 -1.66,-2.16c-1.17,-1.47 -1.95,-3.21 -2.26,-5.05c-0.07,-0.25 -0.25,-0.79 -0.63,-1.77c-1.17,-2.95 30.55454,8.05476 26.41139,-7.27793c-2.93903,-10.87659 -23.40205,-10.45882 -23.77205,-11.25882c-0.82,-1.75 -4.47935,-2.11325 -4.30935,-4.04325c0,-0.04 0.03,-0.34 0.04,-1.11c-0.18,-1.3 -0.39,-3 -0.63,-5.09c-0.23,-2.04 -0.61,-5.27 -1.12,-9.71c-0.55,-3.98 0.38,-7.82 2.63,-10.81c2.95,-4.01 7.83,-6.08 14.43,-6.08c1.07,0 2.37,0.05 3.97,0.16c0.77,0.05 1.35,0.08 1.72,0.1c2.42,-0.12 5.54,-0.2 9.49,-0.26c0.16,-0.01 0.62,-0.07 1.6,-0.23c2.21,-0.39 3.82,-0.56 5.21,-0.56c7.24,0 12.85,4.6 13.94,11.46c0.12,0.74 0.16,1.49 0.13,2.24c-0.02,0.38 -0.04,1.56 0.14,4.43c0.29,2.09 -27.74152,-4.31882 -27.3823,2.62975c0.59168,8.12408 28.1669,5.1572 28.1669,5.1572c0,0 5.40747,9.74379 5.6754,10.65305c1.01,3.54 1.33,5.19 1.33,6.89z" fill="#da9494"></path><path d="M271.204,184.87247v5.45c0,2.29 -0.56,4.97 -2,9.55c-0.13,0.4 -0.28,0.79 -0.45,1.17c-0.69,1.56 -1.77,3.14 -4.27,6.27c-0.07,0.08 -0.14,0.17 -0.21,0.25c-6.42,7.54 -14.67,11.53 -23.86,11.53c-4.41,0 -8.61,-0.98 -12.49,-2.92c-1.06,-0.53 -2.02,-1.23 -2.86,-2.07c-0.27,-0.27 -1.13,-1.06 -3.22,-2.61c-1.72,-1.26 -3.01,-2.98 -3.76,-4.93c-0.53,-0.72 -1.08,-1.44 -1.66,-2.16c-1.17,-1.47 -1.95,-3.21 -2.26,-5.05c-0.07,-0.25 -0.25,-0.79 -0.63,-1.77c-1.17,-2.95 30.55454,8.05476 26.41139,-7.27793c-2.93903,-10.87659 -23.40205,-10.45882 -23.77205,-11.25882c-0.82,-1.75 -4.47935,-2.11325 -4.30935,-4.04325c0,-0.04 0.03,-0.34 0.04,-1.11c-0.18,-1.3 -0.39,-3 -0.63,-5.09c-0.23,-2.04 -0.61,-5.27 -1.12,-9.71c-0.55,-3.98 0.38,-7.82 2.63,-10.81c2.95,-4.01 7.83,-6.08 14.43,-6.08c1.07,0 2.37,0.05 3.97,0.16c0.77,0.05 1.35,0.08 1.72,0.1c2.42,-0.12 5.54,-0.2 9.49,-0.26c0.16,-0.01 0.62,-0.07 1.6,-0.23c2.21,-0.39 3.82,-0.56 5.21,-0.56c7.24,0 12.85,4.6 13.94,11.46c0.12,0.74 0.16,1.49 0.13,2.24c-0.02,0.38 -0.04,1.56 0.14,4.43c0.29,2.09 -27.74152,-4.31882 -27.3823,2.62975c0.59168,8.12408 28.1669,5.1572 28.1669,5.1572c0,0 5.40747,9.74379 5.6754,10.65305c1.01,3.54 1.33,5.19 1.33,6.89z" fill="#ffaeae"></path></g></g></svg>