<svg version="1.1" xmlns="http://www.w3.org/2000/svg" xmlns:xlink="http://www.w3.org/1999/xlink" width="728.43511" height="408.28343" viewBox="0,0,728.43511,408.28343"><g transform="translate(49.62009,10)"><g stroke="none" stroke-miterlimit="10"><path d="M-35.52648,381v-391h691.81266v391z" fill="#ffe7db" stroke-width="0"/><path d="M500.73212,313.85091c-3.29645,0.60634 -4.12057,-1.81902 -4.12057,-1.81902l-1.00922,-3.34414c-1.40721,-1.10568 -4.0897,-0.64941 -5.87331,-1.40595c-3.19709,-1.35607 -4.70246,-4.77517 -8.29566,-5.394c-4.16316,-0.717 -8.56425,0.22195 -12.82706,-0.02207c-11.29192,-0.64641 -22.17071,-2.83594 -33.54407,-2.82711c-14.82871,-0.65688 -29.67202,-1.54256 -44.51491,-1.98487c-12.52597,-0.37326 -25.10895,0.29711 -37.63566,-0.06808c-0.56869,-0.01658 -1.13729,-0.03413 -1.70581,-0.05258c-3.16192,2.62188 -6.33934,5.23347 -9.55912,7.81784c-4.27358,3.43019 -8.41853,7.68425 -13.75956,10.28073l-5.14537,3.24488c-0.59621,0.38059 -1.3744,0.61093 -2.22571,0.61093c-1.87661,0 -3.3979,-1.11929 -3.3979,-2.5v-2.97716h0.27779l-0.18649,-0.57564c2.92233,-4.44766 5.91463,-8.81889 9.17527,-13.13823c0.94759,-1.25256 1.81341,-2.52129 2.62984,-3.8008c-9.55739,-0.52147 -19.11561,-1.05908 -28.70467,-1.30236c-22.07365,-0.56002 -44.54912,-0.7747 -66.51651,-2.51749c-12.80389,-1.0158 -25.55394,-3.47239 -38.26341,-5.01627c-11.40809,-1.38579 -22.98285,-1.92362 -33.87277,-4.8534c-6.96509,-1.88799 -13.91214,-3.8363 -20.87105,-5.76129c-4.2765,4.465 -8.70106,8.8174 -13.26671,13.1788c-5.30722,5.06979 -10.41031,11.62543 -17.10755,15.75623l-4.50359,3.7277c-0.62267,0.52022 -1.5347,0.84844 -2.55091,0.84844c-1.87661,0 -3.3979,-1.11929 -3.3979,-2.5c0,-0.18553 0.02747,-0.36634 0.07958,-0.54035l0.89775,-3.30639c1.30285,-4.78838 2.46072,-10.67286 5.32798,-15.11086c0.9763,-1.51114 2.93441,-2.59699 3.94101,-4.09734c1.93213,-2.87985 2.42477,-6.17129 3.74941,-9.23145c0.74661,-1.72483 1.46943,-3.49772 2.21425,-5.27586c-21.07662,-5.28509 -42.43874,-10.23743 -62.91692,-16.74909c-8.39437,-2.66925 -16.5512,-5.89472 -24.77846,-8.83348c-5.68383,-2.68316 -12.61626,-5.18684 -17.73761,-8.41872c-3.24092,-2.04521 -5.53193,-4.787 -8.22599,-7.22417c-1.65168,-1.49418 -3.92717,-2.72883 -4.8943,-4.51853c-0.25738,-0.4763 -1.00669,-9.84274 -1.0836,-10.74775c-0.18165,-2.13739 -0.91094,-8.73424 -0.34012,-10.72267c0.4307,-1.50035 1.79998,-2.7663 2.72228,-4.14144c3.07428,-4.58377 6.65923,-8.83262 10.3144,-13.17447c3.26643,-3.8801 8.6245,-9.40833 14.71831,-11.24708c2.03231,-0.61323 4.38997,-0.13434 6.58637,-0.15527c6.68579,-0.0637 13.39091,0.07126 20.07685,0.11284c39.24059,4.36176 77.82729,11.41373 116.4656,18.12444c0.23051,-0.32945 0.46071,-0.65908 0.69055,-0.98891c8.83506,-12.67851 17.07023,-25.6611 25.27942,-38.56488c10.23683,-16.09052 20.63908,-32.18081 30.18343,-48.52561c-11.91807,-2.54735 -23.70359,-5.56514 -35.53283,-8.30485c-23.75463,-5.50167 -47.97657,-11.01937 -70.87278,-18.28871c-7.82774,-2.48524 -15.3509,-5.79677 -22.93521,-8.66318c-12.13516,-4.58637 -25.87674,-8.41292 -35.97287,-15.1946c-2.06883,-1.40157 -4.13766,-2.80313 -6.20648,-4.2047c-1.77254,-0.40218 -3.33288,-1.0122 -4.14502,-2.14189c-0.30457,-0.42367 -0.54403,-0.80814 -0.72566,-1.15783c-4.63974,-3.14328 -9.27948,-6.28656 -13.91923,-9.42984c-5.54555,-3.75694 -10.17235,-6.78064 -14.18855,-11.5176c-3.85326,-4.54478 -5.02251,-4.71818 -5.08694,-10.33637c-0.01918,-1.67262 -0.53154,-3.74984 1.03859,-4.95953c1.42693,-1.09936 4.08379,-0.51953 6.14838,-0.5776c4.52723,-0.12733 9.05278,0.28496 13.57918,0.42744c9.03165,0.28429 18.47841,0.0333 27.44209,0.87259c6.729,0.63005 13.58178,2.12512 20.2185,3.16795c21.95059,3.44909 44.07351,7.93999 66.25922,10.41586c4.4866,0.50069 9.07464,0.39041 13.55773,0.90786c15.99373,1.84606 31.96325,5.01318 47.81683,7.89367c6.81907,-0.21749 13.74316,0.01465 20.4928,0.01464c5.74974,-0.00001 11.7502,-0.3544 17.4828,0c2.61119,0.16143 6.09824,-0.73512 7.79792,0.73223c1.70821,1.47471 1.17366,3.70301 1.02138,5.74269c3.59865,0.48282 7.19062,0.98557 10.77181,1.51899c28.95973,4.31359 56.92206,11.88978 85.77218,16.42914c13.0306,2.05441 26.28937,3.78834 39.35764,5.92417c4.54244,-3.437 9.35642,-6.7356 13.89994,-10.11011c2.71245,-2.01456 8.7213,-7.14423 13.20759,-5.70133c2.01084,0.64673 3.57085,9.8935 3.95972,11.77181c0.76983,3.71851 1.1057,7.33347 1.21226,10.95324c2.08193,0.5435 4.16085,1.08012 6.23879,1.58981c19.3424,4.74441 38.67885,9.50167 58.01249,14.26539c15.29807,3.76937 30.87421,7.57055 46.10661,11.93167c2.76111,-2.4275 5.52387,-4.90951 7.98617,-7.45736c0.53253,-0.55103 7.38009,-8.21016 7.75855,-8.51898c0.2177,-0.17764 10.352,-6.33777 10.82798,-6.6276c2.71033,-1.61044 4.72334,-3.81663 6.50061,-6.0212l0.27319,-0.14087l-0.06755,-0.04466l3.23732,-2.65077c0.62233,-0.5139 1.5287,-0.83754 2.5378,-0.83754c1.70553,0 3.11756,0.92451 3.36085,2.12954l1.10804,4.89143c1.90181,4.90416 1.27311,10.27048 1.38459,15.30088c0.13949,6.29411 0.23586,12.58412 0.24204,18.87911c0.0023,2.34137 0.00406,4.68273 0.00538,7.0241c6.4831,2.96582 12.83944,6.0851 19.69729,8.60486c0,0 3.03918,1.11803 1.51958,3.3541c-1.51958,2.23607 -4.55876,1.11803 -4.55876,1.11803c-5.78005,-2.12881 -11.20894,-4.67435 -16.65568,-7.19675c0.00429,15.69924 -0.00782,31.39851 -0.00782,47.09774c0,14.54558 -2.08548,29.06186 -3.56732,43.56357c-1.2495,12.22806 0.12194,24.71621 -3.23891,36.83887c-1.80083,6.49562 -5.01912,12.96199 -7.49944,19.33781c-3.6872,13.9346 -10.78944,28.16435 -5.95197,42.40099l0.02546,4.275c0,0 0,2.5 -3.3979,2.5c-3.3979,0 -3.3979,-2.5 -3.3979,-2.5l0.02546,-3.66408c-5.03475,-14.81722 2.23332,-29.67935 6.08866,-44.17866c2.44472,-6.30616 5.647,-12.7018 7.43617,-19.12315c3.32058,-11.91767 1.91065,-24.23518 3.1336,-36.26073c1.46213,-14.3775 3.54829,-28.76911 3.54829,-43.18962c0,-16.7119 0.13813,-33.42867 0.10479,-50.14286c-1.96134,-0.86311 -3.9439,-1.70067 -5.96425,-2.49298c-9.80801,-3.84637 -20.02349,-7.21982 -30.43596,-10.29807c-6.18252,5.35673 -13.13161,10.17642 -18.22145,16.18937c-10.71379,12.65686 -17.4358,27.04347 -26.97779,40.17363c-4.17874,5.75012 -8.5635,11.44924 -13.11568,17.08816c4.31234,2.25155 8.83075,4.45192 12.63625,7.03391c4.96065,3.36576 9.18022,7.58052 13.90577,11.14916c3.60746,2.72427 11.951,7.55411 10.0095,12.16629c-0.77743,1.84684 -3.23649,3.08635 -5.25813,4.32149c-6.43338,3.93054 -15.79154,6.98819 -23.63282,8.91957c-6.9856,1.72062 -13.03148,3.21739 -20.38255,3.78736c-6.77535,0.51095 -13.67627,1.32125 -20.47918,1.54012c-3.98564,0.12823 -7.99451,0.15579 -12.01335,0.12704c-6.91298,6.46697 -14.01747,12.83543 -20.88302,19.28266c-6.98292,6.55744 -13.58104,13.56134 -21.0875,19.79521c-10.09737,8.38555 -21.70827,15.74798 -31.81426,24.15913c-0.91216,0.75918 -1.82359,1.51879 -2.73492,2.27841c11.22898,0.15602 22.49382,-0.34702 33.71343,-0.01545c14.8396,0.43855 29.68224,1.31906 44.50665,1.98468c11.49283,0.00856 22.46169,2.18707 33.86558,2.83989c1.81998,0.10419 13.08138,-0.01989 14.35379,0.24083c3.86246,0.79143 5.74429,4.21878 9.23423,5.67102c1.35603,0.56428 3.26,-0.10303 4.63633,0.43401c1.71435,0.66893 2.77217,1.9984 4.15826,2.9976l1.6884,4.59495c0,0 0.82411,2.42536 -2.47234,3.0317zM187.7153,195.73192c9.883,1.6591 19.77457,3.40073 29.68114,5.1172c6.32303,-5.18281 12.66137,-10.36071 18.96843,-15.57612c13.58802,-11.23614 26.45573,-22.49546 41.31335,-32.8516c3.23641,-2.25585 6.68015,-4.36042 9.71399,-6.76385c4.2071,-3.33291 7.48448,-7.3201 11.76401,-10.60362c4.16401,-3.19488 8.60698,-6.1919 13.12245,-9.1375c-19.81679,-5.87603 -39.91838,-11.882 -60.19885,-16.5321c-7.25487,-1.66347 -14.8486,-2.57851 -22.23924,-3.9311c-9.67467,16.61272 -20.23818,32.96218 -30.63939,49.31107c-8.21989,12.91987 -16.46714,25.91703 -25.30859,38.61366c4.60585,0.79374 9.21303,1.5801 13.82272,2.35395zM267.15665,208.73296c19.5364,2.60983 39.56222,3.94474 59.24087,5.90793c6.7632,0.67471 13.61354,1.18744 20.34106,2.03142c8.13377,1.0204 16.15383,3.26311 24.3415,3.96522c0.64031,0.05491 1.28331,0.10418 1.92866,0.14831c2.21213,-4.79048 4.03618,-9.73509 6.14033,-14.51031c6.26621,-14.1944 15.0933,-27.80977 20.62618,-42.23422c1.72551,-4.49845 3.08506,-9.10908 4.38684,-13.72491c-5.93299,-1.92217 -11.90937,-3.90427 -17.98418,-5.34658c-4.28418,-1.01717 -8.81814,-1.37036 -13.13616,-2.30685c-17.40684,-3.77518 -34.44846,-8.99733 -51.28226,-13.94472c-0.81478,-0.23946 -1.63008,-0.47955 -2.44588,-0.72016c-5.22637,3.38114 -10.40004,6.79944 -15.20437,10.47929c-4.27116,3.27146 -7.54026,7.25766 -11.73751,10.58275c-0.09786,0.07752 -9.8153,6.84855 -10.01973,6.99104c-14.71617,10.25753 -27.45007,21.41516 -40.91006,32.54545c-5.48641,4.53681 -10.99664,9.04502 -16.4998,13.55277c14.03207,2.40142 28.09749,4.6977 42.21453,6.58357zM404.71212,220.98958c8.46968,0.09189 17.04148,0.41589 25.583,0.535c4.43088,-4.18604 8.7619,-8.42138 12.8752,-12.75443c9.24233,-9.73607 18.1931,-19.73655 26.61356,-29.94557c-6.04329,-3.44217 -11.94414,-7.04005 -17.8167,-10.63472c-3.35669,-2.05476 -6.32144,-4.50899 -10.04712,-6.18452c-3.72568,-1.67553 -8.04631,-2.4977 -12.06245,-3.7587c-6.23747,-1.95846 -12.50701,-3.8522 -18.78046,-5.74727c-0.18323,-0.05535 -0.36648,-0.11098 -0.54975,-0.16688c-1.24992,4.39558 -2.56783,8.78089 -4.21182,13.06683c-5.55668,14.4865 -14.43108,28.15911 -20.70197,42.41817c-1.92332,4.36484 -3.62184,8.86555 -5.58211,13.26766c8.21486,0.17004 16.63349,-0.18289 24.68061,-0.09559zM445.28397,221.43401c6.67079,-0.21461 13.43961,-1.01782 20.08312,-1.51883c6.85711,-0.50088 12.40193,-1.96397 18.92647,-3.55684c6.14618,-1.5005 10.52591,-3.40488 16.12513,-5.79622c2.86477,-1.2235 6.87611,-1.78735 8.34238,-3.9727c0.28608,-0.42637 -0.50558,-0.88483 -0.88855,-1.26784c-3.59382,-3.59412 -8.09906,-6.5082 -12.21229,-9.7591c-3.02742,-2.39273 -5.57753,-5.12138 -8.84347,-7.33781c-3.4704,-2.3552 -7.57341,-4.37854 -11.53767,-6.42536c-8.40464,10.16896 -17.32751,20.13225 -26.53834,29.83495c-3.18877,3.35905 -6.50684,6.65994 -9.90041,9.92483c2.15337,-0.01684 4.30196,-0.05617 6.44363,-0.12507zM406.38587,65.87925c3.98072,0.77825 7.92983,1.73849 11.86089,2.74734c-0.07851,-1.20538 -0.22683,-2.40104 -0.47333,-3.58079c-0.68836,-3.29463 -1.99099,-6.55289 -2.04666,-9.88597c-0.0174,-1.04207 2.01539,-2.42458 0.88972,-3.05715c-1.01796,-0.57204 -1.44592,1.5607 -2.2809,2.27537c-2.47158,2.11544 -5.30566,3.98614 -7.96808,5.97227c-1.97778,1.47539 -3.90916,2.95237 -5.80196,4.43752c1.94685,0.35053 3.88742,0.71353 5.82032,1.09141zM570.72944,109.9459c0.92374,0.36226 1.83947,0.73415 2.74881,1.11373c-0.01982,-4.29522 -0.05332,-8.59022 -0.10576,-12.88486c-0.07959,-6.51809 0.37304,-13.30431 -0.42933,-19.7933c-0.19136,-1.54751 -0.46888,-3.14734 -0.42067,-4.7111c-1.85596,2.08902 -4.00017,4.06765 -6.57838,5.66765c-3.36358,2.0481 -7.18996,3.73811 -10.11368,6.12386c-2.9566,2.41258 -4.75881,5.47596 -7.31998,8.12203c-2.12439,2.19483 -4.46053,4.3436 -6.83148,6.45147c9.92959,2.97888 19.67179,6.2325 29.05048,9.9105zM486.77391,90.89955c-19.33071,-4.763 -38.66425,-9.51954 -58.00373,-14.26324c-1.35708,-0.33287 -2.71468,-0.67774 -4.07335,-1.02872c-0.04159,2.22317 -0.13127,4.4677 -0.22283,6.75808c-0.3194,7.99013 -0.30052,15.99016 -1.56528,23.93196c-1.87579,11.73091 -5.5796,23.06098 -9.09778,34.57921c-0.65463,2.1432 -1.2711,4.3028 -1.88036,6.46809c0.57612,0.17868 1.152,0.35523 1.72767,0.52913c10.25351,3.09734 22.34779,5.61152 31.80608,9.86515c0.27659,0.12439 10.37565,6.31709 10.84932,6.60704c5.60361,3.43036 11.23312,6.86427 16.99039,10.15935c4.36954,-5.42668 8.58154,-10.90943 12.60074,-16.44001c9.61569,-13.23158 16.40361,-27.70229 27.20218,-40.45931c4.85885,-5.74006 11.29987,-10.43643 17.28746,-15.48147c-14.43514,-4.07458 -29.15827,-7.66183 -43.62049,-11.22526zM404.59653,70.70282c-3.07458,-0.60005 -6.16871,-1.16226 -9.2766,-1.69659c-5.32576,4.39091 -10.38581,8.90392 -15.37295,13.70221c-6.71722,6.44079 -15.3552,11.20628 -23.00674,17.00816c-6.30391,4.78002 -11.6487,10.24686 -17.96951,15.01529c-4.42859,3.34093 -9.15193,6.47284 -13.92787,9.56733c16.38926,4.82299 32.97999,9.89375 49.9204,13.56777c1.52914,0.33164 11.97002,2.02827 13.30171,2.34445c5.84102,1.38681 11.59182,3.25506 17.30062,5.10288c0.52296,-1.85233 1.05459,-3.69924 1.61494,-5.53379c3.46633,-11.34847 7.13101,-22.51034 8.97895,-34.0671c1.25139,-7.79306 1.2082,-15.65329 1.52166,-23.49475c0.1088,-2.72156 0.40563,-5.51298 0.55287,-8.30056c-4.51766,-1.17821 -9.05674,-2.32129 -13.63748,-3.21529zM351.61962,62.35438c-28.8439,-4.55621 -56.80396,-12.12461 -85.76376,-16.42782c-3.12906,-0.46495 -6.26623,-0.90666 -9.4088,-1.33231c-0.27306,5.18455 -1.47511,10.49208 -3.47128,15.31749c-5.81473,13.90408 -12.81327,27.48574 -20.4496,40.88144c7.17366,1.28179 14.51347,2.20002 21.54502,3.81064c21.5507,4.93632 42.90002,11.39298 63.92242,17.61597c5.51512,-3.55723 11.00917,-7.12937 16.11198,-10.97892c6.3162,-4.76494 11.65722,-10.22893 17.95742,-15.00614c7.45113,-5.64992 15.97784,-10.27884 22.48566,-16.56355c4.13043,-3.97402 8.04395,-8.24753 12.5029,-12.02321c-11.7908,-1.8579 -23.70461,-3.44465 -35.43195,-5.29359zM220.03205,39.9777c-3.66142,-0.61183 -7.3304,-1.26122 -11.00577,-1.92768c-1.8619,0.07502 -3.71335,0.18923 -5.54756,0.35815c-4.46548,0.41123 -8.82239,1.32574 -13.27174,1.82274c-13.53864,1.51227 -27.10322,1.96969 -40.76152,2.37165c-17.79804,0.5238 -36.00546,1.41664 -53.64071,3.34704c-8.24525,0.90255 -16.23321,3.24118 -24.5026,4.01826c-0.17029,0.016 -4.58325,0.13076 -8.48415,0.22409c9.4592,6.35518 22.80719,9.92602 34.17606,14.22278c7.46281,2.8205 14.86699,6.0931 22.57057,8.5353c22.67387,7.1881 46.6536,12.64769 70.17279,18.09483c12.03993,2.7885 24.03418,5.86916 36.17089,8.4393c7.68766,-13.44671 14.73324,-27.08081 20.57223,-41.04285c2.10891,-4.98229 2.14027,-9.77847 2.73078,-14.80092c-9.72159,-1.25098 -19.4747,-2.40141 -29.17923,-3.66269zM160.82481,30.07245c-4.46857,-0.51543 -9.04184,-0.40379 -13.51383,-0.90285c-22.3216,-2.49104 -44.57507,-6.99948 -66.65943,-10.46959c-6.4506,-1.01358 -13.11609,-2.48524 -19.65709,-3.09769c-8.77338,-0.82147 -18.03401,-0.55887 -26.87464,-0.83715c-4.5264,-0.14248 -9.11623,0.14616 -13.57918,-0.42744c-0.52351,-0.06728 -0.93317,-1.16238 -1.15636,-0.80753c-0.23868,0.37946 0.89982,0.58931 1.03859,0.99478c0.47606,1.39102 0.08197,2.9223 0.76208,4.26663c0.70814,1.39971 2.21562,2.50314 3.30128,3.76513c4.78225,5.55894 11.47072,9.43753 18.03599,13.8853c2.70998,1.83592 5.41995,3.67184 8.12993,5.50777c1.03179,-0.31476 1.95366,-0.70206 2.35767,-1.4099c0.35599,-0.6237 -0.17244,-1.34697 -0.25865,-2.02045c0,0 0,-2.5 3.3979,-2.5c3.3979,0 3.3979,2.5 3.3979,2.5c-0.08621,1.31129 0.38926,2.71065 -0.25865,3.93387c-0.57937,1.09379 -1.96268,1.88019 -3.20914,2.61304c-0.12421,0.07303 -0.32425,0.13314 -0.55553,0.18373c0.26172,0.17731 0.52345,0.35462 0.78517,0.53193c2.52474,-0.00676 5.11203,-0.55211 7.65415,-0.62047c10.60871,-0.28527 20.32745,-2.99976 30.76142,-4.14837c17.89756,-1.97024 36.38553,-2.87501 54.44948,-3.40664c13.40834,-0.39461 26.72195,-0.83437 40.0131,-2.319c0.22996,-0.02569 1.30727,-0.17283 2.76058,-0.37371c-10.34761,-1.87861 -20.73069,-3.64272 -31.12271,-4.8414zM404.61194,225.98904c-8.79327,-0.0954 -18.00434,0.30841 -26.94045,0.03046c-0.16892,0.32563 -0.34039,0.65019 -0.51465,0.97356c-5.64086,10.46825 -14.61713,20.10407 -19.72974,30.71086c-2.26572,4.70054 -2.80262,9.90366 -5.28098,14.54764c-2.48198,4.65076 -6.74186,8.88642 -9.64413,13.40552c-1.22829,1.91255 -2.34429,3.83688 -3.4464,5.75789c3.06347,0.15195 6.12786,0.29139 9.19418,0.40811c4.71512,-3.99054 9.36347,-8.05406 14.30167,-11.8817c7.75215,-6.00874 16.49371,-11.42334 23.95886,-17.62291c7.41494,-6.15788 13.92665,-13.08547 20.82473,-19.56324c5.81817,-5.46366 11.81102,-10.86988 17.71129,-16.32844c-6.83147,-0.14617 -13.66456,-0.36431 -20.43438,-0.43776zM370.29336,225.60391c-8.33146,-0.71444 -16.4726,-2.97333 -24.74494,-4.00888c-6.63603,-0.83071 -13.39323,-1.33399 -20.06401,-1.99949c-19.77086,-1.97239 -39.88494,-3.31988 -59.51383,-5.93933c-15.45595,-2.06258 -30.85005,-4.61596 -46.20613,-7.26247c-10.8852,8.93332 -21.7047,17.89945 -32.21868,27.117c-5.82123,5.10345 -11.33143,10.67924 -17.6408,15.45525c-3.11443,2.35754 -7.02447,4.11059 -10.03176,6.54226c-5.35277,4.3282 -9.36066,10.36754 -13.77782,15.24243c-0.44105,0.48676 -0.88381,0.97166 -1.32827,1.45487c6.41342,1.77721 12.81883,3.56844 19.23946,5.30885c12.41589,3.39344 26.33524,3.78592 39.36372,5.49515c10.31936,1.35382 20.80115,3.27984 31.22057,4.10078c21.78367,1.71631 44.06535,1.93061 65.95326,2.48592c10.4811,0.26591 20.92566,0.88302 31.37237,1.44667c1.43527,-2.50543 2.83795,-5.02572 4.44108,-7.52195c2.83231,-4.41018 7.04193,-8.56045 9.46287,-13.09683c2.45343,-4.59727 2.97292,-9.78123 5.22517,-14.4394c5.07236,-10.49081 13.8574,-20.02804 19.53376,-30.35668c-0.0954,-0.00793 -0.19074,-0.01598 -0.28604,-0.02415zM186.20356,200.60663c-5.17907,-0.86943 -10.35486,-1.75415 -15.52907,-2.64704c-10.99606,15.54035 -22.46113,30.76481 -31.33721,47.06187c-4.12659,5.8201 -9.05715,11.6227 -12.54797,17.66067c-0.77109,1.33374 -1.4437,2.70691 -2.05493,4.10457c4.50269,1.17057 8.98976,2.38074 13.46909,3.60849c2.01563,-2.17863 4.00901,-4.37312 6.00711,-6.57827c3.36213,-3.71052 6.46474,-8.27841 10.53598,-11.59083c1.57714,-1.28319 8.50304,-5.39596 10.28523,-6.74502c6.19326,-4.68812 11.59402,-10.17476 17.30843,-15.18457c9.76441,-8.56041 19.79146,-16.905 29.89019,-25.20745c-8.6851,-1.50919 -17.35928,-3.02737 -26.02686,-4.48244zM50.07305,179.05827c-6.51701,-0.02809 -13.04848,0.02048 -19.56369,-0.0972c-1.40272,-0.02534 -2.91635,-0.5652 -4.20413,-0.15527c-4.55985,1.45152 -8.88041,6.27892 -11.28838,9.17814c-3.52351,4.24236 -6.95031,8.37012 -10.02813,12.7965c-0.71152,1.02328 -1.86486,1.92593 -2.18336,3.0512c-0.29813,1.05333 0.44387,8.48588 0.50974,9.25776c0.26183,3.06871 -0.92789,6.3559 0.61609,9.21312c0.70723,1.30877 2.55759,2.09644 3.80199,3.16666c2.55181,2.1946 4.51773,4.80309 7.50439,6.67727c4.7854,3.00291 11.266,5.29431 16.56129,7.80401c8.02609,2.85371 15.96842,6.00303 24.14973,8.60453c20.27911,6.44836 41.43486,11.34765 62.30773,16.57969c0.70387,-1.5032 1.45404,-2.98208 2.27939,-4.40967c3.51781,-6.08466 8.45864,-11.93134 12.62714,-17.79233c8.67412,-15.98519 19.87862,-30.93548 30.68426,-46.15551c-37.74814,-6.55779 -75.45224,-13.38441 -113.7741,-17.71889zM250.67282,37.31007c-0.54762,-0.66022 -1.95169,0.62395 -2.99257,0.73223c-0.7357,0.07653 -1.47947,0.06875 -2.22463,0.04631c1.71044,0.21491 3.42031,0.43183 5.1292,0.65191c0.28885,-0.50717 0.44854,-0.99579 0.08801,-1.43045zM116.3099,286.59892c-0.98543,1.49347 -2.93407,2.56751 -3.91754,4.06168c-1.59386,2.42155 -2.57778,5.39744 -3.36554,8.33157c0.25844,-0.19564 0.50835,-0.39594 0.74294,-0.60444c5.73885,-5.10058 11.02048,-10.52999 16.51251,-15.77632c2.74328,-2.62055 5.37193,-5.28126 7.93846,-7.97199c-3.78453,-1.03288 -7.57531,-2.05113 -11.37715,-3.04136c-1.86032,5.13139 -3.4715,10.36001 -6.53367,15.00086zM332.32534,302.12466c-1.46836,1.94408 -2.87768,3.90575 -4.27115,5.87348c1.29896,-0.93153 2.6606,-1.87136 3.99088,-2.94006c3.50552,-2.81624 7.01085,-5.62817 10.47653,-8.46879c-2.09952,-0.09603 -4.19841,-0.19988 -6.29696,-0.30827c-1.18909,1.97071 -2.45251,3.92417 -3.89928,5.84363z" fill="#ffe3d5" stroke-width="0.5"/><path d="M643.35028,375.42963c-10.35717,1.3242 -20.81876,3.12191 -31.26254,3.98355c-8.96804,0.73989 -18.1516,0.20546 -27.10337,1.03009c-8.86216,0.81637 -17.67886,2.70595 -26.46489,3.90073c-17.06826,2.32105 -34.21844,4.13459 -51.4496,5.6261c-28.57555,2.47346 -57.30337,5.82188 -85.99746,7.3601c-18.07706,0.96907 -36.47616,0.94816 -54.59325,0.94816c-46.40497,0 -92.81003,0.01816 -139.21498,-0.01427c-13.66833,-0.01692 -27.36144,-1.66865 -40.94075,-2.78651c-18.21203,-1.49923 -36.23558,-3.10656 -54.10883,-6.20398c-13.56053,-2.35003 -26.56536,-6.73991 -40.32844,-8.41099c-6.70924,-0.82272 -13.82349,-1.29249 -20.41645,-2.51434c-6.08983,-1.12861 -12.17545,-3.25543 -18.0725,-4.83764c-8.52745,-2.28796 -17.63153,-4.26749 -25.76192,-7.25919c-0.41923,-0.15426 -10.58072,-4.87489 -10.82732,-4.97589c-5.6037,-2.29515 -10.80599,-3.02573 -15.71282,-6.43771c-2.61273,-1.81677 -3.87237,-4.47158 -6.14585,-6.52048c-1.64245,-1.4802 -4.26415,-2.43746 -5.33366,-4.17875c-0.91977,-1.4975 -0.21597,-3.28324 -0.25865,-4.92625c-0.07667,-2.95183 0.07178,-5.9069 0.30531,-8.85427c2.50692,-3.11672 4.28557,-6.55764 7.12042,-9.51834c2.22794,-2.32685 5.96805,-3.66121 8.50405,-5.81056c1.51102,-1.28064 2.37975,-2.93573 3.95762,-4.17196c3.68937,-2.89056 9.71213,-5.74875 13.94389,-8.23069c13.22319,-7.75546 28.95894,-13.54303 45.29045,-18.09851c-0.22319,-3.51883 -0.42214,-7.04145 -0.87409,-10.56654c-2.5114,-19.58849 -9.00654,-38.97637 -10.7996,-58.63179c-0.11571,-1.26831 -0.18713,-2.54381 -0.22705,-3.82387c-3.83347,-0.2252 -7.66475,-0.49274 -11.49359,-0.81056c-6.68533,-0.55493 -14.10582,-0.6065 -20.65089,-1.73141c-0.25513,-0.04385 -12.69123,-3.35462 -13.16464,-3.48044c-6.23369,-1.65668 -13.85342,-2.91466 -19.65432,-5.25522c-0.31731,-0.12803 -10.53027,-5.93464 -11.11237,-6.26491c-6.7914,-3.32902 -13.30144,-6.65482 -19.63238,-10.44179c-1.98363,-1.18654 -4.27638,-2.14757 -5.91693,-3.59011c-1.02965,-0.90536 -1.2801,-2.16539 -1.87536,-3.26164c-2.97667,-5.4819 -3.04273,-9.91827 -2.30605,-15.79391c1.71377,-13.66885 7.00427,-26.6789 14.47678,-39.17411c3.38082,-5.65326 5.9381,-11.98262 11.53699,-16.62679c7.5953,-6.18192 15.19062,-12.36383 22.78592,-18.54575c0.41847,-0.3406 9.22377,-7.51993 9.47711,-7.67295c4.97608,-3.00548 12.02149,-5.11224 17.65515,-7.37647c6.19992,-2.49182 12.37607,-5.66104 19.45468,-6.64824c5.97208,-0.83288 13.10114,0.03977 19.17054,-0.07317c0.79228,-0.01474 1.58441,-0.03258 2.3764,-0.05297c0.01654,-0.05682 0.03314,-0.11362 0.04977,-0.17042c5.64814,-19.28955 14.51646,-37.99183 20.1409,-57.3033c0,0 0.71196,-2.44451 4.03444,-1.92068c3.32248,0.52382 2.61051,2.96833 2.61051,2.96833c-5.51648,18.94078 -14.15286,37.29578 -19.81184,56.19232c7.47424,-0.29015 14.94353,-0.66445 22.43127,-0.66504c27.2408,0.00198 54.3682,0.60522 81.58956,0.99252c9.07376,0.1291 18.26258,-0.39395 27.32029,0.00399c11.27444,0.49533 22.64452,1.99451 33.86108,2.98551c4.74415,0.2905 9.48997,0.59305 14.23769,0.88991c2.34451,-1.82245 4.73069,-3.66593 5.00836,-3.88106c4.67823,-3.62452 9.18314,-7.66852 14.22864,-11.01281c6.69768,-4.43939 14.53017,-8.22823 21.68107,-12.27115c3.26839,-2.07008 6.54304,-4.13484 9.82498,-6.19328l1.9723,-2.14159c0.6073,-0.67986 1.6532,-1.12872 2.8416,-1.12872c1.87661,0 3.3979,1.11929 3.3979,2.5c0,0.05669 -0.00257,0.11294 -0.00761,0.16869l-0.39731,4.96949c1.21884,10.14074 -2.70347,20.99376 -3.94805,31.20696c23.77585,0.23631 47.61713,-0.17754 71.37999,-0.19775c37.38812,-0.69067 74.76138,-0.96445 112.05655,-2.61353c0.48432,-1.48896 1.0478,-2.93784 1.72874,-4.31942c2.26747,-4.60054 6.83038,-9.28488 10.17224,-13.51033c0.34308,-0.43378 6.5124,-8.31317 7.0196,-8.63391c1.98268,-1.25377 4.72174,-1.65283 7.09854,-2.45395c4.07701,-1.37418 8.24688,-2.59791 12.43229,-3.78258c3.97043,-1.12383 7.71518,-2.96376 11.9432,-3.30981c2.507,-0.20519 5.03566,0.24172 7.54382,0.43909c2.74606,0.21609 5.84273,-0.24154 8.21335,0.80084c2.33547,1.02692 3.12498,3.27793 4.73396,4.89219c5.19464,5.21171 9.512,10.16157 13.6913,15.87212c1.8206,2.51609 3.01493,4.9188 3.96894,7.39613c11.11494,-1.50816 22.16403,-3.35444 33.33235,-4.59038c8.03828,-0.88955 16.2117,-1.13618 24.26966,-1.98384c0,0 3.36375,-0.35355 3.84429,2.12132c0.48053,2.47487 -2.88321,2.82843 -2.88321,2.82843c-8.06318,0.8468 -16.24566,1.09257 -24.28756,1.9857c-10.93885,1.21487 -21.76428,3.00936 -32.64949,4.49839c0.22244,0.73228 0.44526,1.47941 0.6766,2.24535c1.46602,4.8538 3.69425,9.95918 4.48046,14.89409c1.04778,6.57682 0.28988,13.62678 0.42224,20.25214c0.35447,17.74373 1.31008,35.94906 -4.22949,53.27094c-1.61665,5.00352 -1.293,9.50609 -2.08297,14.56998c-0.76461,4.90131 -1.98228,10.24154 -3.57925,15.26878c4.07933,0.37514 10.21805,0.94383 10.44122,0.99052c6.29537,1.31704 12.5878,4.20646 18.76836,5.91327c8.2334,2.27371 17.51314,2.90296 25.14551,6.35083c7.1996,3.25237 14.06889,7.41899 20.55385,11.39291c4.5176,2.77491 8.5808,5.90169 12.7103,8.98486c1.78706,1.33427 4.02727,2.41707 5.3256,4.02846c3.27212,4.06114 4.32202,10.7946 5.38154,15.3841c1.16242,5.03519 3.01519,10.14586 2.2364,15.30135c-0.93472,6.18777 -3.68475,12.64616 -7.42239,18.16942c-1.75973,2.60044 -2.93282,5.47559 -5.33635,7.78024c-6.3388,6.07802 -15.35043,10.84612 -23.57861,15.38493c-9.98143,6.12192 -21.07165,10.20716 -32.51503,14.71034c-0.38782,0.15261 -11.4154,4.52102 -11.92858,4.60906c-6.17999,1.0602 -14.83984,0.075 -21.21346,0.075c-0.11944,0 -0.23893,-0.00004 -0.35842,-0.00013c0.27462,0.4527 0.55145,0.9044 0.85521,1.34403l1.17804,-0.12565c0,0 3.03918,1.11803 1.51958,3.3541c-1.51958,2.23607 -4.55876,1.11803 -4.55876,1.11803l-4.21722,-2.11042c-0.80499,-1.2086 -1.35749,-2.52755 -2.41497,-3.6258c-0.00767,-0.00796 -0.01537,-0.01591 -0.02312,-0.02383c-18.77147,-0.33333 -37.9598,-1.92116 -55.71756,-6.00404c-27.07952,-6.23014 -55.12333,-8.81582 -82.56465,-13.84172c-0.02173,-0.00398 -0.04347,-0.00796 -0.06521,-0.01195c-2.26049,3.51211 -4.63425,6.99043 -7.08541,10.50125c-0.23927,0.3427 -6.26857,8.99132 -6.42201,9.15751c-3.76997,4.0834 -9.25591,7.81129 -13.67878,11.53016c-7.76554,6.52946 -14.51093,13.17108 -27.11778,14.48449c-7.6124,0.79308 -14.24433,-1.56847 -21.26672,-3.24184c-0.8099,-0.19299 -13.17319,-3.12214 -13.57153,-3.28992c-2.16777,-0.91305 -3.7657,-2.41529 -5.64855,-3.62293c-1.8396,-1.22321 -3.96758,-2.24639 -5.51878,-3.66962c-3.60585,-3.30842 -5.80375,-8.43601 -8.45262,-12.21566c-6.17361,-8.80909 -12.54303,-18.65933 -15.32619,-28.44694c-0.89868,-3.16039 -1.12734,-6.61399 -1.30778,-10.00017c-6.5217,-0.4264 -13.0464,-0.76718 -19.56043,-0.95638c-12.97845,-0.37697 -26.09267,0.00199 -39.08343,0.00199c-21.97991,0 -44.07336,-0.47933 -66.04302,-0.00109c-2.90616,0.06326 -5.81365,0.14484 -8.72177,0.2435c-12.48227,14.35514 -25.69368,28.44668 -39.98491,41.79963c-10.74139,10.0329 -22.72236,20.1669 -37.8016,26.80525c-5.891,2.5934 -13.298,4.88001 -17.655,-0.78914c-0.80282,-1.04458 -0.32972,-2.39739 -0.74222,-3.55839c-0.58947,-1.65903 -1.87235,-3.17826 -2.25248,-4.87008c-0.02502,-0.11137 -0.08905,-10.03486 -0.09163,-10.40163c-0.06559,-9.3359 -0.99686,-18.32686 -2.92559,-27.55074c-0.53363,-2.56246 -0.86668,-5.12784 -1.10727,-7.69561c-10.50559,3.15607 -20.75025,6.78408 -30.69696,10.95567c-5.90688,2.47731 -10.78074,5.38377 -16.08815,8.50129c-2.62996,1.54481 -5.61657,2.80434 -7.908,4.61771c-1.5154,1.19924 -2.33334,2.80715 -3.79681,4.0408c-2.43809,2.05522 -6.09588,3.28429 -8.19735,5.53175c-2.34117,2.50379 -3.8304,5.39354 -6.04662,7.95815c-0.0162,2.4701 0.0646,4.94095 -0.01577,7.41037c-0.03274,1.00599 -0.87096,2.11303 -0.25865,3.01283c0.86691,1.27395 3.02173,1.80755 4.27706,2.89232c2.2272,1.92459 3.33663,4.5129 5.82441,6.25617c4.15319,2.91027 9.15461,3.51407 13.96104,5.47092c3.6992,1.50607 6.9713,3.55821 10.75366,4.94797c7.88726,2.89802 16.74486,4.80167 25.01516,7.02064c5.69693,1.52852 11.5897,3.61457 17.47435,4.69979c6.39416,1.17918 13.29911,1.62002 19.80358,2.41763c13.94819,1.72565 27.09747,6.11432 40.84458,8.48953c17.58822,3.03887 35.3121,4.6133 53.23111,6.08842c13.32203,1.09668 26.78242,2.75378 40.19156,2.75551c46.4028,0.03243 92.8057,0.01426 139.20853,0.01426c17.95281,0 36.18661,0.02532 54.09941,-0.93494c28.59312,-1.53281 57.22204,-4.8743 85.69727,-7.33907c17.08701,-1.47903 34.09298,-3.27644 51.01848,-5.57842c8.91433,-1.21241 17.85328,-3.11554 26.84577,-3.94392c8.984,-0.8276 18.19312,-0.29538 27.19034,-1.03768c10.38356,-0.85667 20.78374,-2.65678 31.08332,-3.96698c8.01433,-0.62232 16.08072,-1.35261 24.16263,-2.02234c0.30928,0.41513 0.59933,0.83654 0.72741,1.30862c0.19564,0.72109 -0.48622,1.48274 -0.30643,2.20698c0.11586,0.46673 0.20223,0.95549 0.27326,1.45681c-8.00132,0.66497 -15.98722,1.38952 -23.9204,2.00225zM239.24381,72.763c-11.12217,-0.9813 -22.40054,-2.4777 -33.5795,-2.9688c-8.96451,-0.39382 -18.06509,0.13177 -27.04612,0.00399c-27.17803,-0.38668 -54.26138,-0.98961 -81.45885,-0.99159c-7.96026,-0.00183 -15.90074,0.4268 -23.8482,0.72238c-2.06485,7.93051 -3.49985,16.00223 -5.45988,23.93375c-3.22786,13.06188 -3.06489,26.19406 -3.60932,39.4533c-0.85442,20.80916 -0.64859,41.62071 -0.64859,62.43846c0,3.79596 -0.20461,7.65329 -0.2565,11.4969c17.4212,0.82361 34.88568,0.85082 52.36685,0.85082c33.41325,0 67.1161,-0.92203 100.23506,-4.60003c1.09316,-2.06816 2.18393,-4.13811 3.27967,-6.20824c3.19328,-6.03289 7.24817,-12.05502 9.85909,-18.23186c6.48359,-15.33864 8.29872,-32.15406 10.85098,-48.03506c0.23103,-8.21095 0.30027,-16.41424 0.3074,-24.62695c0.00389,-4.48076 -1.04428,-9.8769 0.04387,-14.29223c0.07008,-0.28433 3.81958,-8.53304 4.17693,-9.32159c0.66618,-1.47006 2.922,-6.66354 4.3259,-9.02755c-3.18041,-0.20026 -6.35999,-0.40056 -9.53881,-0.59571zM380.23972,75.69688c-23.95117,0.02162 -47.98158,0.43863 -71.94521,0.19376c-1.57196,18.43047 -1.91507,36.69146 -1.91507,55.1872c-0.00046,18.40736 0.08697,36.89093 0.59484,55.35683c2.46251,-0.59013 4.93597,-1.12616 7.4199,-1.4995c13.45661,-2.02255 27.4307,-2.31765 41.09543,-2.89253c11.28321,-0.47469 22.56448,-1.13318 33.86763,-1.13485c25.49637,0 50.99323,0.37058 76.47943,0.99591c1.82299,-9.15838 0.54703,-18.49519 2.38488,-27.64034c0.99482,-4.95027 3.71028,-9.73067 4.9667,-14.64872c1.53165,-5.99541 1.52399,-12.21409 3.1482,-18.19659c3.43276,-12.64402 8.69025,-25.0196 12.13077,-37.68011c0.91171,-3.35393 1.54061,-6.99657 2.36754,-10.586c-36.81041,1.58436 -73.69528,1.86522 -110.59498,2.54493zM337.23626,274.66579c15.03465,1.23359 31.57275,2.32755 45.94181,5.82738c14.3235,3.51283 28.69598,6.8032 43.29693,9.61583c1.67493,-2.7316 3.27314,-5.49877 4.77746,-8.33422c4.67612,-8.81389 10.3694,-17.64527 14.16327,-26.68206c9.30661,-22.16779 13.55768,-45.44023 19.22155,-68.21518c-25.08659,-0.60921 -50.18337,-0.96975 -75.28009,-0.96975c-11.17267,-0.0017 -22.32666,0.65748 -33.47967,1.1267c-13.30643,0.55981 -26.92294,0.82947 -40.03002,2.78501c-2.91806,0.43537 -5.8261,1.10999 -8.71835,1.83026c0.43079,13.48033 1.10242,26.94652 2.14435,40.36203c1.02884,13.24689 0.84782,26.48793 2.05577,39.71863c0.02623,0.28734 0.05002,0.5769 0.07185,0.86837c8.63462,0.62471 17.2567,1.36316 25.83514,2.06701zM514.92482,305.06422c15.63816,3.59555 32.43197,5.1712 49.02065,5.66441c0.09507,-0.90212 0.3893,-1.83831 0.09609,-2.69824c-0.45083,-1.32225 -1.83283,-2.37665 -2.55451,-3.63221c-1.35363,-2.355 -1.79538,-4.94445 -2.92012,-7.36378c-0.78459,-1.68768 -2.19228,-3.2319 -2.64783,-4.9838c-0.07997,-0.30753 -0.06131,-9.81405 -0.06131,-10.39663c0,-8.25719 0,-16.51438 0,-24.77157c0.00705,-18.95493 2.0272,-38.98583 9.23539,-57.29441c1.14364,-2.90481 3.11955,-5.60705 4.40046,-8.47795c-13.76204,-1.11277 -27.65965,-1.52894 -41.46486,-2.22962c-18.83265,-0.71301 -37.67591,-1.33884 -56.52546,-1.83002c-5.81011,23.21459 -10.10225,46.95753 -19.61275,69.56077c-3.8455,9.13943 -9.57775,18.06672 -14.3075,26.98171c-1.39917,2.63726 -2.87785,5.21786 -4.4228,7.76622c27.19173,4.91528 54.94103,7.54164 81.76455,13.7051zM570.54887,67.78637c-15.75203,1.65815 -31.66904,2.53029 -47.50766,3.60315c-8.41946,0.57031 -16.84374,1.04618 -25.27211,1.44808c-0.9913,3.99526 -1.62043,8.13721 -2.63809,11.88093c-3.43744,12.64176 -8.67377,25.00012 -12.11575,37.62316c-1.63042,5.97936 -1.61663,12.20153 -3.1482,18.19659c-1.23889,4.8494 -3.94222,9.57755 -4.92265,14.45556c-1.80102,8.96078 -0.67558,18.0926 -2.29246,27.08308c18.60279,0.48896 37.19935,1.10816 55.78535,1.81255c14.26659,0.72371 28.62752,1.15312 42.8426,2.33678c1.62195,-4.99148 2.8515,-10.33889 3.61454,-15.23012c0.81732,-5.23923 0.57325,-9.9492 2.21929,-15.14504c5.91515,-18.49624 4.32789,-38.12038 3.94971,-57.05172c-0.09592,-4.80107 0.48249,-9.97758 -0.27689,-14.74408c-0.75938,-4.76649 -2.94912,-9.70427 -4.36483,-14.39153c-0.25484,-0.84375 -0.49339,-1.66243 -0.73071,-2.46225c-1.71148,0.20805 -3.4253,0.40414 -5.14213,0.58486zM65.50039,69.75677c-5.75528,0.10709 -12.5799,-0.75851 -18.24377,0.009c-6.17974,0.83742 -11.8966,3.93217 -17.29537,6.10199c-5.2282,2.10127 -11.9757,4.0502 -16.5972,6.85073c-3.36846,2.04122 -5.82527,4.78184 -8.75163,7.16365c-7.5953,6.18192 -15.19062,12.36383 -22.78592,18.54575c-5.09787,4.04799 -7.35202,10.26106 -10.35801,15.28754c-6.41041,10.71921 -10.47933,21.25973 -12.91756,32.83056c-0.88716,4.21015 -2.47644,9.8651 -1.46512,14.1246c0.35043,1.47594 1.57168,2.76479 2.31139,4.16073c0.37155,0.70119 0.34619,1.56375 1.02152,2.12901c1.30373,1.09123 3.14334,1.75943 4.69632,2.65684c6.32733,3.65631 12.64498,6.99336 19.34838,10.28343c3.4816,1.97293 6.56559,4.38887 10.41877,5.94357c5.4936,2.21657 12.79544,3.36867 18.69536,4.93664c4.13658,1.09934 8.11894,2.57803 12.40181,3.31414c6.28735,1.08062 13.44661,1.09892 19.86688,1.63185c3.5672,0.2961 7.13658,0.54785 10.70793,0.76188c0.05935,-3.72367 0.24338,-7.45647 0.24338,-11.13418c0,-20.86812 -0.20481,-41.72991 0.65169,-62.58944c0.55484,-13.51279 0.42551,-26.88202 3.71584,-40.19674c1.86919,-7.56389 3.26688,-15.25279 5.17795,-22.82838c-0.28086,0.00599 -0.56174,0.01162 -0.84264,0.01684zM576.63503,310.91033c4.53053,0 9.06121,-0.02662 13.5916,0c1.99014,0.01169 4.02923,0.40018 5.96975,0.075c3.84207,-0.64384 6.90089,-2.80069 10.37559,-4.16804c11.09551,-4.36629 21.83218,-8.29469 31.50474,-14.22321c7.73066,-4.26732 16.27429,-8.70365 22.28098,-14.38664c2.20101,-2.0824 3.16184,-4.73541 4.77103,-7.09275c3.42839,-5.02231 5.84761,-10.87264 6.74883,-16.50074c0.73835,-4.61101 -1.15094,-9.39706 -2.18482,-13.89875c-0.73149,-3.18504 -1.75556,-6.33624 -2.95558,-9.44343c-0.54258,-1.40488 -0.55923,-2.96985 -1.57147,-4.22619c-1.01225,-1.25634 -2.86988,-2.0185 -4.28512,-3.04261c-4.05379,-2.93344 -7.88097,-6.00246 -12.25551,-8.67929c-6.18285,-3.79298 -12.71796,-7.7579 -19.56136,-10.8871c-7.22452,-3.30349 -16.33968,-3.85654 -24.17361,-6.0161c-6.00658,-1.65582 -12.12746,-4.50659 -18.24087,-5.78556c-3.32409,-0.69542 -6.8179,-0.7698 -10.27831,-0.96923c-1.24661,3.18601 -3.49633,6.12858 -4.75024,9.31347c-7.02731,17.84913 -8.97416,37.42637 -8.96705,55.90325c0,8.25719 0,16.51438 0,24.77157c0,3.1504 -0.88388,6.35937 -0.06131,9.45109c0.40465,1.52091 1.70948,2.83682 2.39996,4.30097c1.10842,2.35036 1.52148,4.87244 2.82258,7.16872c0.83455,1.47288 2.31643,2.75846 2.84074,4.30687c0.39311,1.16096 -0.80317,2.48589 -0.16775,3.58722c0.08477,0.14692 0.19353,0.2808 0.32073,0.40473c1.94837,0.02501 3.89128,0.03675 5.82645,0.03675zM104.99208,276.13003c20.71995,-2.0871 41.68591,-3.73653 62.6292,-4.5406c2.31668,-2.68482 4.6084,-5.37804 6.87751,-8.07649c9.48841,-11.28362 19.41025,-22.24292 26.8536,-34.33754c4.20149,-6.82695 8.0208,-13.752 11.7405,-20.7133c-32.21104,3.36923 -64.934,4.2401 -97.38919,4.2401c-17.46513,0 -34.9125,-0.0323 -52.31809,-0.83941c0.04098,1.04929 0.10527,2.09506 0.20029,3.13577c1.78936,19.59979 8.27065,38.93573 10.78138,58.46973c0.3974,3.09192 0.59235,6.18385 0.78129,9.27318c9.96653,-2.56461 20.05626,-4.71395 29.84351,-6.61145zM179.98396,271.21599c22.03683,-0.4797 44.19696,-0.00109 66.244,-0.00109c13.08147,0 26.2854,-0.37779 39.35461,0.00199c6.31821,0.1836 12.64629,0.50743 18.97206,0.91326c-0.00194,-0.02154 -0.00389,-0.04307 -0.00586,-0.06458c-1.20984,-13.24798 -1.02986,-26.50496 -2.06,-39.76854c-1.00605,-12.95352 -1.66802,-25.9541 -2.10174,-38.96908c-0.61787,0.1453 -1.23481,0.28569 -1.85074,0.41923c-14.46809,3.1367 -29.14135,6.20208 -43.86212,8.6094c-8.86288,1.44833 -17.74156,3.191 -26.67983,4.35751c-2.3782,0.31038 -4.7599,0.60559 -7.14477,0.88632c-4.21743,7.94544 -8.5165,15.85429 -13.30643,23.6374c-7.5665,12.29473 -17.62122,23.43718 -27.26518,34.9058c-1.45205,1.72677 -2.91329,3.45139 -4.38435,5.17306c1.36373,-0.03742 2.72721,-0.07102 4.09037,-0.10069zM298.55999,75.75206c-14.07246,-0.26072 -28.12261,-1.04784 -42.15575,-1.91625c-0.44837,0.4059 -0.86875,0.82798 -1.25173,1.27171c-0.68196,0.79015 -3.9604,8.22329 -4.24874,8.85987c-1.29116,2.85061 -3.17239,5.58685 -3.91595,8.54136c-1.03977,4.13151 0.04752,9.29733 0.04387,13.49458c-0.00723,8.32714 -0.07643,16.64416 -0.32367,24.9694c-2.58866,16.26761 -4.50098,33.46477 -11.1413,49.17419c-2.65854,6.28948 -6.76461,12.41912 -10.01578,18.56147c-0.61363,1.15933 -1.22577,2.31859 -1.83767,3.4775c1.03201,-0.1288 2.06338,-0.26042 3.09409,-0.39494c8.84209,-1.15396 17.62565,-2.88266 26.39326,-4.31542c14.57781,-2.38048 29.10944,-5.42234 43.43561,-8.52895c1.19352,-0.25881 2.38983,-0.54145 3.58888,-0.83507c-0.54771,-19.02379 -0.64106,-38.069 -0.64152,-57.03366c0,-18.49868 0.08215,-36.88637 1.86148,-55.27616c-0.96184,-0.01529 -1.92354,-0.0318 -2.8851,-0.04962zM381.02906,285.23659c-13.86296,-3.42587 -30.02051,-4.41132 -44.5455,-5.60156c-8.23799,-0.67505 -16.51664,-1.38447 -24.80782,-1.99248c0.15363,2.89574 0.39137,5.81525 1.15565,8.50301c0.89929,3.16254 2.86488,6.1086 4.28515,9.16597c2.19398,4.72291 4.19865,9.13017 7.31496,13.56941c4.60008,6.55288 7.97028,14.01839 15.56057,18.88369c1.50331,1.0069 2.74564,2.2776 4.50994,3.02071c3.73016,1.57111 8.20014,1.89807 12.28916,2.87245c5.7651,1.37377 11.93207,3.76048 18.18441,3.05175c10.78298,-1.2223 16.31786,-7.21815 22.99183,-12.83018c4.23951,-3.56493 9.55665,-7.13164 13.17162,-11.04714c2.46817,-2.67336 3.99157,-5.75791 5.99861,-8.63262c2.21516,-3.1728 4.36588,-6.31637 6.42452,-9.48338c-14.33572,-2.78709 -28.45928,-6.02803 -42.53309,-9.47962zM106.32124,281.03346c-10.47218,2.046 -20.74875,4.44092 -30.79828,7.24559c0.24136,2.95553 0.58498,5.90725 1.20355,8.85289c2.32892,11.13777 3.04249,22.02516 3.03968,33.28982c-0.00038,1.53122 -0.38911,3.08436 -0.03755,4.59358c0.37162,1.59532 1.64125,3.01423 2.17547,4.58436c0.12455,0.36609 -0.46882,2.89421 1.17266,3.25727c3.70276,0.81898 9.88814,-3.60899 12.27369,-4.90731c11.9217,-6.48824 21.61408,-14.21099 30.78863,-22.78605c13.14947,-12.28615 25.37388,-25.20444 36.95531,-38.37634c-18.99061,0.85084 -37.97992,2.38 -56.77316,4.24618zM522.41819,66.41058c15.71078,-1.0642 31.49996,-1.92726 47.12534,-3.56919c1.5088,-0.15855 3.01528,-0.32904 4.51989,-0.50916c-0.78579,-1.96347 -1.78243,-3.88726 -3.26281,-5.88372c-4.06063,-5.5484 -8.53929,-10.17409 -13.26456,-15.36423c-1.01044,-1.10985 -1.13325,-2.79194 -2.68338,-3.48743c-1.51526,-0.67985 -3.55181,-0.01519 -5.32243,-0.10452c-2.00376,-0.10108 -3.99404,-0.61738 -5.99197,-0.46627c-3.72048,0.28139 -6.94933,2.03664 -10.44023,3.02425c-4.07775,1.15364 -8.09598,2.41913 -12.1118,3.68491c-1.76261,0.55557 -3.85639,0.69735 -5.32162,1.60744c-2.95034,1.83251 -3.74082,4.97092 -5.68289,7.42619c-3.13643,3.96522 -7.52756,8.37916 -9.65719,12.70003c-0.36534,0.74125 -0.69454,1.50375 -0.99425,2.28268c7.69966,-0.37822 15.39582,-0.81996 23.08794,-1.341zM298.73106,70.75365c1.07983,0.02001 2.15984,0.03836 3.24001,0.05517c0.44313,-3.88124 0.96835,-7.76303 1.59086,-11.64644c0.52676,-3.28613 1.18614,-6.56218 1.58174,-9.85826c0.35552,-2.96211 0.00389,-5.55501 0.69631,-8.01452c-2.15235,1.36955 -4.30708,2.73708 -6.4644,4.10239c-7.05634,3.99261 -14.81049,7.72568 -21.42129,12.10749c-4.9146,3.25752 -9.29299,7.21088 -13.84944,10.74105c-0.42534,0.32953 -0.86512,0.65064 -1.3133,0.96685c11.96572,0.71411 23.94437,1.32403 35.93952,1.54626z" fill="#ffe0d0" stroke-width="0.5"/><text transform="translate(273.79001,185.76875) scale(0.5,0.5)" font-size="40" xml:space="preserve" fill="#ffe0d0" stroke-width="1" font-family="Sans Serif" font-weight="normal" text-anchor="start"><tspan x="0" dy="0">@MrSctat</tspan></text></g></g></svg>