<svg version="1.1" xmlns="http://www.w3.org/2000/svg" xmlns:xlink="http://www.w3.org/1999/xlink" width="693.59777" height="143.79033" viewBox="0,0,693.59777,143.79033"><g transform="translate(105.89814,-51.49432)"><g data-paper-data="{&quot;isPaintingLayer&quot;:true}" fill-rule="evenodd" stroke-miterlimit="10" stroke-dasharray="" stroke-dashoffset="0" style="mix-blend-mode: normal"><g stroke="#000000" stroke-width="1.2"><path d="M284.11413,87.74582c-4.7,3.8 -11.9,3.9 -11.9,3.9" fill="none" stroke-linecap="round" stroke-linejoin="round"></path><path d="M282.81416,98.94582c-6.3,0.5 -10.2,-1.4 -10.2,-1.4" fill="none" stroke-linecap="round" stroke-linejoin="round"></path><path d="M201.14749,87.44582c0,0 8.6,2.8 12.1,5.9" fill="none" stroke-linecap="round" stroke-linejoin="round"></path><path d="M212.71416,97.67915c-4.3,1.7 -11.7,0.6 -11.7,0.6" fill="none" stroke-linecap="round" stroke-linejoin="round"></path><path d="M248.37225,64.6122c1.0632,0.01359 2.35331,0.01323 3.59881,0.22469c2.47057,0.41947 2.79028,0.44962 2.79028,0.44962c0,0 7.6035,-8.43714 9.53841,-9.7674c0.91277,-0.62753 1.03151,0.08992 1.03151,0.08992l0.60522,16.18467c0,0 2.20604,4.57502 2.71004,6.9505c0.50531,2.38165 0.56791,7.3209 0.56791,7.3209c0,0 2.07499,2.63517 3.73598,5.46153c1.78615,3.03933 1.49829,6.7623 0.91176,9.12458c-0.51563,2.07673 -2.78578,6.68193 -9.22098,10.50901c-5.25014,3.12232 -13.71949,4.93505 -20.18287,5.22593c-5.44368,0.24499 -15.21646,-1.44907 -19.91971,-3.46754c-7.35418,-3.15616 -8.90836,-6.61486 -9.86417,-7.79617c-1.72978,-2.13789 -3.52998,-6.23824 -2.84704,-9.94455c0.74987,-4.06957 3.74887,-7.99742 3.74887,-7.99742c0,0 -0.38346,-5.40387 0.19261,-8.08907c0.53612,-2.49899 3.15261,-7.50369 3.15261,-7.50369l1.71775,-16.64254c0,0 0.2734,-0.34077 0.74839,0.00126c1.69369,1.21959 9.42991,10.00808 9.42991,10.00808c0,0 2.30557,0.32952 7.18699,-0.44707c3.34176,-0.53165 7.11313,0.0632 10.36773,0.10479z" fill="#ffab19" stroke-linecap="butt" stroke-linejoin="miter"></path></g><g><path d="M365.1242,85.385c0,0 8.6,2.8 12.1,5.9" fill="none" stroke="#000000" stroke-width="1.2" stroke-linecap="round" stroke-linejoin="round"></path><path d="M377.52419,94.78501c-4.3,1.7 -11.7,0.6 -11.7,0.6" fill="none" stroke="#000000" stroke-width="1.2" stroke-linecap="round" stroke-linejoin="round"></path><path d="M412.2242,55.18499c0.3,-0.2 0.8,-0.1 0.9,0.3l2.6,10.7c0,0 6.4,4.7 8.3,8c3.2,5.5 3.3,10 3.3,10c0,0 7.1,2.1 8.3,7.8c1.2,5.7 -3.2,16.5 -22,20.2c-18.8,3.7 -33.9,-1.4 -41,-12.8c-7.1,-11.4 4.1,-25 3.5,-24.2l-2.1,-17.9c-0.1,-0.4 0.4,-0.7 0.8,-0.5l12.1,7.9c0,0 4.5,-1.7 9.2,-1.9c2.8,-0.2 5.2,0 7.5,0.4z" fill="#ffab19" stroke="#000000" stroke-width="1.2" stroke-linecap="butt" stroke-linejoin="miter"></path><path d="M423.71104,95.46218c-0.12359,-1.25279 -0.47255,-3.91153 0.00669,-5.73618c0.63583,-2.42084 3.58952,-3.76772 5.25084,-3.34675c1.37556,0.34855 2.91792,0.97277 3.9603,2.09023c1.25479,1.33381 2.02946,3.02918 2.10431,4.97648c0.07566,1.96851 -0.56119,4.07155 -1.6485,5.94736c-1.18492,2.0442 -4.13296,4.95948 -6.22503,4.84332c-0.96626,-0.05366 -1.74993,-2.05094 -2.09293,-2.75421c-0.92166,-1.88974 -1.20329,-4.47546 -1.35568,-6.02024z" data-paper-data="{&quot;index&quot;:null}" fill="#ffffff" stroke="none" stroke-width="1" stroke-linecap="butt" stroke-linejoin="miter"></path><path d="M445.4242,85.68501c-4.7,3.8 -11.9,3.9 -11.9,3.9" fill="none" stroke="#000000" stroke-width="1.2" stroke-linecap="round" stroke-linejoin="round"></path><path d="M444.1242,96.88501c-6.3,0.5 -10.2,-1.4 -10.2,-1.4" fill="none" stroke="#000000" stroke-width="1.2" stroke-linecap="round" stroke-linejoin="round"></path></g><g><path d="M190.04447,93.33346c3.53249,-3.12877 12.21231,-5.95476 12.21231,-5.95476" data-paper-data="{&quot;index&quot;:null}" fill="none" stroke="#000000" stroke-width="1.2" stroke-linecap="round" stroke-linejoin="round"></path><path d="M201.55028,97.47153c0,0 -7.46869,1.11022 -11.8086,-0.60556" data-paper-data="{&quot;index&quot;:null}" fill="none" stroke="#000000" stroke-width="1.2" stroke-linecap="round" stroke-linejoin="round"></path><path d="M158.83442,65.97729c2.32135,-0.40372 9.547,-0.10557 12.37299,0.09629c4.74362,0.20185 6.00523,0.90835 6.00523,0.90835l10.19375,-8.97333c0.40371,-0.20186 0.90835,0.10093 0.80742,0.50464l0.90836,13.01046c-0.2797,-0.37294 2.41203,4.24273 4.68379,9.92636c2.64667,6.62157 3.22332,13.86718 -0.63273,20.0586c-7.16591,11.50581 -22.15375,16.65316 -41.12825,12.91881c-18.97451,-3.73435 -22.15375,-14.63459 -20.94261,-20.3875c1.21114,-5.75291 8.11312,-7.3724 8.11312,-7.3724c0,0 -0.64907,-5.79177 2.58063,-11.34282c1.91764,-3.33063 6.3492,-6.6673 6.3492,-6.6673l2.9195,-11.35628c0.10094,-0.40372 0.60557,-0.50465 0.90836,-0.30279z" data-paper-data="{&quot;index&quot;:null}" fill="#ffab19" stroke="#000000" stroke-width="1.2" stroke-linecap="butt" stroke-linejoin="miter"></path><path d="M136.12769,96.94788c-0.09978,2.059 -0.526,4.21377 -0.70378,5.00227c-0.1243,0.55134 -0.40831,2.11714 -0.75849,2.15921c-0.75817,0.09107 -2.07656,-2.19442 -2.50598,-3.79701c-0.39405,-1.47057 -0.74984,-3.11929 -0.72242,-4.66254c0.02712,-1.52662 0.68287,-2.60573 1.13761,-3.6514c0.37776,-0.87605 0.93672,-1.36543 1.43523,-1.63868c0.60207,-0.33003 1.67249,0.47589 1.90292,2.37374c0.08124,0.66913 0.30259,2.40478 0.2149,4.21439z" data-paper-data="{&quot;index&quot;:null}" fill="#ffffff" stroke="none" stroke-width="1" stroke-linecap="butt" stroke-linejoin="miter"></path><path d="M132.71723,91.61769c0,0 -7.26683,-0.10093 -12.01046,-3.9362" data-paper-data="{&quot;index&quot;:null}" fill="none" stroke="#000000" stroke-width="1.2" stroke-linecap="round" stroke-linejoin="round"></path><path d="M132.56585,97.57247c0,0 -3.9362,1.91763 -10.29468,1.41299" data-paper-data="{&quot;index&quot;:null}" fill="none" stroke="#000000" stroke-width="1.2" stroke-linecap="round" stroke-linejoin="round"></path></g><g><path d="M281.71579,86.3817c0,0 8.67982,2.82599 12.21231,5.95476" fill="none" stroke="#000000" stroke-width="1.2" stroke-linecap="round" stroke-linejoin="round"></path><path d="M294.23089,95.86897c-4.33991,1.71578 -11.8086,0.60556 -11.8086,0.60556" fill="none" stroke="#000000" stroke-width="1.2" stroke-linecap="round" stroke-linejoin="round"></path><path d="M331.99939,56.00138c0.30279,-0.20186 0.80742,-0.10093 0.90836,0.30279l2.9195,11.35628c0,0 4.43156,3.33667 6.3492,6.6673c3.2297,5.55105 2.58063,11.34282 2.58063,11.34282c0,0 6.90198,1.61949 8.11312,7.3724c1.21114,5.75291 -1.9681,16.65315 -20.94261,20.3875c-18.9745,3.73435 -33.96234,-1.413 -41.12825,-12.91881c-3.85605,-6.19142 -3.2794,-13.43703 -0.63273,-20.0586c2.27176,-5.68363 4.96349,-10.2993 4.68379,-9.92636l0.90836,-13.01046c-0.10093,-0.40371 0.40371,-0.7065 0.80742,-0.50464l10.19375,8.97333c0,0 1.26161,-0.7065 6.00523,-0.90835c2.82599,-0.20186 10.05164,-0.50001 12.37299,-0.09629z" fill="#ffab19" stroke="#000000" stroke-width="1.2" stroke-linecap="butt" stroke-linejoin="miter"></path><path d="M348.05977,91.73649c0.23043,-1.89786 1.30085,-2.70377 1.90292,-2.37375c0.49851,0.27325 1.05747,0.76262 1.43523,1.63868c0.45474,1.04567 1.11048,2.12478 1.13761,3.6514c0.02742,1.54325 -0.32837,3.19197 -0.72242,4.66254c-0.42942,1.60259 -1.74781,3.88807 -2.50598,3.797c-0.35017,-0.04207 -0.63418,-1.60787 -0.75849,-2.15921c-0.17777,-0.7885 -0.60399,-2.94327 -0.70378,-5.00227c-0.08769,-1.80962 0.13366,-3.54527 0.2149,-4.21439z" data-paper-data="{&quot;index&quot;:null}" fill="#ffffff" stroke="none" stroke-width="1" stroke-linecap="butt" stroke-linejoin="miter"></path><path d="M363.26579,86.68449c-4.74363,3.83527 -12.01046,3.9362 -12.01046,3.9362" fill="none" stroke="#000000" stroke-width="1.2" stroke-linecap="round" stroke-linejoin="round"></path><path d="M361.7014,97.98846c-6.35848,0.50464 -10.29468,-1.41299 -10.29468,-1.41299" fill="none" stroke="#000000" stroke-width="1.2" stroke-linecap="round" stroke-linejoin="round"></path></g><g data-paper-data="{&quot;index&quot;:null}"><path d="M104.99086,93.282c3.5,-3.1 12.1,-5.9 12.1,-5.9" fill="none" stroke="#000000" stroke-width="1.2" stroke-linecap="round" stroke-linejoin="round"></path><path d="M116.39087,97.38201c0,0 -7.4,1.1 -11.7,-0.6" fill="none" stroke="#000000" stroke-width="1.2" stroke-linecap="round" stroke-linejoin="round"></path><path d="M78.59086,65.18199c2.3,-0.4 4.7,-0.6 7.5,-0.4c4.7,0.2 9.2,1.9 9.2,1.9l12.1,-7.9c0.4,-0.2 0.9,0.1 0.8,0.5l-2.1,17.9c-0.6,-0.8 10.6,12.8 3.5,24.2c-7.1,11.4 -22.2,16.5 -41,12.8c-18.8,-3.7 -23.2,-14.5 -22,-20.2c1.2,-5.7 8.3,-7.8 8.3,-7.8c0,0 0.1,-4.5 3.3,-10c1.9,-3.3 8.3,-8 8.3,-8l2.6,-10.7c0.1,-0.4 0.6,-0.5 0.9,-0.3z" fill="#ffab19" stroke="#000000" stroke-width="1.2" stroke-linecap="butt" stroke-linejoin="miter"></path><path d="M58.50402,97.45919c-0.15239,1.54478 -0.43402,4.1305 -1.35568,6.02024c-0.343,0.70327 -1.12667,2.70055 -2.09293,2.75421c-2.09207,0.11616 -5.04011,-2.79912 -6.22503,-4.84332c-1.08731,-1.87581 -1.72416,-3.97885 -1.6485,-5.94736c0.07485,-1.9473 0.84952,-3.64267 2.10431,-4.97648c1.04238,-1.11746 2.58474,-1.74168 3.9603,-2.09023c1.66132,-0.42097 4.61501,0.92591 5.25084,3.34675c0.47924,1.82465 0.13028,4.48339 0.00669,5.73618z" data-paper-data="{&quot;index&quot;:null}" fill="#ffffff" stroke="none" stroke-width="1" stroke-linecap="butt" stroke-linejoin="miter"></path><path d="M48.69086,91.58201c0,0 -7.2,-0.1 -11.9,-3.9" fill="none" stroke="#000000" stroke-width="1.2" stroke-linecap="round" stroke-linejoin="round"></path><path d="M48.29086,97.48201c0,0 -3.9,1.9 -10.2,1.4" fill="none" stroke="#000000" stroke-width="1.2" stroke-linecap="round" stroke-linejoin="round"></path></g><g><path d="M448.10392,87.36698c0,0 8.6,2.8 12.1,5.9" fill="none" stroke="#000000" stroke-width="1.2" stroke-linecap="round" stroke-linejoin="round"></path><path d="M460.50392,96.76698c-4.3,1.7 -11.7,0.6 -11.7,0.6" fill="none" stroke="#000000" stroke-width="1.2" stroke-linecap="round" stroke-linejoin="round"></path><path d="M489.28726,54.91697c0.3,-0.2 0.8,-0.1 0.9,0.3l2.6,10.7c0,0 7.65,5.2 9.55,8.5c3.2,5.5 3.3,10 3.3,10c0,0 7.1,2.1 8.3,7.8c1.2,5.7 -3.2,16.5 -22,20.2c-18.8,3.7 -33.9,-1.4 -41,-12.8c-7.1,-11.4 4.1,-28.25 3.5,-27.45l-0.6,-14.65c-0.1,-0.4 0.4,-0.7 0.8,-0.5l12.6,7.65c0,0 2.5,-1.45 7.2,-1.65c2.8,-0.2 4.45,0 6.75,0.4z" fill="#ffab19" stroke="#000000" stroke-width="1.2" stroke-linecap="butt" stroke-linejoin="miter"></path><path d="M496.77801,96.05511c-0.17227,-1.43904 0.23023,-4.49305 0.89821,-6.58896c0.88625,-2.78074 4.89212,-4.88341 7.20774,-4.39986c1.91732,0.40037 4.17824,1.56183 5.63115,2.84542c1.74898,1.5321 2.82875,3.59063 2.93308,5.82743c0.10546,2.26116 -0.78221,4.89908 -2.29775,7.05376c-1.65159,2.34811 -6.64959,6.8079 -9.56561,6.67447c-1.34682,-0.06164 -2.43913,-3.68918 -2.91722,-4.497c-1.28465,-2.17068 -1.6772,-5.14081 -1.88961,-6.91525z" data-paper-data="{&quot;index&quot;:null}" fill="#ffffff" stroke="none" stroke-width="1" stroke-linecap="butt" stroke-linejoin="miter"></path><path d="M517.98726,85.91698c-3.61386,3.8 -9.15,3.9 -9.15,3.9" fill="none" stroke="#000000" stroke-width="1.2" stroke-linecap="round" stroke-linejoin="round"></path><path d="M516.98768,97.11698c-4.84412,0.5 -7.84285,-1.4 -7.84285,-1.4" fill="none" stroke="#000000" stroke-width="1.2" stroke-linecap="round" stroke-linejoin="round"></path></g><g data-paper-data="{&quot;index&quot;:null}"><path d="M22.89927,95.26397c3.5,-3.1 12.1,-5.9 12.1,-5.9" fill="none" stroke="#000000" stroke-width="1.2" stroke-linecap="round" stroke-linejoin="round"></path><path d="M34.29927,99.36397c0,0 -7.4,1.1 -11.7,-0.6" fill="none" stroke="#000000" stroke-width="1.2" stroke-linecap="round" stroke-linejoin="round"></path><path d="M1.91594,65.41396c2.3,-0.4 3.95,-0.6 6.75,-0.4c4.7,0.2 7.2,1.65 7.2,1.65l12.6,-7.65c0.4,-0.2 0.9,0.1 0.8,0.5l-0.6,14.65c-0.6,-0.8 10.6,16.05 3.5,27.45c-7.1,11.4 -22.2,16.5 -41,12.8c-18.8,-3.7 -23.2,-14.5 -22,-20.2c1.2,-5.7 8.3,-7.8 8.3,-7.8c0,0 0.1,-4.5 3.3,-10c1.9,-3.3 9.55,-8.5 9.55,-8.5l2.6,-10.7c0.1,-0.4 0.6,-0.5 0.9,-0.3z" fill="#ffab19" stroke="#000000" stroke-width="1.2" stroke-linecap="butt" stroke-linejoin="miter"></path><path d="M-13.67482,98.05211c-0.21241,1.77444 -0.60495,4.74458 -1.8896,6.91526c-0.47809,0.80782 -1.57041,4.43537 -2.91722,4.49701c-2.91602,0.13343 -7.91402,-4.32637 -9.56561,-6.67448c-1.51554,-2.15468 -2.40321,-4.7926 -2.29775,-7.05376c0.10433,-2.2368 1.1841,-4.29532 2.93308,-5.82743c1.45292,-1.28359 3.71384,-2.44505 5.63115,-2.84543c2.31562,-0.48355 6.32149,1.61912 7.20774,4.39986c0.66798,2.09591 1.07048,5.14992 0.89821,6.58896z" data-paper-data="{&quot;index&quot;:null}" fill="#ffffff" stroke="none" stroke-width="1" stroke-linecap="butt" stroke-linejoin="miter"></path><path d="M-25.73406,91.81397c0,0 -5.53614,-0.1 -9.15,-3.9" fill="none" stroke="#000000" stroke-width="1.2" stroke-linecap="round" stroke-linejoin="round"></path><path d="M-26.04163,97.71397c0,0 -2.99873,1.9 -7.84285,1.4" fill="none" stroke="#000000" stroke-width="1.2" stroke-linecap="round" stroke-linejoin="round"></path></g><g><path d="M559.19963,51.99355c0.3,-0.2 0.8,-0.1 0.9,0.3l2.6,9.45c0,0 8.4,3.45 12.8,9.25c3.2,5.5 3.3,11.5 3.3,11.5c0,0 7.1,2.1 8.3,7.8c1.2,5.7 -2.2,16.5 -21,20.2c-18.8,3.7 -33.9,-1.4 -41,-12.8c-4.12075,-6.61642 -1.90346,-16.83449 0.98523,-23.87855c2.08848,-5.09277 4.76654,-8.40714 4.51477,-8.07145l0.9,-12.9c-0.1,-0.4 0.4,-0.7 0.8,-0.5l11.1,10.4c0,0 6.15,-2.65 8.45,-2.25z" fill="#ffab19" stroke="#000000" stroke-width="1.2" stroke-linecap="butt" stroke-linejoin="miter"></path><path d="M530.09964,85.44356c0,0 8.6,2.8 12.1,5.9" fill="none" stroke="#000000" stroke-width="1.2" stroke-linecap="round" stroke-linejoin="round"></path><path d="M540.99964,95.59356c-4.3,1.7 -11.7,0.6 -11.7,0.6" fill="none" stroke="#000000" stroke-width="1.2" stroke-linecap="round" stroke-linejoin="round"></path><path d="M565.49126,94.78769c-0.21692,-1.60979 0.2899,-5.02619 1.13102,-7.3708c1.11596,-3.1107 6.16013,-5.46287 9.07595,-4.92194c2.41428,0.44788 5.51122,1.49715 7.34071,2.93305c2.20231,1.7139 3.56195,4.14169 3.69332,6.6439c0.07244,1.37979 -0.22418,3.31791 -1.1594,5.29952c-0.77926,1.65114 -2.11653,3.37069 -2.98391,4.46623c-2.07967,2.62673 -7.37313,6.24072 -11.04496,6.09145c-1.69591,-0.06895 -3.07134,-4.50193 -3.67335,-5.40561c-1.61762,-2.42825 -2.11192,-5.75081 -2.37939,-7.7358z" data-paper-data="{&quot;index&quot;:null}" fill="#ffffff" stroke="none" stroke-width="1" stroke-linecap="butt" stroke-linejoin="miter"></path><g><path d="M576.76668,73.97936c1.92199,4.38623 2.27432,9.7521 1.03906,11.62843c-1.54539,1.87367 -3.93784,0.46277 -5.85983,-3.92346c-1.97368,-4.38667 -2.55808,-10.05248 -1.14139,-12.22519c1.40826,-2.27209 4.04017,0.13399 5.96216,4.52022z" fill="#ffffff" stroke="#000000" stroke-width="1.2" stroke-linecap="round" stroke-linejoin="round"></path><path d="M576.94601,79.74102c0.09283,1.09323 -0.24473,1.98414 -0.76162,1.9797c-0.51689,-0.00444 -1.00635,-0.90245 -1.09918,-1.99568c-0.09283,-1.09323 0.24473,-1.98414 0.76162,-1.9797c0.52533,0.10382 1.00635,0.90245 1.09918,1.99568" fill="#000000" stroke="none" stroke-width="1" stroke-linecap="butt" stroke-linejoin="miter"></path></g></g><g data-paper-data="{&quot;index&quot;:null}"><path d="M-69.83307,63.49355c2.3,-0.4 8.45,2.25 8.45,2.25l11.1,-10.4c0.4,-0.2 0.9,0.1 0.8,0.5l0.9,12.9c-0.25177,-0.33569 2.42629,2.97868 4.51477,8.07145c2.88869,7.04406 5.10598,17.26213 0.98523,23.87855c-7.1,11.4 -22.2,16.5 -41,12.8c-18.8,-3.7 -22.2,-14.5 -21,-20.2c1.2,-5.7 8.3,-7.8 8.3,-7.8c0,0 0.1,-6 3.3,-11.5c4.4,-5.8 12.8,-9.25 12.8,-9.25l2.6,-9.45c0.1,-0.4 0.6,-0.5 0.9,-0.3z" fill="#ffab19" stroke="#000000" stroke-width="1.2" stroke-linecap="butt" stroke-linejoin="miter"></path><path d="M-60.18307,94.34356c3.5,-3.1 12.1,-5.9 12.1,-5.9" fill="none" stroke="#000000" stroke-width="1.2" stroke-linecap="round" stroke-linejoin="round"></path><path d="M-47.28307,99.19356c0,0 -7.4,1.1 -11.7,-0.6" fill="none" stroke="#000000" stroke-width="1.2" stroke-linecap="round" stroke-linejoin="round"></path><path d="M-83.47468,97.78769c-0.26747,1.98499 -0.76177,5.30755 -2.37939,7.7358c-0.60201,0.90368 -1.97744,5.33666 -3.67335,5.40561c-3.67183,0.14927 -8.96529,-3.46472 -11.04496,-6.09145c-0.86738,-1.09553 -2.20465,-2.81509 -2.98391,-4.46623c-0.93522,-1.98161 -1.23184,-3.91973 -1.1594,-5.29952c0.13137,-2.50221 1.49101,-4.93 3.69332,-6.6439c1.82949,-1.4359 4.92643,-2.48517 7.34071,-2.93305c2.91582,-0.54093 7.95999,1.81124 9.07595,4.92194c0.84112,2.34461 1.34794,5.76101 1.13102,7.3708z" data-paper-data="{&quot;index&quot;:null}" fill="#ffffff" stroke="none" stroke-width="1" stroke-linecap="butt" stroke-linejoin="miter"></path><g><path d="M-88.78795,72.45915c1.4167,2.17271 0.83228,7.83851 -1.14139,12.22518c-1.92199,4.38623 -4.31444,5.79713 -5.85983,3.92346c-1.23526,-1.87633 -0.88293,-7.2422 1.03907,-11.62843c1.92199,-4.38623 4.5539,-6.79231 5.96216,-4.52022z" fill="#ffffff" stroke="#000000" stroke-width="1.2" stroke-linecap="round" stroke-linejoin="round"></path><path d="M-94.92944,82.74102c0.09283,-1.09323 0.57386,-1.89185 1.09919,-1.99568c0.51689,-0.00444 0.85445,0.88647 0.76162,1.9797c-0.09283,1.09323 -0.58229,1.99124 -1.09918,1.99568c-0.51689,0.00444 -0.85445,-0.88647 -0.76162,-1.9797" fill="#000000" stroke="none" stroke-width="1" stroke-linecap="butt" stroke-linejoin="miter"></path></g></g><path d="M247.43308,191.55836c-2.40092,1.80003 -9.89416,1.74985 -9.89416,1.74985c-3.95125,-0.66797 -5.17348,-1.43426 -6.3739,-2.92239c-2.35838,-2.92364 -1.41717,-7.29533 -1.75841,-10.92895c-0.28059,-4.79388 -0.4268,-9.69236 4.62949,-11.28558c3.07932,-1.5257 5.56195,1.53332 7.31321,0.19799c4.1919,-3.07937 7.27096,1.48696 7.95525,4.05441c0,0 0.81718,4.81633 0.83094,7.11846c-0.00498,2.80178 0.12355,6.15047 -0.3501,7.57373c0,0 0.04862,2.64247 -2.35231,4.44249z" fill="#ffab19" stroke="#000000" stroke-width="1.2" stroke-linecap="round" stroke-linejoin="round"></path><g><path d="M270.66205,190.99197c-2.40092,1.80003 -7.79889,1.61016 -7.79889,1.61016c-11.71403,-1.98027 -8.87454,-8.50789 -9.38947,-13.99103c-0.28059,-4.79388 -0.00775,-8.29551 5.60728,-10.72684c3.07932,-1.5257 5.981,1.11426 7.73226,-0.22107c2.65537,-1.96189 4.89632,2.32507 5.58061,4.89252c0,0 0.95686,3.83854 0.97062,6.14067c-0.00498,2.80178 0.12355,6.15047 -0.3501,7.57373c0,0 0.04862,2.92184 -2.35231,4.72186z" fill="#ffab19" stroke="#000000" stroke-width="1.2" stroke-linecap="round" stroke-linejoin="round"></path><path d="M272.26018,187.35161c0,0 -0.47315,0.90977 -1.10385,0.58827c-1.34375,-0.34024 -0.97432,-3.5589 -1.00977,-7.24606c0.03267,-2.99789 0.15263,-7.43447 1.18018,-7.61414c1.47455,-0.23013 1.10967,4.16408 1.10967,4.16408c0.21949,4.95176 -0.17624,10.10785 -0.17624,10.10785z" fill="#ffffff" stroke="none" stroke-width="1" stroke-linecap="butt" stroke-linejoin="miter"></path></g><g><path d="M293.00779,190.96665c-2.40092,1.80003 -8.637,2.1689 -8.637,2.1689c-11.71403,-1.98027 -8.03643,-8.78726 -8.55136,-14.2704c-0.28059,-4.79388 -0.00775,-8.29551 5.60728,-10.72684c3.07932,-1.5257 5.981,1.11426 7.73226,-0.22107c2.65537,-1.96189 4.89632,2.32507 5.58061,4.89252c0,0 0.95686,3.83854 0.97062,6.14067c-0.00498,2.80178 0.12355,6.15047 -0.3501,7.57373c0,0 0.04862,2.64247 -2.35231,4.44249z" fill="#ffab19" stroke="#000000" stroke-width="1.2" stroke-linecap="round" stroke-linejoin="round"></path><path d="M294.80528,187.60566c0,0 -0.9784,0.90977 -2.01554,0.58827c-2.20971,-0.34024 -2.47031,-3.5589 -2.5286,-7.24606c0.05373,-2.99789 -0.14968,-6.59636 2.40818,-6.77603c2.4248,-0.23013 2.35901,2.90692 2.35901,2.90692c0.36094,4.95176 -0.22304,10.5269 -0.22304,10.5269z" fill="#ffffff" stroke="none" stroke-width="1" stroke-linecap="butt" stroke-linejoin="miter"></path></g><g><path d="M316.88438,190.83463c-2.40092,1.80003 -9.47511,1.88953 -9.47511,1.88953c-3.95125,-0.66796 -5.59254,-1.57394 -6.79295,-3.06207c-2.35838,-2.92364 -1.41717,-7.29533 -1.75841,-10.92896c-0.28059,-4.79388 -0.14743,-8.85425 5.4676,-11.28558c3.07932,-1.5257 6.95879,1.673 8.71005,0.33767c2.65537,-1.96189 4.89632,2.32507 5.58061,4.89252c0,0 0.95686,3.83854 0.97062,6.14067c-0.00498,2.80178 0.12355,6.15047 -0.3501,7.57373c0,0 0.04862,2.64247 -2.35231,4.44249z" fill="#ffab19" stroke="#000000" stroke-width="1.2" stroke-linecap="round" stroke-linejoin="round"></path><path d="M317.95437,187.47364c-0.40171,0.7383 -1.98663,0.90977 -3.18948,0.58827c-2.56276,-0.34024 -2.63266,-3.5589 -2.70027,-7.24606c0.06231,-2.99789 0.29109,-7.1551 3.25762,-7.33477c2.81222,-0.23013 3.0457,3.46566 3.0457,3.46566c0.41861,6.76766 0.59831,8.66718 -0.41357,10.5269z" fill="#ffffff" stroke="none" stroke-width="1" stroke-linecap="butt" stroke-linejoin="miter"></path></g><g data-paper-data="{&quot;index&quot;:null}"><path d="M206.98565,186.60344c-0.47365,-1.42326 -0.34512,-4.77195 -0.3501,-7.57373c0.01376,-2.30213 0.97062,-6.14067 0.97062,-6.14067c0.68429,-2.56745 2.92524,-6.85441 5.58061,-4.89252c1.75126,1.33533 4.65294,-1.30463 7.73226,0.22107c5.61503,2.43133 5.88787,5.93296 5.60728,10.72684c-0.51493,5.48314 2.32456,12.01076 -9.38947,13.99103c0,0 -5.39797,0.18987 -7.79889,-1.61016c-2.40093,-1.80002 -2.35231,-4.72186 -2.35231,-4.72186z" fill="#ffab19" stroke="#000000" stroke-width="1.2" stroke-linecap="round" stroke-linejoin="round"></path><path d="M207.73984,187.68494c0,0 -0.39573,-5.15609 -0.17624,-10.10785c0,0 -0.36488,-4.39421 1.10967,-4.16408c1.02755,0.17967 1.14751,4.61625 1.18018,7.61414c-0.03545,3.68716 0.33398,6.90582 -1.00977,7.24606c-0.6307,0.3215 -1.10385,-0.58827 -1.10385,-0.58827z" fill="#ffffff" stroke="none" stroke-width="1" stroke-linecap="butt" stroke-linejoin="miter"></path></g><g data-paper-data="{&quot;index&quot;:null}"><path d="M184.30657,186.19083c-0.47365,-1.42326 -0.34512,-4.77195 -0.3501,-7.57373c0.01376,-2.30213 0.97062,-6.14067 0.97062,-6.14067c0.68429,-2.56745 2.92524,-6.85441 5.58061,-4.89252c1.75126,1.33533 4.65294,-1.30463 7.73226,0.22107c5.61503,2.43133 5.88787,5.93296 5.60728,10.72684c-0.51493,5.48314 3.16267,12.29013 -8.55136,14.2704c0,0 -6.23608,-0.36887 -8.637,-2.1689c-2.40093,-1.80002 -2.35231,-4.44249 -2.35231,-4.44249z" fill="#ffab19" stroke="#000000" stroke-width="1.2" stroke-linecap="round" stroke-linejoin="round"></path><path d="M184.86138,187.27233c0,0 -0.58398,-5.57514 -0.22304,-10.5269c0,0 -0.06579,-3.13705 2.35901,-2.90692c2.55786,0.17967 2.35445,3.77814 2.40818,6.77603c-0.05829,3.68716 -0.31889,6.90582 -2.5286,7.24606c-1.03714,0.3215 -2.01554,-0.58827 -2.01554,-0.58827z" fill="#ffffff" stroke="none" stroke-width="1" stroke-linecap="butt" stroke-linejoin="miter"></path></g><g data-paper-data="{&quot;index&quot;:null}"><path d="M160.76332,186.0588c-0.47365,-1.42326 -0.34512,-4.77195 -0.3501,-7.57373c0.01376,-2.30213 0.97062,-6.14067 0.97062,-6.14067c0.68429,-2.56745 2.92524,-6.85441 5.58061,-4.89252c1.75126,1.33533 5.63073,-1.86337 8.71005,-0.33767c5.61503,2.43133 5.74819,6.4917 5.4676,11.28558c-0.34124,3.63363 0.59997,8.00532 -1.75841,10.92896c-1.20041,1.48813 -2.8417,2.39411 -6.79295,3.06207c0,0 -7.07419,-0.0895 -9.47511,-1.88953c-2.40093,-1.80002 -2.35231,-4.44249 -2.35231,-4.44249z" fill="#ffab19" stroke="#000000" stroke-width="1.2" stroke-linecap="round" stroke-linejoin="round"></path><path d="M161.63206,176.6134c0,0 0.23347,-3.69579 3.04569,-3.46566c2.96652,0.17967 3.1953,4.33688 3.25761,7.33477c-0.06761,3.68716 -0.1375,6.90582 -2.70027,7.24606c-1.20285,0.3215 -2.78777,0.15003 -3.18948,-0.58827c-1.01187,-1.85972 -0.83217,-3.75924 -0.41356,-10.5269z" fill="#ffffff" stroke="none" stroke-width="1" stroke-linecap="butt" stroke-linejoin="miter"></path></g><g><path d="M382.19963,134.99355c0.3,-0.2 0.8,-0.1 0.9,0.3l2.6,9.45c0,0 8.4,3.45 12.8,9.25c3.2,5.5 3.3,11.5 3.3,11.5c0,0 7.1,2.1 8.3,7.8c1.2,5.7 -2.2,16.5 -21,20.2c-18.8,3.7 -33.9,-1.4 -41,-12.8c-4.12075,-6.61642 -1.90346,-16.83449 0.98523,-23.87855c2.08848,-5.09277 4.76654,-8.40714 4.51477,-8.07145l0.9,-12.9c-0.1,-0.4 0.4,-0.7 0.8,-0.5l11.1,10.4c0,0 6.15,-2.65 8.45,-2.25z" fill="#ffab19" stroke="#000000" stroke-width="1.2" stroke-linecap="butt" stroke-linejoin="miter"></path><path d="M353.09964,168.44356c0,0 8.6,2.8 12.1,5.9" fill="none" stroke="#000000" stroke-width="1.2" stroke-linecap="round" stroke-linejoin="round"></path><path d="M363.99964,178.59356c-4.3,1.7 -11.7,0.6 -11.7,0.6" fill="none" stroke="#000000" stroke-width="1.2" stroke-linecap="round" stroke-linejoin="round"></path><path d="M388.49126,177.78769c-0.21692,-1.60979 0.2899,-5.02619 1.13102,-7.3708c1.11596,-3.1107 6.16013,-5.46287 9.07595,-4.92194c2.41428,0.44788 5.51122,1.49715 7.34071,2.93305c2.20231,1.7139 3.56195,4.14169 3.69332,6.6439c0.07244,1.37979 -0.22418,3.31791 -1.1594,5.29952c-0.77926,1.65114 -2.11653,3.37069 -2.98391,4.46623c-2.07967,2.62673 -7.37313,6.24072 -11.04496,6.09145c-1.69591,-0.06895 -3.07134,-4.50193 -3.67335,-5.40561c-1.61762,-2.42825 -2.11192,-5.75081 -2.37939,-7.7358z" data-paper-data="{&quot;index&quot;:null}" fill="#ffffff" stroke="none" stroke-width="1" stroke-linecap="butt" stroke-linejoin="miter"></path></g><g data-paper-data="{&quot;index&quot;:null}"><path d="M114.29905,143.49355c2.3,-0.4 8.45,2.25 8.45,2.25l11.1,-10.4c0.4,-0.2 0.9,0.1 0.8,0.5l0.9,12.9c-0.25177,-0.33569 2.42629,2.97868 4.51477,8.07145c2.88869,7.04406 5.10598,17.26213 0.98523,23.87855c-7.1,11.4 -22.2,16.5 -41,12.8c-18.8,-3.7 -22.2,-14.5 -21,-20.2c1.2,-5.7 8.3,-7.8 8.3,-7.8c0,0 0.1,-6 3.3,-11.5c4.4,-5.8 12.8,-9.25 12.8,-9.25l2.6,-9.45c0.1,-0.4 0.6,-0.5 0.9,-0.3z" fill="#ffab19" stroke="#000000" stroke-width="1.2" stroke-linecap="butt" stroke-linejoin="miter"></path><path d="M123.94904,174.34356c3.5,-3.1 12.1,-5.9 12.1,-5.9" fill="none" stroke="#000000" stroke-width="1.2" stroke-linecap="round" stroke-linejoin="round"></path><path d="M136.84904,179.19356c0,0 -7.4,1.1 -11.7,-0.6" fill="none" stroke="#000000" stroke-width="1.2" stroke-linecap="round" stroke-linejoin="round"></path><path d="M100.65743,177.78769c-0.26747,1.98499 -0.76177,5.30755 -2.37939,7.7358c-0.60201,0.90368 -1.97744,5.33666 -3.67335,5.40561c-3.67183,0.14927 -8.96529,-3.46472 -11.04496,-6.09145c-0.86738,-1.09554 -2.20465,-2.81509 -2.98391,-4.46623c-0.93522,-1.98161 -1.23184,-3.91973 -1.1594,-5.29952c0.13137,-2.50221 1.49101,-4.93 3.69332,-6.6439c1.82949,-1.4359 4.92643,-2.48517 7.34071,-2.93305c2.91582,-0.54093 7.95999,1.81124 9.07595,4.92194c0.84112,2.34461 1.34794,5.76101 1.13102,7.3708z" data-paper-data="{&quot;index&quot;:null}" fill="#ffffff" stroke="none" stroke-width="1" stroke-linecap="butt" stroke-linejoin="miter"></path></g></g></g></svg>