<svg version="1.1" xmlns="http://www.w3.org/2000/svg" xmlns:xlink="http://www.w3.org/1999/xlink" width="64.68619" height="76.74181" viewBox="0,0,64.68619,76.74181"><g transform="translate(-209,-143)"><g data-paper-data="{&quot;isPaintingLayer&quot;:true}" fill-rule="nonzero" stroke="none" stroke-linecap="butt" stroke-linejoin="miter" stroke-miterlimit="10" stroke-dasharray="" stroke-dashoffset="0" style="mix-blend-mode: normal"><path d="M273.16928,196.65181c-0.01,0.15 -0.03,0.3 -0.06,0.45c-0.29,2.04 -1.07,3.82 -2.4,6.39c-2.72,5.41 -7.08,9.65 -12.96,12.6c-4.45,2.23 -9.01,3.44 -13.56,3.62c-0.62,0.02 -1.16,0.03 -1.7,0.03c-14.81,0 -22.99,-6.97 -27.24,-12.82c-0.77,-1.05 -1.33,-2.22 -1.68,-3.45c-1.64,-3.49 -2.37,-6.96 -2.17,-10.34c0.08,-1.42 0.33,-3.02 0.78,-4.91c0.02,-1.42 0.32,-2.82 0.88,-4.13c0.6,-1.41 5.36272,-2.94584 6.05272,-4.22584c-1,-1.26 -5.93272,-2.43416 -6.56272,-3.90416c-0.03,-0.07 -0.06,-0.14 -0.09,-0.21c-1.74,-4.27 -1.74,-8.78 0,-13.05c0.03,-0.08 0.07,-0.16 0.1,-0.23c2.07,-4.75 5.68,-8.78 10.74,-11.96c4.86,-3.06 9.68,-4.67 14.32,-4.77h5.08c5.13,0 9.78,1.07 13.82,3.19c5.76,3 9.68,7.81 11.31,13.91c0.67,2.41 1.29,5.58 0.32,8.96c-0.18,0.68 -3.72935,2.31922 -3.97935,2.96922c5.06,5.4 9.54935,9.84078 9.50935,13.79078c0.03,1.3 -0.02,3.48 -0.51,8.09z" fill="#da9494" stroke-width="1"/><path d="M271.015,193.91c-0.01,0.15 -0.03,0.3 -0.06,0.45c-0.29,2.04 -1.07,3.82 -2.4,6.39c-2.72,5.41 -7.08,9.65 -12.96,12.6c-4.45,2.23 -9.01,3.44 -13.56,3.62c-0.62,0.02 -1.16,0.03 -1.7,0.03c-14.81,0 -22.99,-6.97 -27.24,-12.82c-0.77,-1.05 -1.33,-2.22 -1.68,-3.45c-1.64,-3.49 -2.37,-6.96 -2.17,-10.34c0.08,-1.42 0.33,-3.02 0.78,-4.91c0.02,-1.42 0.32,-2.82 0.88,-4.13c0.6,-1.41 5.36272,-2.94584 6.05272,-4.22584c-1,-1.26 -5.93272,-2.43416 -6.56272,-3.90416c-0.03,-0.07 -0.06,-0.14 -0.09,-0.21c-1.74,-4.27 -1.74,-8.78 0,-13.05c0.03,-0.08 0.07,-0.16 0.1,-0.23c2.07,-4.75 5.68,-8.78 10.74,-11.96c4.86,-3.06 9.68,-4.67 14.32,-4.77h5.08c5.13,0 9.78,1.07 13.82,3.19c5.76,3 9.68,7.81 11.31,13.91c0.67,2.41 1.29,5.58 0.32,8.96c-0.18,0.68 -3.72935,2.31922 -3.97935,2.96922c5.06,5.4 9.54935,9.84078 9.50935,13.79078c0.03,1.3 -0.02,3.48 -0.51,8.09z" fill="#ffaeae" stroke-width="1"/><path d="M237.6869,150.55241c2.60623,-0.14189 5.12981,0.75353 7.34495,1.45502c2.86444,0.9071 5.31064,2.04574 6.92308,3.82882c1.28551,1.42155 2.02352,3.33131 2.14864,5.2885c0.08762,1.37055 -0.36298,2.42973 -0.89251,3.68047c-0.99721,2.35538 -2.75479,4.48619 -5.35012,6.04643c-2.37212,1.42605 -5.47458,2.37712 -8.71308,2.55343c-3.58721,0.1953 -8.54104,-1.25015 -9.6925,-1.93237c-1.08165,-0.64085 -6.48779,-4.94244 -6.72417,-8.63998c-0.27868,-4.35917 3.15252,-8.13512 7.95738,-10.32994c2.15093,-0.98253 4.31941,-1.80455 6.99833,-1.95039z" fill="#da9494" stroke-width="0"/><path d="M240.16254,179.78134c3.33396,-0.18151 6.56218,0.96394 9.39585,1.8613c3.66427,1.16039 6.79351,2.61697 8.85617,4.89792c1.64445,1.81849 2.58853,4.2615 2.74859,6.76519c0.11208,1.75324 -0.46433,3.10817 -1.14172,4.70815c-1.27566,3.01306 -3.524,5.73884 -6.844,7.73474c-3.03448,1.82424 -7.00322,3.04087 -11.14599,3.26641c-4.58885,0.24983 -10.92591,-1.59922 -12.39888,-2.47193c-1.38367,-0.81979 -8.29934,-6.32249 -8.60173,-11.05247c-0.35649,-5.57636 4.03279,-10.40665 10.17928,-13.21432c2.75152,-1.25687 5.52549,-2.30842 8.95244,-2.49499z" fill="#da9494" stroke-width="0"/></g></g></svg>