<svg version="1.1" xmlns="http://www.w3.org/2000/svg" xmlns:xlink="http://www.w3.org/1999/xlink" width="781.94368" height="540.12521" viewBox="0,0,781.94368,540.12521"><g transform="translate(54.07357,141.84178)"><g stroke="none" stroke-miterlimit="10"><path d="M-39.93622,381v-391h693.9579v391z" fill="#ffe7db" stroke-width="0"/><path d="M497.98526,313.85091c-3.30668,0.60634 -4.13334,-1.81902 -4.13334,-1.81902l-1.01235,-3.34414c-1.41157,-1.10568 -4.10238,-0.64941 -5.89153,-1.40595c-3.207,-1.35607 -4.71705,-4.77517 -8.32139,-5.394c-4.17607,-0.717 -8.5908,0.22195 -12.86684,-0.02207c-11.32693,-0.64641 -22.23946,-2.83594 -33.64808,-2.82711c-14.87469,-0.65688 -29.76403,-1.54256 -44.65295,-1.98487c-12.56481,-0.37326 -25.18681,0.29711 -37.75236,-0.06808c-0.57045,-0.01658 -1.14082,-0.03413 -1.7111,-0.05258c-3.17173,2.62188 -6.359,5.23347 -9.58877,7.81784c-4.28683,3.43019 -8.44464,7.68425 -13.80222,10.28073l-5.16133,3.24488c-0.59806,0.38059 -1.37866,0.61093 -2.23261,0.61093c-1.88243,0 -3.40844,-1.11929 -3.40844,-2.5v-2.97716h0.27865l-0.18707,-0.57564c2.93139,-4.44766 5.93297,-8.81889 9.20372,-13.13823c0.95053,-1.25256 1.81903,-2.52129 2.63799,-3.8008c-9.58702,-0.52147 -19.17489,-1.05908 -28.79368,-1.30236c-22.1421,-0.56002 -44.68726,-0.7747 -66.72277,-2.51749c-12.84359,-1.0158 -25.63318,-3.47239 -38.38206,-5.01627c-11.44346,-1.38579 -23.05411,-1.92362 -33.9778,-4.8534c-6.98668,-1.88799 -13.95528,-3.8363 -20.93577,-5.76129c-4.28976,4.465 -8.72804,8.8174 -13.30785,13.1788c-5.32368,5.06979 -10.44259,11.62543 -17.1606,15.75623l-4.51756,3.7277c-0.6246,0.52022 -1.53945,0.84844 -2.55882,0.84844c-1.88243,0 -3.40844,-1.11929 -3.40844,-2.5c0,-0.18553 0.02755,-0.36634 0.07983,-0.54035l0.90054,-3.30639c1.30689,-4.78838 2.46835,-10.67286 5.3445,-15.11086c0.97933,-1.51114 2.94351,-2.59699 3.95323,-4.09734c1.93812,-2.87985 2.43229,-6.17129 3.76103,-9.23145c0.74893,-1.72483 1.47399,-3.49772 2.22112,-5.27586c-21.14198,-5.28509 -42.57034,-10.23743 -63.11202,-16.74909c-8.4204,-2.66925 -16.60253,-5.89472 -24.8553,-8.83348c-5.70146,-2.68316 -12.65538,-5.18684 -17.79262,-8.41872c-3.25097,-2.04521 -5.54909,-4.787 -8.2515,-7.22417c-1.6568,-1.49418 -3.93935,-2.72883 -4.90947,-4.51853c-0.25818,-0.4763 -1.00981,-9.84274 -1.08696,-10.74775c-0.18222,-2.13739 -0.91376,-8.73424 -0.34117,-10.72267c0.43204,-1.50035 1.80556,-2.7663 2.73072,-4.14144c3.08382,-4.58377 6.67988,-8.83262 10.34638,-13.17447c3.27656,-3.8801 8.65124,-9.40833 14.76395,-11.24708c2.03861,-0.61323 4.40358,-0.13434 6.60679,-0.15527c6.70652,-0.0637 13.43243,0.07126 20.13911,0.11284c39.36227,4.36176 78.06863,11.41373 116.82675,18.12444c0.23123,-0.32945 0.46214,-0.65908 0.69269,-0.98891c8.86246,-12.67851 17.12316,-25.6611 25.35781,-38.56488c10.26857,-16.09052 20.70308,-32.18081 30.27703,-48.52561c-11.95503,-2.54735 -23.7771,-5.56514 -35.64301,-8.30485c-23.82829,-5.50167 -48.12534,-11.01937 -71.09255,-18.28871c-7.85202,-2.48524 -15.3985,-5.79677 -23.00633,-8.66318c-12.17278,-4.58637 -25.95698,-8.41292 -36.08442,-15.1946c-2.07525,-1.40157 -4.1505,-2.80313 -6.22573,-4.2047c-1.77803,-0.40218 -3.34321,-1.0122 -4.15787,-2.14189c-0.30552,-0.42367 -0.54572,-0.80814 -0.72791,-1.15783c-4.65413,-3.14328 -9.30825,-6.28656 -13.96239,-9.42984c-5.56275,-3.75694 -10.20389,-6.78064 -14.23254,-11.5176c-3.86521,-4.54478 -5.03808,-4.71818 -5.10272,-10.33637c-0.01924,-1.67262 -0.53319,-3.74984 1.04181,-4.95953c1.43135,-1.09936 4.09645,-0.51953 6.16745,-0.5776c4.54127,-0.12733 9.08085,0.28496 13.62129,0.42744c9.05965,0.28429 18.53571,0.0333 27.52718,0.87259c6.74987,0.63005 13.62389,2.12512 20.2812,3.16795c22.01866,3.44909 44.21018,7.93999 66.46468,10.41586c4.50051,0.50069 9.10278,0.39041 13.59978,0.90786c16.04332,1.84606 32.06237,5.01318 47.9651,7.89367c6.84022,-0.21749 13.78578,0.01465 20.55634,0.01464c5.76757,-0.00001 11.78664,-0.3544 17.53701,0c2.61929,0.16143 6.11715,-0.73512 7.82211,0.73223c1.7135,1.47471 1.1773,3.70301 1.02455,5.74269c3.60981,0.48282 7.21292,0.98557 10.80521,1.51899c29.04953,4.31359 57.09857,11.88978 86.03815,16.42914c13.071,2.05441 26.37089,3.78834 39.47969,5.92417c4.55652,-3.437 9.38543,-6.7356 13.94305,-10.11011c2.72086,-2.01456 8.74834,-7.14423 13.24854,-5.70133c2.01707,0.64673 3.58193,9.8935 3.972,11.77181c0.77222,3.71851 1.10913,7.33347 1.21602,10.95324c2.08839,0.5435 4.17375,1.08012 6.25814,1.58981c19.40238,4.74441 38.79879,9.50167 58.19238,14.26539c15.34551,3.76937 30.96995,7.57055 46.24958,11.93167c2.76967,-2.4275 5.541,-4.90951 8.01093,-7.45736c0.53418,-0.55103 7.40298,-8.21016 7.78261,-8.51898c0.21837,-0.17764 10.38411,-6.33777 10.86156,-6.6276c2.71873,-1.61044 4.73799,-3.81663 6.52076,-6.0212l0.27404,-0.14087l-0.06776,-0.04466l3.24735,-2.65077c0.62426,-0.5139 1.53344,-0.83754 2.54567,-0.83754c1.71082,0 3.12723,0.92451 3.37127,2.12954l1.11148,4.89143c1.9077,4.90416 1.27706,10.27048 1.38888,15.30088c0.13992,6.29411 0.23659,12.58412 0.24279,18.87911c0.0023,2.34137 0.00408,4.68273 0.0054,7.0241c6.5032,2.96582 12.87926,6.0851 19.75837,8.60486c0,0 3.0486,1.11803 1.52429,3.3541c-1.52429,2.23607 -4.5729,1.11803 -4.5729,1.11803c-5.79797,-2.12881 -11.2437,-4.67435 -16.70733,-7.19675c0.00431,15.69924 -0.00784,31.39851 -0.00784,47.09774c0,14.54558 -2.09195,29.06186 -3.57838,43.56357c-1.25338,12.22806 0.12232,24.71621 -3.24895,36.83887c-1.80642,6.49562 -5.03468,12.96199 -7.52269,19.33781c-3.69863,13.9346 -10.82289,28.16435 -5.97042,42.40099l0.02554,4.275c0,0 0,2.5 -3.40844,2.5c-3.40844,0 -3.40844,-2.5 -3.40844,-2.5l0.02554,-3.66408c-5.05036,-14.81722 2.24024,-29.67935 6.10754,-44.17866c2.4523,-6.30616 5.66451,-12.7018 7.45923,-19.12315c3.33088,-11.91767 1.91658,-24.23518 3.14332,-36.26073c1.46666,-14.3775 3.5593,-28.76911 3.5593,-43.18962c0,-16.7119 0.13856,-33.42867 0.10512,-50.14286c-1.96742,-0.86311 -3.95613,-1.70067 -5.98275,-2.49298c-9.83843,-3.84637 -20.08558,-7.21982 -30.53034,-10.29807c-6.20169,5.35673 -13.17233,10.17642 -18.27795,16.18937c-10.74701,12.65686 -17.48987,27.04347 -27.06144,40.17363c-4.1917,5.75012 -8.59005,11.44924 -13.15635,17.08816c4.32572,2.25155 8.85813,4.45192 12.67543,7.03391c4.97603,3.36576 9.20868,7.58052 13.94889,11.14916c3.61864,2.72427 11.98806,7.55411 10.04053,12.16629c-0.77984,1.84684 -3.24652,3.08635 -5.27443,4.32149c-6.45333,3.93054 -15.84051,6.98819 -23.70611,8.91957c-7.00726,1.72062 -13.07189,3.21739 -20.44576,3.78736c-6.79636,0.51095 -13.71868,1.32125 -20.54268,1.54012c-3.998,0.12823 -8.0193,0.15579 -12.0506,0.12704c-6.93441,6.46697 -14.06094,12.83543 -20.94778,19.28266c-7.00457,6.55744 -13.62316,13.56134 -21.15289,19.79521c-10.12868,8.38555 -21.77558,15.74798 -31.91292,24.15913c-0.91499,0.75918 -1.82924,1.51879 -2.7434,2.27841c11.2638,0.15602 22.56357,-0.34702 33.81797,-0.01545c14.88562,0.43855 29.77428,1.31906 44.64466,1.98468c11.52847,0.00856 22.53134,2.18707 33.97059,2.83989c1.82563,0.10419 13.12194,-0.01989 14.3983,0.24083c3.87444,0.79143 5.7621,4.21878 9.26287,5.67102c1.36024,0.56428 3.27011,-0.10303 4.6507,0.43401c1.71967,0.66893 2.78077,1.9984 4.17115,2.9976l1.69364,4.59495c0,0 0.82667,2.42536 -2.48001,3.0317zM183.9978,195.73192c9.91365,1.6591 19.83589,3.40073 29.77318,5.1172c6.34264,-5.18281 12.70063,-10.36071 19.02725,-15.57612c13.63015,-11.23614 26.53777,-22.49546 41.44146,-32.8516c3.24644,-2.25585 6.70087,-4.36042 9.74411,-6.76385c4.22015,-3.33291 7.50768,-7.3201 11.80049,-10.60362c4.17692,-3.19488 8.63367,-6.1919 13.16314,-9.1375c-19.87824,-5.87603 -40.04216,-11.882 -60.38552,-16.5321c-7.27737,-1.66347 -14.89464,-2.57851 -22.3082,-3.9311c-9.70467,16.61272 -20.30094,32.96218 -30.7344,49.31107c-8.24538,12.91987 -16.5182,25.91703 -25.38707,38.61366c4.62014,0.79374 9.2416,1.5801 13.86558,2.35395zM263.68549,208.73296c19.59698,2.60983 39.6849,3.94474 59.42457,5.90793c6.78417,0.67471 13.65576,1.18744 20.40413,2.03142c8.159,1.0204 16.20392,3.26311 24.41698,3.96522c0.6423,0.05491 1.28729,0.10418 1.93464,0.14831c2.21899,-4.79048 4.04869,-9.73509 6.15937,-14.51031c6.28564,-14.1944 15.1401,-27.80977 20.69014,-42.23422c1.73086,-4.49845 3.09463,-9.10908 4.40044,-13.72491c-5.95139,-1.92217 -11.9463,-3.90427 -18.03995,-5.34658c-4.29747,-1.01717 -8.84548,-1.37036 -13.1769,-2.30685c-17.46081,-3.77518 -34.55529,-8.99733 -51.44129,-13.94472c-0.8173,-0.23946 -1.63514,-0.47955 -2.45346,-0.72016c-5.24257,3.38114 -10.43229,6.79944 -15.25152,10.47929c-4.28441,3.27146 -7.56364,7.25766 -11.7739,10.58275c-0.09816,0.07752 -9.84574,6.84855 -10.0508,6.99104c-14.76181,10.25753 -27.53519,21.41516 -41.03692,32.54545c-5.50343,4.53681 -11.03074,9.04502 -16.55096,13.55277c14.07558,2.40142 28.18462,4.6977 42.34543,6.58357zM401.66751,220.98958c8.49594,0.09189 17.09432,0.41589 25.66233,0.535c4.44462,-4.18604 8.78907,-8.42138 12.91513,-12.75443c9.27099,-9.73607 18.24951,-19.73655 26.69608,-29.94557c-6.06203,-3.44217 -11.98118,-7.04005 -17.87195,-10.63472c-3.3671,-2.05476 -6.34104,-4.50899 -10.07827,-6.18452c-3.73723,-1.67553 -8.07126,-2.4977 -12.09986,-3.7587c-6.25681,-1.95846 -12.54579,-3.8522 -18.83869,-5.74727c-0.1838,-0.05535 -0.36762,-0.11098 -0.55146,-0.16688c-1.2538,4.39558 -2.5758,8.78089 -4.22488,13.06683c-5.57391,14.4865 -14.47583,28.15911 -20.76617,42.41817c-1.92928,4.36484 -3.63307,8.86555 -5.59942,13.26766c8.24033,0.17004 16.68507,-0.18289 24.75715,-0.09559zM442.36517,221.43401c6.69147,-0.21461 13.48128,-1.01782 20.14539,-1.51883c6.87838,-0.50088 12.44039,-1.96397 18.98516,-3.55684c6.16524,-1.5005 10.55855,-3.40488 16.17514,-5.79622c2.87365,-1.2235 6.89744,-1.78735 8.36825,-3.9727c0.28696,-0.42637 -0.50715,-0.88483 -0.89131,-1.26784c-3.60497,-3.59412 -8.12417,-6.5082 -12.25016,-9.7591c-3.03681,-2.39273 -5.59483,-5.12138 -8.8709,-7.33781c-3.48116,-2.3552 -7.59689,-4.37854 -11.57345,-6.42536c-8.4307,10.16896 -17.38125,20.13225 -26.62063,29.83495c-3.19866,3.35905 -6.52702,6.65994 -9.93111,9.92483c2.16005,-0.01684 4.3153,-0.05617 6.46361,-0.12507zM403.34645,65.87925c3.99307,0.77825 7.95442,1.73849 11.89767,2.74734c-0.07875,-1.20538 -0.22753,-2.40104 -0.4748,-3.58079c-0.69049,-3.29463 -1.99717,-6.55289 -2.05301,-9.88597c-0.01745,-1.04207 2.02164,-2.42458 0.89248,-3.05715c-1.02111,-0.57204 -1.4504,1.5607 -2.28798,2.27537c-2.47924,2.11544 -5.32211,3.98614 -7.99279,5.97227c-1.98392,1.47539 -3.92128,2.95237 -5.81995,4.43752c1.95288,0.35053 3.89947,0.71353 5.83837,1.09141zM568.19963,109.9459c0.9266,0.36226 1.84518,0.73415 2.75733,1.11373c-0.01988,-4.29522 -0.05349,-8.59022 -0.10608,-12.88486c-0.07984,-6.51809 0.37419,-13.30431 -0.43066,-19.7933c-0.19195,-1.54751 -0.47034,-3.14734 -0.42198,-4.7111c-1.86172,2.08902 -4.01258,4.06765 -6.59878,5.66765c-3.37401,2.0481 -7.21225,3.73811 -10.14504,6.12386c-2.96576,2.41258 -4.77357,5.47596 -7.34267,8.12203c-2.13098,2.19483 -4.47437,4.3436 -6.85266,6.45147c9.96038,2.97888 19.7328,6.2325 29.14056,9.9105zM483.98376,90.89955c-19.39066,-4.763 -38.78415,-9.51954 -58.1836,-14.26324c-1.36129,-0.33287 -2.7231,-0.67774 -4.08598,-1.02872c-0.04172,2.22317 -0.13167,4.4677 -0.22353,6.75808c-0.32039,7.99013 -0.30146,15.99016 -1.57013,23.93196c-1.88161,11.73091 -5.5969,23.06098 -9.126,34.57921c-0.65666,2.1432 -1.27504,4.3028 -1.88619,6.46809c0.57791,0.17868 1.15557,0.35523 1.73303,0.52913c10.2853,3.09734 22.41709,5.61152 31.90471,9.86515c0.27745,0.12439 10.40783,6.31709 10.88296,6.60704c5.62099,3.43036 11.26795,6.86427 17.04307,10.15935c4.38309,-5.42668 8.60815,-10.90943 12.63981,-16.44001c9.64551,-13.23158 16.45448,-27.70229 27.28653,-40.45931c4.87392,-5.74006 11.33491,-10.43643 17.34107,-15.48147c-14.4799,-4.07458 -29.24869,-7.66183 -43.75575,-11.22526zM401.55156,70.70282c-3.08412,-0.60005 -6.18784,-1.16226 -9.30536,-1.69659c-5.34228,4.39091 -10.41801,8.90392 -15.42062,13.70221c-6.73804,6.44079 -15.40281,11.20628 -23.07808,17.00816c-6.32346,4.78002 -11.68482,10.24686 -18.02524,15.01529c-4.44233,3.34093 -9.18031,6.47284 -13.97106,9.56733c16.44008,4.82299 33.08225,9.89375 50.0752,13.56777c1.53388,0.33164 12.00713,2.02827 13.34296,2.34445c5.85913,1.38681 11.62776,3.25506 17.35426,5.10288c0.52459,-1.85233 1.05786,-3.69924 1.61995,-5.53379c3.47708,-11.34847 7.15312,-22.51034 9.0068,-34.0671c1.25527,-7.79306 1.21194,-15.65329 1.52638,-23.49475c0.10914,-2.72156 0.40689,-5.51298 0.55458,-8.30056c-4.53167,-1.17821 -9.08482,-2.32129 -13.67976,-3.21529zM348.41037,62.35438c-28.93334,-4.55621 -56.98011,-12.12461 -86.0297,-16.42782c-3.13876,-0.46495 -6.28566,-0.90666 -9.43798,-1.33231c-0.2739,5.18455 -1.47968,10.49208 -3.48205,15.31749c-5.83276,13.90408 -12.853,27.48574 -20.51301,40.88144c7.19591,1.28179 14.55847,2.20002 21.61183,3.81064c21.61752,4.93632 43.03305,11.39298 64.12063,17.61597c5.53222,-3.55723 11.04331,-7.12937 16.16194,-10.97892c6.33578,-4.76494 11.69337,-10.22893 18.0131,-15.00614c7.47424,-5.64992 16.02739,-10.27884 22.55539,-16.56355c4.14324,-3.97402 8.06889,-8.24753 12.54167,-12.02321c-11.82736,-1.8579 -23.77812,-3.44465 -35.54182,-5.29359zM216.41477,39.9777c-3.67277,-0.61183 -7.35313,-1.26122 -11.0399,-1.92768c-1.86767,0.07502 -3.72486,0.18923 -5.56477,0.35815c-4.47933,0.41123 -8.84975,1.32574 -13.31289,1.82274c-13.58062,1.51227 -27.18727,1.96969 -40.88792,2.37165c-17.85323,0.5238 -36.11711,1.41664 -53.80704,3.34704c-8.27082,0.90255 -16.28355,3.24118 -24.57858,4.01826c-0.17082,0.016 -4.59746,0.13076 -8.51046,0.22409c9.48853,6.35518 22.87791,9.92602 34.28204,14.22278c7.48595,2.8205 14.91309,6.0931 22.64056,8.5353c22.74418,7.1881 46.79827,12.64769 70.39039,18.09483c12.07727,2.7885 24.10871,5.86916 36.28305,8.4393c7.71149,-13.44671 14.77893,-27.08081 20.63602,-41.04285c2.11545,-4.98229 2.14691,-9.77847 2.73925,-14.80092c-9.75173,-1.25098 -19.53509,-2.40141 -29.26971,-3.66269zM157.02393,30.07245c-4.48242,-0.51543 -9.06988,-0.40379 -13.55574,-0.90285c-22.39082,-2.49104 -44.71329,-6.99948 -66.86613,-10.46959c-6.47061,-1.01358 -13.15676,-2.48524 -19.71804,-3.09769c-8.80059,-0.82147 -18.08993,-0.55887 -26.95797,-0.83715c-4.54043,-0.14248 -9.1445,0.14616 -13.62129,-0.42744c-0.52513,-0.06728 -0.93607,-1.16238 -1.15995,-0.80753c-0.23942,0.37946 0.90261,0.58931 1.04181,0.99478c0.47754,1.39102 0.08223,2.9223 0.76444,4.26663c0.71033,1.39971 2.22249,2.50314 3.31152,3.76513c4.79708,5.55894 11.50629,9.43753 18.09192,13.8853c2.71838,1.83592 5.43676,3.67184 8.15514,5.50777c1.03499,-0.31476 1.95972,-0.70206 2.36498,-1.4099c0.3571,-0.6237 -0.17297,-1.34697 -0.25945,-2.02045c0,0 0,-2.5 3.40844,-2.5c3.40844,0 3.40844,2.5 3.40844,2.5c-0.08648,1.31129 0.39047,2.71065 -0.25945,3.93387c-0.58117,1.09379 -1.96877,1.88019 -3.21909,2.61304c-0.1246,0.07303 -0.32526,0.13314 -0.55725,0.18373c0.26253,0.17731 0.52508,0.35462 0.78761,0.53193c2.53256,-0.00676 5.12789,-0.55211 7.67789,-0.62047c10.64161,-0.28527 20.39049,-2.99976 30.8568,-4.14837c17.95306,-1.97024 36.49835,-2.87501 54.61832,-3.40664c13.44991,-0.39461 26.80481,-0.83437 40.13718,-2.319c0.23067,-0.02569 1.31132,-0.17283 2.76914,-0.37371c-10.3797,-1.87861 -20.79497,-3.64272 -31.21922,-4.8414zM401.56702,225.98904c-8.82053,-0.0954 -18.06017,0.30841 -27.02399,0.03046c-0.16944,0.32563 -0.34144,0.65019 -0.51624,0.97356c-5.65835,10.46825 -14.66246,20.10407 -19.79092,30.71086c-2.27275,4.70054 -2.81131,9.90366 -5.29735,14.54764c-2.48967,4.65076 -6.76276,8.88642 -9.67403,13.40552c-1.2321,1.91255 -2.35156,3.83688 -3.45708,5.75789c3.07297,0.15195 6.14686,0.29139 9.22269,0.40811c4.72974,-3.99054 9.39251,-8.05406 14.34602,-11.8817c7.77619,-6.00874 16.54486,-11.42334 24.03315,-17.62291c7.43793,-6.15788 13.96984,-13.08547 20.88931,-19.56324c5.83621,-5.46366 11.84765,-10.86988 17.76621,-16.32844c-6.85265,-0.14617 -13.70694,-0.36431 -20.49774,-0.43776zM367.14202,225.60391c-8.3573,-0.71444 -16.52368,-2.97333 -24.82167,-4.00888c-6.65661,-0.83071 -13.43477,-1.33399 -20.12622,-1.99949c-19.83217,-1.97239 -40.00862,-3.31988 -59.69838,-5.93933c-15.50388,-2.06258 -30.94571,-4.61596 -46.34941,-7.26247c-10.91896,8.93332 -21.77201,17.89945 -32.31859,27.117c-5.83928,5.10345 -11.36657,10.67924 -17.6955,15.45525c-3.12409,2.35754 -7.04625,4.11059 -10.06287,6.54226c-5.36937,4.3282 -9.38969,10.36754 -13.82055,15.24243c-0.44242,0.48676 -0.88655,0.97166 -1.33239,1.45487c6.4333,1.77721 12.85858,3.56844 19.29912,5.30885c12.45439,3.39344 26.4169,3.78592 39.48578,5.49515c10.35136,1.35382 20.86565,3.27984 31.31738,4.10078c21.85122,1.71631 44.202,1.93061 66.15777,2.48592c10.5136,0.26591 20.99055,0.88302 31.46965,1.44667c1.43972,-2.50543 2.84675,-5.02572 4.45486,-7.52195c2.8411,-4.41018 7.06377,-8.56045 9.49221,-13.09683c2.46104,-4.59727 2.98214,-9.78123 5.24137,-14.4394c5.08809,-10.49081 13.90037,-20.02804 19.59433,-30.35668c-0.0957,-0.00793 -0.19134,-0.01598 -0.28692,-0.02415zM182.48137,200.60663c-5.19513,-0.86943 -10.38697,-1.75415 -15.57723,-2.64704c-11.03015,15.54035 -22.53078,30.76481 -31.43438,47.06187c-4.13938,5.8201 -9.08523,11.6227 -12.58688,17.66067c-0.77348,1.33374 -1.44818,2.70691 -2.0613,4.10457c4.51666,1.17057 9.01764,2.38074 13.51086,3.60849c2.02189,-2.17863 4.02144,-4.37312 6.02574,-6.57827c3.37255,-3.71052 6.48478,-8.27841 10.56865,-11.59083c1.58203,-1.28319 8.52941,-5.39596 10.31712,-6.74502c6.21246,-4.68812 11.62997,-10.17476 17.3621,-15.18457c9.79469,-8.56041 19.85283,-16.905 29.98288,-25.20745c-8.71203,-1.50919 -17.41311,-3.02737 -26.10757,-4.48244zM45.92874,179.05827c-6.53722,-0.02809 -13.08895,0.02048 -19.62435,-0.0972c-1.40707,-0.02534 -2.92539,-0.5652 -4.21716,-0.15527c-4.57399,1.45152 -8.90795,6.27892 -11.32339,9.17814c-3.53444,4.24236 -6.97186,8.37012 -10.05923,12.7965c-0.71373,1.02328 -1.87065,1.92593 -2.19013,3.0512c-0.29906,1.05333 0.44525,8.48588 0.51132,9.25776c0.26264,3.06871 -0.93076,6.3559 0.618,9.21312c0.70942,1.30877 2.56552,2.09644 3.81378,3.16666c2.55972,2.1946 4.53174,4.80309 7.52766,6.67727c4.80024,3.00291 11.30093,5.29431 16.61264,7.80401c8.05098,2.85371 16.01794,6.00303 24.22461,8.60453c20.34199,6.44836 41.56335,11.34765 62.50094,16.57969c0.70605,-1.5032 1.45855,-2.98208 2.28646,-4.40967c3.52871,-6.08466 8.48487,-11.93134 12.6663,-17.79233c8.70102,-15.98519 19.94026,-30.93548 30.7794,-46.15551c-37.86519,-6.55779 -75.68621,-13.38441 -114.1269,-17.71889zM247.15055,37.31007c-0.54932,-0.66022 -1.95774,0.62395 -3.00185,0.73223c-0.73798,0.07653 -1.48406,0.06875 -2.23153,0.04631c1.71574,0.21491 3.43092,0.43183 5.1451,0.65191c0.28974,-0.50717 0.44993,-0.99579 0.08828,-1.43045zM112.37098,286.59892c-0.98849,1.49347 -2.94317,2.56751 -3.92968,4.06168c-1.5988,2.42155 -2.58578,5.39744 -3.37598,8.33157c0.25925,-0.19564 0.50993,-0.39594 0.74525,-0.60444c5.75665,-5.10058 11.05465,-10.52999 16.56371,-15.77632c2.75178,-2.62055 5.38859,-5.28126 7.96308,-7.97199c-3.79626,-1.03288 -7.5988,-2.05113 -11.41243,-3.04136c-1.86609,5.13139 -3.48226,10.36001 -6.55393,15.00086zM329.05627,302.12466c-1.47291,1.94408 -2.88661,3.90575 -4.28439,5.87348c1.30299,-0.93153 2.66885,-1.87136 4.00325,-2.94006c3.51639,-2.81624 7.03259,-5.62817 10.50902,-8.46879c-2.10603,-0.09603 -4.21142,-0.19988 -6.31649,-0.30827c-1.19278,1.97071 -2.46011,3.92417 -3.91137,5.84363z" fill="#ffe3d5" stroke-width="0.5"/><path d="M727.87002,366.99916c0,2.5 -3.40844,2.5 -3.40844,2.5l-0.81533,-0.41987c-1.65398,0.76579 -3.06892,1.93641 -4.96194,2.29738c-6.19144,1.18059 -14.71777,-0.04857 -21.1301,0.10477c-18.8044,0.44967 -37.80259,2.50788 -56.50856,3.94819c-10.38929,1.3242 -20.88332,3.12191 -31.35948,3.98355c-8.99585,0.73989 -18.20789,0.20546 -27.18742,1.03009c-8.88964,0.81637 -17.73368,2.70595 -26.54696,3.90073c-17.12118,2.32105 -34.32455,4.13459 -51.60914,5.6261c-28.66416,2.47346 -57.48106,5.82188 -86.26413,7.3601c-18.13312,0.96907 -36.58926,0.94816 -54.76254,0.94816c-46.54887,0 -93.09782,0.01816 -139.64667,-0.01427c-13.71071,-0.01692 -27.44628,-1.66865 -41.06771,-2.78651c-18.2685,-1.49923 -36.34795,-3.10656 -54.27661,-6.20398c-13.60258,-2.35003 -26.64774,-6.73991 -40.45349,-8.41099c-6.73004,-0.82272 -13.86636,-1.29249 -20.47976,-2.51434c-6.10871,-1.12861 -12.21321,-3.25543 -18.12854,-4.83764c-8.5539,-2.28796 -17.68621,-4.26749 -25.84181,-7.25919c-0.42053,-0.15426 -10.61353,-4.87489 -10.86089,-4.97589c-5.62107,-2.29515 -10.8395,-3.02573 -15.76154,-6.43771c-2.62083,-1.81677 -3.88438,-4.47158 -6.16491,-6.52048c-1.64754,-1.4802 -4.27737,-2.43746 -5.3502,-4.17875c-0.92262,-1.4975 -0.21664,-3.28324 -0.25945,-4.92625c-0.07691,-2.95183 0.072,-5.9069 0.30625,-8.85427c2.51469,-3.11672 4.29886,-6.55764 7.1425,-9.51834c2.23484,-2.32685 5.98655,-3.66121 8.53042,-5.81056c1.5157,-1.28064 2.38713,-2.93573 3.96989,-4.17196c3.70081,-2.89056 9.74224,-5.74875 13.98712,-8.23069c13.26419,-7.75546 29.04874,-13.54303 45.43089,-18.09851c-0.22388,-3.51883 -0.42345,-7.04145 -0.8768,-10.56654c-2.51919,-19.58849 -9.03447,-38.97637 -10.83309,-58.63179c-0.11606,-1.26831 -0.18771,-2.54381 -0.22775,-3.82387c-3.84536,-0.2252 -7.68852,-0.49274 -11.52923,-0.81056c-6.70606,-0.55493 -14.14956,-0.6065 -20.71493,-1.73141c-0.25592,-0.04385 -12.73058,-3.35462 -13.20546,-3.48044c-6.25302,-1.65668 -13.89638,-2.91466 -19.71526,-5.25522c-0.31829,-0.12803 -10.56293,-5.93464 -11.14683,-6.26491c-6.81246,-3.32902 -13.34268,-6.65482 -19.69326,-10.44179c-1.98978,-1.18654 -4.28964,-2.14757 -5.93528,-3.59011c-1.03284,-0.90536 -1.28407,-2.16539 -1.88117,-3.26164c-2.9859,-5.4819 -3.05216,-9.91827 -2.3132,-15.79391c1.71908,-13.66885 7.02599,-26.6789 14.52168,-39.17411c3.3913,-5.65326 5.95652,-11.98262 11.57276,-16.62679c7.61885,-6.18192 15.23772,-12.36383 22.85657,-18.54575c0.41977,-0.3406 9.25237,-7.51993 9.5065,-7.67295c4.99151,-3.00548 12.05877,-5.11224 17.7099,-7.37647c6.21914,-2.49182 12.41444,-5.66104 19.51501,-6.64824c5.9906,-0.83288 13.14176,0.03977 19.22998,-0.07317c0.79474,-0.01474 1.58933,-0.03258 2.38377,-0.05297c0.01659,-0.05682 0.03324,-0.11362 0.04993,-0.17042c5.66565,-19.28955 14.56147,-37.99183 20.20335,-57.3033c0,0 0.71416,-2.44451 4.04695,-1.92068c3.33278,0.52382 2.61861,2.96833 2.61861,2.96833c-5.53358,18.94078 -14.19674,37.29578 -19.87328,56.19232c7.49742,-0.29015 14.98987,-0.66445 22.50083,-0.66504c27.32527,0.00198 54.53679,0.60522 81.84256,0.99252c9.10189,0.1291 18.31921,-0.39395 27.40501,0.00399c11.3094,0.49533 22.71474,1.99451 33.96608,2.98551c4.75886,0.2905 9.5194,0.59305 14.28184,0.88991c2.35178,-1.82245 4.74536,-3.66593 5.02389,-3.88106c4.69274,-3.62452 9.21162,-7.66852 14.27276,-11.01281c6.71845,-4.43939 14.57523,-8.22823 21.7483,-12.27115c3.27852,-2.07008 6.56333,-4.13484 9.85544,-6.19328l1.97842,-2.14159c0.60918,-0.67986 1.65833,-1.12872 2.85041,-1.12872c1.88243,0 3.40844,1.11929 3.40844,2.5c0,0.05669 -0.00258,0.11294 -0.00763,0.16869l-0.39854,4.96949c1.22262,10.14074 -2.71185,20.99376 -3.96029,31.20696c23.84957,0.23631 47.76478,-0.17754 71.60134,-0.19775c37.50406,-0.69067 74.99321,-0.96445 112.40403,-2.61353c0.48583,-1.48896 1.05105,-2.93784 1.7341,-4.31942c2.2745,-4.60054 6.85156,-9.28488 10.20379,-13.51033c0.34414,-0.43378 6.5326,-8.31317 7.04137,-8.63391c1.98882,-1.25377 4.73638,-1.65283 7.12055,-2.45395c4.08965,-1.37418 8.27246,-2.59791 12.47085,-3.78258c3.98275,-1.12383 7.7391,-2.96376 11.98024,-3.30981c2.51477,-0.20519 5.05128,0.24172 7.56721,0.43909c2.75458,0.21609 5.86085,-0.24154 8.23882,0.80084c2.34271,1.02692 3.13467,3.27793 4.74864,4.89219c5.21075,5.21171 9.5415,10.16157 13.73375,15.87212c1.82624,2.51609 3.02428,4.9188 3.98125,7.39613c11.14941,-1.50816 22.23276,-3.35444 33.43571,-4.59038c8.0632,-0.88955 16.26197,-1.13618 24.34492,-1.98384c0,0 3.37418,-0.35355 3.85621,2.12132c0.48202,2.47487 -2.89215,2.82843 -2.89215,2.82843c-8.08818,0.8468 -16.29604,1.09257 -24.36287,1.9857c-10.97277,1.21487 -21.83177,3.00936 -32.75074,4.49839c0.22313,0.73228 0.44664,1.47941 0.6787,2.24535c1.47056,4.8538 3.70571,9.95918 4.49435,14.89409c1.05103,6.57682 0.29078,13.62678 0.42355,20.25214c0.35557,17.74373 1.31414,35.94906 -4.2426,53.27094c-1.62167,5.00352 -1.29701,9.50609 -2.08943,14.56998c-0.76698,4.90131 -1.98843,10.24154 -3.59035,15.26878c4.09198,0.37514 10.24973,0.94383 10.4736,0.99052c6.31489,1.31704 12.62683,4.20646 18.82656,5.91327c8.25893,2.27371 17.56744,2.90296 25.22349,6.35083c7.22192,3.25237 14.11251,7.41899 20.61758,11.39291c4.53161,2.77491 8.60741,5.90169 12.74971,8.98486c1.79261,1.33427 4.03976,2.41707 5.34211,4.02846c3.28227,4.06114 4.33542,10.7946 5.39823,15.3841c1.16603,5.03519 3.02454,10.14586 2.24334,15.30135c-0.93762,6.18777 -3.69618,12.64616 -7.4454,18.16942c-1.76519,2.60044 -2.94192,5.47559 -5.3529,7.78024c-6.35845,6.07802 -15.39803,10.84612 -23.65172,15.38493c-10.01238,6.12192 -21.13699,10.20716 -32.61586,14.71034c-0.38903,0.15261 -11.4508,4.52102 -11.96557,4.60906c-6.19916,1.0602 -14.88586,0.075 -21.27924,0.075c-0.11981,0 -0.23967,-0.00004 -0.35954,-0.00013c0.27547,0.4527 0.55316,0.9044 0.85786,1.34403l1.18169,-0.12565c0,0 3.0486,1.11803 1.52429,3.3541c-1.52429,2.23607 -4.5729,1.11803 -4.5729,1.11803l-4.23029,-2.11042c-0.80749,-1.2086 -1.3617,-2.52755 -2.42246,-3.6258c-0.00769,-0.00796 -0.01542,-0.01591 -0.02319,-0.02383c-18.82968,-0.33333 -38.07751,-1.92116 -55.89033,-6.00404c-27.16349,-6.23014 -55.29427,-8.81582 -82.82067,-13.84172c-0.0218,-0.00398 -0.0436,-0.00796 -0.06541,-0.01195c-2.2675,3.51211 -4.64862,6.99043 -7.10738,10.50125c-0.24001,0.3427 -6.28801,8.99132 -6.44192,9.15751c-3.78166,4.0834 -9.28461,7.81129 -13.7212,11.53016c-7.78962,6.52946 -14.55592,13.17108 -27.20187,14.48449c-7.636,0.79308 -14.2885,-1.56847 -21.33266,-3.24184c-0.81241,-0.19299 -13.21404,-3.12214 -13.61361,-3.28992c-2.17449,-0.91305 -3.77738,-2.41529 -5.66606,-3.62293c-1.8453,-1.22321 -3.97988,-2.24639 -5.53589,-3.66962c-3.61703,-3.30842 -5.82175,-8.43601 -8.47883,-12.21566c-6.19275,-8.80909 -12.58192,-18.65933 -15.37372,-28.44694c-0.90146,-3.16039 -1.13084,-6.61399 -1.31184,-10.00017c-6.54192,-0.4264 -13.08686,-0.76718 -19.62108,-0.95638c-13.01869,-0.37697 -26.17358,0.00199 -39.20463,0.00199c-22.04806,0 -44.21003,-0.47933 -66.24781,-0.00109c-2.91517,0.06326 -5.83167,0.14484 -8.74882,0.2435c-12.52098,14.35514 -25.77335,28.44668 -40.1089,41.79963c-10.7747,10.0329 -22.79282,20.1669 -37.91881,26.80525c-5.90926,2.5934 -13.33923,4.88001 -17.70975,-0.78914c-0.8053,-1.04458 -0.33074,-2.39739 -0.74453,-3.55839c-0.5913,-1.65903 -1.87816,-3.17826 -2.25947,-4.87008c-0.0251,-0.11137 -0.08933,-10.03486 -0.09192,-10.40163c-0.0658,-9.3359 -0.99995,-18.32686 -2.93466,-27.55074c-0.53529,-2.56246 -0.86937,-5.12784 -1.1107,-7.69561c-10.53817,3.15607 -20.81459,6.78408 -30.79215,10.95567c-5.9252,2.47731 -10.81417,5.38377 -16.13804,8.50129c-2.63812,1.54481 -5.63398,2.80434 -7.93253,4.61771c-1.5201,1.19924 -2.34057,2.80715 -3.80859,4.0408c-2.44565,2.05522 -6.11478,3.28429 -8.22277,5.53175c-2.34843,2.50379 -3.84228,5.39354 -6.06537,7.95815c-0.01625,2.4701 0.0648,4.94095 -0.01582,7.41037c-0.03284,1.00599 -0.87366,2.11303 -0.25945,3.01283c0.8696,1.27395 3.0311,1.80755 4.29032,2.89232c2.23411,1.92459 3.34698,4.5129 5.84247,6.25617c4.16607,2.91027 9.183,3.51407 14.00433,5.47092c3.71067,1.50607 6.99291,3.55821 10.78701,4.94797c7.91172,2.89802 16.79678,4.80167 25.09273,7.02064c5.7146,1.52852 11.62564,3.61457 17.52853,4.69979c6.41398,1.17918 13.34035,1.62002 19.86499,2.41763c13.99145,1.72565 27.1815,6.11432 40.97123,8.48953c17.64275,3.03887 35.4216,4.6133 53.39617,6.08842c13.36334,1.09668 26.86547,2.75378 40.31619,2.75551c46.54669,0.03243 93.09348,0.01426 139.6402,0.01426c18.00848,0 36.29882,0.02532 54.26717,-0.93494c28.68178,-1.53281 57.39948,-4.8743 85.96301,-7.33907c17.14,-1.47903 34.1987,-3.27644 51.17668,-5.57842c8.94197,-1.21241 17.90864,-3.11554 26.92902,-3.94392c9.01185,-0.8276 18.24954,-0.29538 27.27466,-1.03768c10.41576,-0.85667 20.84819,-2.65678 31.17971,-3.96698c18.91767,-1.46443 38.12447,-3.52674 57.14295,-3.99089c7.25311,-0.17701 16.60758,1.61592 22.61575,-1.5674l4.59665,-0.41987c0,0 3.40844,0 3.40844,2.5zM101.01807,276.13003c20.7842,-2.0871 41.81518,-3.73653 62.82341,-4.5406c2.32386,-2.68482 4.62269,-5.37804 6.89884,-8.07649c9.51783,-11.28362 19.47044,-22.24292 26.93687,-34.33754c4.21452,-6.82695 8.04567,-13.752 11.7769,-20.7133c-32.31093,3.36923 -65.13535,4.2401 -97.69118,4.2401c-17.51929,0 -35.02076,-0.0323 -52.48033,-0.83941c0.04111,1.04929 0.10559,2.09506 0.20091,3.13577c1.79491,19.59979 8.2963,38.93573 10.81481,58.46973c0.39864,3.09192 0.59419,6.18385 0.78371,9.27318c9.99744,-2.56461 20.11845,-4.71395 29.93605,-6.61145zM176.24249,271.21599c22.10516,-0.4797 44.33401,-0.00109 66.44941,-0.00109c13.12203,0 26.36691,-0.37779 39.47665,0.00199c6.3378,0.1836 12.68551,0.50743 19.03089,0.91326c-0.00195,-0.02154 -0.0039,-0.04307 -0.00588,-0.06458c-1.21359,-13.24798 -1.03306,-26.50496 -2.06639,-39.76854c-1.00917,-12.95352 -1.67319,-25.9541 -2.10825,-38.96908c-0.61979,0.1453 -1.23864,0.28569 -1.85648,0.41923c-14.51295,3.1367 -29.23172,6.20208 -43.99813,8.6094c-8.89036,1.44833 -17.79657,3.191 -26.76256,4.35751c-2.38558,0.31038 -4.77466,0.60559 -7.16692,0.88632c-4.23051,7.94544 -8.54291,15.85429 -13.34769,23.6374c-7.58996,12.29473 -17.67586,23.43718 -27.34973,34.9058c-1.45655,1.72677 -2.92233,3.45139 -4.39795,5.17306c1.36796,-0.03742 2.73567,-0.07102 4.10305,-0.10069zM333.98242,274.66579c15.08127,1.23359 31.67066,2.32755 46.08427,5.82738c14.36791,3.51283 28.78496,6.8032 43.43118,9.61583c1.68013,-2.7316 3.28329,-5.49877 4.79228,-8.33422c4.69062,-8.81389 10.40156,-17.64527 14.20719,-26.68206c9.33547,-22.16779 13.59972,-45.44023 19.28115,-68.21518c-25.16439,-0.60921 -50.33898,-0.96975 -75.51353,-0.96975c-11.20731,-0.0017 -22.39589,0.65748 -33.58349,1.1267c-13.34769,0.55981 -27.00643,0.82947 -40.15415,2.78501c-2.92711,0.43537 -5.84416,1.10999 -8.74538,1.83026c0.43212,13.48033 1.10583,26.94652 2.151,40.36203c1.03203,13.24689 0.85045,26.48793 2.06215,39.71863c0.02631,0.28734 0.05017,0.5769 0.07207,0.86837c8.6614,0.62471 17.31021,1.36316 25.91525,2.06701zM512.22197,305.06422c15.68665,3.59555 32.53254,5.1712 49.17266,5.66441c0.09537,-0.90212 0.39051,-1.83831 0.09639,-2.69824c-0.45223,-1.32225 -1.83851,-2.37665 -2.56244,-3.63221c-1.35783,-2.355 -1.80095,-4.94445 -2.92917,-7.36378c-0.78702,-1.68768 -2.19908,-3.2319 -2.65605,-4.9838c-0.08022,-0.30753 -0.0615,-9.81405 -0.0615,-10.39663c0,-8.25719 0,-16.51438 0,-24.77157c0.00708,-18.95493 2.03349,-38.98583 9.26402,-57.29441c1.14718,-2.90481 3.12922,-5.60705 4.4141,-8.47795c-13.80472,-1.11277 -27.74542,-1.52894 -41.59344,-2.22962c-18.89105,-0.71301 -37.79274,-1.33884 -56.70074,-1.83002c-5.82813,23.21459 -10.13357,46.95753 -19.67357,69.56077c-3.85742,9.13943 -9.60744,18.06672 -14.35187,26.98171c-1.40351,2.63726 -2.88677,5.21786 -4.43652,7.76622c27.27605,4.91528 55.1114,7.54164 82.01809,13.7051zM574.12353,310.91033c4.54458,0 9.08931,-0.02662 13.63375,0c1.99631,0.01169 4.04173,0.40018 5.98826,0.075c3.85399,-0.64384 6.92229,-2.80069 10.40776,-4.16804c11.12991,-4.36629 21.89988,-8.29469 31.60243,-14.22321c7.75463,-4.26732 16.32475,-8.70365 22.35007,-14.38664c2.20784,-2.0824 3.17165,-4.73541 4.78583,-7.09275c3.43902,-5.02231 5.86574,-10.87264 6.76976,-16.50074c0.74064,-4.61101 -1.15451,-9.39706 -2.1916,-13.89875c-0.73375,-3.18504 -1.761,-6.33624 -2.96474,-9.44343c-0.54426,-1.40488 -0.56096,-2.96985 -1.57635,-4.22619c-1.01539,-1.25634 -2.87878,-2.0185 -4.29841,-3.04261c-4.06636,-2.93344 -7.90541,-6.00246 -12.29351,-8.67929c-6.20202,-3.79298 -12.7574,-7.7579 -19.62202,-10.8871c-7.24692,-3.30349 -16.39034,-3.85654 -24.24857,-6.0161c-6.0252,-1.65582 -12.16507,-4.50659 -18.29743,-5.78556c-3.33439,-0.69542 -6.83904,-0.7698 -10.31018,-0.96923c-1.25047,3.18601 -3.50717,6.12858 -4.76497,9.31347c-7.0491,17.84913 -9.00198,37.42637 -8.99485,55.90325c0,8.25719 0,16.51438 0,24.77157c0,3.1504 -0.88662,6.35937 -0.0615,9.45109c0.4059,1.52091 1.71478,2.83682 2.40741,4.30097c1.11186,2.35036 1.5262,4.87244 2.83133,7.16872c0.83714,1.47288 2.32361,2.75846 2.84955,4.30687c0.39433,1.16096 -0.80566,2.48589 -0.16827,3.58722c0.08503,0.14692 0.19413,0.2808 0.32173,0.40473c1.95441,0.02501 3.90334,0.03675 5.84452,0.03675zM295.35781,70.75365c1.08317,0.02001 2.16654,0.03836 3.25005,0.05517c0.4445,-3.88124 0.97135,-7.76303 1.59579,-11.64644c0.52839,-3.28613 1.18982,-6.56218 1.58664,-9.85826c0.35662,-2.96211 0.0039,-5.55501 0.69847,-8.01452c-2.15903,1.36955 -4.32044,2.73708 -6.48444,4.10239c-7.07822,3.99261 -14.85641,7.72568 -21.48772,12.10749c-4.92984,3.25752 -9.3218,7.21088 -13.89238,10.74105c-0.42665,0.32953 -0.8678,0.65064 -1.31737,0.96685c12.00283,0.71411 24.01862,1.32403 36.05096,1.54626zM519.73857,66.41058c15.7595,-1.0642 31.59763,-1.92726 47.27147,-3.56919c1.51348,-0.15855 3.02463,-0.32904 4.5339,-0.50916c-0.78822,-1.96347 -1.78796,-3.88726 -3.27293,-5.88372c-4.07322,-5.5484 -8.56577,-10.17409 -13.3057,-15.36423c-1.01357,-1.10985 -1.13677,-2.79194 -2.6917,-3.48743c-1.51996,-0.67985 -3.56283,-0.01519 -5.33894,-0.10452c-2.00997,-0.10108 -4.00643,-0.61738 -6.01055,-0.46627c-3.73202,0.28139 -6.97088,2.03664 -10.4726,3.02425c-4.0904,1.15364 -8.12108,2.41913 -12.14936,3.68491c-1.76808,0.55557 -3.86834,0.69735 -5.33812,1.60744c-2.95949,1.83251 -3.75242,4.97092 -5.70052,7.42619c-3.14615,3.96522 -7.5509,8.37916 -9.68713,12.70003c-0.36648,0.74125 -0.6967,1.50375 -0.99734,2.28268c7.72353,-0.37822 15.44356,-0.81996 23.15953,-1.341zM568.0185,67.78637c-15.80088,1.65815 -31.76724,2.53029 -47.65497,3.60315c-8.44556,0.57031 -16.89597,1.04618 -25.35047,1.44808c-0.99438,3.99526 -1.62546,8.13721 -2.64627,11.88093c-3.4481,12.64176 -8.70066,25.00012 -12.15332,37.62316c-1.63548,5.97936 -1.62164,12.20153 -3.15796,18.19659c-1.24273,4.8494 -3.95444,9.57755 -4.93791,14.45556c-1.80661,8.96078 -0.67768,18.0926 -2.29956,27.08308c18.66047,0.48896 37.3147,1.10816 55.95834,1.81255c14.31083,0.72371 28.71629,1.15312 42.97545,2.33678c1.62698,-4.99148 2.86035,-10.33889 3.62575,-15.23012c0.81985,-5.23923 0.57503,-9.9492 2.22617,-15.14504c5.93349,-18.49624 4.34131,-38.12038 3.96195,-57.05172c-0.09621,-4.80107 0.48398,-9.97758 -0.27775,-14.74408c-0.76173,-4.76649 -2.95826,-9.70427 -4.37837,-14.39153c-0.25563,-0.84375 -0.49492,-1.66243 -0.73298,-2.46225c-1.71679,0.20805 -3.43592,0.40414 -5.15807,0.58486zM377.11922,75.69688c-24.02544,0.02162 -48.13037,0.43863 -72.16831,0.19376c-1.57684,18.43047 -1.92101,36.69146 -1.92101,55.1872c-0.00046,18.40736 0.08724,36.89093 0.59668,55.35683c2.47015,-0.59013 4.95127,-1.12616 7.44291,-1.4995c13.49834,-2.02255 27.51576,-2.31765 41.22286,-2.89253c11.31819,-0.47469 22.63445,-1.13318 33.97265,-1.13485c25.57543,0 51.15135,0.37058 76.71658,0.99591c1.82864,-9.15838 0.54873,-18.49519 2.39227,-27.64034c0.99791,-4.95027 3.72178,-9.73067 4.9821,-14.64872c1.5364,-5.99541 1.52871,-12.21409 3.15796,-18.19659c3.44341,-12.64402 8.7172,-25.0196 12.16838,-37.68011c0.91454,-3.35393 1.54539,-6.99657 2.37488,-10.586c-36.92456,1.58436 -73.9238,1.86522 -110.93792,2.54493zM295.18622,75.75206c-14.1161,-0.26072 -28.20981,-1.04784 -42.28647,-1.91625c-0.44976,0.4059 -0.87144,0.82798 -1.25561,1.27171c-0.68407,0.79015 -3.97268,8.22329 -4.26191,8.85987c-1.29517,2.85061 -3.18223,5.58685 -3.92809,8.54136c-1.043,4.13151 0.04766,9.29733 0.04401,13.49458c-0.00725,8.32714 -0.07666,16.64416 -0.32467,24.9694c-2.59668,16.26761 -4.51494,33.46477 -11.17584,49.17419c-2.66679,6.28948 -6.78559,12.41912 -10.04683,18.56147c-0.61554,1.15933 -1.22957,2.31859 -1.84336,3.4775c1.03521,-0.1288 2.06978,-0.26042 3.10368,-0.39494c8.8695,-1.15396 17.6803,-2.88266 26.47511,-4.31542c14.62302,-2.38048 29.1997,-5.42234 43.5703,-8.52895c1.19722,-0.25881 2.39724,-0.54145 3.60001,-0.83507c-0.54941,-19.02379 -0.64305,-38.069 -0.64351,-57.03366c0,-18.49868 0.0824,-36.88637 1.86725,-55.27616c-0.96482,-0.01529 -1.9295,-0.0318 -2.89405,-0.04962zM235.6861,72.763c-11.15666,-0.9813 -22.47,-2.4777 -33.68363,-2.9688c-8.9923,-0.39382 -18.12111,0.13177 -27.12999,0.00399c-27.26231,-0.38668 -54.42964,-0.98961 -81.71144,-0.99159c-7.98495,-0.00183 -15.95004,0.4268 -23.92215,0.72238c-2.07125,7.93051 -3.5107,16.00223 -5.47681,23.93375c-3.23787,13.06188 -3.0744,26.19406 -3.62051,39.4533c-0.85707,20.80916 -0.6506,41.62071 -0.6506,62.43846c0,3.79596 -0.20524,7.65329 -0.2573,11.4969c17.47522,0.82361 34.99386,0.85082 52.52923,0.85082c33.51686,0 67.32422,-0.92203 100.54588,-4.60003c1.09655,-2.06816 2.1907,-4.13811 3.28984,-6.20824c3.20318,-6.03289 7.27065,-12.05502 9.88966,-18.23186c6.50369,-15.33864 8.32445,-32.15406 10.88463,-48.03506c0.23175,-8.21095 0.3012,-16.41424 0.30835,-24.62695c0.0039,-4.48076 -1.04752,-9.8769 0.04401,-14.29223c0.0703,-0.28433 3.83142,-8.53304 4.18988,-9.32159c0.66824,-1.47006 2.93107,-6.66354 4.33931,-9.02755c-3.19027,-0.20026 -6.37971,-0.40056 -9.56838,-0.59571zM61.40392,69.75677c-5.77313,0.10709 -12.61891,-0.75851 -18.30034,0.009c-6.1989,0.83742 -11.93349,3.93217 -17.349,6.10199c-5.24441,2.10127 -12.01283,4.0502 -16.64866,6.85073c-3.37891,2.04122 -5.84333,4.78184 -8.77877,7.16365c-7.61885,6.18192 -15.23772,12.36383 -22.85657,18.54575c-5.11368,4.04799 -7.37482,10.26106 -10.39013,15.28754c-6.43029,10.71921 -10.51183,21.25973 -12.95761,32.83056c-0.88992,4.21015 -2.48412,9.8651 -1.46966,14.1246c0.35152,1.47594 1.57655,2.76479 2.31856,4.16073c0.37271,0.70119 0.34727,1.56375 1.02469,2.12901c1.30778,1.09123 3.15309,1.75943 4.71088,2.65684c6.34695,3.65631 12.68419,6.99336 19.40838,10.28343c3.49239,1.97293 6.58595,4.38887 10.45107,5.94357c5.51064,2.21657 12.83511,3.36867 18.75333,4.93664c4.1494,1.09934 8.14412,2.57803 12.44027,3.31414c6.30685,1.08062 13.48831,1.09892 19.92848,1.63185c3.57826,0.2961 7.15871,0.54785 10.74113,0.76188c0.05954,-3.72367 0.24414,-7.45647 0.24414,-11.13418c0,-20.86812 -0.20545,-41.72991 0.65371,-62.58944c0.55656,-13.51279 0.42683,-26.88202 3.72736,-40.19674c1.87498,-7.56389 3.27701,-15.25279 5.19401,-22.82838c-0.28173,0.00599 -0.56348,0.01162 -0.84525,0.01684zM377.91102,285.23659c-13.90595,-3.42587 -30.1136,-4.41132 -44.68364,-5.60156c-8.26354,-0.67505 -16.56786,-1.38447 -24.88474,-1.99248c0.1541,2.89574 0.39258,5.81525 1.15924,8.50301c0.90208,3.16254 2.87376,6.1086 4.29844,9.16597c2.20079,4.72291 4.21167,9.13017 7.33764,13.56941c4.61434,6.55288 7.99499,14.01839 15.60882,18.88369c1.50797,1.0069 2.75415,2.2776 4.52392,3.02071c3.74173,1.57111 8.22557,1.89807 12.32727,2.87245c5.78297,1.37377 11.96907,3.76048 18.2408,3.05175c10.81642,-1.2223 16.36846,-7.21815 23.06312,-12.83018c4.25265,-3.56493 9.58629,-7.13164 13.21247,-11.04714c2.47582,-2.67336 4.00395,-5.75791 6.01721,-8.63262c2.22203,-3.1728 4.37942,-6.31637 6.44444,-9.48338c-14.38017,-2.78709 -28.54753,-6.02803 -42.66498,-9.47962zM102.35135,281.03346c-10.50465,2.046 -20.81309,4.44092 -30.89378,7.24559c0.24211,2.95553 0.5868,5.90725 1.20728,8.85289c2.33614,11.13777 3.05193,22.02516 3.04911,33.28982c-0.00038,1.53122 -0.39032,3.08436 -0.03767,4.59358c0.37277,1.59532 1.64634,3.01423 2.18222,4.58436c0.12494,0.36609 -0.47027,2.89421 1.17629,3.25727c3.71424,0.81898 9.9188,-3.60899 12.31175,-4.90731c11.95867,-6.48824 21.6811,-14.21099 30.8841,-22.78605c13.19024,-12.28615 25.45256,-25.20444 37.06991,-38.37634c-19.0495,0.85084 -38.09769,2.38 -56.94921,4.24618z" fill="#ffe0d0" stroke-width="0.5"/><path d="M188.15203,-139.34178c0,-1.38071 1.11929,-2.5 2.5,-2.5c1.38071,0 2.5,1.11929 2.5,2.5c0,1.38071 -1.11929,2.5 -2.5,2.5c-1.38071,0 -2.5,-1.11929 -2.5,-2.5z" fill="#ffe0d0" stroke-width="0.5"/><path d="M598.54374,290.79279c2.29787,0.9848 1.31307,3.28266 1.31307,3.28266l-0.56531,1.31906c-1.26495,2.95155 -2.91914,5.76164 -3.81965,8.84398c-0.76933,2.63333 -0.20765,5.52362 -0.88204,8.18285l-0.54882,4.93944c-0.12362,1.2652 -1.19038,2.25391 -2.48805,2.25391c-0.93796,0 -1.75527,-0.51654 -2.183,-1.28068l-1.19188,-2.04198c-1.38316,-0.90141 -3.02541,-1.51087 -4.10088,-2.75903c-0.25577,-0.29684 -4.47513,-8.90964 -4.78272,-9.56505c-5.49127,-11.70047 -7.74467,-24.05171 -10.5352,-36.60913c-0.08257,-0.37155 -2.18655,-9.81774 -2.21391,-10.03141c-0.37194,-2.90506 -0.01493,-5.85753 -0.01493,-8.7863c0,-8.01802 0,-16.03603 0,-24.05405c0,-19.84484 0,-39.68969 0,-59.53454c0,-11.05405 0.07603,-22.65873 -1.46896,-33.622c-1.05645,-7.49657 -4.20535,-14.98587 -5.97295,-22.35562c-1.81777,-7.57893 -2.83971,-15.34766 -4.61518,-22.93669c-1.50988,-6.45382 -3.43242,-12.84257 -5.14336,-19.24648c-1.2797,-4.78984 -2.90557,-9.61448 -3.91839,-14.4657c-0.23981,-1.14861 0.39878,-2.65549 -0.42116,-3.49484c-0.59253,-0.60656 -1.64553,0.45585 -2.49153,0.51324c-1.73751,0.11785 -6.07138,-0.56556 -7.8665,0.89013c-0.77094,0.62517 -0.6052,1.93711 -1.22013,2.71624c-0.63661,0.80658 -1.60848,1.27933 -2.42539,1.90263c-3.76715,2.87439 -7.77593,5.64956 -11.29701,8.82925c-3.14255,2.83786 -5.85606,6.44389 -8.70473,9.57291c-6.6625,7.31817 -13.43842,14.52089 -20.28582,21.6666c-2.16865,4.4014 -4.16363,9.02792 -6.61687,13.27624c-3.79536,6.57247 -9.14742,12.47217 -13.47356,18.71245c-4.73637,6.832 -9.22877,13.84763 -13.84194,20.76366c-7.05975,10.58394 -12.69764,22.15086 -19.43858,32.97142c-2.37977,4.28517 -5.04027,8.52908 -7.18899,12.93367c-2.84328,5.82837 -4.76215,12.11363 -7.49662,17.99523c-6.43962,13.85107 -14.11903,28.24014 -22.72127,40.887c-3.64562,5.35974 -8.04509,10.34898 -12.02587,15.46608c-7.17906,9.21441 -14.37734,18.98606 -22.90537,27.02715c-3.10733,2.9299 -7.24263,4.88 -10.56783,7.55717c-4.63522,3.73187 -8.27767,8.7205 -12.79863,12.59569c-4.09956,3.51398 -8.31476,6.23861 -13.25908,8.34103c-1.38881,0.59055 -2.89763,0.94455 -4.17895,1.7419c-2.54112,1.5813 -3.70615,5.05209 -6.45087,6.24554c-1.67264,0.7273 -3.64564,0.12686 -5.46846,0.19029c-6.69916,-0.0389 -14.55687,1.11108 -20.401,-2.91377c-7.78388,-5.36075 -6.11579,-13.4223 -6.11577,-21.61325c0.00002,-6.27723 -0.61073,-13.05682 0.12749,-19.28199c1.56545,-13.20085 7.25354,-26.00248 10.25986,-38.91596c1.4746,-6.33408 3.6287,-12.79685 4.65008,-19.20815c0.17633,-1.10688 -0.17253,-2.27479 0.10435,-3.3609c1.64567,-6.45558 5.48811,-12.53113 7.71931,-18.81073c1.67764,-4.72164 2.54214,-9.76171 4.33729,-14.44002c3.48998,-9.09515 9.0845,-17.39292 12.84759,-26.38018c1.89875,-4.53471 3.30879,-9.37425 4.94723,-14.01022c6.6707,-18.87465 14.22487,-37.44348 21.47035,-56.10471c2.91372,-7.50449 6.85305,-15.2708 8.86556,-23.0612c1.59156,-6.16092 1.84611,-13.04568 2.75525,-19.35091c-0.00973,-5.15785 -0.65802,-10.73508 -0.00629,-15.8438c0.1398,-1.09583 0.77704,-2.12843 0.73224,-3.23223c-0.01473,-0.3629 -0.50709,0.54384 -0.83501,0.69999c-0.74901,0.35668 -1.5641,0.55385 -2.35082,0.8171c-1.47445,0.49338 -3.03651,0.76803 -4.43245,1.45271c-5.40571,2.65142 -10.97606,7.06818 -14.75326,11.65252c-7.28334,8.83969 -17.05809,15.0211 -25.20805,22.98391c-2.34579,2.29192 -4.38223,4.88043 -6.57529,7.31889c-10.67,11.86404 -21.77211,23.50332 -32.79567,35.0495c-2.25139,2.35812 -4.84747,4.39431 -6.92651,6.90569c-2.76932,3.34521 -4.86002,7.72386 -7.17721,11.39274c-5.2772,8.35558 -10.55508,16.71026 -15.79436,25.08969c-4.40265,7.04133 -9.07545,13.95104 -13.31303,21.09179c-5.11436,8.61821 -9.353,17.78495 -14.62165,26.30909c-1.30655,2.11386 -3.14361,3.86423 -4.4764,5.96165c-2.41649,3.80286 -4.03926,8.28159 -6.14413,12.26524c-3.86422,7.31336 -7.90846,13.96313 -13.06701,20.41131c-9.04718,11.30897 -18.1925,23.22743 -29.4146,32.53525c-3.33211,2.76372 -7.78388,4.79297 -11.46778,7.05175c-12.94708,7.93849 -27.21473,13.21065 -41.18278,19.13912c-7.89955,2.44016 -16.17485,6.00186 -24.30376,7.47493c-11.81442,2.14094 -23.89654,0.76606 -35.61308,-0.91538c-3.075,-0.4413 -10.32654,-0.02188 -13.01053,-0.85225c-1.2933,-0.40012 -2.11129,-1.69852 -3.10508,-2.61783c-1.47057,-1.36036 -3.47646,-2.38239 -4.28269,-4.21628c-0.80624,-1.83389 -0.16168,-4.00347 -0.2114,-6.00614c-0.11013,-4.43543 -0.02577,-7.79394 1.57313,-11.95355c1.20801,-3.04751 2.62536,-6.01977 3.6291,-9.14052c0.70011,-2.17673 1.75868,-7.80722 2.48241,-9.86021c0.87519,-2.48266 2.56167,-4.59959 3.85223,-6.89392c3.21704,-5.71918 6.80973,-11.36609 9.71235,-17.24935c2.56856,-5.20616 3.66029,-11.18321 5.99925,-16.50168c4.46749,-10.15844 10.97884,-19.71308 16.84095,-29.09892c2.51439,-4.14925 5.50205,-8.29321 7.66587,-12.63367c0.63079,-1.26531 3.1975,-8.43798 3.79913,-9.44915c1.47537,-2.4797 4.84184,-5.32279 6.4463,-7.7798c1.79527,-2.74921 2.81333,-5.93811 4.39386,-8.81615c2.81197,-5.12043 6.79568,-9.61347 9.53887,-14.76825c1.5631,-2.93725 2.40895,-6.21641 3.93068,-9.17531c2.15529,-4.19081 5.29791,-7.86953 7.51528,-12.02675c2.28934,-4.29218 4.01561,-9.04964 5.99544,-13.4934c3.70001,-6.1834 6.65542,-12.24582 9.34419,-18.9499c0.17086,-0.42602 3.51133,-9.31172 3.63419,-9.55349c0.34123,-0.67146 5.05247,-7.66568 5.52886,-8.49122c3.32851,-5.76794 5.68098,-12.10306 9.03787,-17.8551c1.63551,-2.80245 4.0175,-5.15893 5.42476,-8.08267c1.20065,-2.49446 1.36042,-5.36705 2.05742,-8.04625c1.66969,-6.41814 2.87085,-12.552 3.73528,-19.12646c0.24232,-1.02343 0.94627,-2.04168 0.72698,-3.07029c-0.09921,-0.46538 -0.75771,0.64467 -1.22544,0.73222c-0.91879,0.17197 -1.86943,0.01606 -2.80416,0.02201c-6.67738,0.04246 -12.78043,1.89157 -19.34221,2.95104c-4.57194,0.73819 -9.24436,0.84784 -13.81981,1.56276c-8.10327,1.26616 -15.6041,3.6592 -23.43634,5.884c-4.38357,1.24518 -9.03364,1.63096 -13.38815,2.96472c-3.97477,1.21745 -7.9424,3.62501 -11.72288,5.34341c-17.32122,7.87148 -35.11905,16.27772 -50.65854,27.33761c-7.35513,5.23485 -13.27368,12.63535 -21.37733,16.7336c0,0 -2.23607,1.11804 -3.3541,-1.11803c-1.11803,-2.23607 1.11803,-3.3541 1.11803,-3.3541c7.82123,-3.85766 13.59286,-11.25672 20.66471,-16.29944c15.80721,-11.27163 33.90861,-19.8362 51.53822,-27.85146c3.94724,-1.79419 8.05869,-4.24922 12.20649,-5.53357c4.43718,-1.37395 9.1717,-1.77046 13.63887,-3.0413c8.01152,-2.27914 15.71159,-4.71054 23.99911,-6.00548c6.21776,-0.97154 12.43607,-1.28684 18.61838,-2.52476c6.01038,-1.2035 11.90944,-2.64904 18.10011,-2.07096c1.60512,0.14988 3.83963,-0.5768 4.78057,0.73222c1.35563,1.88591 0.48466,4.61981 0.72698,6.92972c-0.89148,6.89232 -2.13626,13.33618 -3.88584,20.06143c-0.76665,2.94691 -1.02608,6.08189 -2.33348,8.83193c-0.38432,0.80839 -5.08845,7.56315 -5.66924,8.55834c-3.35223,5.74406 -5.70098,12.07276 -9.02561,17.83398c-1.64398,2.84883 -3.91194,5.32511 -5.40207,8.25735c-1.47672,2.90585 -2.23761,6.12417 -3.45095,9.14948c-2.74516,6.84471 -5.7524,13.08656 -9.54833,19.39459c-1.97928,4.46495 -3.71914,9.22514 -6.01658,13.53363c-2.21127,4.1469 -5.35376,7.8185 -7.49974,11.99726c-1.32187,2.574 -2.60468,6.68386 -3.94771,9.20759c-2.76753,5.20051 -6.78066,9.7305 -9.60977,14.8969c-0.34614,0.63209 -4.28167,8.66085 -4.55042,9.07239c-1.80368,2.76209 -4.64902,4.7676 -6.33579,7.6026c-1.673,2.81185 -2.16152,6.1951 -3.62131,9.12332c-2.22972,4.47266 -5.29083,8.74707 -7.88208,13.02294c-5.74639,9.20103 -12.17169,18.57434 -16.54238,28.53619c-2.34138,5.33657 -3.44949,11.29841 -6.01277,16.53135c-2.94483,6.01191 -6.6155,11.77794 -9.89809,17.61367c-1.18164,2.10069 -2.78066,4.01185 -3.56435,6.2911c-1.06565,3.09929 -1.36482,6.42268 -2.36831,9.54265c-0.03352,0.10424 -3.66185,9.25288 -3.74081,9.45206c-1.46476,3.5559 -1.0989,6.34753 -1.22127,10.11107c-0.04333,1.33245 -0.74793,2.77344 -0.2114,3.99386c0.53654,1.22042 2.09754,1.64952 3.08579,2.54431c0.55611,0.50351 0.81266,1.45285 1.53845,1.64261c1.32117,0.34541 2.728,-0.13724 4.09316,-0.17027c2.61426,-0.06324 5.22184,0.36401 7.81081,0.73224c11.1984,1.59271 22.71664,2.99258 34.01442,0.94526c7.84767,-1.42211 15.84534,-4.90431 23.47851,-7.25108c13.65388,-5.81655 27.62446,-10.94222 40.28602,-18.70564c3.50489,-2.14902 7.82709,-4.07525 10.98539,-6.7154c10.90046,-9.11217 19.78832,-20.71014 28.60623,-31.73253c4.96434,-6.20543 8.82955,-12.58143 12.55052,-19.6237c2.16061,-4.08913 3.8372,-8.65422 6.3136,-12.56109c1.3491,-2.1284 3.21215,-3.90408 4.53261,-6.05037c5.21643,-8.47878 9.4359,-17.57831 14.51693,-26.14035c4.25738,-7.17412 8.95022,-14.11667 13.37339,-21.19087c5.24328,-8.38583 10.52519,-16.74692 15.80643,-25.10888c2.41936,-3.83066 4.61439,-8.34556 7.49911,-11.84476c0.23183,-0.28122 6.83158,-6.8342 7.21562,-7.23645c10.98961,-11.51062 22.05724,-23.11267 32.69445,-34.94026c0.13981,-0.15546 6.72234,-7.47713 6.79872,-7.55175c6.85285,-6.69548 15.11364,-12.01569 21.79731,-18.88948c1.03814,-1.06767 5.53162,-6.94466 6.47602,-7.80893c0.15024,-0.13749 8.18955,-5.66274 8.52405,-5.88874c3.45312,-2.33304 8.24845,-5.51478 12.64098,-5.67824c1.73818,-0.06468 4.09233,-0.66455 5.171,0.69998c1.40715,1.78008 0.55365,4.50572 0.73223,6.76777c0.4207,5.32903 0.00283,10.84985 -0.00628,16.19825c-0.93455,6.59907 -1.23553,13.79772 -2.9016,20.24707c-2.06284,7.98526 -6.05979,15.93009 -9.04562,23.62031c-7.22698,18.61359 -14.76344,37.13467 -21.41711,55.96112c-1.67003,4.72534 -3.11417,9.65327 -5.04944,14.27523c-3.74671,8.94813 -9.33358,17.2136 -12.80234,26.26834c-1.77289,4.62789 -2.62331,9.62325 -4.28314,14.29477c-2.14773,6.04467 -5.97064,11.95952 -7.53768,18.16526c-0.24489,0.96979 0.11666,2.01287 -0.04224,3.00039c-1.05757,6.57237 -3.22391,13.18095 -4.73547,19.6738c-2.96075,12.71774 -8.62326,25.37504 -10.16442,38.37106c-0.71465,6.02638 -0.09272,12.61546 -0.0927,18.69318c0.00002,6.24574 -1.95893,13.39099 3.9583,17.49985c4.72828,3.28328 12.14454,1.99574 17.57298,2.02718c1.18018,0.06343 2.46174,0.67301 3.54055,0.19029c2.4375,-1.09067 3.30502,-4.33788 5.56114,-5.76647c1.54131,-0.97597 3.33766,-1.47407 5.0125,-2.19729c10.41285,-4.49642 16.24601,-13.24564 24.8109,-20.16913c3.26506,-2.63933 7.41166,-4.56699 10.45319,-7.45785c8.28254,-7.87225 15.29091,-17.38504 22.29109,-26.36987c3.91816,-5.03661 8.25984,-9.94499 11.84673,-15.22098c8.44851,-12.42702 16.00192,-26.58559 22.32378,-40.19408c2.74,-5.89816 4.66805,-12.19547 7.51839,-18.04079c2.20675,-4.52549 4.93412,-8.88953 7.3803,-13.29105c5.90555,-9.48618 10.93131,-19.44645 16.75428,-28.95466c6.09118,-9.94618 12.85916,-19.72595 19.67518,-29.18641c3.38471,-4.6979 7.4721,-9.33975 10.35529,-14.35785c2.49861,-4.34876 4.5335,-9.08109 6.79954,-13.55658c5.77218,-6.15644 11.63676,-12.22658 17.31805,-18.46712c4.04964,-4.44829 7.89024,-9.5117 12.34706,-13.55065c0.04105,-0.0372 7.37623,-5.91868 7.68695,-6.15909c1.83821,-1.42222 4.20382,-2.2854 5.61768,-4.13005c0.75875,-0.98994 0.76764,-2.56521 1.78287,-3.28977c3.43237,-2.4496 7.24531,-2.2844 11.14251,-2.11286c1.8483,0.08136 4.12491,-0.69441 5.52649,0.51323c1.65092,1.42249 1.5436,4.07797 2.21001,6.15279c1.52322,4.7424 2.63949,9.67865 3.92514,14.49071c1.7244,6.45428 3.65958,12.89344 5.18134,19.39806c1.77555,7.58939 2.796,15.35923 4.61545,22.93784c1.79867,7.49202 4.94602,15.06713 6.03906,22.68943c1.60891,11.21967 1.53404,23.11168 1.53404,34.42605c0,19.84484 0,39.68969 0,59.53454c0,8.01802 0,16.03603 0,24.05405c0,2.74691 -0.37053,5.51693 -0.01493,8.24072c0.41975,3.21513 1.42132,6.32714 2.1247,9.49233c2.70884,12.18975 4.85243,24.21662 10.18057,35.5695c1.31799,2.8083 1.95134,6.0808 4.01752,8.39479c0.60822,0.68116 1.38826,1.16344 2.19638,1.61322c-1.34243,-6.15944 2.25304,-12.80792 4.66111,-18.42675l0.56531,-1.31906c0,0 0.98479,-2.29787 3.28266,-1.31306z" fill="#ffddcc" stroke-width="0.5"/><text transform="translate(273.79001,185.76875) scale(0.5,0.5)" font-size="40" xml:space="preserve" fill="#ffddcc" stroke-width="1" font-family="Marker" font-weight="normal" text-anchor="start"><tspan x="0" dy="0">@MrSctat</tspan></text></g></g></svg>