<svg version="1.1" xmlns="http://www.w3.org/2000/svg" xmlns:xlink="http://www.w3.org/1999/xlink" width="61.97025" height="86.89035" viewBox="0,0,61.97025,86.89035"><g transform="translate(-212,-139.00016)"><g data-paper-data="{&quot;isPaintingLayer&quot;:true}" fill-rule="nonzero" stroke="none" stroke-width="1" stroke-linecap="butt" stroke-linejoin="miter" stroke-miterlimit="10" stroke-dasharray="" stroke-dashoffset="0" style="mix-blend-mode: normal"><path d="M273.97025,211.5505c0,1.98 -0.63,8.7 -8.81,12.14c-1.92,0.82 -4.03,1.24 -6.27,1.24c-2.28,0 -4.7,-0.42 -7.38,-1.29c-2.08,-0.67 -5.09,-1.51 -8.97,-2.51c-4.76,3.33 -8.4,4.76 -12.02,4.76c-3.79,0 -7.39,-1.52 -10.15,-4.27c-2.07,-2.06 -3.23,-4.86 -3.23,-7.78v-1.94c0,-1.22 0.21,-2.84 1,-4.59c0.41,-3.57 1.27,-7.09 2.56,-10.49c0.35,-0.98 1.01,-2.62 2.85,-6.55c1.85,-3.87 4.63,-7.91 8.48,-12.27c-0.68,0.09 -1.31,0.13 -1.87,0.13c-6.69,0 -13.46,-4.9 -13.46,-14.26c0,-3.17 1.12,-6.37 3.99,-11.42c0.85,-1.49 2.03,-2.76 3.46,-3.71c0.19,-0.13 0.43,-0.29 0.7,-0.48c0.73,-0.61 1.58,-1.2 2.63,-1.85c0.69,-0.42 1.42,-0.77 2.18,-1.03c1.79,-0.62 3.65,-1.23 5.55,-1.82c2.73,-0.85 5.22,-1.31 7.6,-1.41h0.12c5.39,-0.16 10.51,0.82 15.28,2.93c4.46,1.91 8.04,5.21 10.65,9.82c2.45,4.34 3.57,8.71 3.34,13c-0.01,0.12 -0.02,0.24 -0.03,0.37c-0.35,3.97 -1.7,7.63 -4.03,10.88c-0.11,0.16 -0.24,0.32 -0.36,0.48c-0.73,0.92 -2.01,2.36 -5.39,5.41c-1.98,2.07 -4.75,4.87 -8.43,8.52c-0.36,0.52 -0.75,1.04 -1.18,1.55c1.36,0.36 2.75,0.82 4.2,1.35l1.6,0.58c0.27,-0.01 0.53,-0.01 0.79,-0.01c5.69,0 9.14,2.48 11.04,4.57c0.05,0.05 0.09,0.1 0.14,0.15c2.08,2.38 3.23,5.5 3.41,9.27c0.01,0.17 0.01,0.35 0.01,0.53z" fill="#da9494"/><path d="M269.27,208.417c0,1.98 -0.63,8.7 -8.81,12.14c-1.92,0.82 -4.03,1.24 -6.27,1.24c-2.28,0 -4.7,-0.42 -7.38,-1.29c-2.08,-0.67 -5.09,-1.51 -8.97,-2.51c-4.76,3.33 -8.4,4.76 -12.02,4.76c-3.79,0 -7.39,-1.52 -10.15,-4.27c-2.07,-2.06 -3.23,-4.86 -3.23,-7.78v-1.94c0,-1.22 0.21,-2.84 1,-4.59c0.41,-3.57 1.27,-7.09 2.56,-10.49c0.35,-0.98 1.01,-2.62 2.85,-6.55c1.85,-3.87 4.63,-7.91 8.48,-12.27c-0.68,0.09 -1.31,0.13 -1.87,0.13c-6.69,0 -13.46,-4.9 -13.46,-14.26c0,-3.17 1.12,-6.37 3.99,-11.42c0.85,-1.49 2.03,-2.76 3.46,-3.71c0.19,-0.13 0.43,-0.29 0.7,-0.48c0.73,-0.61 1.58,-1.2 2.63,-1.85c0.69,-0.42 1.42,-0.77 2.18,-1.03c1.79,-0.62 3.65,-1.23 5.55,-1.82c2.73,-0.85 5.22,-1.31 7.6,-1.41h0.12c5.39,-0.16 10.51,0.82 15.28,2.93c4.46,1.91 8.04,5.21 10.65,9.82c2.45,4.34 3.57,8.71 3.34,13c-0.01,0.12 -0.02,0.24 -0.03,0.37c-0.35,3.97 -1.7,7.63 -4.03,10.88c-0.11,0.16 -0.24,0.32 -0.36,0.48c-0.73,0.92 -2.01,2.36 -5.39,5.41c-1.98,2.07 -4.75,4.87 -8.43,8.52c-0.36,0.52 -0.75,1.04 -1.18,1.55c1.36,0.36 2.75,0.82 4.2,1.35l1.6,0.58c0.27,-0.01 0.53,-0.01 0.79,-0.01c5.69,0 9.14,2.48 11.04,4.57c0.05,0.05 0.09,0.1 0.14,0.15c2.08,2.38 3.23,5.5 3.41,9.27c0.01,0.17 0.01,0.35 0.01,0.53z" fill="#ffaeae"/></g></g></svg>