<svg version="1.1" xmlns="http://www.w3.org/2000/svg" xmlns:xlink="http://www.w3.org/1999/xlink" width="420.46083" height="322.62872" viewBox="0,0,420.46083,322.62872"><g transform="translate(-20.72834,-30.64169)"><g data-paper-data="{&quot;isPaintingLayer&quot;:true}" stroke-miterlimit="10" stroke-dasharray="" stroke-dashoffset="0" style="mix-blend-mode: normal"><path d="M304.96422,153.48239c0,5.51486 -0.53034,6.6617 -1.42562,7.58213c-0.91463,0.94034 -2.21018,1.59377 -3.71024,1.59377c-2.96838,0 -5.37474,-0.80449 -5.37474,-11.95345c0,-2.90778 -0.0752,-6.56477 0.21946,-9.06248c0.83511,-7.07894 2.72221,-8.34696 4.9164,-8.34696c2.19419,0 4.08129,1.26801 4.9164,8.34696c0.29465,2.4977 0.45834,8.93224 0.45834,11.84002z" fill="#ffab19" fill-rule="nonzero" stroke="#000000" stroke-width="1.2" stroke-linecap="butt" stroke-linejoin="miter"/><path d="M215.9363,324.23851c1.0026,1.48277 4.70156,6.59087 6.55407,13.09071l0.06932,0.32903c0.06932,0.32903 0.51837,0.49483 0.89812,0.3316c2.30691,-1.39032 6.90363,-3.92439 8.15605,0.60069c1.2638,4.36072 -12.28427,12.45693 -15.45246,8.99455c-1.18109,-1.56553 -0.43969,-2.96069 -0.0201,-3.69924c0.21264,-0.41036 0.24111,-0.8213 0.17747,-1.2325c-0.30005,-0.98738 -0.91152,-2.79776 -1.64354,-4.19749c-1.78118,-3.54029 -2.55304,-4.36471 -3.82052,-6.01271c-1.26748,-1.648 -4.4129,-5.43912 -1.25543,-8.47088c2.66856,-2.62225 5.32876,-1.13435 6.33705,0.26625z" fill="#ffab19" fill-rule="evenodd" stroke="#000000" stroke-width="1.2" stroke-linecap="round" stroke-linejoin="round"/><g stroke="#000000" stroke-width="1.2" stroke-linecap="round"><path d="M90.57687,305.71194c2.50605,-0.44738 4.26424,-0.04898 5.30058,0.8779c0.82711,0.73974 1.13755,1.58822 1.41706,4.27793c0.17952,8.68802 -9.62088,7.13345 -14.19619,6.15341c-4.06106,-0.85182 -4.7594,-5.01019 -5.35903,-8.53344c-0.9193,-6.7518 -1.92115,-12.52812 2.19751,-16.16028c5.06323,-4.58552 7.42661,1.91582 7.95845,5.83989c0.34179,2.36652 0.79705,4.79346 0.92667,6.46446c0.38605,0.64247 1.00639,1.11845 1.75496,1.08015z" fill="#ffab19" fill-rule="evenodd" stroke-linejoin="round"/><path d="M85.26049,307.42196c1.44318,-1.38376 4.12669,-1.89765 4.12669,-1.89765" fill="none" fill-rule="nonzero" stroke-linejoin="miter"/></g><path d="M299.28595,158.29186l0.16148,12.3011c0,0 7.19209,-1.84151 6.65557,6.73779c-0.13413,2.82251 -10.84743,2.59671 -13.79961,2.14511c-2.81671,-0.4516 -3.88706,-1.6935 -3.62014,-4.06554c0.40373,-4.74182 0.11013,-22.50184 0.11013,-22.50184" data-paper-data="{&quot;index&quot;:null}" fill="#ffab19" fill-rule="nonzero" stroke="#000000" stroke-width="1.2" stroke-linecap="round" stroke-linejoin="round"/><g fill-rule="evenodd"><path d="M297.06435,159.04568c-2.40092,1.80003 -9.47511,1.88953 -9.47511,1.88953c-3.95125,-0.66796 -5.59254,-1.57394 -6.79295,-3.06207c-2.35838,-2.92364 -1.41717,-7.29533 -1.75841,-10.92896c-0.28059,-4.79388 -0.14743,-8.85425 5.4676,-11.28558c3.07932,-1.5257 6.95879,1.673 8.71005,0.33767c2.65537,-1.96189 4.89632,2.32507 5.58061,4.89252c0,0 0.95686,3.83854 0.97062,6.14067c-0.00498,2.80178 0.12355,6.15047 -0.3501,7.57373c0,0 0.04862,2.64247 -2.35231,4.44249z" fill="#ffab19" stroke="#000000" stroke-width="1.2" stroke-linecap="round" stroke-linejoin="round"/><path d="M296.53416,155.68469c-0.72453,0.7383 -3.58314,0.90977 -5.75262,0.58827c-4.62225,-0.34024 -4.74832,-3.5589 -4.87026,-7.24606c0.11239,-2.99789 0.52502,-7.1551 5.87551,-7.33477c5.07218,-0.23013 5.49329,3.46566 5.49329,3.46566c0.75501,6.76766 1.07912,8.66718 -0.74592,10.5269z" fill="#ffffff" stroke="none" stroke-width="1" stroke-linecap="butt" stroke-linejoin="miter"/></g><g data-paper-data="{&quot;index&quot;:null}"><path d="M304.75734,80.40888c0.30279,-0.20186 0.80742,-0.10093 0.90836,0.30279l2.1195,11.55628c0,0 5.43156,3.73667 7.3492,7.0673c3.2297,5.55105 3.83063,10.84282 3.83063,10.84282c0,0 5.65198,2.11949 6.86312,7.8724c1.21114,5.75291 -1.9681,16.65315 -20.94261,20.3875c-18.9745,3.73435 -33.96234,-1.413 -41.12825,-12.91881c-3.85605,-6.19142 -3.2794,-13.43703 -0.63273,-20.0586c2.27176,-5.68363 4.96349,-10.2993 4.68379,-9.92636l0.90836,-13.01046c-0.10093,-0.40371 0.40371,-0.7065 0.80742,-0.50464l10.19375,8.97333c0,0 1.26161,-0.7065 6.00523,-0.90835c2.82599,-0.20186 10.05164,-0.50001 12.37299,-0.09629z" fill="#ffab19" fill-rule="evenodd" stroke="#000000" stroke-width="1.2" stroke-linecap="butt" stroke-linejoin="miter"/><path d="M316.89598,111.33875c0,0 5.97235,3.38509 7.41823,9.08354c1.71578,6.76219 -3.63341,13.87763 -22.40606,17.51104c-24.42463,5.04641 -36.78834,-9.73957 -30.02615,-20.43796c6.76219,-10.79932 19.37822,-1.36253 27.85619,-1.9681c7.26683,-0.50464 8.57889,-6.10616 17.15779,-4.18852z" fill="#ffffff" fill-rule="evenodd" stroke="none" stroke-width="1" stroke-linecap="butt" stroke-linejoin="miter"/><path d="M336.22374,111.692c-4.74363,3.83527 -12.01046,3.9362 -12.01046,3.9362" fill="none" fill-rule="evenodd" stroke="#000000" stroke-width="1.2" stroke-linecap="round" stroke-linejoin="round"/><path d="M334.65932,122.99596c-6.35848,0.50464 -10.29468,-1.41299 -10.29468,-1.41299" fill="none" fill-rule="evenodd" stroke="#000000" stroke-width="1.2" stroke-linecap="round" stroke-linejoin="round"/><path d="M298.32518,112.65082c2.1195,0 4.33991,0.20185 4.44084,0.90835c0.10093,1.41299 -2.16996,4.23898 -3.78481,4.33992c-1.81671,0.20185 -5.29873,-2.32135 -5.29873,-3.9362c-0.10093,-1.21114 2.62413,-1.31207 4.6427,-1.31207z" fill="#000000" fill-rule="evenodd" stroke="#000000" stroke-width="1.2" stroke-linecap="round" stroke-linejoin="round"/><path d="M254.67374,111.38921c0,0 8.67982,2.82599 12.21231,5.95476" fill="none" fill-rule="evenodd" stroke="#000000" stroke-width="1.2" stroke-linecap="round" stroke-linejoin="round"/><path d="M267.18884,120.87647c-4.33991,1.71578 -11.8086,0.60556 -11.8086,0.60556" fill="none" fill-rule="evenodd" stroke="#000000" stroke-width="1.2" stroke-linecap="round" stroke-linejoin="round"/><g fill="none" fill-rule="nonzero" stroke="none" stroke-width="1" stroke-linecap="butt" stroke-linejoin="miter" font-family="sans-serif" font-weight="normal" font-size="12" text-anchor="start"/><g fill="none" fill-rule="nonzero" stroke="none" stroke-width="1" stroke-linecap="butt" stroke-linejoin="miter" font-family="sans-serif" font-weight="normal" font-size="12" text-anchor="start"/></g><path d="M284.261,125.75h25" fill="none" fill-rule="nonzero" stroke="#000000" stroke-width="1.2" stroke-linecap="round" stroke-linejoin="miter"/><g fill-rule="evenodd"><path d="M313.06804,103.15586c2.44351,4.81911 1.50905,9.94946 -1.48904,11.4654c-2.99809,1.51595 -6.89313,-1.0705 -9.43703,-5.9c-2.44351,-4.8191 -2.01137,-10.44946 0.98672,-11.96541c3.00849,-1.61634 7.49584,1.5809 9.93936,6.40001z" fill="#ffffff" stroke="#000000" stroke-width="1.2" stroke-linecap="round" stroke-linejoin="round"/><path d="M312.32095,108.75862c-0.11436,1.1043 -1.01105,1.92466 -2.01497,1.82069c-1.00392,-0.10397 -1.71348,-1.09066 -1.59912,-2.19496c0.11436,-1.1043 1.01105,-1.92466 2.01497,-1.82069c1.00392,0.10397 1.71348,1.09065 1.59912,2.19496" fill="#000000" stroke="none" stroke-width="1" stroke-linecap="butt" stroke-linejoin="miter"/></g><g fill-rule="evenodd"><path d="M289.69903,105.76249c2.35043,4.83367 0.85414,10.19662 -2.12064,11.69794c-3.57393,1.41333 -8.01465,-0.62995 -10.36507,-5.46363c-2.45029,-4.84834 -1.05711,-10.56952 2.3611,-12.31175c3.43287,-1.84208 7.77419,1.24376 10.12462,6.07743z" fill="#ffffff" stroke="#000000" stroke-width="1.2" stroke-linecap="round" stroke-linejoin="round"/><path d="M287.99305,111.39288c-0.16132,1.09843 -1.09216,1.87982 -2.09073,1.73316c-0.99857,-0.14665 -1.66544,-1.16269 -1.50412,-2.26112c0.16132,-1.09843 1.09217,-1.87982 2.09074,-1.73316c0.9839,0.24651 1.66544,1.16269 1.50412,2.26112" fill="#000000" stroke="none" stroke-width="1" stroke-linecap="butt" stroke-linejoin="miter"/></g><path d="M290.78595,160.29186l0.16148,12.3011c0,0 7.19209,-1.84151 6.65557,6.73779c-0.13413,2.82251 -10.84743,2.59671 -13.79961,2.14511c-2.81671,-0.4516 -3.88706,-1.6935 -3.62014,-4.06554c0.40373,-4.74182 0.11013,-22.50184 0.11013,-22.50184" data-paper-data="{&quot;index&quot;:null}" fill="#ffab19" fill-rule="nonzero" stroke="#000000" stroke-width="1.2" stroke-linecap="round" stroke-linejoin="round"/><path d="M286.18738,155.04242c0,4.8888 -0.53034,5.90545 -1.42562,6.72139c-0.91463,0.83359 -2.21018,1.41284 -3.71024,1.41284c-2.96838,0 -5.37474,-0.71316 -5.37474,-10.59647c0,-2.57768 -0.0752,-5.81952 0.21946,-8.03369c0.83511,-6.27532 2.72221,-7.3994 4.9164,-7.3994c2.19419,0 4.08129,1.12406 4.9164,7.3994c0.29465,2.21416 0.45834,7.91823 0.45834,10.49592z" fill="#ffab19" fill-rule="nonzero" stroke="#000000" stroke-width="1.2" stroke-linecap="butt" stroke-linejoin="miter"/><path d="M61.61271,316.37261c-0.63961,4.88302 -1.2539,5.83929 -2.17311,6.55438c-0.93908,0.73055 -2.19055,1.16457 -3.55184,0.99719c-2.69377,-0.33121 -4.7842,-1.31202 -3.49115,-11.18365c0.33724,-2.57464 0.69314,-5.82104 1.25022,-7.9997c1.57886,-6.17473 3.43845,-7.0869 5.42965,-6.84208c1.9912,0.24483 3.55666,1.57812 3.49349,7.93921c-0.02229,2.24441 -0.62002,7.96001 -0.95727,10.53465z" fill="#ffab19" fill-rule="nonzero" stroke="#000000" stroke-width="1.2" stroke-linecap="butt" stroke-linejoin="miter"/><g fill="#ffab19"><path d="M68.35808,320.3907c2.18139,2.03072 0.83938,20.00074 0.83938,20.00074l-8.80071,0.66535c0,0 0.24112,-1.55791 -0.04406,-5.48715c-0.05315,-0.73245 -0.33589,-13.8784 0.75137,-15.38967c2.65693,-3.57136 5.07262,-1.81997 7.25402,0.21074z" data-paper-data="{&quot;index&quot;:null}" fill-rule="evenodd" stroke="#000000" stroke-width="1.2" stroke-linecap="round" stroke-linejoin="round"/><path d="M65.3611,337.59224c5.01754,-0.76009 6.90367,1.03111 7.30278,3.0638c0.33326,1.69732 -0.30419,3.56301 -1.64598,4.25231c-2.35994,1.19268 -11.52556,1.59741 -12.43665,-0.46374c-1.37149,-3.1875 0.06034,-5.61967 0.77959,-6.16038c1.37436,-1.30499 6.00027,-0.69199 6.00027,-0.69199z" data-paper-data="{&quot;index&quot;:null}" fill-rule="evenodd" stroke="#000000" stroke-width="1.2" stroke-linecap="round" stroke-linejoin="round"/><path d="M60.84379,339.03913c0,0 0.82552,-1.10994 0.84466,-1.66086c0.01865,-0.5369 -0.23543,-1.19187 -0.23543,-1.19187l7.3625,0.14703c0,0 -0.88426,0.48097 -0.49198,1.14457c0.32062,0.54238 0.67795,0.81865 0.67003,1.04619c-0.00623,0.17928 -1.54691,0.63155 -1.54691,0.63155z" fill-rule="nonzero" stroke="#001026" stroke-width="0" stroke-linecap="butt" stroke-linejoin="miter"/></g><g data-paper-data="{&quot;index&quot;:null}" fill="#ffab19"><path d="M72.1665,320.8325c2.1814,-2.03071 4.59709,-3.7821 7.25402,-0.21074c0.9031,1.2553 0.80965,14.58649 0.75137,15.38967c-0.28518,3.92924 -0.04406,5.48715 -0.04406,5.48715l-8.80071,-0.66535c0,0 -1.34201,-17.97002 0.83938,-20.00074z" data-paper-data="{&quot;index&quot;:null}" fill-rule="evenodd" stroke="#000000" stroke-width="1.2" stroke-linecap="round" stroke-linejoin="round"/><path d="M75.16346,338.03403c0,0 4.62591,-0.613 6.00027,0.69199c0.71925,0.54071 2.15108,2.97288 0.77959,6.16038c-0.91109,2.06115 -10.07671,1.65642 -12.43665,0.46374c-1.34179,-0.6893 -1.97924,-2.55499 -1.64598,-4.25231c0.39911,-2.03269 2.28524,-3.82389 7.30278,-3.0638z" data-paper-data="{&quot;index&quot;:null}" fill-rule="evenodd" stroke="#000000" stroke-width="1.2" stroke-linecap="round" stroke-linejoin="round"/><path d="M73.07792,339.59753c0,0 -1.54068,-0.45227 -1.54691,-0.63155c-0.00792,-0.22754 0.34941,-0.50381 0.67003,-1.04619c0.39228,-0.6636 -0.49198,-1.14457 -0.49198,-1.14457l7.3625,-0.14703c0,0 -0.25408,0.65497 -0.23543,1.19187c0.01914,0.55092 0.84466,1.66086 0.84466,1.66086z" fill-rule="nonzero" stroke="#001026" stroke-width="0" stroke-linecap="butt" stroke-linejoin="miter"/></g><g fill-rule="evenodd"><path d="M78.11305,320.93608c-2.40092,1.80003 -9.89416,1.74985 -9.89416,1.74985c-3.95125,-0.66797 -5.17348,-1.43426 -6.3739,-2.92239c-2.35838,-2.92364 -1.41717,-7.29533 -1.75841,-10.92895c-0.28059,-4.79388 -0.4268,-9.69236 4.62949,-11.28558c3.07932,-1.5257 5.56195,1.53332 7.31321,0.19799c4.1919,-3.07937 7.27096,1.48696 7.95525,4.05441c0,0 0.81718,4.81633 0.83094,7.11846c-0.00498,2.80178 0.12355,6.15047 -0.3501,7.57373c0,0 0.04862,2.64247 -2.35231,4.44249z" fill="#ffab19" stroke="#000000" stroke-width="1.2" stroke-linecap="round" stroke-linejoin="round"/><path d="M75.3479,317.57509c-0.72453,0.7383 -3.58315,1.18914 -5.75263,0.86764c-4.62225,-0.34024 -4.74831,-3.83827 -4.87025,-7.52543c0.11239,-2.99789 0.52502,-7.1551 5.87551,-7.33477c5.07218,-0.23013 5.91234,3.46566 5.91234,3.46566c0.75501,6.76767 0.66006,8.66718 -1.16497,10.5269z" fill="#ffffff" stroke="none" stroke-width="1" stroke-linecap="butt" stroke-linejoin="miter"/></g><g fill-rule="evenodd"><path d="M78.67103,249.78636c1.0632,0.01359 2.35331,0.01323 3.59881,0.22469c2.47057,0.41947 3.29028,0.69962 3.29028,0.69962c0,0 8.1035,-7.35381 10.03841,-8.68407c0.91277,-0.62753 1.03151,0.08992 1.03151,0.08992l-0.39478,14.85134c0,0 3.636,3.79672 5.21431,8.28697c0.65022,1.84985 1.39446,5.66288 1.65504,7.4269c0.45818,3.10171 1.53211,5.76134 1.76993,6.89098c1.18021,5.60601 -3.14723,16.22792 -21.63722,19.8669c-18.48999,3.63899 -33.34099,-1.37691 -40.32391,-12.58893c-2.7891,-4.47828 -2.21468,-9.66109 -0.66086,-14.22107c1.21144,-3.55519 2.08561,-7.45555 2.51946,-8.77222c0.9059,-2.7493 4.44825,-7.09555 4.44825,-7.09555l-0.61558,-15.64254c0,0 0.2734,-0.34077 0.74839,0.00126c1.69369,1.21959 11.76324,9.00808 11.76324,9.00808c0,0 2.30557,0.32952 7.18699,-0.44707c3.34176,-0.53165 7.11313,0.0632 10.36773,0.10479z" fill="#ffab19" stroke="#000000" stroke-width="1.2" stroke-linecap="butt" stroke-linejoin="miter"/><path d="M92.41032,274.50293c0,0 6.61502,2.32988 7.3238,8.01475c0.51586,4.13753 -0.28655,10.21906 -8.84039,13.99551c-3.19896,1.41231 -8.96246,2.50223 -14.00466,3.04752c-24.12804,2.91634 -34.73824,-11.79321 -27.3026,-21.63281c7.44384,-9.93761 16.98525,-0.07598 25.26717,0.02467c7.09762,0.10027 9.38172,-6.00869 17.55668,-3.44963z" fill="#ffffff" stroke="none" stroke-width="1" stroke-linecap="butt" stroke-linejoin="miter"/><path d="M114.41292,272.91998c-4.7,3.8 -11.9,3.9 -11.9,3.9" fill="none" stroke="#000000" stroke-width="1.2" stroke-linecap="round" stroke-linejoin="round"/><path d="M113.11295,284.11998c-6.3,0.5 -10.2,-1.4 -10.2,-1.4" fill="none" stroke="#000000" stroke-width="1.2" stroke-linecap="round" stroke-linejoin="round"/><path d="M74.05739,274.8422c2.1,0 4.3,0.2 4.4,0.9c0.1,1.4 -2.51111,4.2 -4.11111,4.3c-1.8,0.2 -4.88889,-2.3 -4.88889,-3.9c-0.1,-1.2 2.6,-1.3 4.6,-1.3z" fill="#000000" stroke="#000000" stroke-width="1.2" stroke-linecap="round" stroke-linejoin="round"/><path d="M31.44628,272.61998c0,0 8.6,2.8 12.1,5.9" fill="none" stroke="#000000" stroke-width="1.2" stroke-linecap="round" stroke-linejoin="round"/><path d="M43.01295,282.85331c-4.3,1.7 -11.7,0.6 -11.7,0.6" fill="none" stroke="#000000" stroke-width="1.2" stroke-linecap="round" stroke-linejoin="round"/><path d="M91.63557,266.93475c0.41427,5.33956 -2.11613,9.86254 -5.67833,10.0989c-3.56221,0.23636 -6.81191,-3.81274 -7.32032,-9.20027c-0.41427,-5.33956 2.11612,-9.86254 5.67833,-10.09889c3.61367,-0.32411 6.90606,3.8607 7.32033,9.20026z" fill="#ffffff" stroke="#000000" stroke-width="1.2" stroke-linecap="round" stroke-linejoin="round"/><path d="M87.10233,269.80115c0,1.1 -0.8,2 -1.8,2c-1,0 -1.8,-0.9 -1.8,-2c0,-1.1 0.8,-2 1.8,-2c1,0 1.8,0.9 1.8,2" fill="#000000" stroke="none" stroke-width="1" stroke-linecap="butt" stroke-linejoin="miter"/><path d="M66.20884,266.6865c0.94363,5.24114 -1.44227,10.08959 -4.68254,10.72259c-3.78805,0.38818 -7.2339,-2.68527 -8.17754,-7.92641c-1.03492,-5.28195 0.6082,-10.06749 4.33606,-10.81117c3.76866,-0.83498 7.58038,2.77385 8.52401,8.01499z" fill="#ffffff" stroke="#000000" stroke-width="1.2" stroke-linecap="round" stroke-linejoin="round"/><path d="M62.33146,270.94674c0,1.1 -0.8,2 -1.8,2c-1,0 -1.8,-0.9 -1.8,-2c0,-1.1 0.8,-2 1.8,-2c1,0.1 1.8,0.9 1.8,2" fill="#000000" stroke="none" stroke-width="1" stroke-linecap="butt" stroke-linejoin="miter"/><path d="M58.59625,283.26998c0,-0.4 0.4,-0.7 0.8,-0.6c1.9,0.7 7.3,2.3 13.3,2.7c5.4,0.3 8.6,0 10.1,-0.3c0.5,-0.1 0.9,0.4 0.7,0.9c-0.9,2.7 -4.7,10.2 -15.2,9.6c-9.1,-1 -10,-7.4 -9.7,-12.3z" fill="#ffffff" stroke="#000000" stroke-width="1.2" stroke-linecap="round" stroke-linejoin="round"/></g><path d="M86.4,307.2l0.2,-3.6l1.8,-2.4l2.2,0.4l0.8,2v3" fill="#ffab19" fill-rule="nonzero" stroke="#000000" stroke-width="1.2" stroke-linecap="round" stroke-linejoin="miter"/><path d="M93.2,313.4h-4.4l-3.6,-1.2v-2.2l2.2,-1h3.4l3,-0.4" fill="none" fill-rule="nonzero" stroke="#000000" stroke-width="1.2" stroke-linecap="round" stroke-linejoin="miter"/><path d="M91.4,317.2l-4.6,-1.4l-1.2,-2.4l1,-1" fill="none" fill-rule="nonzero" stroke="#000000" stroke-width="1.2" stroke-linecap="round" stroke-linejoin="miter"/><path d="M85.79999,309.4l-0.6,-1.8l4.6,-0.8l3.8,-0.6" fill="none" fill-rule="nonzero" stroke="#000000" stroke-width="1.2" stroke-linecap="round" stroke-linejoin="miter"/><path d="M53.2,258.6l0.6,-3.8l3.2,-3.8h4l3.8,2.8" fill="none" fill-rule="nonzero" stroke="#000000" stroke-width="1.2" stroke-linecap="round" stroke-linejoin="miter"/><path d="M78.4,253l2.4,-2.2l5.6,-0.2l4.2,2.6" fill="none" fill-rule="nonzero" stroke="#000000" stroke-width="1.2" stroke-linecap="round" stroke-linejoin="miter"/><path d="M213.5195,316.00778c-0.5945,-2.07374 -2.46134,-5.34148 -2.18109,-7.69866c0,0 1.56246,-1.43355 2.20499,-1.75591c0.87601,-0.43951 3.26552,-1.67728 3.26552,-1.67728l1.05371,0.48144c0.90427,0.16652 6.02198,9.72344 6.78712,9.97161c6.4836,2.1029 7.9902,6.3967 7.09564,7.92485c-2.38237,4.15221 -7.03073,4.71076 -15.11335,-2.17977z" fill="#ffab19" fill-rule="nonzero" stroke="#000000" stroke-width="1.2" stroke-linecap="round" stroke-linejoin="round"/><g fill-rule="evenodd"><path d="M203.76868,322.24673c0.8,0.4 2.5,1.3 0.1,4.7c-2.4,3.4 -9.3,4.1 -10.1,4.1c-3.1,0.1 -6.9,0.1 -11.1,-1.3c-12.2,-4 -12.3,-17.1 -8.4,-19.2c3.8,-2.1 5.5,6 11,10.9c2.4,2.2 5.3,3 7.7,3.5c3.4,0.6 9.9,-3.2 10.8,-2.7z" fill="#ffab19" stroke="#000000" stroke-width="1.2" stroke-linecap="round" stroke-linejoin="round"/><path d="M178.96868,314.14673c1.6,2.7 4.7,6.5 4.7,6.5c0,0 -3.7,-0.9 -5.8,0.8c-1.7,1.3 -1.3,3.5 -1.1,4.2c-1.3,-1.3 -2.9,-3.1 -3.9,-6.6c-1,-3.5 0,-7.7 2,-8.3c2,-0.4 2.5,1.1 4.1,3.4z" fill="#ffffff" stroke="none" stroke-width="1" stroke-linecap="butt" stroke-linejoin="miter"/></g><g fill-rule="evenodd"><path d="M214.58761,328.51727c-2.1548,2.08838 -8.29461,3.24058 -8.29461,3.24058c-11.87023,-0.48752 -9.08023,-7.70386 -10.28238,-13.07833c-0.88278,-4.72024 -1.05362,-8.22833 4.21005,-11.34822c2.86238,-1.90178 6.07376,0.35126 7.64268,-1.19422c2.38681,-2.28103 5.1504,1.68916 6.15294,4.14985c0,0 1.43321,3.68726 1.73712,5.96929c0.34832,2.78004 0.89803,6.08581 0.60762,7.55743c0,0 0.3814,2.61525 -1.77341,4.70362z" fill="#ffab19" stroke="#000000" stroke-width="1.2" stroke-linecap="round" stroke-linejoin="round"/><path d="M215.57789,325.00339c0,0 -1.91557,1.16055 -4.10827,1.11515c-4.62826,0.24527 -5.57485,-2.87897 -6.16071,-6.52133c-0.2665,-2.98813 -1.14228,-6.50424 4.14285,-7.35709c5.00269,-0.86782 5.26169,2.26156 5.26169,2.26156c1.37333,4.81705 0.86444,10.50171 0.86444,10.50171z" fill="#ffffff" stroke="none" stroke-width="1" stroke-linecap="butt" stroke-linejoin="miter"/></g><path d="M208.58794,331.21451l0.16148,12.3011c0,0 7.19209,-1.84151 6.65557,6.73779c-0.13413,2.82251 -10.84743,2.59671 -13.79961,2.14511c-2.81671,-0.4516 -3.88706,-1.6935 -3.62014,-4.06554c0.40373,-4.74182 0.11013,-22.50184 0.11013,-22.50184" data-paper-data="{&quot;index&quot;:null}" fill="#ffab19" fill-rule="nonzero" stroke="#000000" stroke-width="1.2" stroke-linecap="round" stroke-linejoin="round"/><path d="M225.85843,251.6278c0.3,-0.2 0.8,-0.1 0.9,0.3l2.6,10.7c0,0 6.4,4.7 8.3,8c3.2,5.5 3.3,10 3.3,10c0,0 7.1,2.1 8.3,7.8c1.2,5.7 -3.2,16.5 -22,20.2c-18.8,3.7 -33.9,-1.4 -41,-12.8c-7.1,-11.4 4.1,-25 3.5,-24.2l-2.1,-17.9c-0.1,-0.4 0.4,-0.7 0.8,-0.5l12.1,7.9c0,0 4.5,-1.7 9.2,-1.9c2.8,-0.2 5.2,0 7.5,0.4z" fill="#ffab19" fill-rule="evenodd" stroke="#000000" stroke-width="1.2" stroke-linecap="butt" stroke-linejoin="miter"/><path d="M240.65843,281.0278c0,0 6.9,1.8 8.1,7.5c1.2,5.7 -3.6,16 -22.2,19.6c-24.2,5 -35.7,-9.4 -29,-20c6.7,-10.7 18.2,-1.6 26.6,-2.2c7.2,-0.5 8,-6.8 16.5,-4.9z" fill="#ffffff" fill-rule="evenodd" stroke="none" stroke-width="1" stroke-linecap="butt" stroke-linejoin="miter"/><path d="M259.05843,282.1278c-4.7,3.8 -11.9,3.9 -11.9,3.9" fill="none" fill-rule="evenodd" stroke="#000000" stroke-width="1.2" stroke-linecap="round" stroke-linejoin="round"/><path d="M257.75843,293.3278c-6.3,0.5 -10.2,-1.4 -10.2,-1.4" fill="none" fill-rule="evenodd" stroke="#000000" stroke-width="1.2" stroke-linecap="round" stroke-linejoin="round"/><path d="M223.75843,283.3278c2.1,0 4.3,0.2 4.4,0.9c0.1,1.4 -1.4,4.2 -3,4.3c-1.8,0.2 -6,-2.3 -6,-3.9c-0.1,-1.2 2.6,-1.3 4.6,-1.3z" fill="#000000" fill-rule="evenodd" stroke="#000000" stroke-width="1.2" stroke-linecap="round" stroke-linejoin="round"/><path d="M178.75843,281.8278c0,0 8.6,2.8 12.1,5.9" fill="none" fill-rule="evenodd" stroke="#000000" stroke-width="1.2" stroke-linecap="round" stroke-linejoin="round"/><path d="M191.15843,291.2278c-4.3,1.7 -11.7,0.6 -11.7,0.6" fill="none" fill-rule="evenodd" stroke="#000000" stroke-width="1.2" stroke-linecap="round" stroke-linejoin="round"/><path d="M194.11553,320.82193c2.46111,3.13233 6.26465,7.04773 1.45429,10.29193c-6.60026,3.69167 -12.08183,-7.49521 -13.20051,-11.41061c-1.00682,-3.46793 1.90177,-5.70531 4.36288,-7.60708c4.81036,-3.46793 8.83763,-6.60026 13.31238,-4.92223c5.59344,2.01364 1.56616,6.48839 -1.23056,8.50203c-1.67803,1.23056 -3.35606,2.57298 -4.58662,3.35606c-0.33561,0.55934 -0.44748,1.23056 -0.11187,1.7899z" fill="#ffab19" fill-rule="evenodd" stroke="#000000" stroke-width="1.2" stroke-linecap="round" stroke-linejoin="round"/><path d="M216.5,297.79541c0,3.03757 -4.27576,3.5 -8.625,3.5c-4.34924,0 -7.875,-2.46243 -7.875,-5.5c0,-3.03757 1.77576,-5.5 6.125,-5.5c4.34924,0 10.375,4.46243 10.375,7.5z" fill="#ffffff" fill-rule="nonzero" stroke="#000000" stroke-width="1.2" stroke-linecap="butt" stroke-linejoin="miter"/><g fill-rule="evenodd"><path d="M236.46356,273.46579c1.82683,2.03701 1.82144,6.06434 -0.97856,7.86434c-2.8,1.8 -7.4,2.76424 -10.4,-1.73576c-0.42924,-0.66605 -1.39582,-4.73117 -1.51727,-5.15569c-0.69907,-2.44365 3.88163,2.1249 6.2672,0.59132c2.8,-1.9 4.8018,-3.60122 6.62863,-1.56421z" fill="#ffffff" stroke="#000000" stroke-width="1.2" stroke-linecap="round" stroke-linejoin="round"/><path d="M234.885,278.69436c0,1.1 -0.8,2 -1.8,2c-1,0 -1.8,-0.9 -1.8,-2c0,-1.1 0.8,-2 1.8,-2c1,0 1.8,0.9 1.8,2" fill="#000000" stroke="none" stroke-width="1" stroke-linecap="butt" stroke-linejoin="miter"/></g><g fill-rule="evenodd"><path d="M212.32063,274.09434c3,4.4 2.8,6.97146 0.1,8.87147c-3.3,1.9 -7.7,3.32853 -10.7,-1.07147c-3.1,-4.4 -3.3,-10.10001 -0.2,-12.3c3.1,-2.3 7.8,0.1 10.8,4.5z" fill="#ffffff" stroke="#000000" stroke-width="1.2" stroke-linecap="round" stroke-linejoin="round"/><path d="M211.72063,279.89433c0,1.1 -0.8,2 -1.8,2c-1,0 -1.8,-0.9 -1.8,-2c0,-1.1 0.8,-2 1.8,-2c1,0.1 1.8,0.9 1.8,2" fill="#000000" stroke="none" stroke-width="1" stroke-linecap="butt" stroke-linejoin="miter"/></g><path d="M233.98128,268.0662l-0.3519,1.98293l-1.63953,1.50227l-3.01301,0.55803l-3.60531,-0.05141l-2.55811,-2.16314" fill="none" fill-rule="nonzero" stroke="#000000" stroke-width="1.2" stroke-linecap="round" stroke-linejoin="miter"/><path d="M196.61964,268.60135v-1.88569l2.1214,-2.35711l4.71422,-0.70713l3.06424,0.70713l1.88569,2.1214" data-paper-data="{&quot;index&quot;:null}" fill="none" fill-rule="nonzero" stroke="#000000" stroke-width="1.2" stroke-linecap="round" stroke-linejoin="miter"/><g data-paper-data="{&quot;index&quot;:null}" fill-rule="nonzero" stroke-width="1" stroke-linecap="butt" stroke-linejoin="miter"><path d="M346.58917,324.25401c2.415,-0.451 5.304,-1.309 7.742,-3.503c5.452,-4.907 7.194,-13.001 11.048,-10.914c3.856,2.088 3.782,15.165 -8.353,19.194c-4.182,1.391 -7.998,1.396 -11.091,1.312c-0.811,-0.025 -7.717,-0.654 -10.079,-4.074c-2.361,-3.42 -0.719,-4.272 0.09,-4.744c0.81,-0.472 7.227,3.367 10.643,2.729z" fill="#faa51d" stroke="#000000"/><path d="M364.81517,310.09201c1.989,0.613 3.075,4.998 2.076,8.484c-0.998,3.49 -2.634,5.022 -3.863,6.398c-1.528,1.038 0.72,-2.402 -1.361,-4.15c-2.075,-1.744 -5.733,-0.914 -5.733,-0.914c0,0 2.909,-3.987 4.57,-6.396c1.572,-2.311 2.188,-3.924 4.311,-3.422z" fill="#ffffff" stroke="none"/></g><g data-paper-data="{&quot;index&quot;:null}" fill-rule="nonzero" stroke-linecap="butt" stroke-linejoin="miter"><path d="M335.44117,324.00501c2.672,-0.169 6.856,4.137 6.856,4.137c0,0 1.481,1.292 5.784,3.453c2.527,1.275 6.001,2.345 6.001,2.345c0,0 2.266,-1.461 4.892,0.252c4.299,2.798 -5.488,17.619 -10.821,15.902c-6.204,-1.999 -1.581,-7.672 -0.334,-9.496l0.086,-0.215c-8.239,-2.212 -17.071,-8.412 -17.071,-8.412c-3.452,-3.252 1.936,-7.796 4.607,-7.966z" fill="#faa51d" stroke="none" stroke-width="1"/><path d="M342.29717,328.13801c0,0 1.481,1.292 5.784,3.453c2.527,1.276 6.001,2.348 6.001,2.348c0,0 2.475,-1.703 5.101,0.01c4.299,2.801 -5.697,17.862 -11.03,16.145c-6.204,-1.999 -1.581,-7.672 -0.334,-9.496" fill="none" stroke="#231f20" stroke-width="1.2"/><path d="M349.63817,340.79001c-8.681,-1.712 -18.804,-8.819 -18.804,-8.819" fill="none" stroke="#231f20" stroke-width="1.2"/></g><path d="M316.88217,320.10001c0,0 -1.235,0.165 -4.744,3.676c-3.509,3.508 -6.026,2.16 -8.911,0.724c-2.877,-1.443 -10.537,-6.126 -6.49,-9.817c4.049,-3.688 6.207,1.146 9.715,2.405c3.512,1.26 5.061,-2.487 6.858,-4.287c0.589,-0.593 1.188,-1.099 1.729,-1.505c0,0 0.971,-0.76 1.906,2.79c0.934,3.541 1.944,4.544 -0.063,6.014z" data-paper-data="{&quot;index&quot;:null}" fill="#faa51d" fill-rule="nonzero" stroke="#231f20" stroke-width="1.2" stroke-linecap="butt" stroke-linejoin="miter"/><g data-paper-data="{&quot;index&quot;:null}" fill-rule="nonzero" stroke-linecap="butt" stroke-linejoin="miter"><path d="M322.29817,327.22701c-1.188,-0.912 -2.397,-2.402 -3.951,-4.713c-1.296,-1.927 -2.7,-5.578 -2.7,-5.578c-0.875,-2.521 -1.934,-6.576 1.902,-7.296c1.553,-0.291 4.079,-0.098 7.67,-0.776c3.593,-0.681 6.798,-2.522 9.517,2.233c2.718,4.757 9.59,8.271 1.056,16.563c0,0 -4.901,3.842 -10.764,9.639c-4.831,4.775 -12.045,10.602 -12.045,10.602c0,0 -18.972,2.188 -19.535,-0.693c-1.922,-9.79 14.777,-6.911 14.777,-6.911c0,0 4.605,-3.933 6.725,-5.794c3.478,-3.059 11.125,-10.771 11.125,-10.771" fill="#faa51d" stroke="#231f20" stroke-width="1.2"/><path d="M317.79817,320.64901c0,0 -2.47,-2.66 2.469,-5.317c4.939,-2.657 7.213,-0.017 8.739,1.521c2.644,2.655 -3.443,6.611 -3.443,6.611l-3.176,3.204c0,0 -1.738,-1.647 -2.499,-2.979c-0.873,-1.214 -2.09,-3.04 -2.09,-3.04" fill="#ffffff" stroke="none" stroke-width="1"/></g><path d="M339.12517,318.43301c-0.749,-0.571 -2.889,-2.202 -4.854,-3.657c-2.428,-1.799 -6.117,-5.849 -1.077,-7.646c5.04,-1.801 7.507,1.604 11.519,4.946c2.159,1.801 5.308,2.699 4.319,6.209c-0.993,3.511 -4.862,13.408 -11.789,10.17c-6.929,-3.239 1.799,-9.18 3.06,-11.157" data-paper-data="{&quot;index&quot;:null}" fill="#faa51d" fill-rule="nonzero" stroke="#231f20" stroke-width="1.2" stroke-linecap="butt" stroke-linejoin="miter"/><g data-paper-data="{&quot;index&quot;:null}" fill-rule="nonzero" stroke-linejoin="miter"><path d="M316.34217,259.37101c1.54,-0.143 4.75,-0.316 6.518,-0.231c4.728,0.225 9.224,1.928 9.224,1.928l13.018,-8.496l-2.235,18.906c-0.646,-0.782 10.555,12.804 3.479,24.224c-7.08,11.426 -22.233,16.518 -40.988,12.792c-18.755,-3.729 -23.229,-14.531 -21.986,-20.246c1.242,-5.714 8.322,-7.823 8.322,-7.823c0,0 0.09,-4.48 3.328,-9.97c1.926,-3.268 8.348,-8.041 8.348,-8.041l2.859,-11.552l7.452,7.204z" fill="#faa51d" stroke="#231f20" stroke-width="1.2" stroke-linecap="butt"/><path d="M292.63117,280.28101l2.482,-2.064l9.115,2.661c0,0 0,3.419 4.367,4.367c4.37,0.951 11.211,-2.277 11.211,-2.277l7.785,3.417c0,0 8.437,0.928 8.739,6.081c0.673,11.453 -13.379,16.228 -18.704,16.532c-2.905,0.167 -8.235,-0.338 -12.277,-1.141c-17.752,-3.234 -22.551,-13.919 -21.31,-19.635c1.242,-5.714 7.978,-7.196 7.978,-7.196z" fill="#ffffff" stroke="none" stroke-width="1" stroke-linecap="butt"/><path d="M358.37817,291.37001c0,0 -4.107,0.374 -5.974,0.268c-1.865,-0.107 -5.492,-0.587 -5.492,-0.587" fill="none" stroke="#231f20" stroke-width="1.2" stroke-linecap="butt"/><path d="M287.39517,285.88601c0,0 -4.549,-0.743 -6.859,-1.549c-2.715,-0.942 -4.543,-2.545 -4.543,-2.545" fill="none" stroke="#231f20" stroke-width="1.2" stroke-linecap="butt"/><path d="M346.71417,287.12401c0,0 2.384,-1.777 6.117,-3.43c4.134,-1.831 6.405,-2.303 6.405,-2.303" fill="none" stroke="#231f20" stroke-width="1.2" stroke-linecap="butt"/><path d="M286.93417,291.83701c0,0 -2.726,1.104 -5.533,1.385c-2.77,0.276 -4.646,0.11 -4.646,0.11" fill="none" stroke="#231f20" stroke-width="1.2" stroke-linecap="butt"/><path d="M312.81417,260.89601c0,0 1.047,-0.769 3.887,-1.469" fill="none" stroke="#000000" stroke-width="1" stroke-linecap="round"/><path d="M335.15317,258.89901l-6.058,4.358" fill="none" stroke="#000000" stroke-width="1" stroke-linecap="butt"/></g><g data-paper-data="{&quot;index&quot;:null}" fill-rule="nonzero" stroke-width="1" stroke-linecap="butt" stroke-linejoin="miter"><path d="M307.56717,265.76801c2.793,1.826 2.689,6.935 -0.244,11.415c-2.928,4.481 -7.561,6.638 -10.354,4.813c-2.791,-1.824 -2.682,-6.936 0.242,-11.415c2.927,-4.482 7.565,-6.636 10.356,-4.813z" fill="#ffffff" stroke="#231f20"/><path d="M297.96217,277.73701c0,-1.08 0.802,-1.958 1.8,-1.958c0.993,0 1.803,0.878 1.803,1.958c0,1.079 -0.81,1.956 -1.803,1.956c-0.998,0 -1.8,-0.876 -1.8,-1.956" fill="#231f20" stroke="none"/></g><g data-paper-data="{&quot;index&quot;:null}" fill-rule="nonzero" stroke-width="1" stroke-linecap="butt" stroke-linejoin="miter"><path d="M332.46317,269.62401c3.302,2.157 3.606,7.537 0.678,12.017c-2.925,4.48 -7.974,6.367 -11.276,4.208c-3.3,-2.153 -3.607,-7.535 -0.681,-12.015c2.929,-4.482 7.976,-6.366 11.279,-4.21z" fill="#ffffff" stroke="#231f20"/><path d="M322.97217,279.72201c0,-1.08 0.805,-1.957 1.801,-1.957c0.992,0 1.803,0.877 1.803,1.957c0,1.079 -0.811,1.957 -1.803,1.957c-0.998,0 -1.801,-0.876 -1.801,-1.957" fill="#231f20" stroke="none"/></g><path d="M313.77117,284.13601c-0.07,1.566 -4.912,4.061 -6.195,3.919c-1.279,-0.142 -3.131,-3.49 -2.988,-4.345c0.142,-0.853 2.843,-0.569 4.697,-0.569c1.711,0 4.56,-0.571 4.486,0.995z" data-paper-data="{&quot;index&quot;:null}" fill="#5e4a42" fill-rule="nonzero" stroke="#000000" stroke-width="1" stroke-linecap="butt" stroke-linejoin="miter"/><path d="M314.53717,303.67501c-9.338,2.601 -17.328,-7.644 -17.328,-7.644c0,0 6.983,-0.842 10.851,-1.684c3.87,-0.843 14.217,-3.897 14.217,-3.897c1.429,4.74 1.598,10.628 -7.74,13.225z" data-paper-data="{&quot;index&quot;:null}" fill="none" fill-rule="nonzero" stroke="#231f20" stroke-width="1.2" stroke-linecap="butt" stroke-linejoin="miter"/><text transform="translate(20.97834,52.0028) scale(0.5,0.5)" font-size="40" xml:space="preserve" fill="#000000" fill-rule="nonzero" stroke="none" stroke-width="1" stroke-linecap="butt" stroke-linejoin="miter" stroke-miterlimit="10" stroke-dasharray="" stroke-dashoffset="0" font-family="Sans Serif" font-weight="normal" text-anchor="start" style="mix-blend-mode: normal"><tspan x="0" dy="0">examples</tspan></text><g><g fill="#ffab19" fill-rule="nonzero" stroke="#000000" stroke-width="1.2" stroke-linecap="round" stroke-linejoin="round"><path d="M398.59177,237.63125c0,0 -0.2707,5.79522 -2.78412,8.40956c-2.59742,2.70172 -7.19069,6.23134 -7.19069,6.23134c1.11335,0.31631 5.51752,0.62306 5.24714,6.03599c-0.14443,2.52676 -12.7479,2.78301 -15.67122,1.93772c-2.64345,-0.73625 -3.37085,-1.54795 -3.08341,-3.96029c0.38736,-3.13657 6.77416,-9.72923 10.35856,-12.03131c0.8041,-3.03293 2.10516,-8.16427 2.10516,-8.16427"/><path d="M385.89207,252.61956c2.03443,-0.44028 3.01093,-0.11857 3.01093,-0.11857"/></g><path d="M405.05911,223.2186c-1.88853,-1.04272 -5.52093,-2.02703 -6.99278,-3.88943c0,0 0.08749,-2.11865 0.31271,-2.80132c0.30704,-0.93075 1.11701,-3.49702 1.11701,-3.49702l1.08482,-0.40653c0.75627,-0.52297 11.1382,2.59806 11.8541,2.23128c6.06621,-3.10811 10.17111,-1.14436 10.6221,0.56798c1.25945,4.61848 -1.62611,8.30531 -12.21225,9.16655z" fill="#ffab19" fill-rule="nonzero" stroke="#000000" stroke-width="1.2" stroke-linecap="round" stroke-linejoin="round"/><g fill-rule="evenodd"><path d="M386.23402,229.74941c0.73267,0.51303 2.28226,1.65266 -0.59053,4.66383c-2.87279,3.01116 -9.80083,2.69142 -10.59217,2.57407c-3.08113,-0.35582 -6.84003,-0.91325 -10.78923,-2.91421c-11.48126,-5.74636 -9.65853,-18.71932 -5.49267,-20.2245c4.06694,-1.51986 4.56036,6.74189 9.28208,12.39569c2.05132,2.52826 4.80259,3.74501 7.10329,4.59166c3.27521,1.09226 10.26232,-1.71314 11.07924,-1.08653z" fill="#ffab19" stroke="#000000" stroke-width="1.2" stroke-linecap="round" stroke-linejoin="round"/><path d="M362.8905,218.0991c1.18663,2.9055 3.69567,7.11913 3.69567,7.11913c0,0 -3.52795,-1.43302 -5.85461,-0.05946c-1.87231,1.03656 -1.79935,3.27144 -1.7042,3.99321c-1.09524,-1.47664 -2.41389,-3.49187 -2.88965,-7.1007c-0.47576,-3.60883 1.12952,-7.6167 3.1959,-7.91683c2.03704,-0.10229 2.3116,1.45483 3.5569,3.96465z" fill="#ffffff" stroke="none" stroke-width="1" stroke-linecap="butt" stroke-linejoin="miter"/></g><g fill-rule="evenodd"><path d="M401.24147,237.13106c-2.21048,2.02937 -8.37919,3.01515 -8.37919,3.01515c-11.8527,-0.80825 -8.86863,-7.94653 -9.92506,-13.35153c-0.75485,-4.74238 -0.83078,-8.25381 4.51531,-11.23025c2.91275,-1.8237 6.06204,0.51533 7.67217,-0.98717c2.44761,-2.21567 5.10285,1.82779 6.0385,4.31468c0,0 1.33299,3.72466 1.5751,6.01406c0.27303,2.78845 0.73319,6.10786 0.40308,7.57109c0,0 0.31057,2.62461 -1.89993,4.65396z" fill="#ffab19" stroke="#000000" stroke-width="1.2" stroke-linecap="round" stroke-linejoin="round"/><path d="M402.32638,233.64522c0,0 -1.94625,1.10834 -4.13692,1.00368c-4.6332,0.12005 -5.49498,-3.02864 -5.98215,-6.68551c-0.18561,-2.99425 -0.96603,-6.53275 4.34024,-7.2424c5.02432,-0.73225 5.19862,2.40298 5.19862,2.40298c1.24259,4.85242 0.58022,10.52125 0.58022,10.52125z" fill="#ffffff" stroke="none" stroke-width="1" stroke-linecap="butt" stroke-linejoin="miter"/></g><g fill="#ffab19" fill-rule="nonzero" stroke="#000000" stroke-width="1.2" stroke-linecap="round" stroke-linejoin="round"><path d="M391.36717,239.42112l-19.55464,10.38884c0,0 1.07223,7.34756 -7.16979,7.94676c-4.19442,0 -3.47537,-3.71506 -3.35553,-11.02533c0.35952,-3.35553 0.35952,-3.35553 2.63649,-3.95474c8.50868,-2.39681 20.49273,-13.3023 20.49273,-13.3023"/><path d="M370.63476,249.72741"/></g><g data-paper-data="{&quot;index&quot;:null}" fill="#ffab19" fill-rule="nonzero" stroke="#000000" stroke-width="1.2" stroke-linecap="round" stroke-linejoin="round"><path d="M372.79678,225.85627c-0.04902,-0.56016 -4.53803,-7.5269 -4.46572,-8.03641c1.97289,-3.64649 4.23657,-4.92537 8.57718,-5.17639c2.30618,-0.13337 6.31942,-0.47562 8.716,0.3715c0,0 0.9696,1.12989 1.15526,1.87694c0.25311,1.0185 1.98422,4.80583 1.98422,4.80583"/><path d="M384.2477,221.84909c-0.38662,0.9055 -8.80869,1.84045 -9.24789,2.58141c-3.72161,6.27864 -8.56151,6.84275 -9.94754,5.54886c-3.7774,-3.46528 -3.26772,-8.45262 5.83141,-15.27577"/></g><g fill-rule="evenodd"><path d="M399.92188,157.12804c0.24571,-0.26387 0.75529,-0.28204 0.94495,0.08406l5.0006,9.8104c0,0 7.31236,3.09506 9.92305,5.86711c4.38359,4.61239 5.52003,8.96767 5.52003,8.96767c0,0 7.39304,0.40369 9.87687,5.67252c2.48382,5.26883 0.69672,16.79299 -16.74074,24.73434c-17.43746,7.94134 -33.30705,6.46613 -42.84767,-2.9862c-9.54063,-9.45233 -1.78389,-25.27108 -2.18293,-24.35415l-6.17677,-16.93126c-0.18966,-0.3661 0.22754,-0.77345 0.66291,-0.67123l13.59725,4.89231c0,0 3.98581,-2.6932 8.51259,-3.97314c2.67813,-0.84117 5.05946,-1.2008 7.38966,-1.34274z" fill="#ffab19" stroke="#000000" stroke-width="1.2" stroke-linecap="butt" stroke-linejoin="miter"/><path d="M421.111,182.31575c0,0 7.12917,0.15798 9.613,5.42681c2.48382,5.26883 0.19206,16.39888 -17.07388,24.19674c-22.39131,10.4532 -36.90577,-0.90199 -32.83465,-12.76267c4.04803,-11.95798 17.33862,-5.75955 25.37303,-8.28309c6.88994,-2.14913 6.2135,-8.46359 14.92251,-8.57779z" fill="#ffffff" stroke="none" stroke-width="1" stroke-linecap="butt" stroke-linejoin="miter"/><path d="M439.26771,179.13705c-3.69546,4.78263 -10.67777,6.54257 -10.67777,6.54257" fill="none" stroke="#000000" stroke-width="1.2" stroke-linecap="round" stroke-linejoin="round"/><path d="M440.58917,190.33453c-6.01427,1.9413 -10.24761,0.99325 -10.24761,0.99325" fill="none" stroke="#000000" stroke-width="1.2" stroke-linecap="round" stroke-linejoin="round"/><path d="M405.1989,188.45619c2.04324,-0.48494 4.22996,-0.79838 4.48891,-0.14039c0.42059,1.33907 -0.39229,4.40978 -1.92595,4.87655c-1.70516,0.61026 -6.36895,-0.8523 -6.73844,-2.40905c-0.3744,-1.14447 2.22952,-1.86527 4.17547,-2.32711z" fill="#000000" stroke="#000000" stroke-width="1.2" stroke-linecap="round" stroke-linejoin="round"/><path d="M361.06877,197.38826c0,0 9.01415,0.73838 13.13541,2.94637" fill="none" stroke="#000000" stroke-width="1.2" stroke-linecap="round" stroke-linejoin="round"/><path d="M375.30431,203.67077c-3.79121,2.64703 -11.24521,3.28558 -11.24521,3.28558" fill="none" stroke="#000000" stroke-width="1.2" stroke-linecap="round" stroke-linejoin="round"/><g><path d="M413.97818,174.34753c3.86077,3.70869 5.13577,8.64777 2.82712,11.04569c-2.30866,2.39794 -7.26927,1.41693 -11.22734,-2.26867c-3.86077,-3.70869 -5.13577,-8.64777 -2.82712,-11.04569c2.28557,-2.49524 7.36656,-1.44003 11.22734,2.26867z" fill="#ffffff" stroke="#000000" stroke-width="1.2" stroke-linecap="round" stroke-linejoin="round"/><path d="M415.90524,181.98584c0.25401,1.07027 -0.31654,2.13068 -1.28951,2.36161c-0.97297,0.23093 -1.95918,-0.46001 -2.2132,-1.53028c-0.25401,-1.07027 0.31654,-2.13068 1.28951,-2.36161c0.97297,-0.23093 1.95918,0.46001 2.2132,1.53028" fill="#000000" stroke="none" stroke-width="1" stroke-linecap="butt" stroke-linejoin="miter"/></g><g><path d="M390.49505,182.79874c3.93498,3.58831 4.98736,8.88854 2.79909,11.36068c-2.77205,2.6107 -7.37642,2.2646 -11.3114,-1.32371c-4.03227,-3.56522 -5.54313,-9.06497 -3.03494,-11.92137c2.48509,-2.95369 7.61227,-1.7039 11.54725,1.8844z" fill="#ffffff" stroke="#000000" stroke-width="1.2" stroke-linecap="round" stroke-linejoin="round"/><path d="M392.00063,190.33053c0.25401,1.07027 -0.31654,2.13068 -1.28951,2.36161c-0.97297,0.23093 -1.95918,-0.46001 -2.2132,-1.53028c-0.25401,-1.07027 0.31654,-2.13068 1.28951,-2.36161c0.99606,-0.13363 1.95918,0.46001 2.2132,1.53028" fill="#000000" stroke="none" stroke-width="1" stroke-linecap="butt" stroke-linejoin="miter"/></g></g><path d="M396.61692,207.97436c0,2.48528 -2.23858,4.5 -5,4.5c-2.76142,0 -5,-2.01472 -5,-4.5c0,-2.48528 2.23858,-4.5 5,-4.5c2.76142,0 5,2.01472 5,4.5z" fill="#ffffff" fill-rule="nonzero" stroke="#000000" stroke-width="1.2" stroke-linecap="butt" stroke-linejoin="miter"/></g></g></g></svg>