<svg version="1.1" xmlns="http://www.w3.org/2000/svg" xmlns:xlink="http://www.w3.org/1999/xlink" width="55.76604" height="79.29007" viewBox="0,0,55.76604,79.29007"><g transform="translate(-214.2185,-142.37988)"><g data-paper-data="{&quot;isPaintingLayer&quot;:true}" fill-rule="nonzero" stroke="none" stroke-width="0" stroke-linecap="butt" stroke-linejoin="miter" stroke-miterlimit="10" stroke-dasharray="" stroke-dashoffset="0" style="mix-blend-mode: normal"><path d="M269.00338,186.97045c0,28.09715 7.9456,34.6995 -21.38507,34.6995c-8.83265,0 -32.977,-0.31338 -28.50186,-14.04248c1.92721,-5.91242 20.32277,-2.53272 21.07069,-9.47745c0.5381,-4.99654 -17.88521,0.26074 -17.11628,-14.75503c0.76893,-15.01577 17.37171,-9.12223 18.09715,-13.87365c1.19061,-7.79824 -13.49646,0.52322 -19.7035,-8.6465c-6.20704,-9.16974 15.74974,-14.37167 21.89067,-14.37167c29.33067,0 25.6482,12.37014 25.6482,40.46729z" fill="#da9494"></path><path d="M264.6534,182.84715c0,28.09715 7.9456,34.6995 -21.38507,34.6995c-8.83265,0 -32.977,-0.31338 -28.50186,-14.04248c1.92721,-5.91242 20.32277,-2.53272 21.07069,-9.47745c0.5381,-4.99654 -17.88521,0.26074 -17.11628,-14.75503c0.76893,-15.01577 17.37171,-9.12223 18.09715,-13.87365c1.19061,-7.79824 -13.49646,0.52322 -19.7035,-8.6465c-6.20704,-9.16974 15.74974,-14.37167 21.89067,-14.37167c29.33067,0 25.6482,12.37014 25.6482,40.46729z" fill="#ffaeae"></path></g></g></svg>