<svg version="1.1" xmlns="http://www.w3.org/2000/svg" xmlns:xlink="http://www.w3.org/1999/xlink" width="195.36414" height="67.0501" viewBox="0,0,195.36414,67.0501"><g transform="translate(-144.43725,-165.79772)"><g data-paper-data="{&quot;isPaintingLayer&quot;:true}" fill-rule="nonzero" stroke-linecap="butt" stroke-linejoin="miter" stroke-miterlimit="10" stroke-dasharray="" stroke-dashoffset="0" style="mix-blend-mode: normal"><g fill="#151535" stroke="none" stroke-width="0"><path d="M173.39125,201.37177c0.15723,9.73659 20.65238,15.11159 -3.92161,18.50421c-17.85226,2.46464 -16.33944,-8.57398 -16.49666,-18.31057c-0.15723,-9.73659 4.2861,-17.673 9.92445,-17.72647c5.63836,-0.05347 10.3366,7.79624 10.49383,17.53283z"></path><path d="M325.46322,184.59253c5.63836,-0.05347 10.3366,7.79624 10.49383,17.53283c0.15723,9.73659 2.02604,20.74314 -15.90034,18.61781c-24.67603,-2.92555 -4.36071,-8.68758 -4.51795,-18.42417c-0.15723,-9.73659 4.2861,-17.673 9.92445,-17.72647z" data-paper-data="{&quot;index&quot;:null}"></path><path d="M189.91454,212.90042c0.15723,9.73659 20.65238,15.11159 -3.92161,18.50421c-17.85226,2.46464 -16.33944,-8.57398 -16.49666,-18.31057c-0.15723,-9.73659 4.2861,-17.673 9.92445,-17.72647c5.63836,-0.05347 10.3366,7.79624 10.49383,17.53283z"></path><path d="M309.31727,196.431c5.63836,-0.05347 10.3366,7.79624 10.49383,17.53283c0.15723,9.73659 2.02604,20.74314 -15.90034,18.61781c-24.67603,-2.92555 -4.36071,-8.68758 -4.51795,-18.42417c-0.15723,-9.73659 4.2861,-17.673 9.92445,-17.72647z" data-paper-data="{&quot;index&quot;:null}"></path><path d="M339.7728,192.83384c-1.24538,18.96291 -43.06174,25.42453 -94.26148,23.44974c-51.19974,-1.9748 -92.39455,-11.63821 -91.14918,-30.60112c1.24538,-18.96291 44.66216,-10.62436 95.8619,-8.64957c51.19974,1.9748 90.79412,-3.16197 89.54875,15.80095z" data-paper-data="{&quot;index&quot;:null}"></path><path d="M327.258,193.10537c-1.0771,16.40049 -37.24289,21.98897 -81.52411,20.28102c-44.28121,-1.70795 -79.90946,-10.06556 -78.83236,-26.46605c1.0771,-16.40049 38.62704,-9.18871 82.90827,-7.48076c44.28121,1.70795 78.5253,-2.7347 77.4482,13.6658z" data-paper-data="{&quot;index&quot;:null}"></path></g><path d="M165.89983,194.5693c0,9.73734 20.4068,15.30627 -4.2201,18.46561c-17.89069,2.29516 -16.19974,-8.72827 -16.19974,-18.46561c0,-9.73734 4.57114,-17.631 10.20992,-17.631c5.63878,0 10.20992,7.89367 10.20992,17.631z" fill="#3d4698" stroke="#000000" stroke-width="2"></path><path d="M318.2311,179.23346c5.63878,0 10.20992,7.89367 10.20992,17.631c0,9.73734 1.69095,20.76077 -16.19974,18.46561c-24.6269,-3.15933 -4.2201,-8.72827 -4.2201,-18.46561c0,-9.73734 4.57114,-17.631 10.20992,-17.631z" data-paper-data="{&quot;index&quot;:null}" fill="#3d4698" stroke="#000000" stroke-width="2"></path><path d="M182.2357,206.25375c0,9.73734 20.4068,15.30627 -4.2201,18.46561c-17.89069,2.29516 -16.19974,-8.72827 -16.19974,-18.46561c0,-9.73734 4.57114,-17.631 10.20992,-17.631c5.63878,0 10.20992,7.89367 10.20992,17.631z" fill="#3d4698" stroke="#000000" stroke-width="2"></path><path d="M301.89522,190.91791c5.63878,0 10.20992,7.89367 10.20992,17.631c0,9.73734 1.69095,20.76077 -16.19974,18.46561c-24.6269,-3.15933 -4.2201,-8.72827 -4.2201,-18.46561c0,-9.73734 4.57114,-17.631 10.20992,-17.631z" data-paper-data="{&quot;index&quot;:null}" fill="#3d4698" stroke="#000000" stroke-width="2"></path><path d="M332.40651,187.60984c-1.55148,18.94965 -43.46897,25.01422 -94.6329,22.55405c-51.16393,-2.46019 -92.19955,-12.51351 -90.64808,-31.46316c1.55148,-18.94965 44.83029,-10.20001 95.99422,-7.73983c51.16393,2.46019 90.83823,-2.30071 89.28676,16.64894z" data-paper-data="{&quot;index&quot;:null}" fill="#222254" stroke="#000000" stroke-width="2"></path><path d="M319.88829,187.76267c-1.34183,16.38902 -37.59509,21.6341 -81.84534,19.50637c-44.25025,-2.12775 -79.74081,-10.82258 -78.39898,-27.2116c1.34183,-16.38902 38.77246,-8.8217 83.02271,-6.69396c44.25025,2.12775 78.56344,-1.98982 77.22161,14.3992z" data-paper-data="{&quot;index&quot;:null}" fill="#afafd0" stroke="#000000" stroke-width="2"></path></g></g></svg>