<svg version="1.1" xmlns="http://www.w3.org/2000/svg" xmlns:xlink="http://www.w3.org/1999/xlink" width="99.37513" height="99.50571" viewBox="0,0,99.37513,99.50571"><g transform="translate(-190.31244,-130.24715)"><g data-paper-data="{&quot;isPaintingLayer&quot;:true}" stroke-miterlimit="10" stroke-dasharray="" stroke-dashoffset="0" style="mix-blend-mode: normal"><path d="M284.16364,180.00005c0,24.42958 -19.77273,44.23368 -44.16364,44.23368c-24.39089,0 -44.16364,-19.80409 -44.16364,-44.23368c0,-24.42958 19.77273,-44.23368 44.16365,-44.23368c24.39089,0 44.16364,19.80409 44.16364,44.23368z" fill-opacity="0.52509" fill="#7d0000" fill-rule="nonzero" stroke="none" stroke-width="0" stroke-linecap="butt" stroke-linejoin="miter"/><path d="M288.68757,180.00002c0,26.92545 -21.79818,48.75285 -48.68757,48.75285c-26.88939,0 -48.68756,-21.82739 -48.68756,-48.75285c0,-26.92545 21.79817,-48.75286 48.68756,-48.75286c26.88939,0 48.68757,21.8274 48.68757,48.75286z" fill="none" fill-rule="nonzero" stroke-opacity="0.81989" stroke="#7d0000" stroke-width="2" stroke-linecap="butt" stroke-linejoin="miter"/><g fill-opacity="0.27408" fill="#b96161" stroke-opacity="0.54839" stroke="#674141"><g stroke-width="0"><path d="M231.37756,187.46216c-1.34753,-0.94342 -1.71145,-3.96955 -2.20938,-4.54508c-0.16244,-0.14123 -3.83332,0.60338 -6.03106,1.03151c-3.09814,0.64358 -4.68957,-3.79208 -2.13176,-5.61855c2.41657,-1.66402 8.63128,-2.25062 9.9604,-2.00778c3.05514,0.48849 4.82126,7.23928 6.07629,11.70527" data-paper-data="{&quot;index&quot;:null}" fill-rule="evenodd" stroke-linecap="round" stroke-linejoin="round"/><g fill-rule="evenodd"><path d="M225.83097,184.11805c0.27497,0.49363 0.84148,1.56869 -1.62172,2.48802c-2.46319,0.91932 -6.31282,-1.17285 -6.73025,-1.45776c-1.65316,-1.05188 -3.63594,-2.40524 -5.32884,-4.63157c-4.94121,-6.43215 -0.32785,-13.30318 2.45502,-13.00995c2.7307,0.25761 0.73295,5.08953 1.85765,9.6051c0.46876,2.00268 1.69703,3.45294 2.77125,4.56859c1.56039,1.52398 6.30537,1.85615 6.59691,2.43757z" stroke-linecap="round" stroke-linejoin="round"/><path d="M215.77545,171.05911c-0.12674,1.97866 0.13744,5.06551 0.13744,5.06551c0,0 -1.61008,-1.78735 -3.31128,-1.64823c-1.35003,0.07287 -1.92484,1.36326 -2.06979,1.79975c-0.21533,-1.14132 -0.40912,-2.65037 0.31561,-4.83277c0.72473,-2.1824 2.74234,-4.01776 3.9996,-3.61853c1.18603,0.50358 0.9127,1.46434 0.92842,3.23428z" stroke-linecap="butt" stroke-linejoin="miter"/></g><g fill-rule="evenodd"><path d="M228.36233,195.08753c-1.86571,-0.33594 -4.71976,-3.06163 -4.71976,-3.06163c-4.12468,-6.27027 0.60628,-7.49835 2.92085,-10.09596c2.0966,-2.19262 3.83363,-3.5732 7.37439,-2.02227c2.03075,0.76778 2.05828,3.24589 3.4295,3.48131c2.05007,0.38399 1.03149,3.26521 0.13841,4.68651c0,0 -1.36372,2.09433 -2.42261,3.09132c-1.29807,1.20332 -2.79164,2.70374 -3.65377,3.09709c0,0 -1.20131,1.15957 -3.06702,0.8236z" stroke-linecap="round" stroke-linejoin="round"/><path d="M230.53028,194.30057c0,0 -1.30147,-0.55515 -2.08631,-1.69696c-1.83161,-2.28436 -0.57744,-3.92151 1.07553,-5.56452c1.43499,-1.23803 2.91633,-2.98328 5.30178,-0.5858c2.28904,2.24704 0.77882,3.53327 0.77882,3.53327c-1.96548,2.48 -5.06982,4.31401 -5.06982,4.31401z" stroke-linecap="butt" stroke-linejoin="miter"/></g><g fill-rule="nonzero" stroke-linecap="round" stroke-linejoin="round"><path d="M229.85486,195.10617l-11.57182,7.85989c0,0 1.17512,4.54138 -3.96033,5.48049c-2.63429,0.2864 -2.43636,-2.09592 -2.86025,-6.69528c-0.00333,-2.13198 -0.00333,-2.13197 1.3858,-2.66378c5.18017,-2.08629 11.96204,-9.75373 11.96204,-9.75373"/><path d="M217.5377,202.99463"/></g><g fill-rule="nonzero" stroke-linecap="round" stroke-linejoin="round"><path d="M226.37979,192.68764l-13.61609,3.2073c0,0 -0.5248,4.6615 -5.65686,3.70405c-2.56277,-0.67357 -1.52684,-2.82798 -0.27968,-7.27527c0.75852,-1.99248 0.75852,-1.99248 2.24596,-1.99294c5.58365,-0.09805 14.65713,-4.83676 14.65713,-4.83676"/><path d="M212.05733,195.65536"/></g><g fill-rule="evenodd"><path d="M265.2402,157.80473c0.22687,-0.02039 0.47413,0.18608 0.40882,0.43824l-1.78824,6.72261c0,0 2.13219,4.54062 2.19003,6.94554c0.11491,4.01827 -1.18843,6.54554 -1.18843,6.54554c0,0 3.30572,3.30924 2.25042,6.83456c-1.0553,3.52532 -6.75808,8.18969 -18.3076,4.56595c-11.54951,-3.62374 -18.3886,-11.0134 -18.88607,-19.48327c-0.49747,-8.46988 9.82417,-12.63463 9.24966,-12.37187l4.23982,-10.56696c0.0653,-0.25216 0.43333,-0.26765 0.5949,-0.03589l4.32887,8.03751c0,0 3.01042,0.41549 5.67888,1.72373c1.61412,0.73451 2.88552,1.57021 4.04102,2.48668z" stroke-linecap="butt" stroke-linejoin="miter"/><path d="M264.57512,178.58803c0,0 3.28533,3.08237 2.23003,6.6077c-1.0553,3.52532 -6.82907,7.79144 -18.23739,4.17262c-14.93857,-4.53295 -16.97173,-15.99618 -10.05306,-19.85505c6.94887,-3.91436 10.58244,4.60787 15.42485,6.81141c4.14631,1.89668 6.4926,-1.35767 10.63557,2.26333z" stroke-linecap="butt" stroke-linejoin="miter"/><path d="M274.45326,184.75454c-3.75552,0.68942 -7.78105,-1.42922 -7.78105,-1.42922" stroke-linecap="round" stroke-linejoin="round"/><path d="M270.34989,190.57694c-3.6469,-1.62491 -5.2373,-3.85689 -5.2373,-3.85689" stroke-linecap="round" stroke-linejoin="round"/><path d="M254.50269,174.76116c1.1653,0.63412 2.32571,1.40941 2.16983,1.82805c-0.36726,0.80707 -2.04511,1.90786 -2.96316,1.48021c-1.05922,-0.43255 -2.63493,-3.08806 -2.15179,-3.97592c0.30686,-0.69608 1.83531,0.06372 2.94512,0.66765z" stroke-linecap="round" stroke-linejoin="round"/><path d="M229.98481,160.34048c0,0 3.92671,4.15062 4.9328,6.9277" stroke-linecap="round" stroke-linejoin="round"/><path d="M234.02721,169.30096c-2.89944,-0.35509 -6.67359,-3.20001 -6.67359,-3.20001" stroke-linecap="round" stroke-linejoin="round"/><g><path d="M264.58355,171.83191c0.2504,3.37277 -1.42798,7.13266 -3.52524,7.286c-2.09728,0.15334 -3.82186,-3.30067 -4.12775,-6.70363c-0.2504,-3.37277 1.23412,-6.233 3.33139,-6.38633c2.12747,-0.20883 4.07121,2.43119 4.32161,5.80397z" stroke-linecap="round" stroke-linejoin="round"/><path d="M262.26669,176.23639c-0.33216,0.6104 -1.04785,0.86824 -1.60276,0.56628c-0.55491,-0.30196 -0.72707,-1.04295 -0.39491,-1.65335c0.33216,-0.6104 1.04785,-0.86824 1.60276,-0.56628c0.55491,0.30196 0.72707,1.04295 0.39491,1.65335" stroke-linecap="butt" stroke-linejoin="miter"/></g><g><path d="M249.97636,165.89698c0.33609,3.34748 -1.33576,7.57318 -3.40774,7.8122c-2.40492,0.05786 -4.4935,-3.33725 -4.82957,-6.68472c-0.39157,-3.37768 1.21863,-6.60104 3.60316,-6.88575c2.41472,-0.3402 4.29808,2.41079 4.63417,5.75827z" stroke-linecap="round" stroke-linejoin="round"/><path d="M247.50628,170.07353c-0.33216,0.6104 -1.04785,0.86824 -1.60276,0.56628c-0.55491,-0.30196 -0.72707,-1.04295 -0.39491,-1.65335c0.33216,-0.6104 1.04785,-0.86824 1.60276,-0.56628c0.52471,0.35745 0.72707,1.04295 0.39491,1.65335" stroke-linecap="butt" stroke-linejoin="miter"/></g></g><path d="M252.27133,186.02826c-0.90714,1.87227 -3.73374,0.47416 -6.85418,-1.03774c-3.12046,-1.5119 -5.97585,-3.37416 -5.06871,-5.24644c0.90714,-1.87227 5.47262,-4.3249 8.59307,-2.813c3.12046,1.5119 4.23696,7.2249 3.32982,9.09717z" fill-rule="nonzero" stroke-linecap="butt" stroke-linejoin="miter"/><path d="M228.28305,181.50389c-1.44811,-0.7803 -2.16149,-3.74357 -2.72298,-4.25729c-0.17776,-0.12138 -3.73714,1.0451 -5.87017,1.72592c-3.00228,0.99953 -5.09877,-3.22095 -2.77074,-5.3325c2.20665,-1.93378 8.31096,-3.23916 9.65931,-3.15254c3.09123,0.12987 5.63046,6.62944 7.39638,10.91917" fill-rule="evenodd" stroke-linecap="round" stroke-linejoin="round"/></g><path d="M235.51297,188.32963c-1.34753,-0.94342 -1.71145,-3.96955 -2.20938,-4.54508c-0.16244,-0.14123 -3.83332,0.60338 -6.03106,1.03151c-3.09814,0.64358 -4.68957,-3.79208 -2.13176,-5.61855c2.41657,-1.66402 8.63128,-2.25062 9.9604,-2.00778c3.05514,0.48849 4.82126,7.23928 6.07629,11.70527" data-paper-data="{&quot;index&quot;:null}" fill-rule="evenodd" stroke-width="1.2" stroke-linecap="round" stroke-linejoin="round"/><g fill-rule="evenodd"><path d="M229.96638,184.98553c0.27497,0.49363 0.84148,1.56869 -1.62172,2.48802c-2.46319,0.91932 -6.31282,-1.17285 -6.73025,-1.45776c-1.65316,-1.05188 -3.63594,-2.40524 -5.32884,-4.63157c-4.94121,-6.43215 -0.32785,-13.30318 2.45502,-13.00995c2.7307,0.25761 0.73295,5.08953 1.85765,9.6051c0.46876,2.00268 1.69703,3.45294 2.77125,4.56859c1.56039,1.52398 6.30537,1.85615 6.59691,2.43757z" stroke-width="1.2" stroke-linecap="round" stroke-linejoin="round"/><path d="M219.91085,171.92659c-0.12674,1.97866 0.13744,5.06551 0.13744,5.06551c0,0 -1.61008,-1.78735 -3.31128,-1.64823c-1.35003,0.07287 -1.92484,1.36326 -2.06979,1.79975c-0.21533,-1.14132 -0.40912,-2.65037 0.31561,-4.83277c0.72473,-2.1824 2.74234,-4.01776 3.9996,-3.61853c1.18603,0.50358 0.9127,1.46434 0.92842,3.23428z" stroke-width="1" stroke-linecap="butt" stroke-linejoin="miter"/></g><g fill-rule="evenodd"><path d="M232.49774,195.955c-1.86571,-0.33594 -4.71976,-3.06163 -4.71976,-3.06163c-4.12468,-6.27027 0.60628,-7.49835 2.92085,-10.09596c2.0966,-2.19262 3.83363,-3.5732 7.37439,-2.02227c2.03075,0.76778 2.05828,3.24589 3.4295,3.48131c2.05007,0.38399 1.03149,3.26521 0.13841,4.68651c0,0 -1.36372,2.09433 -2.42261,3.09132c-1.29807,1.20332 -2.79164,2.70374 -3.65377,3.09709c0,0 -1.20131,1.15957 -3.06702,0.8236z" stroke-width="1.2" stroke-linecap="round" stroke-linejoin="round"/><path d="M234.66569,195.16805c0,0 -1.30147,-0.55515 -2.08631,-1.69696c-1.83161,-2.28436 -0.57744,-3.92151 1.07553,-5.56452c1.43499,-1.23803 2.91633,-2.98328 5.30178,-0.5858c2.28904,2.24704 0.77882,3.53327 0.77882,3.53327c-1.96548,2.48 -5.06982,4.31401 -5.06982,4.31401z" stroke-width="1" stroke-linecap="butt" stroke-linejoin="miter"/></g><g fill-rule="nonzero" stroke-width="1.2" stroke-linecap="round" stroke-linejoin="round"><path d="M233.99026,195.97365l-11.57182,7.85989c0,0 1.17512,4.54138 -3.96033,5.48049c-2.63429,0.2864 -2.43636,-2.09592 -2.86025,-6.69528c-0.00333,-2.13198 -0.00333,-2.13197 1.3858,-2.66378c5.18017,-2.08629 11.96204,-9.75373 11.96204,-9.75373"/><path d="M221.67311,203.86211"/></g><g fill-rule="nonzero" stroke-width="1.2" stroke-linecap="round" stroke-linejoin="round"><path d="M230.5152,193.55511l-13.61609,3.2073c0,0 -0.5248,4.6615 -5.65686,3.70405c-2.56277,-0.67357 -1.52684,-2.82798 -0.27968,-7.27527c0.75852,-1.99248 0.75852,-1.99248 2.24596,-1.99294c5.58365,-0.09805 14.65713,-4.83676 14.65713,-4.83676"/><path d="M216.19274,196.52284"/></g><g fill-rule="evenodd"><path d="M269.3756,158.6722c0.22687,-0.02039 0.47413,0.18608 0.40882,0.43824l-1.78824,6.72261c0,0 2.13219,4.54062 2.19003,6.94554c0.11491,4.01827 -1.18843,6.54554 -1.18843,6.54554c0,0 3.30572,3.30924 2.25042,6.83456c-1.0553,3.52532 -6.75808,8.18969 -18.3076,4.56595c-11.54951,-3.62374 -18.3886,-11.0134 -18.88607,-19.48327c-0.49747,-8.46988 9.82417,-12.63463 9.24966,-12.37187l4.23982,-10.56696c0.0653,-0.25216 0.43333,-0.26765 0.5949,-0.03589l4.32887,8.03751c0,0 3.01042,0.41549 5.67888,1.72373c1.61412,0.73451 2.88552,1.57021 4.04102,2.48668z" stroke-width="1.2" stroke-linecap="butt" stroke-linejoin="miter"/><path d="M268.71053,179.45551c0,0 3.28533,3.08237 2.23003,6.6077c-1.0553,3.52532 -6.82907,7.79144 -18.23739,4.17262c-14.93857,-4.53295 -16.97173,-15.99618 -10.05306,-19.85505c6.94887,-3.91436 10.58244,4.60787 15.42485,6.81141c4.14631,1.89668 6.4926,-1.35767 10.63557,2.26333z" stroke-width="1" stroke-linecap="butt" stroke-linejoin="miter"/><path d="M278.58866,185.62202c-3.75552,0.68942 -7.78105,-1.42922 -7.78105,-1.42922" stroke-width="1.2" stroke-linecap="round" stroke-linejoin="round"/><path d="M274.4853,191.44442c-3.6469,-1.62491 -5.2373,-3.85689 -5.2373,-3.85689" stroke-width="1.2" stroke-linecap="round" stroke-linejoin="round"/><path d="M258.63809,175.62864c1.1653,0.63412 2.32571,1.40941 2.16983,1.82805c-0.36726,0.80707 -2.04511,1.90786 -2.96316,1.48021c-1.05922,-0.43255 -2.63493,-3.08806 -2.15179,-3.97592c0.30686,-0.69608 1.83531,0.06372 2.94512,0.66765z" stroke-width="1.2" stroke-linecap="round" stroke-linejoin="round"/><path d="M234.12022,161.20796c0,0 3.92671,4.15062 4.9328,6.9277" stroke-width="1.2" stroke-linecap="round" stroke-linejoin="round"/><path d="M238.16262,170.16843c-2.89944,-0.35509 -6.67359,-3.20001 -6.67359,-3.20001" stroke-width="1.2" stroke-linecap="round" stroke-linejoin="round"/><g><path d="M268.71895,172.69939c0.2504,3.37277 -1.42798,7.13266 -3.52524,7.286c-2.09728,0.15334 -3.82186,-3.30067 -4.12775,-6.70363c-0.2504,-3.37277 1.23412,-6.233 3.33139,-6.38633c2.12747,-0.20883 4.07121,2.43119 4.32161,5.80397z" stroke-width="1.2" stroke-linecap="round" stroke-linejoin="round"/><path d="M266.4021,177.10387c-0.33216,0.6104 -1.04785,0.86824 -1.60276,0.56628c-0.55491,-0.30196 -0.72707,-1.04295 -0.39491,-1.65335c0.33216,-0.6104 1.04785,-0.86824 1.60276,-0.56628c0.55491,0.30196 0.72707,1.04295 0.39491,1.65335" stroke-width="1" stroke-linecap="butt" stroke-linejoin="miter"/></g><g><path d="M254.11176,166.76445c0.33609,3.34748 -1.33576,7.57318 -3.40774,7.8122c-2.40492,0.05786 -4.4935,-3.33725 -4.82957,-6.68472c-0.39157,-3.37768 1.21863,-6.60104 3.60316,-6.88575c2.41472,-0.3402 4.29808,2.41079 4.63417,5.75827z" stroke-width="1.2" stroke-linecap="round" stroke-linejoin="round"/><path d="M251.64168,170.94101c-0.33216,0.6104 -1.04785,0.86824 -1.60276,0.56628c-0.55491,-0.30196 -0.72707,-1.04295 -0.39491,-1.65335c0.33216,-0.6104 1.04785,-0.86824 1.60276,-0.56628c0.52471,0.35745 0.72707,1.04295 0.39491,1.65335" stroke-width="1" stroke-linecap="butt" stroke-linejoin="miter"/></g></g><path d="M256.40673,186.89573c-0.90714,1.87227 -3.73374,0.47416 -6.85418,-1.03774c-3.12046,-1.5119 -5.97585,-3.37416 -5.06871,-5.24644c0.90714,-1.87227 5.47262,-4.3249 8.59307,-2.813c3.12046,1.5119 4.23696,7.2249 3.32982,9.09717z" fill-rule="nonzero" stroke-width="1.2" stroke-linecap="butt" stroke-linejoin="miter"/><path d="M232.41846,182.37137c-1.44811,-0.7803 -2.16149,-3.74357 -2.72298,-4.25729c-0.17776,-0.12138 -3.73714,1.0451 -5.87017,1.72592c-3.00228,0.99953 -5.09877,-3.22095 -2.77074,-5.3325c2.20665,-1.93378 8.31096,-3.23916 9.65931,-3.15254c3.09123,0.12987 5.63046,6.62944 7.39638,10.91917" fill-rule="evenodd" stroke-width="1.2" stroke-linecap="round" stroke-linejoin="round"/></g></g></g></svg>