<svg version="1.1" xmlns="http://www.w3.org/2000/svg" xmlns:xlink="http://www.w3.org/1999/xlink" width="107.76465" height="96.3644" viewBox="0,0,107.76465,96.3644"><g transform="translate(-183.80099,-138.0946)"><g data-paper-data="{&quot;isPaintingLayer&quot;:true}" fill-rule="evenodd" stroke-miterlimit="10" stroke-dasharray="" stroke-dashoffset="0" style="mix-blend-mode: normal"><g fill="#e49917" stroke="none" stroke-width="0"><g><path d="M218.18923,207.92577c0.86569,0.37056 2.70527,1.20431 0.10821,4.35403c-2.59706,3.14972 -10.06359,3.7982 -10.92927,3.7982c-3.35453,0.09264 -7.46653,0.09264 -12.01138,-1.20431c-13.2017,-3.70556 -13.30991,-15.84125 -9.08969,-17.78667c4.112,-1.94542 5.95158,5.55833 11.90317,10.09764c2.59706,2.03806 5.73516,2.77917 8.33222,3.24236c3.67916,0.55583 10.71285,-2.96445 11.68675,-2.50125z" stroke-linecap="round" stroke-linejoin="round"/><path d="M191.35299,200.42202c1.73137,2.50125 5.0859,6.02153 5.0859,6.02153c0,0 -4.00379,-0.83375 -6.27622,0.74111c-1.83958,1.20431 -1.40674,3.24236 -1.19032,3.89083c-1.40674,-1.20431 -3.13811,-2.87181 -4.22021,-6.11417c-1.08211,-3.24236 0,-7.1332 2.16421,-7.68903c2.16421,-0.37056 2.70527,1.01903 4.43664,3.14972z" stroke-linecap="butt" stroke-linejoin="miter"/></g><path d="M223.59976,217.56022c-1.94779,1.11167 -8.65685,5.18778 -17.20549,7.50375l-0.43284,0.09264c-0.43284,0.09264 -0.64926,0.55583 -0.43284,0.92639c1.83958,2.22333 5.19411,6.67 -0.75747,8.24486c-5.73516,1.57486 -16.44802,-11.48723 -11.90317,-14.91487c2.056,-1.29694 3.89558,-0.64847 4.86948,-0.27792c0.54105,0.18528 1.08211,0.18528 1.62316,0.09264c1.29853,-0.37056 3.67916,-1.11167 5.51874,-1.94542c4.65306,-2.03806 5.73516,-2.87181 7.89938,-4.26139c2.16421,-1.38958 7.1419,-4.81722 11.1457,-1.85278c3.46274,2.50125 1.51495,5.28042 -0.32463,6.39209z" stroke-linecap="round" stroke-linejoin="round"/><path d="M240.80525,198.29132c0.54105,0.37056 7.1419,7.04056 9.30611,5.37306c2.59706,-1.94542 6.16801,-5.74361 10.06359,-2.68653c3.89558,3.05708 -3.46274,8.24486 -6.60085,9.63445c-7.46653,2.87181 -13.52633,-2.59389 -14.82486,-4.07611c-1.29853,-1.48222 -3.57095,-3.98347 -3.57095,-6.39209c0.10821,-2.59389 3.78737,-3.24236 5.62695,-1.85278z" stroke-linecap="round" stroke-linejoin="round"/><g><path d="M240.91346,219.87619c2.27242,1.76014 7.25011,5.37306 7.25011,5.37306c0,0 15.47412,-2.31597 15.47412,4.35403c0,3.98347 -7.79117,4.90986 -18.2876,4.07611c-0.64926,-0.09264 -1.29853,-0.27792 -1.83958,-0.64847c-2.38063,-1.76014 -9.1979,-6.94792 -13.52633,-10.56084c-6.38443,-5.37306 -11.68675,-8.89334 -11.68675,-8.89334c-9.1979,-7.68903 -1.73137,-10.93139 1.19032,-15.37806c2.70527,-3.7982 3.89558,-3.05708 10.38822,-1.94542c3.67916,0.46319 5.84337,0.74111 8.22401,0.64847c3.57095,-0.09264 2.92169,4.35403 1.94779,6.67c0,0 -1.51495,3.42764 -2.92169,5.18778c-1.73137,2.1307 -3.0299,3.52028 -4.32843,4.35403z" stroke-linecap="round" stroke-linejoin="round"/><path d="M231.82377,213.02091c0,0 -1.62316,-1.11167 -3.35453,-2.50125c-2.16421,-1.6675 -4.32843,-3.05708 -2.16421,-5.92889c1.94779,-2.22333 3.78737,-5.18778 8.65685,-2.50125c4.65306,2.50125 2.59706,4.81722 2.59706,4.81722c-2.38063,4.16875 -5.73516,6.11417 -5.73516,6.11417z" stroke-linecap="butt" stroke-linejoin="miter"/></g><path d="M215.48396,205.42452c2.38063,2.59389 6.0598,5.83625 1.40674,8.52278c-6.38443,3.05708 -11.68675,-6.20681 -12.76885,-9.44917c-0.9739,-2.87181 1.83958,-4.72458 4.22021,-6.29945c4.65306,-2.87181 8.54864,-5.4657 12.87707,-4.07611c5.41053,1.6675 1.51495,5.37306 -1.19032,7.04056c-1.62316,1.01903 -3.24632,2.1307 -4.43664,2.77917c-0.32463,0.46319 -0.43284,1.01903 -0.10821,1.48222z" stroke-linecap="round" stroke-linejoin="round"/><g><path d="M249.57031,142.98589c0.32463,-0.18528 0.86569,-0.09264 0.9739,0.27792l2.81348,9.91236c0,0 6.92548,4.35403 8.98148,7.41111c3.46274,5.09514 3.57095,9.26389 3.57095,9.26389c0,0 7.68296,1.94542 8.98148,7.22584c1.29853,5.28042 -3.46274,15.28542 -23.80634,18.71306c-20.3436,3.42764 -36.68341,-1.29694 -44.36636,-11.85778c-7.68296,-10.56084 4.43664,-23.15973 3.78737,-22.41862l-2.27242,-16.58237c-0.10821,-0.37056 0.43284,-0.64847 0.86569,-0.46319l13.09349,7.31847c0,0 4.86948,-1.57486 9.95538,-1.76014c3.0299,-0.18528 5.62695,0 8.1158,0.37056z" stroke-linecap="butt" stroke-linejoin="miter"/><path d="M265.58548,170.22173c0,0 7.46653,1.6675 8.76506,6.94792c1.29853,5.28042 -3.89558,14.82223 -24.02276,18.15723c-26.18697,4.63195 -38.6312,-8.70806 -31.38108,-18.52778c7.25011,-9.91236 19.69434,-1.48222 28.78403,-2.03806c7.79117,-0.46319 8.65685,-6.29945 17.85475,-4.53931z" stroke-linecap="butt" stroke-linejoin="miter"/><path d="M231.49913,180.13409c0,-0.37056 0.43284,-0.64847 0.86569,-0.55583c2.056,0.64847 7.89938,2.1307 14.39201,2.50125c5.84337,0.27792 9.30611,0 10.92927,-0.27792c0.54105,-0.09264 0.9739,0.37056 0.75747,0.83375c-0.9739,2.50125 -5.0859,9.44917 -16.44802,8.89334c-9.84717,-0.92639 -10.82106,-6.85528 -10.49643,-11.39459z" stroke-linecap="round" stroke-linejoin="round"/><path d="M285.49624,171.24076c-5.0859,3.52028 -12.87707,3.61292 -12.87707,3.61292" stroke-linecap="round" stroke-linejoin="round"/><path d="M284.0895,181.61632c-6.81727,0.46319 -11.03748,-1.29694 -11.03748,-1.29694" stroke-linecap="round" stroke-linejoin="round"/><path d="M247.29789,172.35243c2.27242,0 4.65306,0.18528 4.76127,0.83375c0.10821,1.29694 -1.51495,3.89083 -3.24632,3.98347c-1.94779,0.18528 -6.49264,-2.1307 -6.49264,-3.61292c-0.10821,-1.11167 2.81348,-1.20431 4.97769,-1.20431z" stroke-linecap="round" stroke-linejoin="round"/><path d="M198.6031,170.96284c0,0 9.30611,2.59389 13.09349,5.4657" stroke-linecap="round" stroke-linejoin="round"/><path d="M212.02122,179.6709c-4.65306,1.57486 -12.66064,0.55583 -12.66064,0.55583" stroke-linecap="round" stroke-linejoin="round"/><g><path d="M260.06674,161.51367c3.13811,4.16875 3.24632,8.89334 0.21642,10.56084c-3.0299,1.6675 -8.00759,-0.27792 -11.25391,-4.44667c-3.13811,-4.16875 -3.24632,-8.89334 -0.21642,-10.56084c3.0299,-1.76014 8.1158,0.27792 11.25391,4.44667z" stroke-linecap="round" stroke-linejoin="round"/><path d="M259.6339,166.79409c0,1.01903 -0.86569,1.85278 -1.94779,1.85278c-1.08211,0 -1.94779,-0.83375 -1.94779,-1.85278c0,-1.01903 0.86569,-1.85278 1.94779,-1.85278c1.08211,0 1.94779,0.83375 1.94779,1.85278" stroke-linecap="butt" stroke-linejoin="miter"/></g><g><path d="M233.2305,164.10756c3.24632,4.07611 3.0299,9.07861 0.10821,10.83875c-3.57095,1.76014 -8.33222,0.46319 -11.57854,-3.61292c-3.35453,-4.07611 -3.57095,-9.35653 -0.21642,-11.39459c3.35453,-2.1307 8.44043,0.09264 11.68675,4.16875z" stroke-linecap="round" stroke-linejoin="round"/><path d="M232.58124,169.48062c0,1.01903 -0.86569,1.85278 -1.94779,1.85278c-1.08211,0 -1.94779,-0.83375 -1.94779,-1.85278c0,-1.01903 0.86569,-1.85278 1.94779,-1.85278c1.08211,0.09264 1.94779,0.83375 1.94779,1.85278" stroke-linecap="butt" stroke-linejoin="miter"/></g></g></g><g><path d="M223.65862,203.55558c0.86569,0.37056 2.70527,1.20431 0.10821,4.35403c-2.59706,3.14972 -10.06359,3.7982 -10.92927,3.7982c-3.35453,0.09264 -7.46653,0.09264 -12.01138,-1.20431c-13.2017,-3.70556 -13.30991,-15.84125 -9.08969,-17.78667c4.112,-1.94542 5.95158,5.55833 11.90317,10.09764c2.59706,2.03806 5.73516,2.77917 8.33222,3.24236c3.67916,0.55583 10.71285,-2.96445 11.68675,-2.50125z" fill="#ffab19" stroke="#001026" stroke-width="1.2" stroke-linecap="round" stroke-linejoin="round"/><path d="M196.82239,196.05183c1.73137,2.50125 5.0859,6.02153 5.0859,6.02153c0,0 -4.00379,-0.83375 -6.27622,0.74111c-1.83958,1.20431 -1.40674,3.24236 -1.19032,3.89083c-1.40674,-1.20431 -3.13811,-2.87181 -4.22021,-6.11417c-1.08211,-3.24236 0,-7.1332 2.16421,-7.68903c2.16421,-0.37056 2.70527,1.01903 4.43664,3.14972z" fill="#ffffff" stroke="none" stroke-width="1" stroke-linecap="butt" stroke-linejoin="miter"/></g><path d="M229.06916,213.19003c-1.94779,1.11167 -8.65685,5.18778 -17.20549,7.50375l-0.43284,0.09264c-0.43284,0.09264 -0.64926,0.55583 -0.43284,0.92639c1.83958,2.22333 5.19411,6.67 -0.75747,8.24486c-5.73516,1.57486 -16.44802,-11.48723 -11.90317,-14.91487c2.056,-1.29694 3.89558,-0.64847 4.86948,-0.27792c0.54105,0.18528 1.08211,0.18528 1.62316,0.09264c1.29853,-0.37056 3.67916,-1.11167 5.51874,-1.94542c4.65306,-2.03806 5.73516,-2.87181 7.89938,-4.26139c2.16421,-1.38958 7.1419,-4.81722 11.1457,-1.85278c3.46274,2.50125 1.51495,5.28042 -0.32463,6.39209z" fill="#ffab19" stroke="#001026" stroke-width="1.2" stroke-linecap="round" stroke-linejoin="round"/><path d="M246.27465,193.92114c0.54105,0.37056 7.1419,7.04056 9.30611,5.37306c2.59706,-1.94542 6.16801,-5.74361 10.06359,-2.68653c3.89558,3.05708 -3.46274,8.24486 -6.60085,9.63445c-7.46653,2.87181 -13.52633,-2.59389 -14.82486,-4.07611c-1.29853,-1.48222 -3.57095,-3.98347 -3.57095,-6.39209c0.10821,-2.59389 3.78737,-3.24236 5.62695,-1.85278z" fill="#ffab19" stroke="#001026" stroke-width="1.2" stroke-linecap="round" stroke-linejoin="round"/><g><path d="M246.38286,215.506c2.27242,1.76014 7.25011,5.37306 7.25011,5.37306c0,0 15.47412,-2.31597 15.47412,4.35403c0,3.98347 -7.79117,4.90986 -18.2876,4.07611c-0.64926,-0.09264 -1.29853,-0.27792 -1.83958,-0.64847c-2.38063,-1.76014 -9.1979,-6.94792 -13.52633,-10.56084c-6.38443,-5.37306 -11.68675,-8.89334 -11.68675,-8.89334c-9.1979,-7.68903 -1.73137,-10.93139 1.19032,-15.37806c2.70527,-3.7982 3.89558,-3.05708 10.38822,-1.94542c3.67916,0.46319 5.84337,0.74111 8.22401,0.64847c3.57095,-0.09264 2.92169,4.35403 1.94779,6.67c0,0 -1.51495,3.42764 -2.92169,5.18778c-1.73137,2.1307 -3.0299,3.52028 -4.32843,4.35403z" fill="#ffab19" stroke="#001026" stroke-width="1.2" stroke-linecap="round" stroke-linejoin="round"/><path d="M237.29316,208.65072c0,0 -1.62316,-1.11167 -3.35453,-2.50125c-2.16421,-1.6675 -4.32843,-3.05708 -2.16421,-5.92889c1.94779,-2.22333 3.78737,-5.18778 8.65685,-2.50125c4.65306,2.50125 2.59706,4.81722 2.59706,4.81722c-2.38063,4.16875 -5.73516,6.11417 -5.73516,6.11417z" fill="#ffffff" stroke="none" stroke-width="1" stroke-linecap="butt" stroke-linejoin="miter"/></g><path d="M220.95336,201.05433c2.38063,2.59389 6.0598,5.83625 1.40674,8.52278c-6.38443,3.05708 -11.68675,-6.20681 -12.76885,-9.44917c-0.9739,-2.87181 1.83958,-4.72458 4.22021,-6.29945c4.65306,-2.87181 8.54864,-5.4657 12.87707,-4.07611c5.41053,1.6675 1.51495,5.37306 -1.19032,7.04056c-1.62316,1.01903 -3.24632,2.1307 -4.43664,2.77917c-0.32463,0.46319 -0.43284,1.01903 -0.10821,1.48222z" fill="#ffab19" stroke="#001026" stroke-width="1.2" stroke-linecap="round" stroke-linejoin="round"/><g><path d="M255.03971,138.6157c0.32463,-0.18528 0.86569,-0.09264 0.9739,0.27792l2.81348,9.91236c0,0 6.92548,4.35403 8.98148,7.41111c3.46274,5.09514 3.57095,9.26389 3.57095,9.26389c0,0 7.68296,1.94542 8.98148,7.22584c1.29853,5.28042 -3.46274,15.28542 -23.80634,18.71306c-20.3436,3.42764 -36.68341,-1.29694 -44.36636,-11.85778c-7.68296,-10.56084 4.43664,-23.15973 3.78737,-22.41862l-2.27242,-16.58237c-0.10821,-0.37056 0.43284,-0.64847 0.86569,-0.46319l13.09349,7.31847c0,0 4.86948,-1.57486 9.95538,-1.76014c3.0299,-0.18528 5.62695,0 8.1158,0.37056z" fill="#ffab19" stroke="#001026" stroke-width="1.2" stroke-linecap="butt" stroke-linejoin="miter"/><path d="M271.05488,165.85155c0,0 7.46653,1.6675 8.76506,6.94792c1.29853,5.28042 -3.89558,14.82223 -24.02276,18.15723c-26.18697,4.63195 -38.6312,-8.70806 -31.38108,-18.52778c7.25011,-9.91236 19.69434,-1.48222 28.78403,-2.03806c7.79117,-0.46319 8.65685,-6.29945 17.85475,-4.53931z" fill="#ffffff" stroke="none" stroke-width="1" stroke-linecap="butt" stroke-linejoin="miter"/><path d="M236.96853,175.76391c0,-0.37056 0.43284,-0.64847 0.86569,-0.55583c2.056,0.64847 7.89938,2.1307 14.39201,2.50125c5.84337,0.27792 9.30611,0 10.92927,-0.27792c0.54105,-0.09264 0.9739,0.37056 0.75747,0.83375c-0.9739,2.50125 -5.0859,9.44917 -16.44802,8.89334c-9.84717,-0.92639 -10.82106,-6.85528 -10.49643,-11.39459z" fill="#ffffff" stroke="#001026" stroke-width="1.2" stroke-linecap="round" stroke-linejoin="round"/><path d="M290.96564,166.87057c-5.0859,3.52028 -12.87707,3.61292 -12.87707,3.61292" fill="none" stroke="#001026" stroke-width="1.2" stroke-linecap="round" stroke-linejoin="round"/><path d="M289.5589,177.24613c-6.81727,0.46319 -11.03748,-1.29694 -11.03748,-1.29694" fill="none" stroke="#001026" stroke-width="1.2" stroke-linecap="round" stroke-linejoin="round"/><path d="M252.76729,167.98224c2.27242,0 4.65306,0.18528 4.76127,0.83375c0.10821,1.29694 -1.51495,3.89083 -3.24632,3.98347c-1.94779,0.18528 -6.49264,-2.1307 -6.49264,-3.61292c-0.10821,-1.11167 2.81348,-1.20431 4.97769,-1.20431z" fill="#001026" stroke="#001026" stroke-width="1.2" stroke-linecap="round" stroke-linejoin="round"/><path d="M204.0725,166.59266c0,0 9.30611,2.59389 13.09349,5.4657" fill="none" stroke="#001026" stroke-width="1.2" stroke-linecap="round" stroke-linejoin="round"/><path d="M217.49062,175.30071c-4.65306,1.57486 -12.66064,0.55583 -12.66064,0.55583" fill="none" stroke="#001026" stroke-width="1.2" stroke-linecap="round" stroke-linejoin="round"/><g><path d="M265.53614,157.14349c3.13811,4.16875 3.24632,8.89334 0.21642,10.56084c-3.0299,1.6675 -8.00759,-0.27792 -11.25391,-4.44667c-3.13811,-4.16875 -3.24632,-8.89334 -0.21642,-10.56084c3.0299,-1.76014 8.1158,0.27792 11.25391,4.44667z" fill="#ffffff" stroke="#001026" stroke-width="1.2" stroke-linecap="round" stroke-linejoin="round"/><path d="M265.1033,162.42391c0,1.01903 -0.86569,1.85278 -1.94779,1.85278c-1.08211,0 -1.94779,-0.83375 -1.94779,-1.85278c0,-1.01903 0.86569,-1.85278 1.94779,-1.85278c1.08211,0 1.94779,0.83375 1.94779,1.85278" fill="#001026" stroke="none" stroke-width="1" stroke-linecap="butt" stroke-linejoin="miter"/></g><g><path d="M238.6999,159.73738c3.24632,4.07611 3.0299,9.07861 0.10821,10.83875c-3.57095,1.76014 -8.33222,0.46319 -11.57854,-3.61292c-3.35453,-4.07611 -3.57095,-9.35653 -0.21642,-11.39459c3.35453,-2.1307 8.44043,0.09264 11.68675,4.16875z" fill="#ffffff" stroke="#001026" stroke-width="1.2" stroke-linecap="round" stroke-linejoin="round"/><path d="M238.05064,165.11043c0,1.01903 -0.86569,1.85278 -1.94779,1.85278c-1.08211,0 -1.94779,-0.83375 -1.94779,-1.85278c0,-1.01903 0.86569,-1.85278 1.94779,-1.85278c1.08211,0.09264 1.94779,0.83375 1.94779,1.85278" fill="#001026" stroke="none" stroke-width="1" stroke-linecap="butt" stroke-linejoin="miter"/></g></g></g></g></svg>