<svg version="1.1" xmlns="http://www.w3.org/2000/svg" xmlns:xlink="http://www.w3.org/1999/xlink" width="453.7911" height="241.84273" viewBox="0,0,453.7911,241.84273"><g transform="translate(-15.78386,-35.67027)"><g data-paper-data="{&quot;isPaintingLayer&quot;:true}" stroke-miterlimit="10" stroke-dasharray="" stroke-dashoffset="0" style="mix-blend-mode: normal"><g fill-rule="evenodd"><path d="M130.26294,160.8636c2.9,4.5 3,9.6 0.2,11.4c-2.8,1.8 -7.4,-0.3 -10.4,-4.8c-1.01018,-1.56751 -1.6806,-3.20783 -2.00706,-4.75611c-0.26911,-1.27631 1.99795,-2.87607 3.48931,-4.14984c1.8932,-1.61701 2.78565,-2.473 4.02416,-1.71089c1.54002,0.94764 3.50397,2.17087 4.6936,4.01685z" fill="#ffffff" stroke="#000000" stroke-width="1.2" stroke-linecap="round" stroke-linejoin="round"></path><path d="M129.86296,166.56357c0,1.1 -0.8,2 -1.8,2c-1,0 -1.8,-0.9 -1.8,-2c0,-1.1 0.8,-2 1.8,-2c1,0 1.8,0.9 1.8,2" fill="#001026" stroke="none" stroke-width="1" stroke-linecap="butt" stroke-linejoin="miter"></path></g><g fill-rule="evenodd"><path d="M105.46296,163.66358c3,4.4 2.8,9.8 0.1,11.7c-3.3,1.9 -7.7,0.5 -10.7,-3.9c-1.97571,-2.80423 -2.77348,-6.13648 -2.28978,-8.75421c0.17637,-0.95447 4.18688,-0.68619 7.83494,-0.22901c2.0455,0.25635 3.97705,-0.39756 5.05485,1.18321z" fill="#ffffff" stroke="#000000" stroke-width="1.2" stroke-linecap="round" stroke-linejoin="round"></path><path d="M104.86296,169.4636c0,1.1 -0.8,2 -1.8,2c-1,0 -1.8,-0.9 -1.8,-2c0,-1.1 0.8,-2 1.8,-2c1,0.1 1.8,0.9 1.8,2" fill="#000000" stroke="none" stroke-width="1" stroke-linecap="butt" stroke-linejoin="miter"></path></g><g fill-rule="evenodd"><path d="M177.50695,155.71667c2.9,4.5 3,9.59999 0.2,11.39999c-2.8,1.8 -7.4,-0.3 -10.4,-4.8c-2.9,-4.5 -1.82145,-10.07142 0.97856,-11.87142c1.14205,-0.77496 2.8359,1.72498 4.35906,2.19205c1.53355,0.47025 4.33612,2.26277 4.86238,3.07937z" fill="#ffffff" stroke="#000000" stroke-width="1.2" stroke-linecap="round" stroke-linejoin="round"></path><path d="M177.10695,161.41664c0,1.1 -0.8,2 -1.8,2c-1,0 -1.8,-0.9 -1.8,-2c0,-1.1 0.8,-2 1.8,-2c1,0 1.8,0.9 1.8,2" fill="#000000" stroke="none" stroke-width="1" stroke-linecap="butt" stroke-linejoin="miter"></path></g><g fill-rule="evenodd"><path d="M152.70693,158.51665c3,4.4 2.8,9.8 0.1,11.7c-3.3,1.9 -7.7,0.5 -10.7,-3.9c-1.99117,-2.82619 -0.42879,-5.24586 0.07893,-7.87273c0.28274,-1.46282 1.69789,-5.37744 2.81111,-5.30416c2.6451,0.17413 5.59857,2.28017 7.70996,5.37689z" fill="#ffffff" stroke="#000000" stroke-width="1.2" stroke-linecap="round" stroke-linejoin="round"></path><path d="M152.10695,164.31667c0,1.1 -0.8,2 -1.8,2c-1,0 -1.8,-0.9 -1.8,-2c0,-1.1 0.8,-2 1.8,-2c1,0.1 1.8,0.9 1.8,2" fill="#000000" stroke="none" stroke-width="1" stroke-linecap="butt" stroke-linejoin="miter"></path></g><path d="M198.6552,75.15426c0,-0.4 0.4,-0.7 0.8,-0.6c1.9,0.7 7.3,2.3 13.3,2.7c5.4,0.3 8.6,0 10.1,-0.3c0.5,-0.1 0.9,0.4 0.7,0.9c-0.9,2.7 -4.7,10.2 -15.2,9.6c-9.1,-1 -10,-7.4 -9.7,-12.3z" data-paper-data="{&quot;index&quot;:null}" fill="#ffffff" fill-rule="evenodd" stroke="#000000" stroke-width="1.2" stroke-linecap="round" stroke-linejoin="round"></path><g fill-rule="evenodd"><path d="M149.69301,182.82343c2.9,4.5 3,6.53575 0.2,8.33576c-2.8,1.8 -7.4,2.76426 -10.4,-1.73574c-2.9,-4.5 -3,-9.60001 -0.2,-11.40001c2.8,-1.9 7.5,0.3 10.4,4.8z" fill="#ffffff" stroke="#000000" stroke-width="1.2" stroke-linecap="round" stroke-linejoin="round"></path><path d="M149.29303,188.52344c0,1.1 -0.8,2 -1.8,2c-1,0 -1.8,-0.9 -1.8,-2c0,-1.1 0.8,-2 1.8,-2c1,0 1.8,0.9 1.8,2" fill="#000000" stroke="none" stroke-width="1" stroke-linecap="butt" stroke-linejoin="miter"></path></g><g fill-rule="evenodd"><path d="M124.89303,185.62344c3,4.4 2.8,6.97146 0.1,8.87147c-3.3,1.9 -7.7,3.32854 -10.7,-1.07146c-3.1,-4.4 -3.3,-10.1 -0.2,-12.3c3.1,-2.3 7.8,0.1 10.8,4.5z" fill="#ffffff" stroke="#000000" stroke-width="1.2" stroke-linecap="round" stroke-linejoin="round"></path><path d="M124.29302,191.42345c0,1.1 -0.8,2 -1.8,2c-1,0 -1.8,-0.9 -1.8,-2c0,-1.1 0.8,-2 1.8,-2c1,0.1 1.8,0.9 1.8,2" fill="#000000" stroke="none" stroke-width="1" stroke-linecap="butt" stroke-linejoin="miter"></path></g><g fill-rule="evenodd"><path d="M194.00674,175.04496c2.9,4.5 3,9.6 0.2,11.4c-2.8,1.8 -7.4,-0.3 -10.4,-4.8c-2.9,-4.5 -0.40718,-6.77147 2.39282,-8.57147c2.8,-1.9 4.90718,-2.52853 7.80718,1.97147z" fill="#ffffff" stroke="#000000" stroke-width="1.2" stroke-linecap="round" stroke-linejoin="round"></path><path d="M193.60675,180.74497c0,1.1 -0.8,2 -1.8,2c-1,0 -1.8,-0.9 -1.8,-2c0,-1.1 0.8,-2 1.8,-2c1,0 1.8,0.9 1.8,2" fill="#000000" stroke="none" stroke-width="1" stroke-linecap="butt" stroke-linejoin="miter"></path></g><g fill-rule="evenodd"><path d="M169.20675,177.84497c3,4.4 2.8,9.8 0.1,11.7c-3.3,1.9 -7.7,0.5 -10.7,-3.9c-3.1,-4.4 -1.1786,-5.8572 1.9214,-8.0572c3.1,-2.3 5.6786,-4.14281 8.6786,0.25719z" fill="#ffffff" stroke="#000000" stroke-width="1.2" stroke-linecap="round" stroke-linejoin="round"></path><path d="M168.60675,183.64497c0,1.1 -0.8,2 -1.8,2c-1,0 -1.8,-0.9 -1.8,-2c0,-1.1 0.8,-2 1.8,-2c1,0.1 1.8,0.9 1.8,2" fill="#000000" stroke="none" stroke-width="1" stroke-linecap="butt" stroke-linejoin="miter"></path></g><g fill-rule="evenodd"><path d="M177.79273,199.84472c1.82683,2.03701 1.82145,6.06434 -0.97855,7.86434c-2.8,1.8 -7.4,2.76424 -10.4,-1.73576c-0.42924,-0.66605 -1.39582,-4.73117 -1.51727,-5.1557c-0.69907,-2.44365 3.88163,2.1249 6.2672,0.59132c2.8,-1.9 4.80179,-3.60121 6.62862,-1.5642z" fill="#ffffff" stroke="#000000" stroke-width="1.2" stroke-linecap="round" stroke-linejoin="round"></path><path d="M176.21418,205.0733c0,1.1 -0.8,2 -1.8,2c-1,0 -1.8,-0.9 -1.8,-2c0,-1.1 0.8,-2 1.8,-2c1,0 1.8,0.9 1.8,2" fill="#000000" stroke="none" stroke-width="1" stroke-linecap="butt" stroke-linejoin="miter"></path></g><g fill-rule="evenodd"><path d="M151.81416,202.17331c3,4.4 2.8,6.97146 0.1,8.87147c-3.3,1.9 -7.7,3.32854 -10.7,-1.07146c-3.1,-4.4 2.59278,-2.32154 5.69278,-4.52153c3.1,-2.3 1.90722,-7.67847 4.90722,-3.27847z" fill="#ffffff" stroke="#000000" stroke-width="1.2" stroke-linecap="round" stroke-linejoin="round"></path><path d="M151.21417,207.9733c0,1.1 -0.8,2 -1.8,2c-1,0 -1.8,-0.9 -1.8,-2c0,-1.1 0.8,-2 1.8,-2c1,0.1 1.8,0.9 1.8,2" fill="#000000" stroke="none" stroke-width="1" stroke-linecap="butt" stroke-linejoin="miter"></path></g><g fill-rule="evenodd"><path d="M108.308,195.65199c2.9,4.5 3,6.53575 0.2,8.33576c-2.8,1.8 -7.4,2.76424 -10.4,-1.73576c-2.9,-4.5 1.94994,-2.76437 4.74994,-4.56437c2.8,-1.9 2.55006,-6.53563 5.45006,-2.03563z" fill="#ffffff" stroke="#000000" stroke-width="1.2" stroke-linecap="round" stroke-linejoin="round"></path><path d="M107.90799,201.35198c0,1.1 -0.8,2 -1.8,2c-1,0 -1.8,-0.9 -1.8,-2c0,-1.1 0.8,-2 1.8,-2c1,0 1.8,0.9 1.8,2" fill="#000000" stroke="none" stroke-width="1" stroke-linecap="butt" stroke-linejoin="miter"></path></g><g fill-rule="evenodd"><path d="M83.7437,199.86626c1.53715,1.71697 2.56428,5.55719 -0.13572,7.45719c-3.3,1.9 -7.7,3.32854 -10.7,-1.07146c-0.80754,-1.14619 -1.96126,-4.6813 -1.77673,-5.13839c0.52385,-1.29761 5.17705,2.24377 7.46951,0.61687c3.1,-2.3 3.60578,-3.58119 5.14293,-1.8642z" fill="#ffffff" stroke="#000000" stroke-width="1.2" stroke-linecap="round" stroke-linejoin="round"></path><path d="M82.90799,204.25199c0,1.1 -0.8,2 -1.8,2c-1,0 -1.8,-0.9 -1.8,-2c0,-1.1 0.8,-2 1.8,-2c1,0.1 1.8,0.9 1.8,2" fill="#000000" stroke="none" stroke-width="1" stroke-linecap="butt" stroke-linejoin="miter"></path></g><path d="M228.06083,159.5663h-10.13558" fill="none" fill-rule="nonzero" stroke="#000000" stroke-width="1.2" stroke-linecap="round" stroke-linejoin="miter"></path><path d="M215.80384,166.40192l1.88569,-2.1214l3.06424,-0.70713l4.71422,0.70713l2.1214,2.35711v1.88569" fill="none" fill-rule="nonzero" stroke="#000000" stroke-width="1.2" stroke-linecap="round" stroke-linejoin="miter"></path><path d="M216.51097,175.12322l-0.70713,-2.1214l0.70713,-1.41427l3.53567,-0.70713l3.29995,2.1214l3.06424,2.1214h2.12141" fill="none" fill-rule="nonzero" stroke="#000000" stroke-width="1.2" stroke-linecap="round" stroke-linejoin="miter"></path><path d="M219.57523,182.19456v-3.06424l2.35711,-1.88569h2.82854l2.59282,2.1214l0.70713,3.29996" fill="none" fill-rule="nonzero" stroke="#000000" stroke-width="1.2" stroke-linecap="round" stroke-linejoin="miter"></path><path d="M227.58939,152.25925l-0.70713,1.88569l-1.88569,1.17856h-3.06424l-3.53567,-0.70714l-2.1214,-2.59282" fill="none" fill-rule="nonzero" stroke="#000000" stroke-width="1.2" stroke-linecap="round" stroke-linejoin="miter"></path><path d="M228.29653,190.44445l-10.607,-3.06424" fill="none" fill-rule="nonzero" stroke="#000000" stroke-width="1.2" stroke-linecap="round" stroke-linejoin="miter"></path><text transform="translate(99.29218,147.26746) scale(0.35073,0.35073)" font-size="40" xml:space="preserve" fill="#000000" fill-rule="nonzero" stroke="none" stroke-width="1" stroke-linecap="butt" stroke-linejoin="miter" stroke-miterlimit="10" stroke-dasharray="" stroke-dashoffset="0" font-family="Sans Serif" font-weight="normal" text-anchor="start" style="mix-blend-mode: normal"><tspan x="0" dy="0">eyes:</tspan></text><text transform="translate(197.46843,144.19598) scale(0.35073,0.35073)" font-size="40" xml:space="preserve" fill="#000000" fill-rule="nonzero" stroke="none" stroke-width="1" stroke-linecap="butt" stroke-linejoin="miter" stroke-miterlimit="10" stroke-dasharray="" stroke-dashoffset="0" font-family="Sans Serif" font-weight="normal" text-anchor="start" style="mix-blend-mode: normal"><tspan x="0" dy="0">eyebrows:</tspan></text><g fill-rule="evenodd"><path d="M229.46356,231.71579c1.82683,2.03701 1.82144,6.06434 -0.97856,7.86434c-2.8,1.8 -7.4,2.76424 -10.4,-1.73576c-0.42924,-0.66605 -1.39582,-4.73117 -1.51727,-5.15569c-0.69907,-2.44365 3.88163,2.1249 6.2672,0.59132c2.8,-1.9 4.8018,-3.60122 6.62863,-1.56421z" fill="#ffffff" stroke="#000000" stroke-width="1.2" stroke-linecap="round" stroke-linejoin="round"></path><path d="M227.88499,236.94436c0,1.1 -0.8,2 -1.8,2c-1,0 -1.8,-0.9 -1.8,-2c0,-1.1 0.8,-2 1.8,-2c1,0 1.8,0.9 1.8,2" fill="#000000" stroke="none" stroke-width="1" stroke-linecap="butt" stroke-linejoin="miter"></path></g><g fill-rule="evenodd"><path d="M205.32062,232.34434c3,4.4 2.8,6.97146 0.1,8.87147c-3.3,1.9 -7.7,3.32853 -10.7,-1.07147c-3.1,-4.4 -3.3,-10.10001 -0.2,-12.3c3.1,-2.3 7.8,0.1 10.8,4.5z" fill="#ffffff" stroke="#000000" stroke-width="1.2" stroke-linecap="round" stroke-linejoin="round"></path><path d="M204.72063,238.14433c0,1.1 -0.8,2 -1.8,2c-1,0 -1.8,-0.9 -1.8,-2c0,-1.1 0.8,-2 1.8,-2c1,0.1 1.8,0.9 1.8,2" fill="#000000" stroke="none" stroke-width="1" stroke-linecap="butt" stroke-linejoin="miter"></path></g><path d="M226.98128,226.3162l-0.3519,1.98293l-1.63953,1.50227l-3.01301,0.55803l-3.60531,-0.05141l-2.55811,-2.16314" fill="none" fill-rule="nonzero" stroke="#000000" stroke-width="1.2" stroke-linecap="round" stroke-linejoin="miter"></path><path d="M189.61964,226.85135v-1.88569l2.1214,-2.35711l4.71422,-0.70713l3.06424,0.70713l1.88569,2.1214" data-paper-data="{&quot;index&quot;:null}" fill="none" fill-rule="nonzero" stroke="#000000" stroke-width="1.2" stroke-linecap="round" stroke-linejoin="miter"></path><g fill-rule="evenodd"><path d="M168.12858,227.89436c2.9,4.5 3,9.6 0.2,11.4c-2.8,1.8 -7.4,-0.3 -10.4,-4.8c-2.9,-4.5 -0.40718,-6.77146 2.39282,-8.57146c2.8,-1.9 4.90717,-2.52854 7.80718,1.97146z" fill="#ffffff" stroke="#000000" stroke-width="1.2" stroke-linecap="round" stroke-linejoin="round"></path><path d="M167.72857,233.59434c0,1.1 -0.8,2 -1.8,2c-1,0 -1.8,-0.9 -1.8,-2c0,-1.1 0.8,-2 1.8,-2c1,0 1.8,0.9 1.8,2" fill="#000000" stroke="none" stroke-width="1" stroke-linecap="butt" stroke-linejoin="miter"></path></g><g fill-rule="evenodd"><path d="M143.32857,230.69436c3,4.4 2.8,9.8 0.1,11.7c-3.3,1.9 -7.7,0.5 -10.7,-3.9c-3.1,-4.4 -1.1786,-5.8572 1.9214,-8.0572c3.1,-2.3 5.6786,-4.1428 8.6786,0.2572z" fill="#ffffff" stroke="#000000" stroke-width="1.2" stroke-linecap="round" stroke-linejoin="round"></path><path d="M142.72856,236.49435c0,1.1 -0.8,2 -1.8,2c-1,0 -1.8,-0.9 -1.8,-2c0,-1.1 0.8,-2 1.8,-2c1,0.1 1.8,0.9 1.8,2" fill="#000000" stroke="none" stroke-width="1" stroke-linecap="butt" stroke-linejoin="miter"></path></g><path d="M166.99136,223.31569l-10.60701,-3.06424" fill="none" fill-rule="nonzero" stroke="#000000" stroke-width="1.2" stroke-linecap="round" stroke-linejoin="miter"></path><path d="M128.62049,229.49424l11.07843,-5.65706" data-paper-data="{&quot;index&quot;:null}" fill="none" fill-rule="nonzero" stroke="#000000" stroke-width="1.2" stroke-linecap="round" stroke-linejoin="miter"></path><text transform="translate(175.25501,259.08752) scale(0.31416,0.31416)" font-size="40" xml:space="preserve" fill="#000000" fill-rule="nonzero" stroke="none" stroke-width="1" stroke-linecap="butt" stroke-linejoin="miter" stroke-miterlimit="10" stroke-dasharray="" stroke-dashoffset="0" font-family="Sans Serif" font-weight="normal" text-anchor="start" style="mix-blend-mode: normal"><tspan x="0" dy="0">      ^</tspan><tspan x="0" dy="46.150000000000006px">examples</tspan></text><path d="M228.26187,76.91153c0,-0.4 0.4,-0.7 0.8,-0.6c1.9,0.7 7.3,2.3 13.3,2.7c5.4,0.3 8.6,0 10.1,-0.3c0.5,-0.1 0.9,0.4 0.7,0.9c-0.9,2.7 -4.7,10.2 -15.2,9.6c-9.1,-1 -10,-7.4 -9.7,-12.3z" data-paper-data="{&quot;index&quot;:null}" fill="#7b0000" fill-rule="evenodd" stroke="#000000" stroke-width="1.2" stroke-linecap="round" stroke-linejoin="round"></path><path d="M205.12229,98.18565c0,-3.26579 2.64744,-5.91324 5.91323,-5.91324c3.26579,0 5.91324,2.64746 5.91324,5.91324c0,3.26579 -2.64745,5.91323 -5.91324,5.91323c-3.26579,0 -5.91323,-2.64744 -5.91323,-5.91323z" data-paper-data="{&quot;index&quot;:null}" fill="#ffffff" fill-rule="nonzero" stroke="#000000" stroke-width="1.2" stroke-linecap="butt" stroke-linejoin="miter"></path><path d="M223.284,99.37065c0,-3.26579 2.64744,-5.91323 5.91323,-5.91323c3.26579,0 5.91323,2.64744 5.91323,5.91323c0,3.26579 -2.64744,5.91323 -5.91323,5.91323c-3.26579,0 -5.91323,-2.64744 -5.91323,-5.91323z" data-paper-data="{&quot;index&quot;:null}" fill="#7b0000" fill-rule="nonzero" stroke="#000000" stroke-width="1.2" stroke-linecap="butt" stroke-linejoin="miter"></path><path d="M252.42814,61.08488c0,0.9993 -2.00214,3.25635 -4.55572,4.52735c-2.69586,1.34181 -6.00632,1.672 -8.22449,1.672c-4.31927,0 -2.86124,-3.57282 -2.86124,-5.6271c0,-2.05428 3.50146,-4.29187 7.82073,-4.29187c2.09147,0 4.37268,0.39047 5.77597,1.02649c1.49476,0.67748 2.04476,1.63357 2.04476,2.69313z" data-paper-data="{&quot;index&quot;:null}" fill="#ff5f5f" fill-rule="nonzero" stroke="#000000" stroke-width="1.2" stroke-linecap="butt" stroke-linejoin="miter"></path><path d="M265.68523,58.31902c3.95055,0 5.62711,1.27821 5.62711,2.38437c0,1.10616 -1.67656,2.00287 -5.62711,2.00287c-3.95055,0 -8.6791,-0.89671 -8.6791,-2.00287c0,-1.10616 4.72855,-2.38437 8.6791,-2.38437z" data-paper-data="{&quot;index&quot;:null}" fill="#ff5f5f" fill-rule="nonzero" stroke="#000000" stroke-width="1.2" stroke-linecap="butt" stroke-linejoin="miter"></path><path d="M267.30661,69.19173c0,1.79091 -2.57046,3.05199 -7.1531,3.05199c-4.58264,0 -9.4421,-1.26107 -9.4421,-3.05199c0,-1.06992 0.37215,-1.63732 2.41683,-2.22794c1.37786,-0.398 4.03587,-1.01481 5.88077,-1.01481c2.07641,0 4.54692,0.67957 6.00219,1.17218c1.75652,0.59459 2.29541,1.09112 2.29541,2.07056z" data-paper-data="{&quot;index&quot;:null}" fill="#ff5f5f" fill-rule="nonzero" stroke="#000000" stroke-width="1.2" stroke-linecap="butt" stroke-linejoin="miter"></path><path d="M247.85016,100.47465h16.5952" data-paper-data="{&quot;index&quot;:null}" fill="none" fill-rule="nonzero" stroke="#000000" stroke-width="1.2" stroke-linecap="round" stroke-linejoin="miter"></path><path d="M291.72254,101.80989c0,0 0.31876,0.70551 -2.47974,1.14449c-2.7985,0.43898 -3.88008,0.50325 -7.24848,0.3815c-3.3684,-0.12175 -7.44085,-0.78232 -8.58372,-0.95375c-1.14287,-0.17143 -2.86124,-0.763 -2.86124,-0.763" data-paper-data="{&quot;index&quot;:null}" fill="none" fill-rule="nonzero" stroke="#000000" stroke-width="1.2" stroke-linecap="round" stroke-linejoin="miter"></path><path d="M257.38763,108.29536l1.90749,-2.09825" data-paper-data="{&quot;index&quot;:null}" fill="none" fill-rule="nonzero" stroke="#001026" stroke-width="1.2" stroke-linecap="round" stroke-linejoin="miter"></path><path d="M269.5956,106.57861l0.3815,1.33525l-2.6705,1.1445l-8.77447,-1.33525" data-paper-data="{&quot;index&quot;:null}" fill="none" fill-rule="nonzero" stroke="#000000" stroke-width="1.2" stroke-linecap="round" stroke-linejoin="miter"></path><path d="M269.02333,117.6421l-2.28899,-2.47974c0,0 1.58177,-1.02455 2.86124,-1.1445c1.27947,-0.11995 3.24274,0.57225 3.24274,0.57225l1.14449,1.33525" data-paper-data="{&quot;index&quot;:null}" fill="none" fill-rule="nonzero" stroke="#000000" stroke-width="1.2" stroke-linecap="round" stroke-linejoin="miter"></path><path d="M302.023,92.46316c-2.16517,0.17184 -4.04535,-0.63893 -5.15023,-1.90749c-1.10489,-1.26857 -1.55198,-2.07915 0,-4.00574c1.55198,-1.92659 3.53837,-3.02735 5.53173,-2.86124c1.99336,0.16611 2.86124,3.62423 2.86124,3.62423l3.62424,2.289c0,0 -4.70181,2.6894 -6.86698,2.86124z" data-paper-data="{&quot;index&quot;:null}" fill="#ffffff" fill-rule="nonzero" stroke="#000000" stroke-width="1.2" stroke-linecap="round" stroke-linejoin="miter"></path><path d="M317.56238,93.50558c-2.16517,0.17184 -4.04535,-0.63893 -5.15024,-1.90749c-1.10489,-1.26857 -1.55198,-2.07915 0,-4.00574c1.55198,-1.92659 3.53837,-3.02735 5.53174,-2.86124c1.99336,0.16611 2.86124,3.62423 2.86124,3.62423l3.62424,2.289c0,0 -4.70181,2.6894 -6.86698,2.86124z" data-paper-data="{&quot;index&quot;:null}" fill="#7b0000" fill-rule="nonzero" stroke="#000000" stroke-width="1.2" stroke-linecap="round" stroke-linejoin="miter"></path><path d="M303.48658,70.71772c0,3.47648 -4.91059,6.29474 -10.9681,6.29474c-6.05751,0 -12.68484,-5.67949 -10.39584,-10.30047c1.54312,-3.11523 5.86433,2.86124 11.92184,2.86124c6.05751,0 9.44209,-2.33199 9.44209,1.14449z" data-paper-data="{&quot;index&quot;:null}" fill="#7b0000" fill-rule="nonzero" stroke="#000000" stroke-width="1.2" stroke-linecap="butt" stroke-linejoin="miter"></path><path d="M333.66551,73.42872c0,3.47648 -4.91059,6.29474 -10.9681,6.29474c-6.05751,0 -12.68484,-5.67949 -10.39585,-10.30047c1.54312,-3.11523 5.86433,2.86124 11.92184,2.86124c6.05751,0 9.4421,-2.33199 9.4421,1.14449z" data-paper-data="{&quot;index&quot;:null}" fill="#ffffff" fill-rule="nonzero" stroke="#000000" stroke-width="1.2" stroke-linecap="butt" stroke-linejoin="miter"></path><g fill-rule="evenodd"><path d="M94.06577,178.71325c2.9,4.5 3,9.6 0.2,11.4c-2.8,1.8 -7.4,-0.3 -10.4,-4.8c-2.9,-4.5 -3,-9.6 -0.2,-11.4c2.8,-1.9 7.5,0.3 10.4,4.8z" fill="#ffffff" stroke="#000000" stroke-width="1.2" stroke-linecap="round" stroke-linejoin="round"></path><path d="M93.66577,184.41324c0,1.1 -0.8,2 -1.8,2c-1,0 -1.8,-0.9 -1.8,-2c0,-1.1 0.8,-2 1.8,-2c1,0 1.8,0.9 1.8,2" fill="#000000" stroke="none" stroke-width="1" stroke-linecap="butt" stroke-linejoin="miter"></path></g><g fill-rule="evenodd"><path d="M69.26577,181.51324c3,4.4 2.8,9.8 0.1,11.7c-3.3,1.9 -7.7,0.5 -10.7,-3.9c-3.1,-4.4 -3.3,-10.1 -0.2,-12.3c3.1,-2.3 7.8,0.1 10.8,4.5z" fill="#ffffff" stroke="#000000" stroke-width="1.2" stroke-linecap="round" stroke-linejoin="round"></path><path d="M68.66576,187.31326c0,1.1 -0.8,2 -1.8,2c-1,0 -1.8,-0.9 -1.8,-2c0,-1.1 0.8,-2 1.8,-2c1,0.1 1.8,0.9 1.8,2" fill="#000000" stroke="none" stroke-width="1" stroke-linecap="butt" stroke-linejoin="miter"></path></g><path d="M70.75822,232.73176c0,-2.43844 2.81825,-4.4152 6.29473,-4.4152c3.47648,0 6.29473,1.97675 6.29473,4.4152c0,2.43844 -2.81825,4.41519 -6.29473,4.41519c-3.47648,0 -6.29473,-1.97674 -6.29473,-4.41519z" fill="#ffffff" fill-rule="nonzero" stroke="#000000" stroke-width="1.2" stroke-linecap="butt" stroke-linejoin="miter"></path><path d="M95.97768,229.81672c0,-2.43844 2.81825,-4.41519 6.29473,-4.41519c3.47648,0 6.29473,1.97675 6.29473,4.41519c0,2.43844 -2.81825,4.41519 -6.29473,4.41519c-3.47648,0 -6.29473,-1.97675 -6.29473,-4.41519z" fill="#ffffff" fill-rule="nonzero" stroke="#000000" stroke-width="1.2" stroke-linecap="butt" stroke-linejoin="miter"></path><path d="M107.05874,230.23363c0,1.1 -0.8,2 -1.8,2c-1,0 -1.8,-0.9 -1.8,-2c0,-1.1 0.8,-2 1.8,-2c1,0 1.8,0.9 1.8,2" fill="#000000" fill-rule="evenodd" stroke="none" stroke-width="1" stroke-linecap="butt" stroke-linejoin="miter"></path><path d="M82.05874,233.13363c0,1.1 -0.8,2 -1.8,2c-1,0 -1.8,-0.9 -1.8,-2c0,-1.1 0.8,-2 1.8,-2c1,0.1 1.8,0.9 1.8,2" fill="#000000" fill-rule="evenodd" stroke="none" stroke-width="1" stroke-linecap="butt" stroke-linejoin="miter"></path><path d="M84.72345,245.81515c0,-2.80176 2.81825,-5.07304 6.29473,-5.07304c3.47648,0 6.29473,2.27128 6.29473,5.07304c0,2.80176 -2.81825,5.07303 -6.29473,5.07303c-3.47648,0 -6.29473,-2.27127 -6.29473,-5.07303z" fill="#ffffff" fill-rule="nonzero" stroke="#000000" stroke-width="1.2" stroke-linecap="butt" stroke-linejoin="miter"></path><path d="M109.9429,242.46577c0,-2.80175 2.81825,-5.07304 6.29473,-5.07304c3.47648,0 6.29473,2.27128 6.29473,5.07304c0,2.80175 -2.81824,5.07303 -6.29473,5.07303c-3.47648,0 -6.29473,-2.27126 -6.29473,-5.07303z" fill="#ffffff" fill-rule="nonzero" stroke="#000000" stroke-width="1.2" stroke-linecap="butt" stroke-linejoin="miter"></path><path d="M118.16272,242.86359c0,1.1 -0.8,2 -1.8,2c-1,0 -1.8,-0.9 -1.8,-2c0,-1.1 0.8,-2 1.8,-2c1,0 1.8,0.9 1.8,2" fill="#000000" fill-rule="evenodd" stroke="none" stroke-width="1" stroke-linecap="butt" stroke-linejoin="miter"></path><path d="M93.16272,246.33585c0,1.1 -0.8,2 -1.8,2c-1,0 -1.8,-0.9 -1.8,-2c0,-1.1 0.8,-2 1.8,-2c1,0.1 1.8,0.9 1.8,2" fill="#000000" fill-rule="evenodd" stroke="none" stroke-width="1" stroke-linecap="butt" stroke-linejoin="miter"></path><g fill-rule="evenodd"><path d="M278.86643,226.58168c2.9,4.5 3,9.6 0.2,11.4c-2.8,1.8 -7.4,-0.3 -10.4,-4.8c-2.9,-4.5 -3,-9.60001 -0.2,-11.40001c2.8,-1.9 7.5,0.30001 10.4,4.80001z" fill="#ffffff" stroke="#000000" stroke-width="1.2" stroke-linecap="round" stroke-linejoin="round"></path><path d="M278.46644,232.28166c0,1.1 -0.8,2 -1.8,2c-1,0 -1.8,-0.9 -1.8,-2c0,-1.1 0.8,-2 1.8,-2c1,0 1.8,0.9 1.8,2" fill="#000000" stroke="none" stroke-width="1" stroke-linecap="butt" stroke-linejoin="miter"></path></g><g fill-rule="evenodd"><path d="M254.06642,229.38168c3,4.4 2.8,9.8 0.1,11.7c-3.3,1.9 -7.7,0.5 -10.7,-3.9c-3.1,-4.4 -3.3,-10.10001 -0.2,-12.3c3.1,-2.3 7.8,0.1 10.8,4.5z" fill="#ffffff" stroke="#000000" stroke-width="1.2" stroke-linecap="round" stroke-linejoin="round"></path><path d="M253.46643,235.18167c0,1.1 -0.8,2 -1.8,2c-1,0 -1.8,-0.9 -1.8,-2c0,-1.1 0.8,-2 1.8,-2c1,0.1 1.8,0.9 1.8,2" fill="#000000" stroke="none" stroke-width="1" stroke-linecap="butt" stroke-linejoin="miter"></path></g><path d="M241.04617,239.43594c0,0 -1.22919,-1.08075 -1.90749,-2.47974c-0.6783,-1.39899 -0.99851,-3.08502 -1.1445,-3.81499c-0.14599,-0.72997 0,-1.90749 0,-1.90749" fill="none" fill-rule="nonzero" stroke="#000000" stroke-width="1.2" stroke-linecap="round" stroke-linejoin="miter"></path><path d="M280.5313,224.5575c0,0 1.49206,1.49182 2.09824,2.67049c0.60618,1.17867 1.15789,2.36516 1.33525,4.00574c0.17736,1.64058 -0.12306,4.10392 -0.57225,4.19649" fill="none" fill-rule="nonzero" stroke="#000000" stroke-width="1.2" stroke-linecap="round" stroke-linejoin="miter"></path><g fill-rule="evenodd"><path d="M57.25611,206.40275c2.9,4.5 3,9.6 0.2,11.4c-2.8,1.8 -7.4,-0.30001 -10.4,-4.80001c-2.9,-4.5 -3,-9.6 -0.2,-11.4c2.8,-1.9 7.5,0.3 10.4,4.8z" fill="#ffffff" stroke="#000000" stroke-width="1.2" stroke-linecap="round" stroke-linejoin="round"></path><path d="M56.85611,212.10276c0,1.1 -0.8,2 -1.8,2c-1,0 -1.8,-0.9 -1.8,-2c0,-1.1 0.8,-2 1.8,-2c1,0 1.8,0.9 1.8,2" fill="#000000" stroke="none" stroke-width="1" stroke-linecap="butt" stroke-linejoin="miter"></path></g><g fill-rule="evenodd"><path d="M32.4561,209.20276c3,4.4 2.8,9.8 0.1,11.7c-3.3,1.9 -7.7,0.49999 -10.7,-3.90001c-3.1,-4.4 -3.3,-10.1 -0.2,-12.3c3.1,-2.3 7.8,0.1 10.8,4.5z" fill="#ffffff" stroke="#000000" stroke-width="1.2" stroke-linecap="round" stroke-linejoin="round"></path><path d="M31.8561,215.00274c0,1.1 -0.8,2 -1.8,2c-1,0 -1.8,-0.9 -1.8,-2c0,-1.1 0.8,-2 1.8,-2c1,0.1 1.8,0.9 1.8,2" fill="#000000" stroke="none" stroke-width="1" stroke-linecap="butt" stroke-linejoin="miter"></path></g><path d="M19.43585,219.25702c0,0 -1.22919,-1.08075 -1.90749,-2.47974c-0.6783,-1.39899 -0.99851,-3.08501 -1.1445,-3.81499c-0.14599,-0.72997 0,-1.9075 0,-1.9075" fill="none" fill-rule="nonzero" stroke="#000000" stroke-width="1.2" stroke-linecap="round" stroke-linejoin="miter"></path><path d="M58.92099,204.37856c0,0 1.49207,1.49183 2.09825,2.6705c0.60617,1.17867 1.15789,2.36516 1.33525,4.00573c0.17736,1.64058 -0.12306,4.10393 -0.57225,4.19649" fill="none" fill-rule="nonzero" stroke="#000000" stroke-width="1.2" stroke-linecap="round" stroke-linejoin="miter"></path><path d="M58.25037,230.8592c2.9,4.5 3,9.6 0.2,11.4c-2.8,1.8 -7.4,-0.3 -10.4,-4.8c-2.9,-4.5 -3,-9.6 -0.2,-11.4c2.8,-1.9 7.5,0.3 10.4,4.8z" fill="#ffffff" fill-rule="evenodd" stroke="#000000" stroke-width="1.2" stroke-linecap="round" stroke-linejoin="round"></path><path d="M33.45037,233.65919c3,4.4 2.8,9.79999 0.1,11.7c-3.3,1.9 -7.7,0.5 -10.7,-3.9c-3.1,-4.4 -3.3,-10.1 -0.2,-12.3c3.1,-2.3 7.8,0.10001 10.8,4.50001z" fill="#ffffff" fill-rule="evenodd" stroke="#000000" stroke-width="1.2" stroke-linecap="round" stroke-linejoin="round"></path><path d="M20.43011,243.71345c0,0 -1.22919,-1.08075 -1.90749,-2.47974c-0.6783,-1.39899 -0.99851,-3.08502 -1.1445,-3.81499c-0.14599,-0.72997 0,-1.90749 0,-1.90749" fill="none" fill-rule="nonzero" stroke="#000000" stroke-width="1.2" stroke-linecap="round" stroke-linejoin="miter"></path><path d="M59.91525,228.83501c0,0 1.49207,1.49182 2.09825,2.67049c0.60617,1.17867 1.15789,2.36516 1.33525,4.00574c0.17736,1.64058 -0.12306,4.10392 -0.57225,4.19649" fill="none" fill-rule="nonzero" stroke="#001026" stroke-width="1.2" stroke-linecap="round" stroke-linejoin="miter"></path><path d="M52.80413,234.28571c0,-0.55229 0.44772,-1 1,-1c0.55228,0 1,0.44771 1,1c0,0.55229 -0.44772,1 -1,1c-0.55228,0 -1,-0.44771 -1,-1z" fill="#000000" fill-rule="nonzero" stroke="none" stroke-width="0.5" stroke-linecap="butt" stroke-linejoin="miter"></path><path d="M27.43445,237.52844c0,-0.55229 0.44772,-1 1,-1c0.55228,0 1,0.44771 1,1c0,0.55229 -0.44772,1 -1,1c-0.55228,0 -1,-0.44771 -1,-1z" fill="#000000" fill-rule="nonzero" stroke="none" stroke-width="0.5" stroke-linecap="butt" stroke-linejoin="miter"></path><text transform="translate(279.49445,50.92703) scale(0.35073,0.35073)" font-size="40" xml:space="preserve" fill="#000000" fill-rule="nonzero" stroke="none" stroke-width="1" stroke-linecap="butt" stroke-linejoin="miter" stroke-miterlimit="10" stroke-dasharray="" stroke-dashoffset="0" font-family="Sans Serif" font-weight="normal" text-anchor="start" style="mix-blend-mode: normal"><tspan x="0" dy="0">mouths:</tspan></text><g stroke="#000000" stroke-width="1.2"><path d="M259.01304,79.62254c0,-0.4 0.4,-0.7 0.8,-0.6c1.9,0.7 7.3,2.3 13.3,2.7c5.4,0.3 8.6,0 10.1,-0.3c0.5,-0.1 0.9,0.4 0.7,0.9c-0.9,2.7 -4.7,10.2 -15.2,9.6c-9.1,-1 -10,-7.4 -9.7,-12.3z" data-paper-data="{&quot;index&quot;:null}" fill="#7b0000" fill-rule="evenodd" stroke-linecap="round" stroke-linejoin="round"></path><path d="M271.88459,90.36492c0,2.10696 -1.28944,1.526 -4.29186,1.526c-1.61525,0 -3.72847,-0.99871 -5.33636,-2.27406c-1.38084,-1.09526 -2.00749,-2.49468 -2.00749,-2.49468c0,0 1.67094,-1.33525 4.67336,-1.33525c3.00242,0 6.96235,2.47103 6.96235,4.57799z" data-paper-data="{&quot;index&quot;:null}" fill="#ff5f5f" fill-rule="nonzero" stroke-linecap="butt" stroke-linejoin="miter"></path></g><g fill="none" fill-rule="nonzero" stroke-width="1.2" stroke-linecap="round" stroke-linejoin="miter"><path d="M275.89032,111.1566l2.86124,-3.24274" data-paper-data="{&quot;index&quot;:null}" stroke="#001026"></path><path d="M296.30052,112.3011l-1.71675,1.1445h-7.24848l-7.43922,-2.09824l-2.86124,-1.71675" data-paper-data="{&quot;index&quot;:null}" stroke="#000000"></path></g><g fill="none" fill-rule="nonzero" stroke="#000000" stroke-width="1.2" stroke-linecap="round" stroke-linejoin="miter"><path d="M250.71141,115.7346c0,0 1.38108,-2.0844 2.67049,-2.67049c1.28941,-0.5861 3.62423,-0.19075 3.62423,-0.19075c0,0 3.61717,0.79335 4.38724,1.33525c0.77007,0.5419 0.76299,2.289 0.76299,2.289" data-paper-data="{&quot;index&quot;:null}"></path><path d="M247.65941,115.16236l4.57798,2.28898" data-paper-data="{&quot;index&quot;:null}"></path></g><g fill="none" fill-rule="nonzero" stroke="#000000" stroke-width="1.2" stroke-linecap="round" stroke-linejoin="miter"><path d="M286.00005,118.21435l-2.67049,1.52598c0,0 -2.66072,-0.48344 -3.62424,-1.71674c-0.96352,-1.23331 -1.1445,-4.38724 -1.1445,-4.38724" data-paper-data="{&quot;index&quot;:null}"></path><path d="M277.03481,112.3011l3.43349,2.47974" data-paper-data="{&quot;index&quot;:null}"></path></g><g stroke="#000000" stroke-width="1.2"><path d="M205.64373,58.68061c0,-0.4 0.4,-0.7 0.8,-0.6c1.9,0.7 7.3,2.3 13.3,2.7c5.4,0.3 8.6,0 10.1,-0.3c0.5,-0.1 0.9,0.4 0.7,0.9c-0.9,2.7 -4.7,10.2 -15.2,9.6c-9.1,-1 -10,-7.4 -9.7,-12.3z" data-paper-data="{&quot;index&quot;:null}" fill="#7b0000" fill-rule="evenodd" stroke-linecap="round" stroke-linejoin="round"></path><path d="M218.51526,69.42299c0,2.10696 -1.28945,1.52599 -4.29187,1.52599c-1.61525,0 -3.72847,-0.9987 -5.33636,-2.27405c-1.38084,-1.09526 -2.00749,-2.49468 -2.00749,-2.49468c0,0 1.67094,-1.33525 4.67336,-1.33525c3.00242,0 6.96236,2.47103 6.96236,4.57799z" data-paper-data="{&quot;index&quot;:null}" fill="#ff5f5f" fill-rule="nonzero" stroke-linecap="butt" stroke-linejoin="miter"></path><path d="M206.07604,61.37101l-0.3815,-3.43349c0,0 8.78859,2.19877 13.37093,2.68849c3.36552,0.35967 11.61725,-0.01799 11.61725,-0.01799l-1.71675,3.81499c0,0 -10.26285,-0.01283 -14.07105,-0.52059c-3.82173,-0.50957 -8.81888,-2.53141 -8.81888,-2.53141z" data-paper-data="{&quot;index&quot;:null}" fill="#ffffff" fill-rule="nonzero" stroke-linecap="butt" stroke-linejoin="miter"></path></g><path d="M468.97497,86.8868c0,0.4 -0.4,0.7 -0.8,0.6c-1.9,-0.7 -7.3,-2.3 -13.3,-2.7c-5.4,-0.3 -8.6,0 -10.1,0.3c-0.5,0.1 -0.9,-0.4 -0.7,-0.9c0.9,-2.7 4.7,-10.2 15.2,-9.6c9.1,1 10,7.4 9.7,12.3z" data-paper-data="{&quot;index&quot;:null}" fill="#ffffff" fill-rule="evenodd" stroke="#000000" stroke-width="1.2" stroke-linecap="round" stroke-linejoin="round"></path><path d="M439.36829,85.12955c0,0.4 -0.4,0.7 -0.8,0.6c-1.9,-0.7 -7.3,-2.3 -13.3,-2.7c-5.4,-0.3 -8.6,0 -10.1,0.3c-0.5,0.1 -0.9,-0.4 -0.7,-0.9c0.9,-2.7 4.7,-10.2 15.2,-9.6c9.1,1 10,7.4 9.7,12.3z" data-paper-data="{&quot;index&quot;:null}" fill="#7b0000" fill-rule="evenodd" stroke="#000000" stroke-width="1.2" stroke-linecap="round" stroke-linejoin="round"></path><path d="M462.50787,63.85543c0,3.26579 -2.64744,5.91324 -5.91323,5.91324c-3.26579,0 -5.91324,-2.64746 -5.91324,-5.91324c0,-3.26579 2.64745,-5.91323 5.91324,-5.91323c3.26579,0 5.91323,2.64744 5.91323,5.91323z" data-paper-data="{&quot;index&quot;:null}" fill="#ffffff" fill-rule="nonzero" stroke="#000000" stroke-width="1.2" stroke-linecap="butt" stroke-linejoin="miter"></path><path d="M444.34616,62.67042c0,3.26579 -2.64744,5.91323 -5.91323,5.91323c-3.26579,0 -5.91323,-2.64744 -5.91323,-5.91323c0,-3.26579 2.64744,-5.91323 5.91323,-5.91323c3.26579,0 5.91323,2.64744 5.91323,5.91323z" data-paper-data="{&quot;index&quot;:null}" fill="#7b0000" fill-rule="nonzero" stroke="#000000" stroke-width="1.2" stroke-linecap="butt" stroke-linejoin="miter"></path><path d="M415.20203,100.9562c0,-0.9993 2.00214,-3.25635 4.55572,-4.52735c2.69586,-1.34181 6.00632,-1.672 8.22449,-1.672c4.31927,0 2.86124,3.57282 2.86124,5.6271c0,2.05428 -3.50146,4.29187 -7.82073,4.29187c-2.09147,0 -4.37268,-0.39047 -5.77597,-1.02649c-1.49476,-0.67748 -2.04476,-1.63357 -2.04476,-2.69313z" data-paper-data="{&quot;index&quot;:null}" fill="#ff5f5f" fill-rule="nonzero" stroke="#000000" stroke-width="1.2" stroke-linecap="butt" stroke-linejoin="miter"></path><path d="M401.94493,103.72205c-3.95055,0 -5.62711,-1.27821 -5.62711,-2.38437c0,-1.10616 1.67656,-2.00287 5.62711,-2.00287c3.95055,0 8.6791,0.89671 8.6791,2.00287c0,1.10616 -4.72855,2.38437 -8.6791,2.38437z" data-paper-data="{&quot;index&quot;:null}" fill="#ff5f5f" fill-rule="nonzero" stroke="#000000" stroke-width="1.2" stroke-linecap="butt" stroke-linejoin="miter"></path><path d="M400.32356,92.84934c0,-1.79091 2.57046,-3.05199 7.1531,-3.05199c4.58264,0 9.4421,1.26107 9.4421,3.05199c0,1.06992 -0.37215,1.63732 -2.41683,2.22794c-1.37786,0.398 -4.03587,1.01481 -5.88077,1.01481c-2.07641,0 -4.54692,-0.67957 -6.00219,-1.17218c-1.75652,-0.59459 -2.29541,-1.09112 -2.29541,-2.07056z" data-paper-data="{&quot;index&quot;:null}" fill="#ff5f5f" fill-rule="nonzero" stroke="#000000" stroke-width="1.2" stroke-linecap="butt" stroke-linejoin="miter"></path><path d="M403.1848,61.56642h16.5952" data-paper-data="{&quot;index&quot;:null}" fill="none" fill-rule="nonzero" stroke="#000000" stroke-width="1.2" stroke-linecap="round" stroke-linejoin="miter"></path><path d="M375.90763,60.23119c0,0 -0.31876,-0.70551 2.47974,-1.14449c2.7985,-0.43898 3.88008,-0.50325 7.24848,-0.3815c3.3684,0.12175 7.44085,0.78232 8.58372,0.95375c1.14287,0.17143 2.86124,0.763 2.86124,0.763" data-paper-data="{&quot;index&quot;:null}" fill="none" fill-rule="nonzero" stroke="#000000" stroke-width="1.2" stroke-linecap="round" stroke-linejoin="miter"></path><path d="M408.33505,55.84396l1.90749,-2.09825" data-paper-data="{&quot;index&quot;:null}" fill="none" fill-rule="nonzero" stroke="#001026" stroke-width="1.2" stroke-linecap="round" stroke-linejoin="miter"></path><path d="M398.03457,55.46246l-0.3815,-1.33525l2.6705,-1.1445l8.77447,1.33525" data-paper-data="{&quot;index&quot;:null}" fill="none" fill-rule="nonzero" stroke="#000000" stroke-width="1.2" stroke-linecap="round" stroke-linejoin="miter"></path><path d="M398.60682,44.39897l2.28899,2.47974c0,0 -1.58177,1.02455 -2.86124,1.1445c-1.27947,0.11995 -3.24274,-0.57225 -3.24274,-0.57225l-1.14449,-1.33525" data-paper-data="{&quot;index&quot;:null}" fill="none" fill-rule="nonzero" stroke="#000000" stroke-width="1.2" stroke-linecap="round" stroke-linejoin="miter"></path><path d="M365.60717,69.57791c2.16517,-0.17184 4.04535,0.63893 5.15023,1.90749c1.10489,1.26857 1.55198,2.07915 0,4.00574c-1.55198,1.92659 -3.53837,3.02735 -5.53173,2.86124c-1.99336,-0.16611 -2.86124,-3.62423 -2.86124,-3.62423l-3.62424,-2.289c0,0 4.70181,-2.6894 6.86698,-2.86124z" data-paper-data="{&quot;index&quot;:null}" fill="#ffffff" fill-rule="nonzero" stroke="#000000" stroke-width="1.2" stroke-linecap="round" stroke-linejoin="miter"></path><path d="M349.73445,68.20216c2.16517,-0.17184 4.04535,0.63893 5.15024,1.90749c1.10489,1.26857 1.55198,2.07915 0,4.00574c-1.55198,1.92659 -3.53837,3.02735 -5.53174,2.86124c-1.99336,-0.16611 -2.86124,-3.62423 -2.86124,-3.62423l-3.62424,-2.289c0,0 4.70181,-2.6894 6.86698,-2.86124z" data-paper-data="{&quot;index&quot;:null}" fill="#7b0000" fill-rule="nonzero" stroke="#000000" stroke-width="1.2" stroke-linecap="round" stroke-linejoin="miter"></path><path d="M364.14359,91.32335c0,-3.47648 4.91059,-6.29474 10.9681,-6.29474c6.05751,0 12.68484,5.67949 10.39584,10.30047c-1.54312,3.11523 -5.86433,-2.86124 -11.92184,-2.86124c-6.05751,0 -9.44209,2.33199 -9.44209,-1.14449z" data-paper-data="{&quot;index&quot;:null}" fill="#7b0000" fill-rule="nonzero" stroke="#000000" stroke-width="1.2" stroke-linecap="butt" stroke-linejoin="miter"></path><path d="M333.96466,88.61235c0,-3.47648 4.91059,-6.29474 10.9681,-6.29474c6.05751,0 12.68484,5.67949 10.39585,10.30047c-1.54312,3.11523 -5.86433,-2.86124 -11.92184,-2.86124c-6.05751,0 -9.4421,2.33199 -9.4421,-1.14449z" data-paper-data="{&quot;index&quot;:null}" fill="#ffffff" fill-rule="nonzero" stroke="#000000" stroke-width="1.2" stroke-linecap="butt" stroke-linejoin="miter"></path><g data-paper-data="{&quot;index&quot;:null}" stroke="#000000" stroke-width="1.2"><path d="M408.61713,82.41853c0,0.4 -0.4,0.7 -0.8,0.6c-1.9,-0.7 -7.3,-2.3 -13.3,-2.7c-5.4,-0.3 -8.6,0 -10.1,0.3c-0.5,0.1 -0.9,-0.4 -0.7,-0.9c0.9,-2.7 4.7,-10.2 15.2,-9.6c9.1,1 10,7.4 9.7,12.3z" data-paper-data="{&quot;index&quot;:null}" fill="#7b0000" fill-rule="evenodd" stroke-linecap="round" stroke-linejoin="round"></path><path d="M395.74558,71.67615c0,-2.10696 1.28944,-1.526 4.29186,-1.526c1.61525,0 3.72847,0.99871 5.33636,2.27406c1.38084,1.09526 2.00749,2.49468 2.00749,2.49468c0,0 -1.67094,1.33525 -4.67336,1.33525c-3.00242,0 -6.96235,-2.47103 -6.96235,-4.57799z" data-paper-data="{&quot;index&quot;:null}" fill="#ff5f5f" fill-rule="nonzero" stroke-linecap="butt" stroke-linejoin="miter"></path></g><g data-paper-data="{&quot;index&quot;:null}" fill="none" fill-rule="nonzero" stroke-width="1.2" stroke-linecap="round" stroke-linejoin="miter"><path d="M391.73984,50.88447l-2.86124,3.24274" data-paper-data="{&quot;index&quot;:null}" stroke="#001026"></path><path d="M371.32965,49.73997l1.71675,-1.1445h7.24848l7.43922,2.09824l2.86124,1.71675" data-paper-data="{&quot;index&quot;:null}" stroke="#000000"></path></g><g data-paper-data="{&quot;index&quot;:null}" fill="none" fill-rule="nonzero" stroke="#000000" stroke-width="1.2" stroke-linecap="round" stroke-linejoin="miter"><path d="M416.91876,46.30647c0,0 -1.38108,2.0844 -2.67049,2.67049c-1.28941,0.5861 -3.62423,0.19075 -3.62423,0.19075c0,0 -3.61717,-0.79335 -4.38724,-1.33525c-0.77007,-0.5419 -0.76299,-2.289 -0.76299,-2.289" data-paper-data="{&quot;index&quot;:null}"></path><path d="M415.39278,44.58973l4.57798,2.28898" data-paper-data="{&quot;index&quot;:null}"></path></g><g data-paper-data="{&quot;index&quot;:null}" fill="none" fill-rule="nonzero" stroke="#000000" stroke-width="1.2" stroke-linecap="round" stroke-linejoin="miter"><path d="M381.63012,43.82673l2.67049,-1.52598c0,0 2.66072,0.48344 3.62424,1.71674c0.96352,1.23331 1.1445,4.38724 1.1445,4.38724" data-paper-data="{&quot;index&quot;:null}"></path><path d="M387.16185,47.26023l3.43349,2.47974" data-paper-data="{&quot;index&quot;:null}"></path></g><g data-paper-data="{&quot;index&quot;:null}" stroke="#000000" stroke-width="1.2"><path d="M461.98644,103.36047c0,0.4 -0.4,0.7 -0.8,0.6c-1.9,-0.7 -7.3,-2.3 -13.3,-2.7c-5.4,-0.3 -8.6,0 -10.1,0.3c-0.5,0.1 -0.9,-0.4 -0.7,-0.9c0.9,-2.7 4.7,-10.2 15.2,-9.6c9.1,1 10,7.4 9.7,12.3z" data-paper-data="{&quot;index&quot;:null}" fill="#7b0000" fill-rule="evenodd" stroke-linecap="round" stroke-linejoin="round"></path><path d="M449.11491,92.61809c0,-2.10696 1.28945,-1.52599 4.29187,-1.52599c1.61525,0 3.72847,0.9987 5.33636,2.27405c1.38084,1.09526 2.00749,2.49468 2.00749,2.49468c0,0 -1.67094,1.33525 -4.67336,1.33525c-3.00242,0 -6.96236,-2.47103 -6.96236,-4.57799z" data-paper-data="{&quot;index&quot;:null}" fill="#ff5f5f" fill-rule="nonzero" stroke-linecap="butt" stroke-linejoin="miter"></path><path d="M461.55413,100.67007l0.3815,3.43349c0,0 -8.78859,-2.19877 -13.37093,-2.68849c-3.36552,-0.35967 -11.61725,0.01799 -11.61725,0.01799l1.71675,-3.81499c0,0 10.26286,0.01283 14.07106,0.52059c3.82173,0.50956 8.81888,2.53141 8.81888,2.53141z" data-paper-data="{&quot;index&quot;:null}" fill="#ffffff" fill-rule="nonzero" stroke-linecap="butt" stroke-linejoin="miter"></path></g></g></g></svg>