<svg version="1.1" xmlns="http://www.w3.org/2000/svg" xmlns:xlink="http://www.w3.org/1999/xlink" width="64.33044" height="78.66181" viewBox="0,0,64.33044,78.66181"><g transform="translate(-210,-143)"><g data-paper-data="{&quot;isPaintingLayer&quot;:true}" fill-rule="nonzero" stroke="none" stroke-linecap="butt" stroke-linejoin="miter" stroke-miterlimit="10" stroke-dasharray="" stroke-dashoffset="0" style="mix-blend-mode: normal"><path d="M271.47272,206.81181c-1.64,4.61 -5.25,8.32 -11.05,11.38c-0.05,0.02 -0.1,0.05 -0.14,0.07c-4.43,2.26 -9.07,3.4 -13.79,3.4c-6.53,0 -12.76,-2.2 -18.5,-6.53c-0.04,-0.03 -0.08,-0.06 -0.12,-0.09c-1.36,-1.06 -2.62,-2.39 -6.08,-7.11c-0.32,-0.42 -0.6,-0.87 -0.85,-1.34l-0.97,-1.84c-0.67,-0.88 -1.3,-1.9 -1.94,-3.1c-0.34,-0.64 -0.61,-1.3 -0.81,-1.99c-0.6,-1.98 -1.34,-4.82 -2.27,-8.67c-0.05,-0.2 -0.09,-0.41 -0.13,-0.61c-0.48,-2.61 -0.71,-5.62 -0.71,-9.19c0,-4.9 0.07,-5.88 0.2,-6.83c0.04,-0.23 0.08,-0.47 0.13,-0.7c0.29,-1.39 0.87,-3.44 3.16,-8.92c0.27,-0.66 0.61,-1.29 1.01,-1.89c0.29,-0.43 0.69,-1.04 1.2,-1.83c2.56,-4.55 6.36,-8.29 11.28,-11.1c4.26,-2.4 8.68,-3.78 13.2,-4.14c0.29,-0.03 0.59,-0.04 0.88,-0.04c0.62,0 1.13,0.02 5.17,0.4c0.38,0.04 0.75,0.09 1.12,0.17c0.46,0.09 1.05,0.23 4.44,1.09c0.04,0.01 0.08,0.02 0.12,0.03c3.01,0.81 5.71,2.55 8.01,5.18c3.32,3.77 4.01,7.53 4.01,10.02c0,1.56318 -12.0935,0.84005 -17.78931,4.25995c-5.30823,3.18719 -4.21022,10.53917 -5.12676,11.66796c1.08042,1.0249 8.06273,-5.55538 13.13062,-6.02187c6.79951,-0.62588 12.03321,4.73946 12.87545,6.42396c0.44,0.77 0.94,1.74 1.56,3.04c0.23,0.49 0.43,1 0.59,1.52c0.52,1.71 0.81,3.62 0.91,6.01v0.13c0.04,1.3 0.07,2.24 0.08,2.82c0.3,3.58 -0.56,7.93 -2.8,14.33z" fill="#da9494" stroke-width="1"></path><path d="M267.36,204.07c-1.64,4.61 -5.25,8.32 -11.05,11.38c-0.05,0.02 -0.1,0.05 -0.14,0.07c-4.43,2.26 -9.07,3.4 -13.79,3.4c-6.53,0 -12.76,-2.2 -18.5,-6.53c-0.04,-0.03 -0.08,-0.06 -0.12,-0.09c-1.36,-1.06 -2.62,-2.39 -6.08,-7.11c-0.32,-0.42 -0.6,-0.87 -0.85,-1.34l-0.97,-1.84c-0.67,-0.88 -1.3,-1.9 -1.94,-3.1c-0.34,-0.64 -0.61,-1.3 -0.81,-1.99c-0.6,-1.98 -1.34,-4.82 -2.27,-8.67c-0.05,-0.2 -0.09,-0.41 -0.13,-0.61c-0.48,-2.61 -0.71,-5.62 -0.71,-9.19c0,-4.9 0.07,-5.88 0.2,-6.83c0.04,-0.23 0.08,-0.47 0.13,-0.7c0.29,-1.39 0.87,-3.44 3.16,-8.92c0.27,-0.66 0.61,-1.29 1.01,-1.89c0.29,-0.43 0.69,-1.04 1.2,-1.83c2.56,-4.55 6.36,-8.29 11.28,-11.1c4.26,-2.4 8.68,-3.78 13.2,-4.14c0.29,-0.03 0.59,-0.04 0.88,-0.04c0.62,0 1.13,0.02 5.17,0.4c0.38,0.04 0.75,0.09 1.12,0.17c0.46,0.09 1.05,0.23 4.44,1.09c0.04,0.01 0.08,0.02 0.12,0.03c3.01,0.81 5.71,2.55 8.01,5.18c3.32,3.77 4.01,7.53 4.01,10.02c0,1.56318 -12.0935,0.84005 -17.78931,4.25995c-5.30823,3.18719 -4.21022,10.53917 -5.12676,11.66796c1.08042,1.0249 8.06273,-5.55538 13.13062,-6.02187c6.79951,-0.62588 12.03321,4.73946 12.87545,6.42396c0.44,0.77 0.94,1.74 1.56,3.04c0.23,0.49 0.43,1 0.59,1.52c0.52,1.71 0.81,3.62 0.91,6.01v0.13c0.04,1.3 0.07,2.24 0.08,2.82c0.3,3.58 -0.56,7.93 -2.8,14.33z" fill="#ffaeae" stroke-width="1"></path><path d="M261.92684,192.66406c0,2.48607 -1.30599,4.83053 -2.34552,6.89359c-1.34423,2.66777 -2.95244,4.9239 -5.31814,6.3483c-1.88605,1.1356 -4.35174,1.72108 -6.83523,1.72108c-1.73909,0 -3.04741,-0.4927 -4.59251,-1.07207c-2.90973,-1.09107 -5.48314,-2.8913 -7.27739,-5.45319c-1.63994,-2.34157 -2.62898,-5.34852 -2.62898,-8.4377c0,-3.42182 2.1688,-8.04302 3.11073,-9.09612c0.88482,-0.98926 6.69634,-5.86685 11.38815,-5.86685c5.53135,0 10.06983,3.49112 12.5144,8.19193c1.09433,2.10435 1.98449,4.21563 1.98449,6.77104z" fill="#da9494" stroke-width="0"></path></g></g></svg>